<svg preserveAspectRatio="xMidYMid meet" width="114" height="15.9059" overflow="visible" style="display: block;" viewBox="0 0 114 15.9059" fill="none" xmlns="http://www.w3.org/2000/svg">
<g id="Vector">
<path d="M67.7774 7.5542H69.9315V9.71965L69.8928 9.73627C69.2171 9.99656 68.4918 10.124 67.7216 10.124C66.1881 10.124 64.9746 9.75288 64.1052 9.01629C63.2357 8.27969 62.793 7.31604 62.793 6.04225C62.793 4.76845 63.2412 3.81587 64.1279 3.09589C65.0084 2.38145 66.1826 2.01593 67.6113 2.01593C69.1895 2.01593 70.6685 2.38145 72.0027 3.10143V0.952583C70.7623 0.32122 69.2447 0 67.5003 0C65.3407 0 63.5736 0.54275 62.2559 1.61717C60.9376 2.68606 60.2674 4.17031 60.2674 6.03671C60.2674 7.90309 60.9099 9.42061 62.178 10.484C63.4466 11.5473 65.2021 12.0845 67.3954 12.0845C68.1649 12.0845 69.0234 11.9848 69.937 11.7965C70.8402 11.6082 71.6428 11.3202 72.3406 10.9381V5.53827H67.7719V7.54868L67.7774 7.5542Z" fill="var(--fill-0, white)"/>
<path d="M38.3961 13.818C37.3881 13.818 36.43 13.5743 35.0288 13.0869C34.4916 12.8986 33.9266 12.6937 33.3064 12.5829L33.0793 12.5442L33.2953 12.4721C33.2953 12.4721 35.2005 11.8186 36.2084 11.3424C36.7069 11.1042 37.1721 10.8051 37.5875 10.4507C38.8613 9.36518 39.5037 7.88095 39.5037 6.04779C39.5037 4.21462 38.8558 2.73036 37.5875 1.64486C36.3137 0.553827 34.619 0 32.5532 0C30.4874 0 28.7872 0.553827 27.5078 1.64486C26.2285 2.73591 25.5805 4.21462 25.5805 6.04225C25.5805 7.86985 26.2285 9.34862 27.5078 10.4396C28.1724 11.0101 28.9644 11.4365 29.8505 11.7079L30.0056 11.7522L26.6494 13.2365L27.3472 15.0918C27.6573 15.0032 28.8093 14.3829 30.864 14.3829C31.9772 14.3829 32.9298 14.5878 33.827 14.898C35.4442 15.4573 37.3549 15.9059 38.6453 15.9059C40.639 15.9059 42.3504 15.1139 43.7239 13.5521L41.6415 12.2949C40.7166 13.3528 39.7197 13.8235 38.4016 13.8235M29.3521 8.99415C28.5269 8.27417 28.1115 7.28281 28.1115 6.04779C28.1115 4.81275 28.5269 3.81587 29.3521 3.09589C30.1717 2.38145 31.2517 2.01593 32.5587 2.01593C33.8658 2.01593 34.9291 2.38145 35.7488 3.09589C36.574 3.81587 36.9893 4.80722 36.9893 6.04779C36.9893 7.28839 36.574 8.27969 35.7488 8.99415C34.9291 9.71413 33.8547 10.0741 32.5587 10.0741C31.2628 10.0741 30.1717 9.70855 29.3521 8.99415Z" fill="var(--fill-0, white)"/>
<path d="M13.5016 0.310175V11.7744H23.4705V9.76398H15.9163V7.55426H22.4791V5.54384H15.9163V2.32057H23.4705V0.310175H13.5016Z" fill="var(--fill-0, white)"/>
<path d="M7.80345 0.310175H0V11.7744H2.41469V7.51544H7.80345C9.79164 7.51544 11.4033 5.89829 11.4033 3.91005C11.4033 1.92181 9.78612 0.310175 7.80345 0.310175ZM7.7425 5.53276H2.42022V2.29288H7.7425C8.63416 2.29288 9.36518 3.01839 9.36518 3.91559C9.36518 4.81278 8.63968 5.5383 7.7425 5.5383" fill="var(--fill-0, white)"/>
<path d="M84.7138 0.310175V8.30189L76.6169 0.310175H74.4457V11.7744H76.8603V3.91559L84.9406 11.7744H87.1284V0.310175H84.7138Z" fill="var(--fill-0, white)"/>
<path d="M58.1732 0.310175H55.7585V11.7799H58.1732V0.310175Z" fill="var(--fill-0, white)"/>
<path d="M51.2399 6.47429C51.2399 7.65948 50.9187 8.56776 50.2762 9.16584C49.6393 9.76398 48.8585 10.0686 47.7397 10.0686C46.621 10.0686 45.7017 9.76398 45.0426 9.16584C44.3835 8.56218 44.0513 7.65948 44.0513 6.47429V0.310175H41.6366V6.72348C41.6366 8.44586 42.1904 9.78618 43.2814 10.7C44.378 11.6193 45.8511 12.0845 47.6622 12.0845C49.4732 12.0845 50.8965 11.6193 51.9987 10.6944C53.1008 9.77508 53.6546 8.44034 53.6546 6.72348V0.310175H51.2344V6.47429H51.2399Z" fill="var(--fill-0, white)"/>
<path d="M89.2443 0.310175V11.7744H99.2131V9.76398H91.6589V7.55426H98.2272V5.54384H91.6589V2.32057H99.2131V0.310175H89.2443Z" fill="var(--fill-0, white)"/>
<path d="M101.312 0.310175V2.32057H106.451V11.7744H108.861V2.32057H114V0.310175H101.312Z" fill="var(--fill-0, white)"/>
</g>
</svg>
