<svg preserveAspectRatio="xMidYMid meet" width="114" height="64.0527" overflow="visible" style="display: block;" viewBox="0 0 114 64.0527" fill="none" xmlns="http://www.w3.org/2000/svg">
<g id="Vector">
<path d="M33.269 63.916V60.344C33.1618 60.4404 33.0305 60.5061 32.889 60.534C32.6829 60.5773 32.4725 60.5965 32.262 60.591H32.205V60.306H32.224C32.5057 60.3253 32.7859 60.2519 33.022 60.097C33.1126 60.0117 33.1847 59.9086 33.2337 59.7942C33.2828 59.6798 33.3077 59.5565 33.307 59.432H33.668V63.916H33.269ZM36.936 60.61C36.9313 60.4986 36.9491 60.3873 36.9883 60.2828C37.0274 60.1784 37.0872 60.0829 37.164 60.002C37.2438 59.9237 37.3392 59.863 37.4439 59.8237C37.5486 59.7844 37.6604 59.7675 37.772 59.774C37.8835 59.7693 37.9947 59.7871 38.0992 59.8263C38.2036 59.8654 38.2991 59.9252 38.38 60.002C38.4583 60.0818 38.519 60.1772 38.5583 60.2819C38.5976 60.3866 38.6145 60.4984 38.608 60.61C38.6146 60.716 38.5976 60.8221 38.5582 60.9207C38.5187 61.0192 38.4579 61.1078 38.38 61.18C38.2113 61.3246 37.9939 61.3993 37.772 61.389C37.5506 61.396 37.3343 61.3216 37.164 61.18C37.0877 61.1067 37.0279 61.0179 36.9885 60.9196C36.9492 60.8213 36.9313 60.7158 36.936 60.61ZM36.784 62.7C36.7749 62.5693 36.7921 62.438 36.8345 62.314C36.8769 62.19 36.9437 62.0758 37.031 61.978C37.1277 61.8892 37.2418 61.8213 37.3661 61.7788C37.4904 61.7363 37.6221 61.72 37.753 61.731C37.88 61.7188 38.0082 61.7341 38.1288 61.776C38.2493 61.8179 38.3594 61.8854 38.4514 61.9739C38.5435 62.0623 38.6153 62.1696 38.662 62.2883C38.7087 62.4071 38.7292 62.5346 38.722 62.662C38.7306 62.9338 38.6355 63.1987 38.456 63.403C38.366 63.498 38.2567 63.5726 38.1354 63.6217C38.0141 63.6709 37.8837 63.6935 37.753 63.688C37.4932 63.6932 37.2413 63.5979 37.05 63.422C36.8737 63.2233 36.7788 62.9656 36.784 62.7ZM37.107 61.541C36.8774 61.6262 36.6814 61.7831 36.5479 61.9884C36.4145 62.1938 36.3507 62.4366 36.366 62.681C36.3583 62.8629 36.3881 63.0445 36.4535 63.2144C36.5188 63.3844 36.6184 63.5391 36.746 63.669C37.0297 63.9025 37.3856 64.0301 37.753 64.0301C38.1204 64.0301 38.4763 63.9025 38.76 63.669C38.8876 63.5391 38.9872 63.3844 39.0525 63.2144C39.1179 63.0445 39.1477 62.8629 39.14 62.681C39.1473 62.4331 39.0812 62.1885 38.95 61.978C38.8215 61.7738 38.6271 61.6196 38.399 61.541C38.5738 61.4439 38.7235 61.3073 38.836 61.142C38.9309 60.9744 38.977 60.7835 38.969 60.591C38.9744 60.4371 38.9486 60.2836 38.8931 60.1399C38.8376 59.9962 38.7535 59.8653 38.646 59.755C38.4022 59.5344 38.0815 59.4184 37.753 59.432C37.5899 59.4208 37.4262 59.4438 37.2724 59.4994C37.1187 59.555 36.9782 59.642 36.86 59.755C36.7492 59.8629 36.663 59.9935 36.6073 60.1378C36.5515 60.282 36.5276 60.4366 36.537 60.591C36.5352 60.7853 36.5878 60.9762 36.689 61.142C36.7888 61.3111 36.9335 61.4492 37.107 61.541ZM41.42 60.61C41.4153 60.4986 41.4331 60.3873 41.4723 60.2828C41.5114 60.1784 41.5712 60.0829 41.648 60.002C41.7278 59.9237 41.8232 59.863 41.9279 59.8237C42.0326 59.7844 42.1444 59.7675 42.256 59.774C42.3675 59.7693 42.4787 59.7871 42.5832 59.8263C42.6876 59.8654 42.7831 59.9252 42.864 60.002C42.9423 60.0818 43.003 60.1772 43.0423 60.2819C43.0816 60.3866 43.0985 60.4984 43.092 60.61C43.0986 60.716 43.0816 60.8221 43.0422 60.9207C43.0027 61.0192 42.9419 61.1078 42.864 61.18C42.6953 61.3246 42.4779 61.3993 42.256 61.389C42.0346 61.396 41.8183 61.3216 41.648 61.18C41.5717 61.1067 41.5119 61.0179 41.4725 60.9196C41.4332 60.8213 41.4153 60.7158 41.42 60.61ZM41.268 62.7C41.2586 62.4371 41.3465 62.18 41.515 61.978C41.6117 61.8892 41.7258 61.8213 41.8501 61.7788C41.9744 61.7363 42.1061 61.72 42.237 61.731C42.364 61.7188 42.4922 61.7341 42.6128 61.776C42.7333 61.8179 42.8434 61.8854 42.9354 61.9739C43.0275 62.0623 43.0993 62.1696 43.146 62.2883C43.1927 62.4071 43.2132 62.5346 43.206 62.662C43.2146 62.9338 43.1195 63.1987 42.94 63.403C42.85 63.498 42.7407 63.5726 42.6194 63.6217C42.4981 63.6709 42.3677 63.6935 42.237 63.688C41.9772 63.6932 41.7253 63.5979 41.534 63.422C41.3577 63.2233 41.2628 62.9656 41.268 62.7ZM41.591 61.541C41.4017 61.6339 41.2373 61.7704 41.1111 61.9393C40.985 62.1082 40.9009 62.3047 40.8656 62.5126C40.8303 62.7204 40.845 62.9337 40.9084 63.1347C40.9717 63.3358 41.082 63.5189 41.23 63.669C41.5137 63.9025 41.8696 64.0301 42.237 64.0301C42.6044 64.0301 42.9603 63.9025 43.244 63.669C43.3716 63.5391 43.4712 63.3844 43.5365 63.2144C43.6019 63.0445 43.6317 62.8629 43.624 62.681C43.6313 62.4331 43.5652 62.1885 43.434 61.978C43.3055 61.7738 43.1111 61.6196 42.883 61.541C43.0578 61.4439 43.2075 61.3073 43.32 61.142C43.4212 60.9762 43.4738 60.7853 43.472 60.591C43.4774 60.4371 43.4516 60.2836 43.3961 60.1399C43.3406 59.9962 43.2565 59.8653 43.149 59.755C42.9052 59.5344 42.5845 59.4184 42.256 59.432C42.0929 59.4208 41.9292 59.4438 41.7754 59.4994C41.6217 59.555 41.4812 59.642 41.363 59.755C41.2522 59.8629 41.166 59.9935 41.1103 60.1378C41.0545 60.282 41.0306 60.4366 41.04 60.591C41.0382 60.7853 41.0908 60.9762 41.192 61.142C41.2784 61.3146 41.4184 61.4546 41.591 61.541ZM45.296 62.643C45.2818 62.8313 45.3084 63.0204 45.374 63.1974C45.4397 63.3745 45.5428 63.5352 45.6763 63.6687C45.8098 63.8022 45.9705 63.9053 46.1476 63.971C46.3246 64.0366 46.5137 64.0632 46.702 64.049C46.8855 64.0597 47.0693 64.0332 47.2423 63.9712C47.4153 63.9091 47.5741 63.8128 47.709 63.688C47.8366 63.5581 47.9362 63.4034 48.0015 63.2334C48.0669 63.0635 48.0967 62.8819 48.089 62.7C48.1013 62.4455 48.035 62.1935 47.899 61.978C47.7711 61.7894 47.5838 61.649 47.367 61.579C47.5498 61.4935 47.7022 61.3543 47.804 61.18C47.9053 61.0003 47.9577 60.7972 47.956 60.591C47.9628 60.434 47.9377 60.2773 47.8822 60.1304C47.8267 59.9834 47.7419 59.8492 47.633 59.736C47.3948 59.5187 47.0813 59.4028 46.759 59.413C46.5871 59.404 46.4153 59.4315 46.2548 59.4937C46.0943 59.5559 45.9489 59.6515 45.828 59.774C45.5884 60.0466 45.4596 60.3991 45.467 60.762H45.847C45.8436 60.4942 45.9306 60.2332 46.094 60.021C46.1777 59.9359 46.2787 59.8698 46.3901 59.8272C46.5016 59.7846 46.6209 59.7665 46.74 59.774C46.8487 59.7689 46.9572 59.7865 47.0586 59.8257C47.1601 59.8649 47.2522 59.9249 47.3292 60.0018C47.4061 60.0788 47.4661 60.1709 47.5053 60.2724C47.5445 60.3738 47.5621 60.4823 47.557 60.591C47.5664 60.7103 47.5491 60.8301 47.5063 60.9419C47.4636 61.0536 47.3965 61.1544 47.31 61.237C47.0971 61.3954 46.8333 61.4698 46.569 61.446H46.417V61.788H46.607C46.8974 61.7681 47.1859 61.8486 47.424 62.016C47.5171 62.1066 47.5892 62.2165 47.6351 62.3379C47.6811 62.4594 47.6998 62.5895 47.69 62.719C47.7075 62.8537 47.6942 62.9907 47.651 63.1195C47.6079 63.2484 47.536 63.3657 47.4408 63.4627C47.3457 63.5597 47.2297 63.6338 47.1017 63.6794C46.9737 63.725 46.837 63.741 46.702 63.726C46.5755 63.734 46.4488 63.7144 46.3307 63.6685C46.2125 63.6225 46.1058 63.5514 46.018 63.46C45.8385 63.2418 45.7501 62.9628 45.771 62.681L45.296 62.643ZM56.62 63.916V61.541H54.777V61.921H56.24V61.94C56.24 62.472 56.107 62.909 55.841 63.194C55.6966 63.3496 55.5194 63.4713 55.3222 63.5501C55.1251 63.629 54.9129 63.6631 54.701 63.65C54.4833 63.657 54.2673 63.6104 54.0718 63.5143C53.8763 63.4182 53.7075 63.2756 53.58 63.099C53.295 62.738 53.162 62.225 53.162 61.598C53.162 60.971 53.295 60.439 53.58 60.078C53.7188 59.9008 53.8985 59.7599 54.1036 59.6673C54.3088 59.5746 54.5333 59.533 54.758 59.546C55.0917 59.5324 55.4201 59.6329 55.689 59.831C55.9381 60.0313 56.1067 60.3146 56.164 60.629H56.582C56.5428 60.2068 56.3379 59.8173 56.012 59.546C55.6482 59.2828 55.2067 59.1491 54.758 59.166C54.4808 59.1536 54.2046 59.2055 53.9508 59.3175C53.697 59.4296 53.4725 59.5988 53.295 59.812C52.934 60.249 52.763 60.838 52.763 61.579C52.763 62.32 52.934 62.928 53.295 63.365C53.4686 63.5778 53.6897 63.7471 53.9404 63.8592C54.1911 63.9714 54.4646 64.0234 54.739 64.011C55.0666 64.0196 55.3897 63.9338 55.67 63.764C55.934 63.5989 56.145 63.3615 56.278 63.08L56.316 63.897H56.62V63.916ZM61.693 63.916V63.536H59.147V61.731H61.408V61.37H59.147V59.679H61.617V59.299H58.729V63.916H61.693ZM64.049 63.916V59.964L66.519 63.916H66.975V59.299H66.576V63.251L64.087 59.299H63.65V63.916H64.049ZM72.143 63.916V63.536H69.597V61.731H71.858V61.37H69.597V59.679H72.067V59.299H69.179V63.916H72.143ZM75.601 63.916L77.121 59.299H76.703L75.373 63.384L74.043 59.299H73.625L75.164 63.916H75.601ZM81.776 63.916V63.536H79.23V61.731H81.491V61.37H79.23V59.679H81.7V59.299H78.812V63.916H81.776ZM51.604 34.409C53.257 34.409 54.169 34.637 54.549 35.169C55.043 35.834 54.739 37.164 54.245 39.121L53.694 41.249C52.744 44.935 52.269 46.094 48.45 46.094C46.797 46.094 45.885 45.866 45.505 45.353C45.011 44.688 45.315 43.358 45.809 41.401L46.36 39.273C47.31 35.568 47.785 34.409 51.604 34.409ZM42.541 54.055L44.365 46.949C44.992 47.861 46.284 48.279 48.412 48.298C48.697 48.317 48.963 48.317 49.229 48.317C55.024 48.317 56.012 45.619 57.152 41.23L57.608 39.482C58.311 36.765 58.843 34.789 57.931 33.554C57.228 32.585 55.746 32.167 53.105 32.167H52.44C50.122 32.186 48.336 32.737 47.196 33.744L47.272 32.452H44.118L44.004 34.922L39.083 54.055H42.541ZM36.822 48.032V46.132H34.01C33.9317 46.1311 33.8548 46.1117 33.7854 46.0754C33.7161 46.0391 33.6563 45.9869 33.611 45.923C33.5639 45.858 33.5312 45.7837 33.5148 45.7052C33.4984 45.6266 33.4988 45.5454 33.516 45.467L38.418 26.41H34.941L29.982 45.695C29.9167 45.9674 29.91 46.2505 29.9624 46.5257C30.0148 46.8008 30.1251 47.0617 30.286 47.291C30.4438 47.5123 30.6517 47.6931 30.8928 47.8186C31.1339 47.9441 31.4012 48.0107 31.673 48.013H36.822V48.032ZM13.528 38.532L22.344 29.963L20.121 38.532H13.528ZM24.928 48.032V46.132H22.306C22.2277 46.1311 22.1508 46.1117 22.0814 46.0754C22.0121 46.0391 21.9523 45.9869 21.907 45.923C21.86 45.858 21.8272 45.7837 21.8108 45.7052C21.7944 45.6266 21.7948 45.5454 21.812 45.467L26.714 26.41H22.268L0 48.032H3.895L10.868 41.249H19.285L18.107 45.714C18.0324 45.9856 18.0209 46.2706 18.0736 46.5473C18.1263 46.824 18.2417 47.0849 18.411 47.31C18.5688 47.5313 18.7767 47.7121 19.0178 47.8376C19.2589 47.9631 19.5262 48.0297 19.798 48.032H24.928ZM69.825 30.02L70.718 26.543H67.146L66.253 30.02H69.825ZM69.103 48.032V46.132H66.291C66.2127 46.1311 66.1357 46.1117 66.0664 46.0754C65.997 46.0391 65.9373 45.9869 65.892 45.923C65.8449 45.858 65.8122 45.7837 65.7958 45.7052C65.7794 45.6266 65.7798 45.5454 65.797 45.467L69.16 32.433H65.683L62.263 45.714C62.1925 45.986 62.1832 46.2702 62.2358 46.5461C62.2884 46.8221 62.4015 47.083 62.567 47.31C62.7248 47.5313 62.9327 47.7121 63.1738 47.8376C63.4149 47.9631 63.6822 48.0297 63.954 48.032H69.103ZM91.618 48.051V46.151H88.787C88.7087 46.1501 88.6318 46.1307 88.5624 46.0944C88.493 46.0581 88.4333 46.0059 88.388 45.942C88.3409 45.877 88.3082 45.8027 88.2918 45.7241C88.2754 45.6456 88.2758 45.5644 88.293 45.486L89.623 40.318L90.041 38.722C90.573 36.651 90.934 34.846 90.06 33.63C89.338 32.642 87.856 32.167 85.386 32.167C82.593 32.167 80.731 32.661 79.553 33.725L79.61 32.452H76.513L76.399 34.922L73.017 48.051H76.494L78.641 39.729C79.724 35.606 80.218 34.428 83.999 34.428C85.595 34.428 86.469 34.637 86.83 35.131C87.286 35.739 87.02 36.955 86.602 38.57L84.759 45.733C84.6885 46.005 84.6792 46.2892 84.7318 46.5651C84.7844 46.8411 84.8975 47.102 85.063 47.329C85.2208 47.5503 85.4287 47.7311 85.6698 47.8566C85.9109 47.9821 86.1782 48.0487 86.45 48.051H91.618ZM107.825 40.242L107.407 41.838C106.571 44.973 105.944 46.075 102.315 46.075C100.624 46.075 99.655 45.828 99.275 45.315C98.99 44.935 98.99 44.327 99.237 43.32C99.997 40.337 101.308 40.223 104.443 40.223H107.825V40.242ZM101.403 48.317C104.253 48.317 105.849 47.5 106.742 46.683C106.819 46.9772 106.962 47.25 107.16 47.481C107.321 47.6592 107.517 47.8019 107.736 47.9001C107.956 47.9982 108.193 48.0496 108.433 48.051H114V46.151H110.428C110.359 46.1509 110.291 46.1356 110.228 46.106C110.166 46.0764 110.111 46.0334 110.067 45.98C109.964 45.8658 109.909 45.7158 109.915 45.562L111.587 39.102C112.157 36.879 112.518 35.074 111.606 33.82C110.77 32.699 108.965 32.167 105.887 32.167C102.904 32.205 101.175 32.642 99.275 33.839L99.009 34.01L100.301 35.644L100.491 35.511C101.764 34.694 103.037 34.409 105.488 34.39C107.122 34.39 108.053 34.637 108.433 35.131C108.87 35.72 108.661 36.803 108.338 38.19H103.987C99.959 38.19 97.014 38.551 95.817 43.168C95.342 45.011 95.38 46.113 95.95 46.892C96.672 47.861 98.192 48.279 101.061 48.279L101.403 48.317Z" fill="white"/>
<path d="M57.0006 20.596C53.5426 20.596 50.7496 17.67 50.7496 14.041C50.7496 10.412 53.5426 7.486 57.0006 7.486C60.4586 7.486 63.2516 10.412 63.2516 14.041C63.2516 17.67 60.4396 20.596 57.0006 20.596ZM57.0006 0L45.3536 21.128H68.6476L57.0006 0Z" fill="var(--fill-0, white)"/>
</g>
</svg>
