<svg preserveAspectRatio="xMidYMid meet" width="114" height="11" overflow="visible" style="display: block;" viewBox="0 0 114 11" fill="none" xmlns="http://www.w3.org/2000/svg">
<path id="path4191" fill-rule="evenodd" clip-rule="evenodd" d="M58.529 0.000271107C56.3256 -0.0141453 54.5421 0.546577 53.1032 1.63881C51.6493 2.7318 50.9303 4.05963 50.9303 5.71411C50.9303 7.07228 51.6493 8.31285 52.8174 9.28748C54.2266 10.4685 56.1747 11 58.5729 11C59.5242 10.9936 60.471 10.8696 61.3909 10.6309C62.5463 10.3357 64.0738 9.65624 64.5383 8.6524L64.5082 7.16144C64.4786 6.12801 64.5537 6.08324 65.6328 6.06883V5.71411H61.5716V6.07034C61.9914 6.07034 62.276 6.05555 62.5305 6.21792C62.7709 6.39509 62.7104 7.19217 62.7104 7.5025L62.6958 8.40315C62.3491 9.05265 61.5562 9.40699 60.9873 9.62854C60.4624 9.83531 59.503 10.0565 58.6041 10.0713C57.1048 10.0861 55.9359 9.67255 54.9615 9.06744C53.9725 8.43236 53.0131 7.11857 53.0131 5.47965C53.0131 3.89991 54.0325 2.60054 55.2318 1.78829C56.011 1.25716 57.3297 0.799244 58.6337 0.81442C59.758 0.829215 60.8074 1.0944 61.5716 1.5231C62.4412 1.99543 63.3705 2.95526 63.7148 3.66356L64.0615 3.53078L63.5069 1.21277C62.8155 0.796968 61.9609 0.50219 61.1518 0.310604C60.2912 0.115423 59.412 0.0113878 58.529 0.000271107ZM5.83903 0.24535C4.30658 0.251041 2.78029 0.273045 0.0150202 0.262043L0 0.603485C0.374736 0.603485 0.509919 0.588689 0.734453 0.765859C0.944351 0.941512 0.974392 1.13272 0.974392 1.78335V8.73662C0.974392 9.32732 1.01907 9.93243 0.88427 10.0948C0.689392 10.3164 0.554595 10.3604 0.0754865 10.346V10.6988H5.77048C7.32951 10.6988 9.89143 10.6544 10.9413 9.84251C11.3461 9.62133 12.0801 8.94225 12.0651 7.79045C12.0651 6.38675 11.4508 5.95956 10.8962 5.64923C10.4017 5.38367 9.6226 5.17728 8.70829 5.02971C9.44236 4.77856 9.6072 4.70458 10.0721 4.35024C10.5515 4.0088 10.8666 3.3316 10.8666 2.65251C10.8666 0.880432 8.9178 0.319709 7.41924 0.246109C6.8608 0.242315 6.34972 0.242315 5.84019 0.243833L5.83903 0.24535ZM113.97 0.262043L110.253 0.276459V0.586792C110.867 0.616004 111.048 0.631179 111.167 1.05912C111.227 1.22187 111.212 1.59025 111.212 2.10734V8.85461C111.212 10.08 111.318 10.3607 110.327 10.3607V10.7022H114L113.985 10.3607C112.981 10.3607 113.026 9.97643 113.026 8.85461V2.10734C113.026 0.896365 112.996 0.586792 113.97 0.586792V0.262043ZM16.6667 0.276839V0.660392C17.0264 0.660392 17.1766 0.675567 17.3862 0.793554C17.6261 0.941512 17.9253 1.62022 18.2858 2.31411L22.7823 10.6988H24.2959C25.2252 8.88268 26.7222 5.92997 27.8776 3.70036C28.6571 2.22419 29.2256 1.0447 29.4517 0.762824C29.5865 0.60007 29.9612 0.658874 30.2008 0.658874V0.276839L27.0534 0.291635V0.660392C27.0835 0.660392 27.9677 0.542784 27.8776 1.10351C27.8029 1.54624 24.2959 8.01315 23.861 9.04695L20.3686 2.56564C20.1141 2.09255 19.9042 1.73821 19.7994 1.45823C19.5144 0.793554 19.9496 0.66153 20.5493 0.66153V0.276839H16.6667ZM96.6666 0.286703C96.4425 0.286703 96.2045 0.286703 95.951 0.286703C95.6137 0.286703 95.2497 0.291255 94.8599 0.291255H90.0642V0.616004C90.7236 0.616004 90.9936 0.80797 90.9936 1.56066V9.78485C90.9936 10.3456 90.5738 10.3308 90.0642 10.316V10.6988H93.8112V10.316C93.195 10.316 92.8368 10.2576 92.8214 9.5337V6.463C93.2262 6.49221 93.5863 6.463 94.2156 6.463C94.4405 6.463 95.6406 6.4778 95.9992 6.463C97.3629 6.463 97.9926 8.0564 98.7275 9.17936C99.3437 10.1244 99.0718 10.7003 102.999 10.7003C102.999 10.6115 102.969 10.4195 102.969 10.3308C101.291 10.3456 100.975 9.35615 100.256 8.08674C99.5817 6.93533 99.4011 6.18226 97.663 5.99029C100.301 5.50317 100.991 4.32102 100.991 2.9784C100.975 1.6206 99.9564 0.777999 98.2923 0.409242C97.8794 0.317812 97.3383 0.292014 96.6666 0.286703ZM36.3313 0.291255V0.616004C36.8559 0.616004 37.0057 0.660391 37.1559 0.867533C37.3053 1.05722 37.3053 1.38387 37.3053 1.96015V9.54774C37.3053 10.2272 37.0358 10.3444 36.3914 10.3596V10.701H45.8188L46.9129 8.54542L46.5682 8.41225C46.2085 8.98815 45.3843 9.55039 44.0803 9.55039H39.1189V1.50186C39.1189 1.01473 39.2091 0.867533 39.3288 0.749166C39.5087 0.601588 39.5984 0.631179 40.0633 0.616004V0.291255H36.3313ZM76.2749 0.291255L71.9132 8.47068C71.5238 9.20895 71.374 9.45972 71.1942 9.7985C70.9839 10.1528 70.8637 10.3892 70.1443 10.4055V10.6988H73.3971L73.4122 10.3596C72.8271 10.374 72.5733 10.3296 72.5579 9.81292C72.5579 9.65017 72.7077 9.38498 72.9327 8.98663L73.5489 7.92437H79.8439L80.5918 9.18125C81.0864 9.99351 80.9508 10.289 80.0669 10.3334V10.6988H83.9637V10.3016C83.0344 10.3016 83.0779 10.0512 82.2549 8.55983L77.654 0.291635L76.2749 0.291255ZM94.7818 1.04243C95.9337 1.0356 97.1014 1.0925 97.8413 1.44267C98.4706 1.73821 98.9967 2.07775 98.9967 3.11194C98.9967 4.57331 98.0824 4.95724 97.3926 5.20839C96.179 5.51835 94.1852 5.41478 92.8214 5.42957V1.07354C93.4061 1.07354 94.092 1.0466 94.7818 1.04243ZM5.97653 1.12779C6.89469 1.12779 7.79398 1.16269 8.28734 1.47226C8.93167 1.88617 9.08149 2.18132 9.08149 2.80009C9.08149 3.18364 8.76722 3.8487 8.43754 4.09947C7.65803 4.71975 6.26422 4.74896 5.22975 4.74896H2.75795V1.1331H5.06568C5.36185 1.1331 5.67034 1.12855 5.97653 1.12779ZM76.6346 1.85657L79.2878 6.75816H74.1166L76.6346 1.85657ZM5.89642 5.67655C7.42001 5.67237 8.50186 5.73004 9.2625 6.28583C9.66728 6.58099 10.057 7.0977 10.057 7.71799C10.057 9.43051 7.8841 9.54887 5.74044 9.54887H2.75795V5.6792C3.56674 5.6792 4.40672 5.694 5.21627 5.6792C5.45236 5.6792 5.67843 5.67579 5.89642 5.67541V5.67655Z" fill="var(--fill-0, white)"/>
</svg>
