<svg preserveAspectRatio="xMidYMid meet" width="114" height="20.8067" overflow="visible" style="display: block;" viewBox="0 0 114 20.8067" fill="none" xmlns="http://www.w3.org/2000/svg">
<g id="Vector">
<path d="M27.2782 18.7218C25.9776 18.7218 25.3961 18.4196 25.3961 16.8741V4.03586C25.3961 2.50568 25.8858 2.30675 27.1826 2.30675H28.0012V0.72301H19.5087V2.29528H20.423C21.6357 2.29528 22.2018 2.71225 22.2018 4.02439V16.8741C22.2018 18.1824 21.4941 18.7218 20.2891 18.7218H19.4743V20.3056H28.0586V18.7218H27.2782Z" fill="var(--fill-0, white)"/>
<path d="M56.0227 18.7218C54.7258 18.7218 54.1405 18.4196 54.1405 16.8741V4.03586C54.1405 2.50568 54.6302 2.30675 55.9309 2.30675H56.7572V0.72301H48.2761V2.29528H49.1789C50.3954 2.29528 50.9501 2.71225 50.9501 4.02439V16.8741C50.9501 18.1824 50.2462 18.7218 49.0374 18.7218H48.2072V20.3056H56.8069V18.7218H56.0227Z" fill="var(--fill-0, white)"/>
<path d="M29.8568 0.72301V5.88356H31.3258V4.80861C31.3258 3.50795 31.7964 2.30675 33.5561 2.30675H36.5476V16.8741C36.5476 18.1824 35.7825 18.7218 34.5545 18.7218H33.6632V20.3056H42.6071V18.7218H41.7234C40.5184 18.7218 39.738 18.1824 39.738 16.8741V2.29528H42.7219C44.4816 2.29528 44.9521 3.49647 44.9521 4.79713V5.87209H46.4211V0.72301H29.8568Z" fill="var(--fill-0, white)"/>
<path d="M72.8762 14.992V15.3363C72.8762 16.9621 72.4248 18.7218 68.9513 18.7218H62.9262L74.1348 2.29528V0.72301H59.3302V6.0251H60.826V5.37478C60.826 3.70305 61.5911 2.3144 63.8672 2.3144H70.1563L58.9821 18.7218V20.3056H74.3452V14.992H72.8762Z" fill="var(--fill-0, white)"/>
<path d="M91.0117 14.9652V15.4893C91.0117 17.2337 90.1547 18.7218 87.9895 18.7218H82.1748V11.0709H85.6904C87.102 11.0709 87.4234 12.2606 87.4234 13.1022V13.917H88.9536V6.55684H87.4234V7.211C87.4234 8.04878 87.102 9.23849 85.6904 9.23849H82.1901V2.29528H87.7447C90.5182 2.29528 90.587 4.61733 90.587 5.47806V5.89886H92.0637V0.72301H76.4711V2.29528H76.8192C78.1657 2.29528 78.862 2.45977 78.862 3.67627V17.1037C78.862 18.5152 77.9286 18.7218 77.064 18.7218H76.5629V20.3056H92.4156V14.9499L91.0117 14.9652Z" fill="var(--fill-0, white)"/>
<path d="M107.026 0.72301V2.29528H107.466C108.996 2.29528 109.566 2.82319 109.566 4.15063V15.0149L99.7693 0.72301H94.6278V2.29528H95.1099C96.0586 2.29528 96.8045 2.67782 96.8045 4.20801V17.0157C96.8234 17.2396 96.7941 17.4649 96.7187 17.6766C96.6433 17.8882 96.5235 18.0813 96.3673 18.2429C96.2112 18.4045 96.0223 18.5308 95.8133 18.6134C95.6044 18.696 95.3802 18.733 95.1558 18.7218H94.4901V20.3056H101.162V18.7218H100.531C99.8152 18.7218 98.744 18.5382 98.744 17.0157V5.04578L109.218 20.3056H111.513V4.1621C111.513 2.83467 112.06 2.30675 113.602 2.30675H114V0.72301H107.026Z" fill="var(--fill-0, white)"/>
<path d="M10.8911 19.2574C6.99295 19.2574 3.9058 15.5467 3.9058 10.52C3.9058 5.07257 6.12074 1.54931 10.5124 1.54931C14.1466 1.54931 15.5888 3.41231 16.1511 5.75732H17.5359C17.3676 4.37633 17.1228 1.97011 17.1534 1.43455C15.9254 1.14764 13.6684 0 10.2867 0C4.3113 0 0 4.08942 0 10.52C0 16.8053 4.9731 20.8067 10.2331 20.8067C12.6585 20.8067 15.0685 20.2405 17.119 18.7218C17.2108 18.2207 17.5512 16.7479 17.884 15.5658H16.3539C15.2254 18.2436 13.1328 19.2574 10.8758 19.2574" fill="var(--fill-0, white)"/>
</g>
</svg>
