<svg preserveAspectRatio="xMidYMid meet" width="114" height="60.6854" overflow="visible" style="display: block;" viewBox="0 0 114 60.6854" fill="none" xmlns="http://www.w3.org/2000/svg">
<g id="Vector">
<path d="M12.7787 41.9272V48.7229H3.57656V41.9219H0V60.183H3.57656V52.4592H12.7787V60.183H16.3367V41.9377L12.7787 41.9272Z" fill="var(--fill-0, white)"/>
<path d="M34.8181 41.9271V51.4464C34.8181 54.215 34.5296 57.1527 29.9867 57.1527C25.4439 57.1527 25.1183 54.2784 25.1183 51.4464V41.9271H21.5576V51.6818C21.5576 56.0342 22.7754 60.6854 29.9867 60.6854C37.1981 60.6854 38.4106 55.9681 38.4106 51.6818V41.9271H34.8181Z" fill="var(--fill-0, white)"/>
<path d="M64.5792 41.9272V60.1724H76.9132V56.4705H68.1558V41.9272H64.5792Z" fill="var(--fill-0, white)"/>
<path d="M87.8176 41.4036C82.327 41.4036 78.0224 45.6344 78.0224 50.9996C78.0224 56.3647 82.3323 60.5982 87.8176 60.5982C93.3028 60.5982 97.6127 56.3859 97.6127 51.0075C97.6127 45.6291 93.3081 41.4115 87.8176 41.4115M87.8176 57.0813C84.3389 57.0813 81.6122 54.4133 81.6122 50.9996C81.6122 47.5858 84.3389 44.9178 87.8176 44.9178C91.2962 44.9178 94.0203 47.5885 94.0203 50.9996C94.0203 54.4106 91.2962 57.0813 87.8176 57.0813Z" fill="var(--fill-0, white)"/>
<path d="M99.069 41.9271V45.6291H104.814V60.1724H108.398V45.6291H114V41.9271H99.069Z" fill="var(--fill-0, white)"/>
<path d="M57.1243 50.6082C57.679 50.1795 58.1251 49.6266 58.4267 48.9942C58.7283 48.3618 58.8771 47.6674 58.861 46.9671C58.861 45.4519 58.2468 41.9272 52.5682 41.9272H43.1755V60.1724H53.1639C57.1852 60.1724 59.4937 58.1443 59.4937 54.6195C59.4937 52.9008 58.673 51.5231 57.1243 50.6003M52.3909 45.2615C54.3843 45.2615 54.9985 45.9834 54.9985 47.1839C54.9985 48.3844 54.469 49.2438 52.465 49.2438H46.7308V45.2615H52.3909ZM52.9468 56.8486H46.7335V52.2635H52.968C54.8211 52.2635 55.6153 52.9827 55.6153 54.6222C55.6153 55.8465 55.1123 56.8486 52.9494 56.8486" fill="var(--fill-0, white)"/>
<path d="M72.831 0H69.4212C69.4212 6.18489 67.8513 8.99043 64.6057 10.9313V0H59.3533V13.2212C58.3738 13.5623 57.3202 13.9167 56.1924 14.3054C55.5597 14.5195 54.9455 14.7364 54.3525 14.9479V0H49.0975V17.1374C43.8029 19.8266 40.9093 23.5496 40.9093 31.9451H44.3217C44.3217 26.2071 45.7275 23.3646 49.087 21.2465V31.9478H54.3419V18.835C55.2341 18.5044 56.1818 18.1686 57.2116 17.8169L59.3295 17.0845V31.9531H64.5951V15.014C69.5959 12.5972 72.8204 8.97986 72.8204 0" fill="var(--fill-0, white)"/>
</g>
</svg>
