<svg preserveAspectRatio="xMidYMid meet" width="94.133" height="113.858" overflow="visible" style="display: block;" viewBox="0 0 94.133 113.858" fill="none" xmlns="http://www.w3.org/2000/svg">
<path id="Vector" d="M69.5171 0.000294674C77.5983 0.000294674 85.6806 -0.000884022 93.7617 0.00147337C93.7664 1.82138 93.7523 3.64247 93.77 5.46355C91.7167 5.55313 89.6174 5.78298 87.7268 6.64225C85.8091 7.50387 84.2013 9.07154 83.3739 11.0129C73.5471 34.1129 63.7274 57.2154 53.9112 80.3202C53.7415 80.6997 53.6047 81.0922 53.4067 81.4588C49.8918 81.4176 46.3758 81.4529 42.8609 81.4399C41.3098 78.3577 39.7834 75.2624 38.2192 72.1872C36.4264 76.9915 34.623 81.7912 32.8302 86.5944C44.4251 86.5956 56.0199 86.5944 67.6147 86.5956C69.7376 86.6239 71.924 86.5355 73.9101 85.7056C77.2105 84.3796 79.8378 81.8171 81.976 79.0389C84.5573 75.6726 86.5163 71.8831 88.2619 68.0323C90.2198 68.0158 92.1764 68.0382 94.133 68.0346C90.4225 75.9602 86.6931 83.8787 82.9496 91.7889C56.2309 91.7901 29.5134 91.7889 2.79469 91.7889C3.44533 90.0904 4.06414 88.3778 4.76193 86.6969C4.80437 86.5237 5.02007 86.5673 5.1509 86.5508C8.48661 86.526 11.8447 86.3964 15.118 85.7021C16.8212 85.3025 18.5833 84.7698 19.894 83.5533C20.5871 82.8921 20.8028 81.9267 21.0327 81.0357C24.188 72.5915 27.3481 64.1485 30.5058 55.7055C23.8321 41.4857 17.1359 27.2741 10.4586 13.0555C9.92109 11.812 9.21151 10.5803 8.09528 9.77051C5.78504 8.04018 2.7829 7.82094 0.0011787 7.71015C-0.0011787 5.67218 0.0011787 3.63539 0 1.59743C9.38124 1.59389 18.7613 1.59507 28.1425 1.59625C28.1437 3.63422 28.1449 5.67218 28.1414 7.71015C26.9191 7.78794 25.6213 7.7679 24.5145 8.37257C23.9652 8.63189 23.6423 9.28488 23.7837 9.87895C23.957 10.8514 24.7255 11.5456 25.1145 12.4238C29.0761 20.9563 33.0377 29.4901 37.0111 38.0191C39.0019 32.4522 40.9927 26.8864 42.9918 21.3229C43.2853 20.5497 43.389 19.6562 43.0542 18.8783C42.7914 18.2642 42.195 17.8847 41.6068 17.6289C40.4635 17.1574 39.207 17.1621 37.9953 17.0749C38.6141 15.3552 39.2364 13.6355 39.8776 11.9252C40.0262 11.8297 40.2324 11.9028 40.4033 11.8792C49.9213 11.8851 59.4405 11.8792 68.9596 11.8827C68.3019 13.6107 67.6477 15.3387 66.9971 17.069C64.7045 17.1751 62.3412 17.2328 60.1913 18.1286C59.2059 18.5412 58.2736 19.1718 57.6913 20.0841C57.287 20.7524 57.0359 21.4985 56.7648 22.227C52.7879 33.0733 48.7744 43.9056 44.8423 54.7684C47.0205 59.6918 49.2907 64.5728 51.5126 69.4762C59.5807 50.4237 67.6465 31.3689 75.7242 12.32C76.2687 11.1743 77.1551 10.1288 77.2246 8.81105C77.2918 7.77969 76.5268 6.88977 75.6405 6.46662C73.7298 5.58496 71.5822 5.54135 69.5171 5.46709C69.5148 3.64482 69.5148 1.82256 69.5171 0.000294674ZM84.1884 102.587C86.7355 105.225 89.2627 107.88 91.7851 110.541C91.7815 108.068 91.7957 105.594 91.7933 103.121C92.2294 103.122 92.6656 103.117 93.1028 103.111C93.104 106.642 93.104 110.173 93.1028 113.703C90.5533 111.078 88.0415 108.418 85.505 105.78C85.5085 108.268 85.4991 110.758 85.4979 113.247C85.0606 113.25 84.6245 113.249 84.1884 113.249C84.1872 109.694 84.186 106.141 84.1884 102.587ZM10.0378 102.95C12.8443 102.519 15.8134 104.716 16.0633 107.578C16.299 109.215 15.6637 110.921 14.465 112.05C12.4942 113.978 8.94984 113.942 7.03682 111.946C6.0031 110.944 5.41375 109.5 5.47622 108.058C5.50451 105.55 7.57784 103.309 10.0378 102.95ZM10.039 104.247C8.40528 104.513 7.07571 105.947 6.84705 107.573C6.53587 109.42 7.67567 111.407 9.45904 112.011C11.0196 112.6 12.9185 112.045 13.9204 110.713C15.2158 109.087 14.9966 106.465 13.403 105.115C12.5071 104.301 11.2118 104.032 10.039 104.247ZM30.3043 103.496C31.7423 102.416 34.0914 102.863 34.9212 104.494C34.5747 104.69 34.2282 104.887 33.8816 105.082C33.2581 104.107 31.7387 103.869 30.9007 104.697C30.5459 104.956 30.5848 105.431 30.6225 105.821C30.7239 106.33 31.2661 106.546 31.6657 106.785C32.6958 107.328 33.9335 107.64 34.6572 108.623C35.4646 109.72 35.3314 111.354 34.4509 112.37C33.5304 113.484 31.8472 113.755 30.5601 113.172C29.5723 112.684 28.9617 111.652 28.7637 110.595C29.2057 110.49 29.6501 110.393 30.0933 110.294C30.1381 111.259 30.8866 112.233 31.9049 112.251C33.2793 112.401 34.372 110.614 33.5716 109.474C32.7171 108.311 31.0693 108.294 30.0862 107.289C28.9287 106.342 29.0454 104.302 30.3043 103.496ZM77.2246 102.943C79.0634 102.713 80.9635 103.562 82.0926 105.016C83.7204 107.053 83.4599 110.303 81.528 112.054C80.4248 113.144 78.8029 113.593 77.28 113.432C75.7748 113.333 74.3663 112.489 73.4976 111.268C72.5617 109.965 72.3189 108.225 72.7621 106.693C73.3408 104.71 75.1867 103.202 77.2246 102.943ZM76.9995 104.264C74.9721 104.609 73.5224 106.769 73.8783 108.777C74.1034 110.709 75.9363 112.282 77.8753 112.245C79.1978 112.267 80.459 111.518 81.1721 110.422C82.2553 108.852 81.9701 106.532 80.5745 105.24C79.661 104.315 78.2501 104.002 76.9995 104.264ZM1.05375 103.114C1.47219 103.111 1.89063 103.111 2.30907 103.114C2.31024 106.107 2.30789 109.1 2.31024 112.093C3.34985 112.095 4.38829 112.093 5.4279 112.094C5.43025 112.479 5.43025 112.863 5.42907 113.248C3.96985 113.249 2.5118 113.251 1.05375 113.248C1.05493 109.87 1.05493 106.492 1.05375 103.114ZM17.0781 103.122C17.5213 103.119 17.9645 103.12 18.4089 103.121C18.4124 105.115 18.403 107.111 18.4136 109.105C18.4336 109.982 18.5421 110.946 19.1621 111.622C20.1486 112.589 22.0864 112.451 22.7748 111.197C23.1225 110.608 23.2238 109.91 23.2144 109.236C23.2062 107.198 23.2062 105.16 23.2073 103.121C23.6505 103.119 24.0937 103.12 24.5369 103.121C24.5369 105.201 24.5416 107.282 24.5357 109.362C24.5381 110.306 24.3743 111.305 23.7708 112.064C22.473 113.861 19.465 113.964 18.0435 112.265C17.3681 111.558 17.0899 110.561 17.0805 109.601C17.0746 107.442 17.0793 105.281 17.0781 103.122ZM26.1741 103.115C26.6102 103.11 27.0475 103.111 27.4848 103.114C27.4848 106.492 27.486 109.87 27.4837 113.249C27.0475 113.249 26.6102 113.25 26.1729 113.247C26.1753 109.87 26.1753 106.492 26.1741 103.115ZM39.2989 103.123C39.7786 103.11 40.2607 103.11 40.7416 103.113C41.7482 105.576 42.7395 108.045 43.7284 110.516C44.715 108.054 45.7299 105.603 46.694 103.133C47.1879 103.091 47.683 103.12 48.178 103.113C46.7058 106.697 45.2277 110.279 43.7426 113.858C42.2315 110.292 40.7746 106.703 39.2989 103.123ZM48.778 103.111C49.2141 103.117 49.6502 103.122 50.0875 103.121C50.1028 105.085 50.0852 107.049 50.1017 109.013C50.1323 109.946 50.2042 111.003 50.9161 111.694C51.7377 112.397 53.046 112.441 53.923 111.815C54.4334 111.452 54.7139 110.848 54.8247 110.247C54.9991 109.212 54.9367 108.16 54.9485 107.115C54.9555 105.785 54.9567 104.454 54.9543 103.123C55.374 103.119 55.7948 103.12 56.2156 103.121C56.2344 104.967 56.2191 106.811 56.2238 108.657C56.2533 109.802 56.2167 111.044 55.5201 112.011C54.3002 113.77 51.4925 113.96 49.9484 112.53C49.1764 111.816 48.7886 110.762 48.7827 109.723C48.7709 107.519 48.7803 105.316 48.778 103.111ZM57.861 103.121C58.316 103.122 58.771 103.117 59.2271 103.113C59.2271 106.491 59.2259 109.869 59.2271 113.248C58.7686 113.249 58.3113 113.249 57.8539 113.248C57.8492 109.872 57.8645 106.497 57.861 103.121ZM60.0451 103.121C64.1317 103.124 68.217 103.114 72.3036 103.115C72.3024 103.519 72.3024 103.924 72.3036 104.329C71.5197 104.333 70.7371 104.329 69.9544 104.33C69.9509 107.303 69.9533 110.276 69.9533 113.248C69.4971 113.249 69.0421 113.249 68.586 113.248C68.5836 110.276 68.5942 107.303 68.5813 104.33C66.9771 104.333 65.3728 104.329 63.7686 104.331C63.7663 107.304 63.7686 110.276 63.7675 113.248C63.349 113.249 62.9306 113.249 62.5133 113.248C62.5121 110.276 62.5145 107.304 62.5121 104.331C61.6894 104.329 60.8679 104.333 60.0451 104.329C60.044 103.926 60.044 103.523 60.0451 103.121Z" fill="var(--fill-0, white)"/>
</svg>
