<svg preserveAspectRatio="xMidYMid meet" width="114" height="18.8756" overflow="visible" style="display: block;" viewBox="0 0 114 18.8756" fill="none" xmlns="http://www.w3.org/2000/svg">
<g id="Vector">
<path d="M84.3806 0.323142V5.28671C85.5198 4.14753 87.2285 3.57794 88.9373 3.57794C90.8902 3.57794 92.4362 4.2289 93.6568 5.36808C94.8773 6.58863 95.4469 8.2974 95.4469 10.413V18.55H92.8431V10.413C92.8431 9.1111 92.599 8.05329 91.948 7.32096C91.2157 6.50726 90.1579 6.10041 88.9373 6.10041C87.6354 6.10041 86.4962 6.50726 85.6825 7.32096C84.8688 8.13466 84.3806 9.27384 84.3806 10.6571V18.6314H81.7768V0.323142H84.3806Z" fill="white"/>
<path d="M59.6446 18.4686C58.424 18.4686 57.3662 17.9804 56.6339 17.2481C55.9015 16.5158 55.4947 15.458 55.4947 14.3188V0.323142H58.0985V3.98479H62.7366V6.42589H58.0985V14.2374C58.0985 14.6443 58.1799 15.0511 58.424 15.3766C58.7495 15.7834 59.1563 15.9462 59.6446 15.9462H62.7366V18.3873H59.6446V18.4686Z" fill="white"/>
<path d="M27.4219 3.90348V13.912C27.4219 14.6443 27.666 15.2953 28.0729 15.7835C28.4797 16.1903 29.1307 16.4345 29.7816 16.4345C30.4326 16.4345 31.0836 16.1903 31.4904 15.7835C31.8973 15.3766 32.1414 14.7257 32.1414 13.912V3.90348H34.7452V13.912C34.7452 15.3766 34.257 16.5972 33.3619 17.4923C32.4669 18.3873 31.2463 18.8756 29.7816 18.8756C28.3984 18.8756 27.0964 18.3873 26.12 17.4109C25.1436 18.3873 23.923 18.8756 22.4583 18.8756C21.0751 18.8756 19.7731 18.3873 18.8781 17.4923C17.983 16.5972 17.4948 15.3766 17.4948 13.912V3.90348H20.0986V13.912C20.0986 14.6443 20.3427 15.2953 20.7496 15.7835C21.1564 16.1903 21.8074 16.4345 22.4583 16.4345C23.1093 16.4345 23.7603 16.1903 24.1671 15.7835C24.574 15.3766 24.8181 14.7257 24.8181 13.912V3.90348H27.4219Z" fill="white"/>
<path d="M0.48822 16.0275H10.0899C10.5781 16.0275 11.0663 15.8648 11.3918 15.5393C11.7173 15.2138 11.9614 14.7256 11.9614 14.156C11.9614 13.5864 11.7173 13.0982 11.3918 12.7727C11.0663 12.4472 10.5781 12.2845 10.0899 12.2845H4.39398C3.2548 12.2845 2.19699 11.8776 1.38329 11.1453C0.56959 10.413 0 9.35517 0 8.13463C0 6.91408 0.48822 5.85627 1.30192 5.12394C2.11562 4.39161 3.17343 3.98476 4.31261 3.98476H13.9143V6.42586H4.47535C3.98713 6.42586 3.58028 6.5886 3.2548 6.91408C2.92932 7.23956 2.76658 7.64641 2.76658 8.13463C2.76658 8.62285 3.01069 9.0297 3.2548 9.35517C3.58028 9.68065 3.98713 9.76202 4.47535 9.76202H10.1712C11.4732 9.76202 12.531 10.1689 13.3447 10.9826C14.1584 11.7963 14.6466 12.8541 14.6466 14.156C14.6466 15.4579 14.1584 16.5157 13.3447 17.3294C12.531 18.0618 11.4732 18.55 10.1712 18.55H0.48822V16.0275Z" fill="white"/>
<path d="M47.4388 18.4687C46.6251 18.7942 45.8114 18.8756 44.9977 18.8756C42.9634 18.8756 41.0106 18.0619 39.7086 16.7599C38.3254 15.3766 37.593 13.5051 37.593 11.3895C37.593 9.35526 38.3254 7.40239 39.7086 6.0191C41.0919 4.63581 42.8821 3.90348 44.9977 3.90348H51.3445V18.4687H48.7407V6.42595H44.9977C43.533 6.42595 42.3125 6.99554 41.4988 7.89061C40.6851 8.78568 40.1969 10.0876 40.1969 11.4709C40.1969 12.8542 40.6037 14.0747 41.4988 15.0512C42.3939 15.9462 43.6144 16.5158 44.9977 16.5158C45.8928 16.5158 46.7065 16.2717 47.4388 15.9462V18.4687Z" fill="white"/>
<path d="M67.2114 11.1499C67.2114 12.6146 67.6997 13.9165 68.6761 14.8115C69.5712 15.788 70.8731 16.3576 72.3377 16.3576C73.3142 16.3576 74.2093 16.1135 74.9416 15.6252C75.7553 15.137 76.3249 14.4861 76.7317 13.591L78.9287 14.8929C78.2777 16.1135 77.3013 17.0899 76.1621 17.8222C75.0229 18.4732 73.6397 18.7987 72.2564 18.7987C70.1408 18.7987 68.1879 17.985 66.8046 16.6017C65.4213 15.2184 64.6076 13.2655 64.6076 11.1499C64.6076 9.03428 65.4213 7.0814 66.8046 5.69811C68.1879 4.31482 70.1408 3.41975 72.2564 3.41975C73.6397 3.41975 75.0229 3.74523 76.1621 4.39619C77.3827 5.20989 78.2778 6.18633 79.0101 7.40688L76.7317 8.62743C76.2435 7.81373 75.6739 7.0814 74.9416 6.59318C74.2093 6.10496 73.3142 5.86085 72.3377 5.86085C70.9545 5.86085 69.5712 6.43044 68.6761 7.40688C67.6997 8.46469 67.2114 9.76661 67.2114 11.1499Z" fill="white"/>
<path d="M93.7385 1.6274C93.7385 0.73233 94.4708 0 95.3659 0C96.2609 0 96.9933 0.73233 96.9933 1.6274C96.9933 2.52247 96.2609 3.2548 95.3659 3.2548C94.4708 3.2548 93.7385 2.52247 93.7385 1.6274ZM94.0639 1.6274C94.0639 2.35973 94.6335 2.92932 95.3659 2.92932C96.0982 2.92932 96.6678 2.35973 96.6678 1.6274C96.6678 0.89507 96.0982 0.32548 95.3659 0.32548C94.6335 0.32548 94.0639 0.89507 94.0639 1.6274ZM95.2845 1.70877H95.0404V2.4411H94.7149V0.73233H95.61C95.9355 0.73233 96.0982 0.89507 96.0982 1.22055C96.0982 1.54603 95.9355 1.70877 95.61 1.70877L96.0982 2.4411H95.7727L95.2845 1.70877ZM95.61 1.46466C95.7727 1.46466 95.8541 1.38329 95.8541 1.22055C95.8541 1.05781 95.7727 0.97644 95.61 0.97644H95.0404V1.46466H95.61Z" fill="white"/>
<path d="M114 3.90422H99.4348V18.4694H114V3.90422Z" fill="#E2001A"/>
<path d="M108.467 9.4338V5.3653H104.968V9.4338H100.899V12.9327H104.968V17.0012H108.467V12.9327H112.535V9.4338H108.467Z" fill="var(--fill-0, white)"/>
</g>
</svg>
