<svg preserveAspectRatio="xMidYMid meet" width="114" height="42.0724" overflow="visible" style="display: block;" viewBox="0 0 114 42.0724" fill="none" xmlns="http://www.w3.org/2000/svg">
<path id="path234" d="M57.0058 5.54673e-08C56.933 -4.04029e-05 56.862 0.0220531 56.8022 0.0633444C56.7423 0.104636 56.6964 0.163169 56.6706 0.231167L54.0931 8.25266H45.7133C45.6408 8.25082 45.5698 8.27251 45.5107 8.31446C45.4516 8.35641 45.4077 8.41638 45.3856 8.48537C45.3635 8.55436 45.3643 8.62867 45.3879 8.69715C45.4116 8.76564 45.4568 8.82462 45.5168 8.86525L52.29 13.7891L49.7009 21.7528C49.6823 21.8188 49.6844 21.8888 49.7068 21.9535C49.7292 22.0183 49.7709 22.0746 49.8264 22.1149C49.8818 22.1552 49.9482 22.1775 50.0167 22.1789C50.0852 22.1803 50.1525 22.1607 50.2095 22.1227L56.9942 17.1988L63.779 22.1227C63.8365 22.1675 63.9071 22.1924 63.9801 22.1934C64.0531 22.1945 64.1244 22.1717 64.1832 22.1286C64.2421 22.0854 64.2852 22.0243 64.3061 21.9544C64.327 21.8845 64.3246 21.8096 64.2991 21.7413L61.7678 13.7429L68.541 8.81902C68.587 8.77081 68.6176 8.71 68.6288 8.64433C68.6401 8.57867 68.6316 8.51114 68.6043 8.45036C68.577 8.38958 68.5322 8.33831 68.4756 8.3031C68.4191 8.26788 68.3533 8.25032 68.2867 8.25266H59.9185L57.3294 0.2774C57.3123 0.202603 57.2716 0.13528 57.2133 0.0853425C57.1551 0.0354046 57.0823 0.00548936 57.0058 5.54673e-08ZM57.0058 4.87762L58.6471 9.94018H63.987L59.6642 13.0841L61.317 18.1466L57.0058 15.0143L52.683 18.1466L54.3358 13.0841L50.0245 9.94018H55.3529L57.0058 4.87762ZM0.866876 28.3295V30.6412H11.7317L0 39.8879V42.0724H16.4475V39.7607H4.46152L16.251 30.514V28.3295H0.866876ZM42.8006 28.3295V42.0146H45.956V31.9473L56.6475 42.0146H60.0341V28.3295H56.8786V38.3968L46.1756 28.3295H42.8006ZM75.8806 28.3295V30.6412H82.3995V42.0493H85.5433V30.6065H92.0507V28.2948L75.8806 28.3295ZM97.171 28.3295V42.0146H100.326V36.0852H110.845V42.0146H114V28.3295H110.845V33.8082H100.326V28.3295H97.171ZM22.6775 28.3295V42.0146H36.7556V39.7029H25.8329V36.0967H36.2354V33.7851H25.8329V30.6181H36.5244V28.3064L22.6775 28.3295ZM67.4776 28.3295V42.0146H70.6331V28.3411L67.4776 28.3295Z" fill="var(--fill-0, white)"/>
</svg>
