<svg preserveAspectRatio="none" width="100%" height="100%" overflow="visible" style="display: block;" viewBox="0 0 880 440" fill="none" xmlns="http://www.w3.org/2000/svg">
<g id="Group 1">
<path id="Subtract" d="M751.127 128.873C832.699 210.445 878.934 320.748 879.982 435.997C880.002 438.206 878.209 440 876 440H734C731.791 440 730.003 438.207 729.972 435.998C728.966 362.966 700.434 293.038 650.158 240.167C648.677 238.61 648.655 236.161 650.134 234.602L750.332 128.885C750.547 128.658 750.906 128.653 751.127 128.873Z" fill="var(--fill-0, #B16BE8)"/>
<path id="Subtract_2" d="M440 0C550.82 6.74486e-06 657.33 41.8074 738.444 116.687C740.072 118.19 740.146 120.734 738.622 122.342L640.93 225.413C639.417 227.01 636.899 227.082 635.273 225.6C581.993 177.069 512.393 150 440 150C363.087 150 289.325 180.554 234.939 234.939C218.867 251.012 204.875 268.776 193.139 287.814C192.007 289.651 189.633 290.292 187.746 289.246L63.4447 220.395C61.4822 219.308 60.7957 216.819 61.9434 214.891C80.4481 183.812 102.864 154.882 128.873 128.873C211.389 46.3572 323.305 -7.10241e-06 440 0Z" fill="var(--fill-0, #A98155)"/>
<path id="Subtract_3" d="M181.252 300.509C183.169 301.571 183.872 303.976 182.859 305.918C162.075 345.781 150.658 390.282 150.028 436C149.997 438.209 148.209 440 146 440H4C1.79086 440 -0.001892 438.208 0.0181752 435.999C0.666288 364.653 18.6332 295.203 51.5793 233.291C52.6227 231.33 55.0722 230.618 57.0152 231.694L181.252 300.509Z" fill="var(--fill-0, #A98155)"/>
</g>
</svg>
