<svg width="168" height="62" viewBox="0 0 168 62" fill="none" xmlns="http://www.w3.org/2000/svg">
<g clip-path="url(#clip0_950_134)">
<path fill-rule="evenodd" clip-rule="evenodd" d="M23.6204 48.8836V34.2273H27.9881C28.7551 34.2667 29.4776 34.5991 30.0066 35.1559C30.5355 35.7126 30.8304 36.4513 30.8304 37.2192C30.8304 37.9872 30.5355 38.7259 30.0066 39.2826C29.4776 39.8394 28.7551 40.1718 27.9881 40.2112H24.4758V41.5909H26.7582L30.8224 48.8836H34.8393L30.7475 41.5515C31.8392 41.3899 32.8296 40.8221 33.5207 39.9616C34.2117 39.1012 34.5525 38.0116 34.4748 36.9108C34.3971 35.81 33.9066 34.779 33.1016 34.0242C32.2965 33.2694 31.2361 32.8464 30.1326 32.8397H20.1041V46.952L12.6459 32.8397H8.46345L0 48.8836H1.50584L9.31098 34.0657L12.5868 40.2112H7.13106L6.47275 41.5909H13.32L17.2028 48.8836H23.6204ZM78.5796 32.8397H77.2039V47.63L68.8784 32.8397H64.4555V48.8836H65.8312V34.5781L73.8926 48.8836H78.5796V32.8397ZM37.3464 34.9132L45.2067 48.8836H49.2236L47.1068 45.1111L52.87 34.8619V48.8836H56.3941V32.8397H52.4836L46.346 43.759L40.2083 32.8397H35.9667V48.8836H37.3464V34.9132ZM62.2519 32.8397H58.7356V48.8836H62.2598L62.2519 32.8397Z" fill="#1B1918"/>
<path fill-rule="evenodd" clip-rule="evenodd" d="M164.105 32.8515L157.96 43.759L151.806 32.8515H147.581V48.8836H148.96V34.9211L156.821 48.8836H160.833L158.713 45.1111L164.476 34.8619V48.8836H168V32.8515H164.105Z" fill="#1B1918"/>
<path fill-rule="evenodd" clip-rule="evenodd" d="M142.172 44.504C142.172 45.2942 141.86 46.0522 141.303 46.6127C140.746 47.1733 139.99 47.4908 139.2 47.496H138.254C137.861 47.4965 137.471 47.4195 137.108 47.2694C136.744 47.1193 136.414 46.899 136.136 46.6211C135.857 46.3432 135.637 46.0132 135.486 45.6499C135.335 45.2867 135.258 44.8973 135.258 44.504V37.2192C135.258 36.826 135.335 36.4366 135.486 36.0734C135.637 35.7101 135.857 35.3801 136.136 35.1022C136.414 34.8243 136.744 34.604 137.108 34.4539C137.471 34.3038 137.861 34.2268 138.254 34.2273H139.2C139.99 34.2325 140.746 34.55 141.303 35.1105C141.86 35.6711 142.172 36.4291 142.172 37.2192V44.504ZM141.325 32.8397H136.105C134.945 32.8407 133.832 33.3026 133.011 34.1238C132.191 34.945 131.73 36.0584 131.73 37.2192V44.504C131.729 45.079 131.842 45.6484 132.062 46.1797C132.281 46.7111 132.604 47.1939 133.01 47.6006C133.416 48.0073 133.899 48.33 134.43 48.5501C134.961 48.7703 135.53 48.8836 136.105 48.8836H141.325C142.485 48.8825 143.598 48.4207 144.419 47.5995C145.239 46.7782 145.7 45.6649 145.7 44.504V37.2192C145.699 36.0587 145.238 34.946 144.418 34.125C143.597 33.304 142.485 32.8418 141.325 32.8397Z" fill="#1B1918"/>
<path fill-rule="evenodd" clip-rule="evenodd" d="M130.279 37.2193C130.279 36.0591 129.819 34.9463 128.999 34.1252C128.179 33.3041 127.068 32.8418 125.907 32.8397H115.895V48.8836H119.419V34.2273H123.755C124.157 34.2127 124.558 34.2793 124.934 34.4232C125.31 34.5671 125.654 34.7853 125.943 35.0647C126.233 35.3442 126.464 35.6792 126.621 36.0497C126.778 36.4202 126.86 36.8187 126.86 37.2212C126.86 37.6238 126.778 38.0222 126.621 38.3928C126.464 38.7633 126.233 39.0983 125.943 39.3777C125.654 39.6572 125.31 39.8754 124.934 40.0193C124.558 40.1631 124.157 40.2298 123.755 40.2152H120.266V41.5949H122.545L126.609 48.8836H130.63L126.538 41.5515C127.578 41.3991 128.528 40.8774 129.215 40.0819C129.902 39.2864 130.28 38.2703 130.279 37.2193Z" fill="#1B1918"/>
<path fill-rule="evenodd" clip-rule="evenodd" d="M101.368 32.8397V34.2273H106.433V48.8836H109.981V34.2273H115.051V32.8397H101.368Z" fill="#1B1918"/>
<path fill-rule="evenodd" clip-rule="evenodd" d="M97.4254 40.1718H94.4256C93.6373 40.1718 92.8813 39.8586 92.3239 39.3012C91.7665 38.7438 91.4533 37.9878 91.4533 37.1995C91.4533 36.4112 91.7665 35.6552 92.3239 35.0978C92.8813 34.5404 93.6373 34.2273 94.4256 34.2273H100.52V32.8397H92.289C91.1338 32.8397 90.0258 33.2986 89.2089 34.1155C88.392 34.9324 87.9331 36.0403 87.9331 37.1956C87.9331 38.3509 88.392 39.4588 89.2089 40.2757C90.0258 41.0926 91.1338 41.5515 92.289 41.5515H95.2889C96.0782 41.5515 96.8352 41.8651 97.3934 42.4232C97.9515 42.9813 98.2651 43.7384 98.2651 44.5277C98.2651 45.317 97.9515 46.074 97.3934 46.6322C96.8352 47.1903 96.0782 47.5039 95.2889 47.5039H87.9371V48.8836H97.4254C98.5807 48.8836 99.6886 48.4247 100.506 47.6078C101.322 46.7909 101.781 45.683 101.781 44.5277C101.781 43.3724 101.322 42.2645 100.506 41.4476C99.6886 40.6307 98.5807 40.1718 97.4254 40.1718Z" fill="#1B1918"/>
<path fill-rule="evenodd" clip-rule="evenodd" d="M77.7444 10.4295C78.1294 9.06468 78.9496 7.86294 80.0802 7.00707C81.2109 6.15121 82.5902 5.68805 84.0082 5.68805C85.4263 5.68805 86.8056 6.15121 87.9362 7.00707C89.0669 7.86294 89.8871 9.06468 90.2721 10.4295H77.7444ZM90.2721 13.9536C89.9206 15.276 89.152 16.4497 88.0803 17.3004L88.9081 18.3608C90.1931 17.3416 91.1283 15.9471 91.5834 14.3715C92.0385 12.7958 91.9909 11.1175 91.4473 9.57015C90.9036 8.02282 89.8909 6.68356 88.5502 5.73889C87.2095 4.79422 85.6076 4.29118 83.9676 4.29981C82.3275 4.30845 80.731 4.82833 79.4003 5.78707C78.0697 6.7458 77.0712 8.09565 76.5438 9.64862C76.0164 11.2016 75.9865 12.8804 76.4582 14.4511C76.9299 16.0219 77.8797 17.4065 79.1754 18.412L79.9914 17.3477C78.8948 16.4909 78.1063 15.3012 77.7444 13.9576L90.2721 13.9536Z" fill="#1B1918"/>
<path fill-rule="evenodd" clip-rule="evenodd" d="M71.9297 13.9536H74.8113C74.5911 12.7906 74.5911 11.5965 74.8113 10.4334H73.3212C73.7038 8.11094 74.8312 5.9758 76.5332 4.34997C78.2353 2.72413 80.4198 1.69576 82.7574 1.41991C85.095 1.14407 87.4589 1.6357 89.4926 2.82069C91.5264 4.00567 93.1197 5.81976 94.0324 7.9894L95.2545 7.49271C94.3399 5.2903 92.7975 3.40573 90.8193 2.07388C88.8412 0.742025 86.5148 0.021787 84.1302 0.00292969H83.9094C80.9967 0.0371826 78.1916 1.10842 75.9975 3.02438C73.8034 4.94033 72.364 7.57556 71.9376 10.4571C71.7765 11.6169 71.7739 12.7931 71.9297 13.9536Z" fill="#1B1918"/>
<path fill-rule="evenodd" clip-rule="evenodd" d="M96.0944 10.4413H93.2167C93.4395 11.6015 93.4395 12.7935 93.2167 13.9536H94.7265C94.3492 16.2763 93.2264 18.413 91.5277 20.0413C89.829 21.6696 87.6466 22.7009 85.31 22.9796C82.9735 23.2582 80.6098 22.7691 78.5758 21.586C76.5418 20.4029 74.948 18.5901 74.035 16.4213L72.7893 16.9535C73.82 19.4113 75.628 21.4634 77.9365 22.7954C80.2449 24.1274 82.9264 24.6657 85.5701 24.328C88.2138 23.9903 90.6738 22.7951 92.5733 20.9255C94.4727 19.056 95.7068 16.6153 96.0865 13.9773C96.2513 12.8046 96.2539 11.6148 96.0944 10.4413Z" fill="#1B1918"/>
<path fill-rule="evenodd" clip-rule="evenodd" d="M31.1639 60.1179C31.2679 60.4159 31.4211 60.6944 31.6172 60.9418C31.7524 61.1102 31.9242 61.2457 32.1196 61.3379C32.3149 61.4301 32.5287 61.4766 32.7446 61.4739C32.9764 61.477 33.2011 61.3941 33.3754 61.2414C33.464 61.1595 33.5337 61.0592 33.5793 60.9475C33.6249 60.8358 33.6455 60.7154 33.6395 60.5949C33.6401 60.4747 33.6167 60.3556 33.5706 60.2446C33.5246 60.1336 33.4569 60.0329 33.3714 59.9484C33.1488 59.7521 32.9086 59.5766 32.654 59.4241L31.9996 59.0299C31.8287 58.9262 31.6723 58.8002 31.5345 58.6554C31.3325 58.4419 31.2172 58.1608 31.2112 57.867C31.2073 57.6882 31.2402 57.5105 31.3081 57.345C31.3759 57.1795 31.4771 57.0298 31.6054 56.9052C31.7382 56.7735 31.8967 56.6706 32.071 56.6028C32.2453 56.535 32.4316 56.5037 32.6185 56.511C32.8341 56.5191 33.0471 56.5617 33.2492 56.6371C33.3844 56.6926 33.5243 56.7361 33.6671 56.7672C33.7022 56.7712 33.7378 56.7672 33.7713 56.7556C33.8047 56.744 33.8351 56.7251 33.8602 56.7002C33.9045 56.6453 33.9343 56.5803 33.9469 56.511H34.1046L34.2702 58.1351H34.0849C34.0173 57.7326 33.8058 57.3683 33.4897 57.1102C33.2563 56.93 32.9722 56.828 32.6776 56.8184C32.4803 56.8153 32.288 56.8808 32.1336 57.0037C32.0566 57.0642 31.9953 57.1424 31.9548 57.2316C31.9144 57.3208 31.8959 57.4184 31.9011 57.5162C31.8974 57.6984 31.9589 57.8759 32.0745 58.0168C32.2369 58.1918 32.4242 58.3419 32.6303 58.4623L33.3005 58.8565C33.633 59.0428 33.9326 59.2825 34.1874 59.566C34.3604 59.7916 34.4495 60.0703 34.4397 60.3544C34.444 60.544 34.4054 60.7322 34.327 60.9049C34.2485 61.0775 34.132 61.2303 33.9864 61.3517C33.6652 61.6247 33.2524 61.7656 32.8314 61.7459C32.5798 61.7434 32.3305 61.6981 32.0942 61.6119C31.9512 61.5546 31.8035 61.5097 31.6527 61.4779C31.6178 61.4734 31.5823 61.4788 31.5503 61.4935C31.5182 61.5081 31.4909 61.5314 31.4714 61.5607C31.4395 61.6136 31.4194 61.6727 31.4122 61.7341H31.2427L31.0141 60.11L31.1639 60.1179Z" fill="#1B1918"/>
<path fill-rule="evenodd" clip-rule="evenodd" d="M36.4335 56.6088V56.7507C36.3245 56.7503 36.2159 56.7635 36.1102 56.7901C36.06 56.8042 36.0159 56.8349 35.9852 56.877C35.9544 56.9192 35.9388 56.9705 35.9407 57.0227C35.9328 57.071 35.9328 57.1203 35.9407 57.1686C35.9407 57.2159 35.9723 57.275 35.9999 57.3538L37.1036 60.2157L37.892 58.0792L37.5372 57.1449C37.5115 57.0711 37.4715 57.0032 37.4194 56.945C37.3673 56.8868 37.3042 56.8395 37.2337 56.8059C37.1173 56.7651 36.9943 56.7464 36.871 56.7507V56.6088H38.9603V56.7507C38.8278 56.7472 38.6953 56.7605 38.5661 56.7901C38.5132 56.809 38.4681 56.8446 38.4374 56.8916C38.4068 56.9386 38.3925 56.9943 38.3966 57.0503C38.3902 57.0908 38.3902 57.132 38.3966 57.1725C38.3966 57.204 38.4321 57.271 38.4675 57.3775L39.5713 60.2354L40.5253 57.6495C40.574 57.5217 40.611 57.3898 40.6356 57.2553C40.6418 57.2029 40.6418 57.15 40.6356 57.0976C40.639 57.0331 40.6212 56.9693 40.5849 56.9159C40.5486 56.8625 40.4958 56.8225 40.4346 56.8019C40.3271 56.7638 40.2136 56.7451 40.0995 56.7468V56.6048H41.6132V56.7468C41.5039 56.7556 41.3976 56.7878 41.3018 56.8414C41.1611 56.9234 41.0569 57.0559 41.0101 57.2119L39.9182 60.3616L39.4333 61.7373H39.3151L38.9839 60.8661L38.097 58.5009L36.9144 61.7176H36.8001L36.2285 60.1408L35.5859 58.3511C35.4361 57.8873 35.2516 57.4353 35.0341 56.999C34.9812 56.9153 34.9078 56.8463 34.8209 56.7987C34.734 56.7512 34.6364 56.7265 34.5374 56.727V56.5851L36.4335 56.6088Z" fill="#1B1918"/>
<path fill-rule="evenodd" clip-rule="evenodd" d="M41.7831 61.5134C41.9924 61.5175 42.1995 61.4701 42.3862 61.3754C42.4769 61.3005 42.5242 61.1231 42.5242 60.8235V57.4374C42.5502 57.2462 42.5007 57.0525 42.3862 56.8973C42.2043 56.7894 41.9942 56.7386 41.7831 56.7515V56.6095H44.0379V56.7515C43.8269 56.7393 43.617 56.7901 43.4348 56.8973C43.3203 57.0525 43.2708 57.2462 43.2968 57.4374V60.8235C43.2968 61.1231 43.3441 61.3005 43.4348 61.3754C43.6217 61.4697 43.8287 61.517 44.0379 61.5134V61.6553H41.7831V61.5134Z" fill="#1B1918"/>
<path fill-rule="evenodd" clip-rule="evenodd" d="M44.6145 60.1179C44.7185 60.416 44.8717 60.6944 45.0679 60.9418C45.2031 61.1102 45.3748 61.2457 45.5702 61.3379C45.7655 61.4301 45.9793 61.4766 46.1953 61.474C46.4271 61.4778 46.6521 61.3948 46.826 61.2414C46.9147 61.1595 46.9843 61.0592 47.0299 60.9475C47.0756 60.8358 47.0961 60.7154 47.0901 60.5949C47.0907 60.4747 47.0673 60.3556 47.0213 60.2446C46.9752 60.1336 46.9075 60.0329 46.822 59.9484C46.5944 59.7513 46.3489 59.5758 46.0888 59.4241L45.4384 59.0299C45.2663 58.9262 45.1086 58.8003 44.9693 58.6554C44.7673 58.4419 44.6521 58.1609 44.6461 57.867C44.6421 57.6882 44.6751 57.5105 44.7429 57.345C44.8107 57.1795 44.912 57.0298 45.0403 56.9052C45.1738 56.7734 45.333 56.6705 45.5079 56.6027C45.6828 56.5349 45.8698 56.5037 46.0573 56.511C46.2716 56.5195 46.4832 56.5621 46.6841 56.6371C46.8197 56.6915 46.9594 56.735 47.1019 56.7672C47.1376 56.7707 47.1737 56.7665 47.2077 56.755C47.2417 56.7434 47.2728 56.7248 47.299 56.7002C47.3402 56.6435 47.3697 56.5792 47.3857 56.511H47.5395L47.705 58.1351H47.5237C47.4548 57.7321 47.2418 57.3679 46.9245 57.1102C46.6915 56.9296 46.4072 56.8275 46.1125 56.8185C45.9153 56.816 45.7232 56.8814 45.5685 57.0037C45.4922 57.0649 45.4314 57.1432 45.391 57.2322C45.3506 57.3212 45.3317 57.4185 45.3359 57.5162C45.3319 57.6991 45.395 57.8772 45.5133 58.0168C45.675 58.1925 45.8624 58.3427 46.0691 58.4623L46.7353 58.8565C47.0678 59.0428 47.3675 59.2825 47.6223 59.566C47.7966 59.7911 47.8872 60.0698 47.8785 60.3544C47.8811 60.5438 47.8418 60.7314 47.7634 60.9038C47.6851 61.0762 47.5695 61.2292 47.4252 61.3518C47.1038 61.6244 46.6911 61.7652 46.2702 61.746C46.0173 61.7435 45.7667 61.6982 45.5291 61.6119C45.3862 61.554 45.2385 61.5092 45.0876 61.4779C45.0527 61.4743 45.0175 61.4801 44.9857 61.4947C44.9538 61.5092 44.9264 61.532 44.9062 61.5607C44.876 61.6144 44.856 61.6732 44.8471 61.7341H44.6815L44.4529 60.11L44.6145 60.1179Z" fill="#1B1918"/>
<path fill-rule="evenodd" clip-rule="evenodd" d="M48.7786 60.1179C48.8826 60.416 49.0358 60.6944 49.232 60.9418C49.3672 61.1102 49.539 61.2457 49.7343 61.3379C49.9296 61.4301 50.1434 61.4766 50.3594 61.474C50.5913 61.4778 50.8162 61.3948 50.9901 61.2414C51.0794 61.16 51.1495 61.0598 51.1952 60.948C51.2409 60.8361 51.261 60.7155 51.2542 60.5949C51.2555 60.475 51.2329 60.356 51.1875 60.2449C51.1421 60.1339 51.075 60.0331 50.9901 59.9484C50.7608 59.7516 50.5141 59.5761 50.2529 59.4241L49.6025 59.0299C49.4311 58.9251 49.2736 58.7993 49.1334 58.6554C48.9314 58.4419 48.8162 58.1609 48.8102 57.867C48.8062 57.6882 48.8392 57.5105 48.907 57.345C48.9748 57.1795 49.0761 57.0298 49.2044 56.9052C49.3379 56.7734 49.4971 56.6705 49.672 56.6027C49.847 56.5349 50.0339 56.5037 50.2214 56.511C50.4357 56.5195 50.6473 56.5621 50.8482 56.6371C50.9836 56.692 51.1234 56.7355 51.266 56.7672C51.3018 56.771 51.3379 56.7669 51.3719 56.7554C51.406 56.7438 51.4371 56.725 51.4631 56.7002C51.5044 56.6441 51.5327 56.5794 51.5459 56.511H51.7036L51.8692 58.1351H51.6878C51.6172 57.7328 51.4046 57.3691 51.0886 57.1102C50.8622 56.934 50.5868 56.8321 50.3002 56.8185C50.1016 56.8144 49.9077 56.8799 49.7523 57.0037C49.6753 57.0643 49.614 57.1424 49.5735 57.2316C49.533 57.3208 49.5146 57.4184 49.5197 57.5162C49.5157 57.6991 49.5788 57.8772 49.6971 58.0168C49.8579 58.1919 50.0439 58.342 50.249 58.4623L50.9191 58.8565C51.2524 59.0417 51.5522 59.2816 51.8061 59.566C51.9805 59.7911 52.071 60.0698 52.0623 60.3544C52.0649 60.5438 52.0256 60.7314 51.9472 60.9038C51.8689 61.0762 51.7534 61.2292 51.609 61.3518C51.2872 61.6237 50.8749 61.7644 50.454 61.746C50.2024 61.7442 49.953 61.6988 49.7168 61.6119C49.5725 61.5543 49.4235 61.5095 49.2714 61.4779C49.237 61.4738 49.2022 61.4793 49.1709 61.4939C49.1395 61.5086 49.1129 61.5317 49.094 61.5607C49.0626 61.6142 49.0412 61.6729 49.0309 61.7341H48.8181L48.5894 60.11L48.7786 60.1179Z" fill="#1B1918"/>
<path fill-rule="evenodd" clip-rule="evenodd" d="M56.0495 56.6087V56.7507C55.9393 56.7503 55.8294 56.7636 55.7223 56.7901C55.6721 56.8042 55.628 56.8348 55.5973 56.877C55.5665 56.9192 55.5509 56.9705 55.5528 57.0227C55.5468 57.0711 55.5468 57.1201 55.5528 57.1685L55.6159 57.3538L56.7197 60.2157L57.5081 58.0791L57.1493 57.1449C57.1255 57.0707 57.0866 57.0023 57.035 56.944C56.9835 56.8856 56.9204 56.8386 56.8497 56.8058C56.7332 56.7655 56.6103 56.7468 56.4871 56.7507V56.6087H58.529V56.7507C58.3965 56.7472 58.2641 56.7604 58.1348 56.7901C58.082 56.8089 58.0368 56.8446 58.0062 56.8916C57.9756 56.9386 57.9612 56.9943 57.9653 57.0503C57.959 57.0907 57.959 57.132 57.9653 57.1724C57.9653 57.204 57.9969 57.271 58.0363 57.3774L59.14 60.2354L60.094 57.6494C60.1428 57.5217 60.1797 57.3897 60.2044 57.2552C60.2085 57.2028 60.2085 57.15 60.2044 57.0976C60.2077 57.0331 60.1899 56.9693 60.1536 56.9159C60.1173 56.8625 60.0645 56.8225 60.0033 56.8019C59.8958 56.7638 59.7823 56.7451 59.6683 56.7467V56.6048H61.182V56.7467C61.0714 56.7557 60.9639 56.7879 60.8666 56.8413C60.7292 56.9261 60.627 57.0577 60.5789 57.2119L59.7905 59.4864L59.479 60.3615L59.0651 61.7412H58.9469L58.6118 60.87L57.7288 58.5048L56.5462 61.7215H56.4319L55.2217 58.355C55.0731 57.8901 54.8872 57.4379 54.6659 57.0029C54.6139 56.9192 54.5413 56.8502 54.455 56.8026C54.3687 56.755 54.2717 56.7303 54.1731 56.7309V56.589L56.0495 56.6087Z" fill="#1B1918"/>
<path fill-rule="evenodd" clip-rule="evenodd" d="M63.6635 59.6958L62.7884 57.5987L61.9094 59.6958H63.6635ZM60.3799 61.6668V61.5249C60.4645 61.5195 60.5471 61.4971 60.6229 61.4592C60.6988 61.4213 60.7662 61.3686 60.8214 61.3042C61.0221 60.9782 61.1911 60.6336 61.3259 60.2753L62.9027 56.5344H63.0525L64.9526 60.8705C65.0237 61.0635 65.1263 61.2433 65.2561 61.4027C65.3721 61.4846 65.5086 61.5324 65.6503 61.5407V61.6826H63.7108V61.5407C63.8567 61.5343 64.0011 61.5091 64.1405 61.4658C64.2075 61.4382 64.2391 61.3672 64.2391 61.2608C64.2347 61.1936 64.2214 61.1274 64.1996 61.0637C64.1731 60.9627 64.1389 60.8638 64.0971 60.768L63.7976 59.9875H61.7911C61.594 60.4842 61.4757 60.7759 61.4363 60.9021C61.4028 60.9851 61.3828 61.0729 61.3772 61.1622C61.3735 61.2176 61.3865 61.2728 61.4147 61.3206C61.4428 61.3684 61.4847 61.4066 61.5349 61.4303C61.6515 61.4715 61.7739 61.4941 61.8975 61.4973V61.6392L60.3799 61.6668Z" fill="#1B1918"/>
<path fill-rule="evenodd" clip-rule="evenodd" d="M64.9991 56.6086H69.3156L69.3589 57.9055H69.1776C69.1385 57.616 69.0198 57.343 68.8346 57.1171C68.5734 56.9627 68.2689 56.8976 67.9674 56.9318H67.5417V60.8304C67.5417 61.13 67.589 61.3074 67.6836 61.3823C67.8686 61.4778 68.0746 61.5253 68.2828 61.5203V61.6622H66.0595V61.5203C66.2725 61.531 66.4835 61.4744 66.6626 61.3587C66.7665 61.1729 66.8079 60.9587 66.7809 60.7477V56.9318H66.3551C66.0563 56.9019 65.7557 56.9667 65.4958 57.1171C65.2942 57.333 65.1719 57.611 65.1489 57.9055H64.9636L64.9991 56.6086Z" fill="#1B1918"/>
<path fill-rule="evenodd" clip-rule="evenodd" d="M72.9453 56.6445C73.1055 56.6957 73.2687 56.7365 73.4341 56.7667C73.5066 56.7662 73.5775 56.7458 73.6391 56.7076C73.7054 56.6648 73.7532 56.5987 73.7731 56.5223H73.9348L74.0057 58.2331H73.8283C73.7501 57.9361 73.6164 57.6565 73.4341 57.4093C73.2859 57.2178 73.0941 57.0647 72.8747 56.9625C72.6552 56.8603 72.4146 56.8121 72.1727 56.8219C71.92 56.8174 71.6699 56.8726 71.4425 56.9828C71.2151 57.0931 71.0169 57.2554 70.8639 57.4566C70.4982 57.9611 70.3185 58.5768 70.3554 59.1989C70.3253 59.7882 70.5165 60.3675 70.8915 60.823C71.0566 61.0198 71.2638 61.177 71.4979 61.2827C71.732 61.3885 71.9869 61.4402 72.2436 61.434C72.6262 61.4369 73.0028 61.339 73.3356 61.1502C73.563 61.0156 73.7735 60.8541 73.9624 60.6693L74.1043 60.8072C73.9271 61.0277 73.7154 61.218 73.4775 61.3709C72.9595 61.6938 72.3476 61.8325 71.741 61.7645C71.1344 61.6966 70.5684 61.426 70.1347 60.9965C69.6892 60.4995 69.4521 59.8502 69.4724 59.1831C69.4536 58.4914 69.7053 57.8197 70.1741 57.3107C70.4211 57.0501 70.7207 56.845 71.0531 56.709C71.3854 56.5731 71.7429 56.5094 72.1017 56.5223C72.3873 56.5235 72.6712 56.5646 72.9453 56.6445Z" fill="#1B1918"/>
<path fill-rule="evenodd" clip-rule="evenodd" d="M74.4085 61.5125C74.5132 61.541 74.6239 61.5391 74.7276 61.507C74.8312 61.4748 74.9236 61.4139 74.9939 61.3312C75.0642 61.2485 75.1095 61.1475 75.1245 61.04C75.1395 60.9325 75.1236 60.8229 75.0786 60.7241V57.4208C75.1024 57.2327 75.0576 57.0424 74.9525 56.8847C74.7907 56.7803 74.6008 56.728 74.4085 56.7349V56.5929H76.5253V56.7349C76.3318 56.729 76.141 56.7811 75.9774 56.8847C75.8755 57.0437 75.8323 57.2333 75.8552 57.4208V58.9029H78.1691V57.4208C78.1929 57.2327 78.1481 57.0424 78.043 56.8847C77.8819 56.7789 77.6915 56.7265 77.499 56.7349V56.5929H79.6119V56.7349C79.4195 56.728 79.2297 56.7803 79.0679 56.8847C78.9628 57.0424 78.918 57.2327 78.9418 57.4208V60.8069C78.918 60.995 78.9628 61.1853 79.0679 61.343C79.2307 61.4455 79.4196 61.4988 79.6119 61.4968V61.6387H77.499V61.4968C77.6982 61.5009 77.8938 61.4431 78.0588 61.3312C78.1556 61.1445 78.1941 60.933 78.1691 60.7241V59.238H75.8552V60.8148C75.8303 61.0024 75.8736 61.1927 75.9774 61.3509C76.1411 61.4545 76.3316 61.508 76.5253 61.5047V61.6466H74.4085V61.5125Z" fill="#1B1918"/>
<path fill-rule="evenodd" clip-rule="evenodd" d="M81.6288 61.5126C81.8503 61.5175 82.066 61.4418 82.2359 61.2997C82.3544 61.0549 82.4009 60.7815 82.3699 60.5113V57.4169C82.3935 57.227 82.3473 57.0351 82.2398 56.8768C82.0624 56.7684 81.8559 56.7175 81.6485 56.7309V56.589H83.1504L84.9007 60.3891L86.6115 56.589H88.1252V56.7309C87.9308 56.7223 87.7388 56.7762 87.5773 56.8847C87.4745 57.0419 87.4311 57.2306 87.4551 57.4169V60.803C87.4302 60.9906 87.4735 61.1809 87.5773 61.3391C87.7413 61.4421 87.9316 61.4955 88.1252 61.4929V61.6348H85.9926V61.4929C86.1972 61.5006 86.3989 61.4426 86.5681 61.3273C86.6648 61.1391 86.7033 60.9264 86.6785 60.7163V57.2907L84.7075 61.6269H84.605L82.7168 57.4878V60.531C82.6817 60.8145 82.7458 61.1014 82.8981 61.3431C83.0543 61.4521 83.2399 61.5112 83.4303 61.5126V61.6545H81.6406L81.6288 61.5126Z" fill="#1B1918"/>
<path fill-rule="evenodd" clip-rule="evenodd" d="M91.5137 59.6958L90.6425 57.5987L89.7674 59.6958H91.5137ZM88.234 61.6668V61.5249C88.4045 61.5126 88.5633 61.4332 88.6755 61.3042C88.8726 60.9768 89.0402 60.6325 89.1761 60.2753L90.7529 56.5344H90.9066L92.8027 60.8705C92.8747 61.0639 92.9787 61.2438 93.1102 61.4027C93.2259 61.4851 93.3626 61.533 93.5044 61.5407V61.6826H91.561V61.5407C91.7081 61.5341 91.8538 61.509 91.9946 61.4658C92.0616 61.4382 92.0932 61.3672 92.0932 61.2608C92.0868 61.1939 92.0736 61.1279 92.0538 61.0637C92.0276 60.962 91.9919 60.8631 91.9473 60.768L91.6438 60.0309H89.6373C89.4402 60.5276 89.318 60.8193 89.2786 60.9454C89.2478 61.0291 89.2292 61.1167 89.2234 61.2056C89.2188 61.2606 89.231 61.3157 89.2585 61.3636C89.286 61.4115 89.3273 61.4499 89.3771 61.4737C89.4952 61.5145 89.6189 61.5371 89.7438 61.5407V61.6826L88.234 61.6668Z" fill="#1B1918"/>
<path fill-rule="evenodd" clip-rule="evenodd" d="M93.6087 61.5126C93.8302 61.5175 94.0459 61.4418 94.2158 61.2997C94.3325 61.0544 94.3776 60.7811 94.3459 60.5113V57.1527L94.2434 57.0266C94.167 56.9261 94.0703 56.8428 93.9595 56.7822C93.8458 56.7479 93.7275 56.7306 93.6087 56.7309V56.589H94.9096L97.8503 60.2393V57.7046C97.8855 57.4206 97.82 57.1332 97.665 56.8926C97.5051 56.7831 97.3148 56.7266 97.121 56.7309V56.589H98.9146V56.7309C98.7007 56.7282 98.4931 56.8039 98.3312 56.9438C98.2044 57.1788 98.1534 57.4474 98.1854 57.7125V61.7215H98.0553L94.6849 57.543V60.5113C94.6498 60.7948 94.7139 61.0817 94.8662 61.3234C95.022 61.433 95.2078 61.4922 95.3984 61.4929V61.6348H93.6087V61.5126Z" fill="#1B1918"/>
<path fill-rule="evenodd" clip-rule="evenodd" d="M101.216 56.6095V56.7515C101.015 56.7444 100.817 56.795 100.644 56.8973C100.538 57.0561 100.493 57.248 100.518 57.4374V59.8735C100.503 60.193 100.559 60.5118 100.68 60.8078C100.791 61.0125 100.961 61.1797 101.167 61.2884C101.373 61.3971 101.607 61.4425 101.839 61.4188C102.086 61.4489 102.337 61.4055 102.56 61.2941C102.783 61.1826 102.968 61.008 103.092 60.792C103.231 60.4496 103.291 60.0806 103.27 59.7119V57.7409C103.304 57.4693 103.253 57.1937 103.124 56.9525C102.963 56.8264 102.765 56.7571 102.56 56.7554V56.6135H104.322V56.7554C104.11 56.7532 103.903 56.829 103.743 56.9683C103.624 57.206 103.576 57.4728 103.605 57.737V59.7079C103.627 60.1327 103.544 60.5564 103.364 60.9418C103.065 61.4858 102.501 61.7578 101.665 61.7578C100.83 61.7578 100.282 61.4897 99.9821 60.9694C99.8063 60.6163 99.7235 60.2242 99.7416 59.8302V57.465C99.7684 57.2768 99.7234 57.0854 99.6155 56.9289C99.4471 56.8263 99.2528 56.7743 99.0557 56.7791V56.6371L101.216 56.6095Z" fill="#1B1918"/>
<path fill-rule="evenodd" clip-rule="evenodd" d="M104.466 61.5134C104.665 61.5162 104.86 61.4585 105.025 61.3478C105.124 61.1618 105.163 60.9497 105.136 60.7408V57.4374C105.16 57.2511 105.116 57.0624 105.014 56.9052C104.852 56.7967 104.66 56.7428 104.466 56.7515V56.6095H108.526L108.553 57.7015H108.341C108.338 57.5769 108.311 57.454 108.26 57.3402C108.209 57.2264 108.136 57.1241 108.045 57.0392C107.777 56.9237 107.484 56.8763 107.193 56.9013H106.149C106.114 56.8963 106.079 56.8983 106.045 56.9071C106.011 56.9159 105.98 56.9313 105.952 56.9525C105.918 57.0153 105.905 57.0868 105.912 57.1575V58.8604H107.016C107.233 58.8911 107.454 58.8391 107.635 58.7146C107.758 58.5429 107.833 58.3415 107.852 58.1312H108.029V59.8893H107.852C107.83 59.6777 107.754 59.4753 107.631 59.3019C107.45 59.1815 107.231 59.1311 107.016 59.16H105.912V60.8235C105.912 61.1074 105.952 61.2847 106.038 61.3636C106.209 61.4648 106.404 61.5167 106.602 61.5134V61.6553H104.466V61.5134Z" fill="#1B1918"/>
<path fill-rule="evenodd" clip-rule="evenodd" d="M111.376 59.6958L110.501 57.5987L109.626 59.6958H111.376ZM108.096 61.6668V61.5249C108.18 61.5189 108.262 61.4964 108.337 61.4585C108.412 61.4206 108.479 61.3681 108.534 61.3042C108.733 60.9772 108.902 60.6329 109.038 60.2753L110.615 56.5344H110.765L112.665 60.8705C112.736 61.0635 112.839 61.2433 112.969 61.4027C113.085 61.4846 113.221 61.5324 113.363 61.5407V61.6826H111.423V61.5407C111.569 61.5347 111.714 61.5095 111.853 61.4658C111.92 61.4382 111.952 61.3672 111.952 61.2608C111.947 61.1936 111.934 61.1274 111.912 61.0637C111.886 60.9627 111.851 60.8638 111.81 60.768L111.494 59.9875H109.484C109.287 60.4842 109.169 60.7759 109.129 60.9021C109.096 60.9851 109.076 61.0729 109.07 61.1622C109.066 61.2176 109.079 61.2728 109.107 61.3206C109.136 61.3684 109.177 61.4066 109.228 61.4303C109.346 61.4711 109.469 61.4937 109.594 61.4973V61.6392L108.096 61.6668Z" fill="#1B1918"/>
<path fill-rule="evenodd" clip-rule="evenodd" d="M116.771 56.6449C116.932 56.6956 117.095 56.7364 117.26 56.7671C117.333 56.7666 117.404 56.7461 117.465 56.708C117.532 56.6645 117.581 56.5988 117.603 56.5227H117.761L117.832 58.2335H117.654C117.58 57.9352 117.445 57.6551 117.26 57.4096C117.112 57.2185 116.92 57.0655 116.701 56.9633C116.481 56.8612 116.241 56.8128 115.999 56.8223C115.746 56.8159 115.496 56.8702 115.269 56.9806C115.042 57.0911 114.845 57.2544 114.694 57.4569C114.328 57.9615 114.148 58.5772 114.185 59.1993C114.154 59.7881 114.344 60.3673 114.718 60.8234C114.882 61.0206 115.089 61.1781 115.324 61.2839C115.558 61.3897 115.813 61.4412 116.07 61.4344C116.452 61.4373 116.829 61.3394 117.162 61.1506C117.39 61.017 117.6 60.8554 117.788 60.6697L117.93 60.8076C117.753 61.0281 117.541 61.2184 117.304 61.3713C116.887 61.6342 116.404 61.7711 115.912 61.7655C115.55 61.7823 115.188 61.7205 114.852 61.5844C114.516 61.4483 114.213 61.2412 113.965 60.9771C113.516 60.4817 113.278 59.8317 113.298 59.1638C113.28 58.4721 113.531 57.8003 114 57.2914C114.247 57.03 114.548 56.8245 114.881 56.6885C115.214 56.5526 115.572 56.4893 115.932 56.503C116.217 56.5105 116.5 56.5583 116.771 56.6449Z" fill="#1B1918"/>
<path fill-rule="evenodd" clip-rule="evenodd" d="M118.262 56.6095H122.571L122.61 57.9065H122.433C122.394 57.617 122.275 57.344 122.09 57.1181C121.829 56.9637 121.524 56.8986 121.223 56.9328H120.797V60.8314C120.797 61.131 120.84 61.3084 120.935 61.3833C121.122 61.478 121.329 61.5254 121.538 61.5213V61.6632H119.315V61.5213C119.528 61.5312 119.738 61.4747 119.918 61.3596C120.022 61.1739 120.063 60.9597 120.036 60.7486V56.9328H119.61C119.31 56.9036 119.009 56.9684 118.747 57.1181C118.549 57.336 118.427 57.6129 118.4 57.9065H118.215L118.262 56.6095Z" fill="#1B1918"/>
<path fill-rule="evenodd" clip-rule="evenodd" d="M124.959 56.6095V56.7515C124.758 56.743 124.56 56.7937 124.387 56.8973C124.281 57.0561 124.237 57.248 124.261 57.4374V59.8735C124.245 60.1931 124.3 60.5124 124.423 60.8078C124.534 61.0118 124.703 61.1786 124.908 61.2873C125.114 61.3959 125.347 61.4417 125.578 61.4188C125.826 61.4492 126.077 61.406 126.301 61.2945C126.525 61.1831 126.71 61.0083 126.835 60.792C126.974 60.4496 127.035 60.0806 127.013 59.7119V57.7409C127.049 57.4688 126.997 57.1923 126.863 56.9525C126.703 56.825 126.504 56.7556 126.299 56.7554V56.6135H128.05V56.7554C127.836 56.7544 127.629 56.8299 127.466 56.9683C127.351 57.2072 127.305 57.4733 127.332 57.737V59.7079C127.354 60.1327 127.272 60.5564 127.092 60.9418C126.792 61.4858 126.228 61.7578 125.393 61.7578C124.557 61.7578 124.009 61.4897 123.709 60.9694C123.536 60.6156 123.453 60.224 123.469 59.8302V57.465C123.495 57.2762 123.449 57.0847 123.339 56.9289C123.171 56.8251 122.976 56.773 122.779 56.7791V56.6371L124.959 56.6095Z" fill="#1B1918"/>
<path fill-rule="evenodd" clip-rule="evenodd" d="M130.81 58.8678C131 58.7995 131.161 58.6713 131.271 58.5026C131.38 58.334 131.432 58.1341 131.417 57.9335C131.434 57.7448 131.39 57.5558 131.292 57.3936C131.195 57.2313 131.048 57.1043 130.873 57.0308C130.623 56.9326 130.354 56.8883 130.085 56.9007C129.952 56.8884 129.817 56.9045 129.691 56.948C129.643 56.9795 129.62 57.0465 129.62 57.1648V59.0412C130.023 59.0446 130.425 58.9861 130.81 58.8678ZM128.205 61.5128C128.402 61.5203 128.596 61.4589 128.753 61.3394C128.845 61.1542 128.882 60.946 128.859 60.7402V57.4368C128.881 57.2531 128.838 57.0675 128.737 56.9125C128.582 56.8009 128.395 56.744 128.205 56.7509V56.609H130.314C130.688 56.5977 131.06 56.6551 131.413 56.7785C131.663 56.8508 131.88 57.0048 132.031 57.2158C132.182 57.4267 132.257 57.6823 132.245 57.9414C132.255 58.106 132.227 58.2706 132.163 58.4224C132.098 58.5742 132 58.7091 131.875 58.8165C131.581 59.0359 131.234 59.1721 130.869 59.2107L132.446 61.1462C132.528 61.2489 132.627 61.3369 132.738 61.4064C132.854 61.4634 132.98 61.4982 133.108 61.5089V61.6508H131.883L129.979 59.2856H129.643V60.7875C129.643 61.0753 129.683 61.2487 129.77 61.3275C129.94 61.4259 130.133 61.4776 130.329 61.4773V61.6193H128.209L128.205 61.5128Z" fill="#1B1918"/>
<path fill-rule="evenodd" clip-rule="evenodd" d="M133.214 61.5134C133.407 61.5102 133.595 61.4587 133.762 61.3636C133.845 61.2926 133.884 61.1152 133.884 60.8235V57.4374C133.907 57.2517 133.865 57.0639 133.766 56.9052C133.603 56.7969 133.41 56.7431 133.214 56.7515V56.6095H137.267L137.29 57.7015H137.117C137.097 57.4564 136.994 57.2255 136.825 57.0471C136.556 56.9198 136.257 56.8693 135.962 56.9013H134.925C134.815 56.9013 134.744 56.9013 134.72 56.9525C134.687 57.0156 134.674 57.0868 134.681 57.1575V58.8604H135.863C136.082 58.891 136.304 58.839 136.486 58.7146C136.604 58.5401 136.678 58.3401 136.703 58.1312H136.88V59.8893H136.703C136.678 59.6786 136.602 59.4771 136.482 59.3019C136.3 59.1816 136.08 59.1312 135.863 59.16H134.681V61.0482C134.681 61.198 134.728 61.2887 134.823 61.3163C135.107 61.3523 135.395 61.3655 135.682 61.3557C136.07 61.3775 136.459 61.3198 136.825 61.1862C137.137 61.0008 137.372 60.7099 137.487 60.3663H137.7L137.357 61.6553H133.214V61.5134Z" fill="#1B1918"/>
</g>
<defs>
<clipPath id="clip0_950_134">
<rect width="168" height="62" fill="white" transform="translate(0 0.00146484)"/>
</clipPath>
</defs>
</svg>
