<svg width="168" height="56" viewBox="0 0 168 56" fill="none" xmlns="http://www.w3.org/2000/svg">
<g clip-path="url(#clip0_747_429)">
<path d="M18.0222 49.76L16.8793 52.3094L15.7365 49.76H15.1211V53.8919H15.7365V51.1666L16.7035 53.1886H17.1431L18.0222 51.1666V53.8919H18.6376V49.76H18.0222Z" fill="black"/>
<path d="M22.3295 50.727L22.9449 52.5732H21.7141L22.3295 50.727ZM22.0658 49.76L20.6592 53.8919H21.2746L21.5383 53.1007H23.1207L23.3845 53.8919H23.9998L22.5932 49.76H22.0658Z" fill="black"/>
<path d="M26.6369 49.76H26.0215V53.8919H26.6369V49.76Z" fill="black"/>
<path d="M30.1537 53.9798C29.8954 53.9948 29.6368 53.9556 29.3946 53.8648C29.1523 53.774 28.9318 53.6335 28.7471 53.4523L29.1866 53.0127C29.316 53.1332 29.4683 53.2264 29.6344 53.2868C29.8006 53.3472 29.9771 53.3736 30.1537 53.3644C30.6811 53.3644 30.9449 53.1007 30.9449 52.749C30.9419 52.5859 30.8793 52.4296 30.769 52.3095C30.715 52.2474 30.6469 52.199 30.5705 52.1685C30.4941 52.1379 30.4114 52.1259 30.3295 52.1336L29.8899 52.0457C29.5383 51.9578 29.2745 51.8699 29.1866 51.6941C29.0921 51.5865 29.02 51.461 28.9747 51.3251C28.9294 51.1893 28.9118 51.0457 28.9229 50.9029C28.9211 50.7332 28.9547 50.565 29.0216 50.409C29.0884 50.253 29.187 50.1127 29.311 49.9969C29.4351 49.8811 29.5819 49.7924 29.7421 49.7365C29.9023 49.6806 30.0724 49.6586 30.2416 49.6721C30.6908 49.6691 31.1266 49.8248 31.4723 50.1116L31.1207 50.4633C31.0085 50.3443 30.8717 50.2512 30.7199 50.1905C30.5681 50.1298 30.4049 50.1029 30.2416 50.1116C30.154 50.1004 30.065 50.108 29.9805 50.1337C29.896 50.1595 29.8179 50.2029 29.7514 50.2611C29.6849 50.3192 29.6316 50.3908 29.5948 50.4712C29.5581 50.5515 29.5388 50.6387 29.5383 50.727C29.5383 50.9029 29.5383 50.9908 29.7141 51.0787C29.8343 51.189 29.9906 51.2515 30.1537 51.2545L30.5932 51.3424C30.8378 51.4003 31.0741 51.4889 31.2965 51.6062C31.5164 51.8469 31.6414 52.1593 31.6482 52.4853C31.6505 52.6822 31.6135 52.8776 31.5392 53.06C31.4649 53.2424 31.3549 53.4081 31.2157 53.5473C31.0764 53.6866 30.9108 53.7966 30.7284 53.8708C30.546 53.9451 30.3506 53.9821 30.1537 53.9798Z" fill="black"/>
<path d="M35.6036 50.5512C35.4392 50.3901 35.2183 50.2999 34.9882 50.2999C34.7581 50.2999 34.5371 50.3901 34.3728 50.5512C34.2709 50.9829 34.2412 51.4285 34.2849 51.8699C34.2849 52.6611 34.2849 52.9248 34.5486 53.1886C34.7129 53.3496 34.9339 53.4399 35.164 53.4399C35.3941 53.4399 35.6151 53.3496 35.7794 53.1886C35.9552 52.9248 36.0431 52.749 36.0431 51.8699C35.8673 50.9908 35.8673 50.8149 35.6036 50.5512ZM36.131 53.5402C35.9929 53.6795 35.8286 53.79 35.6475 53.8655C35.4665 53.9409 35.2722 53.9798 35.0761 53.9798C34.8799 53.9798 34.6857 53.9409 34.5047 53.8655C34.3236 53.79 34.1593 53.6795 34.0211 53.5402C33.7016 53.046 33.5764 52.451 33.6695 51.8699C33.5764 51.2888 33.7016 50.6938 34.0211 50.1996C34.1593 50.0603 34.3236 49.9497 34.5047 49.8743C34.6857 49.7988 34.8799 49.76 35.0761 49.76C35.2722 49.76 35.4665 49.7988 35.6475 49.8743C35.8286 49.9497 35.9929 50.0603 36.131 50.1996C36.4505 50.6938 36.5758 51.2888 36.4827 51.8699C36.5758 52.451 36.4505 53.046 36.131 53.5402Z" fill="black"/>
<path d="M41.1422 49.76V52.6611L39.3839 49.76H38.7686V53.8919H39.3839V50.9908L41.2301 53.8919H41.7576V49.76H41.1422Z" fill="black"/>
<path d="M49.0552 50.6391C48.9647 50.5459 48.8547 50.474 48.7331 50.4284C48.6115 50.3828 48.4813 50.3647 48.3519 50.3754H47.6486V53.3644H48.3519C48.6117 53.371 48.8638 53.2764 49.0552 53.1007C49.2255 52.6833 49.2861 52.2293 49.231 51.782C49.231 51.1666 49.231 50.8149 49.0552 50.6391ZM49.4068 53.5402C49.2644 53.6679 49.0973 53.765 48.9158 53.8255C48.7344 53.886 48.5424 53.9086 48.3519 53.8919H46.9453V49.76H48.3519C48.5424 49.7433 48.7344 49.7659 48.9158 49.8264C49.0973 49.8869 49.2644 49.984 49.4068 50.1116C49.5887 50.3462 49.7213 50.615 49.7968 50.902C49.8724 51.189 49.8892 51.4883 49.8464 51.782C49.9334 52.4029 49.7758 53.0333 49.4068 53.5402Z" fill="black"/>
<path d="M52.0439 49.76V50.9029L52.6593 50.3754V49.76H52.0439Z" fill="black"/>
<path d="M57.3189 49.76V51.5182H55.7365V49.76H55.1211V53.8919H55.7365V52.1336H57.3189V53.8919H57.8464V49.76H57.3189Z" fill="black"/>
<path d="M62.2414 50.5512C62.0771 50.3901 61.8562 50.2999 61.6261 50.2999C61.3959 50.2999 61.175 50.3901 61.0107 50.5512C60.8349 50.8149 60.7469 50.9908 60.7469 51.8699C60.7469 52.749 60.7469 52.9248 61.0107 53.1886C61.175 53.3496 61.3959 53.4399 61.6261 53.4399C61.8562 53.4399 62.0771 53.3496 62.2414 53.1886C62.4173 52.9248 62.4173 52.6611 62.4173 51.8699C62.4173 51.0787 62.4173 50.8149 62.2414 50.5512ZM62.681 53.5402C62.5429 53.6795 62.3786 53.79 62.1975 53.8655C62.0164 53.9409 61.8222 53.9798 61.6261 53.9798C61.4299 53.9798 61.2357 53.9409 61.0546 53.8655C60.8736 53.79 60.7092 53.6795 60.5711 53.5402C60.2516 53.046 60.1264 52.451 60.2195 51.8699C60.1264 51.2888 60.2516 50.6938 60.5711 50.1996C60.7092 50.0603 60.8736 49.9497 61.0546 49.8743C61.2357 49.7988 61.4299 49.76 61.6261 49.76C61.8222 49.76 62.0164 49.7988 62.1975 49.8743C62.3786 49.9497 62.5429 50.0603 62.681 50.1996C63.0005 50.6938 63.1258 51.2888 63.0326 51.8699C63.1258 52.451 63.0005 53.046 62.681 53.5402Z" fill="black"/>
<path d="M66.9008 50.3754H66.0217V51.6941H66.9008C66.9884 51.7053 67.0774 51.6977 67.1619 51.672C67.2464 51.6462 67.3245 51.6028 67.391 51.5447C67.4575 51.4865 67.5108 51.4149 67.5476 51.3346C67.5843 51.2542 67.6036 51.167 67.6041 51.0787C67.5162 50.5512 67.2525 50.3754 66.9008 50.3754ZM67.5162 53.8919L66.725 52.1336H66.0217V53.8919H65.4063V49.76H66.9008C67.0634 49.7564 67.2251 49.7858 67.376 49.8463C67.527 49.9069 67.6641 49.9975 67.7791 50.1125C67.8941 50.2275 67.9847 50.3646 68.0452 50.5155C68.1058 50.6665 68.1352 50.8282 68.1316 50.9908C68.1535 51.2333 68.0848 51.4754 67.9387 51.6703C67.7925 51.8651 67.5794 51.9989 67.3404 52.0457L68.2195 53.8919H67.5162Z" fill="black"/>
<path d="M70.417 49.76V53.8919H72.9664V53.3644H71.0324V49.76H70.417Z" fill="black"/>
<path d="M76.7463 50.5512C76.582 50.3901 76.3611 50.2999 76.1309 50.2999C75.9008 50.2999 75.6799 50.3901 75.5156 50.5512C75.3397 50.8149 75.2518 50.9908 75.2518 51.8699C75.2518 52.749 75.2518 52.9248 75.5156 53.1886C75.6799 53.3496 75.9008 53.4399 76.1309 53.4399C76.3611 53.4399 76.582 53.3496 76.7463 53.1886C76.9222 52.9248 77.0101 52.749 77.0101 51.8699C77.0101 50.9908 76.9222 50.8149 76.7463 50.5512ZM77.1859 53.5402C77.0478 53.6795 76.8834 53.79 76.7024 53.8655C76.5213 53.9409 76.3271 53.9798 76.1309 53.9798C75.9348 53.9798 75.7406 53.9409 75.5595 53.8655C75.3784 53.79 75.2141 53.6795 75.076 53.5402C74.7565 53.046 74.6312 52.451 74.7243 51.8699C74.6312 51.2888 74.7565 50.6938 75.076 50.1996C75.2141 50.0603 75.3784 49.9497 75.5595 49.8743C75.7406 49.7988 75.9348 49.76 76.1309 49.76C76.3271 49.76 76.5213 49.7988 76.7024 49.8743C76.8834 49.9497 77.0478 50.0603 77.1859 50.1996C77.5054 50.6938 77.6306 51.2888 77.5375 51.8699C77.6255 52.6611 77.6255 53.1007 77.1859 53.5402Z" fill="black"/>
<path d="M82.2855 53.4523C82.1555 53.6021 81.9927 53.7197 81.8096 53.796C81.6266 53.8722 81.4284 53.9051 81.2306 53.8919C81.0342 53.8934 80.8395 53.8552 80.6583 53.7797C80.477 53.7041 80.3128 53.5928 80.1756 53.4523C79.8561 52.9581 79.7309 52.3631 79.824 51.782C79.7309 51.2009 79.8561 50.6059 80.1756 50.1116C80.3128 49.9712 80.477 49.8598 80.6583 49.7843C80.8395 49.7088 81.0342 49.6706 81.2306 49.6721C81.587 49.6775 81.9287 49.8156 82.1888 50.0595C82.4489 50.3033 82.6087 50.6354 82.6371 50.9908H82.0218C82.004 50.7949 81.9122 50.6132 81.7653 50.4826C81.6183 50.352 81.4271 50.2822 81.2306 50.2875C81.115 50.2844 81.0002 50.3063 80.8939 50.3519C80.7877 50.3974 80.6926 50.4654 80.6152 50.5512C80.4393 50.8149 80.3514 50.9908 80.3514 51.8699C80.3514 52.749 80.3514 52.9248 80.6152 53.1886C80.6926 53.2744 80.7877 53.3424 80.8939 53.3879C81.0002 53.4334 81.115 53.4554 81.2306 53.4523C81.3471 53.4646 81.4649 53.4468 81.5726 53.4007C81.6804 53.3545 81.7745 53.2815 81.8459 53.1886C81.9195 53.1058 81.9735 53.0074 82.004 52.9009C82.0344 52.7944 82.0405 52.6824 82.0218 52.5732V52.3095H81.1426V51.782H82.6371V52.3974C82.6538 52.5879 82.6312 52.7799 82.5707 52.9613C82.5103 53.1428 82.4132 53.3099 82.2855 53.4523Z" fill="black"/>
<path d="M85.0105 49.76V53.8919H87.4721V53.3644H85.538V52.1336H87.2083V51.5182H85.538V50.3754H87.4721V49.76H85.0105Z" fill="black"/>
<path d="M91.2523 50.3754H90.3732V51.6941H91.2523C91.3399 51.7053 91.4289 51.6977 91.5134 51.672C91.5979 51.6462 91.676 51.6028 91.7424 51.5447C91.8089 51.4865 91.8623 51.4149 91.899 51.3346C91.9358 51.2542 91.9551 51.167 91.9556 51.0787C91.8677 50.5512 91.6039 50.3754 91.2523 50.3754ZM91.9556 53.8919L91.1644 52.1336H90.4611V53.8919H89.8457V49.76H91.3402C91.5028 49.7564 91.6645 49.7858 91.8154 49.8463C91.9664 49.9069 92.1035 49.9975 92.2185 50.1125C92.3335 50.2275 92.424 50.3646 92.4846 50.5155C92.5452 50.6665 92.5746 50.8282 92.571 50.9908C92.5929 51.2333 92.5242 51.4754 92.3781 51.6703C92.2319 51.8651 92.0188 51.9989 91.7798 52.0457L92.6589 53.8919H91.9556Z" fill="black"/>
<path d="M95.4728 49.76H94.8574V53.8919H95.4728V49.76Z" fill="black"/>
<path d="M97.9338 49.76V53.8919H100.395V53.3644H98.4613V52.1336H100.132V51.5182H98.4613V50.3754H100.395V49.76H97.9338Z" fill="black"/>
<path d="M107.78 53.4523C107.65 53.6021 107.487 53.7197 107.304 53.796C107.121 53.8722 106.923 53.9051 106.725 53.8919C106.528 53.8934 106.334 53.8552 106.152 53.7797C105.971 53.7041 105.807 53.5928 105.67 53.4523C105.35 52.9581 105.225 52.3631 105.318 51.782C105.225 51.2009 105.35 50.6059 105.67 50.1116C105.807 49.9712 105.971 49.8598 106.152 49.7843C106.334 49.7088 106.528 49.6706 106.725 49.6721C107.081 49.6775 107.423 49.8156 107.683 50.0595C107.943 50.3033 108.103 50.6354 108.131 50.9908H107.516C107.498 50.7949 107.406 50.6132 107.259 50.4826C107.112 50.352 106.921 50.2822 106.725 50.2875C106.609 50.2844 106.494 50.3063 106.388 50.3519C106.282 50.3974 106.187 50.4654 106.109 50.5512C105.933 50.8149 105.846 50.9908 105.846 51.8699C105.785 52.3265 105.878 52.7902 106.109 53.1886C106.187 53.2744 106.282 53.3424 106.388 53.3879C106.494 53.4334 106.609 53.4554 106.725 53.4523C106.841 53.4646 106.959 53.4468 107.067 53.4007C107.174 53.3545 107.269 53.2815 107.34 53.1886C107.414 53.1058 107.468 53.0074 107.498 52.9009C107.529 52.7944 107.535 52.6824 107.516 52.5732V52.3095H106.637V51.782H108.043V52.3974C108.095 52.581 108.097 52.7748 108.051 52.9597C108.005 53.1447 107.911 53.3145 107.78 53.4523Z" fill="black"/>
<path d="M110.505 49.76V53.8919H113.054V53.3644H111.12V52.1336H112.703V51.5182H111.12V50.3754H113.054V49.76H110.505Z" fill="black"/>
<path d="M117.625 49.76V52.6611L115.867 49.76H115.252V53.8919H115.867V50.9908L117.713 53.8919H118.241V49.76H117.625Z" fill="black"/>
<path d="M120.703 49.76V53.8919H123.253V53.3644H121.319V52.1336H122.989V51.5182H121.319V50.3754H123.253V49.76H120.703Z" fill="black"/>
<path d="M127.472 49.76L126.593 52.749L125.626 49.76H125.011L126.329 53.8919H126.769L128.087 49.76H127.472Z" fill="black"/>
<path d="M130.109 49.76V53.8919H132.571V53.3644H130.637V52.1336H132.307V51.5182H130.637V50.3754H132.571V49.76H130.109Z" fill="black"/>
<path d="M138.549 49.76L137.758 50.4633V51.1666L138.549 50.3754V53.8919H139.076V49.76H138.549Z" fill="black"/>
<path d="M143.033 50.2875C142.911 50.2875 142.792 50.3236 142.691 50.3912C142.589 50.4588 142.511 50.5549 142.464 50.6674C142.417 50.7798 142.405 50.9035 142.429 51.0229C142.453 51.1423 142.511 51.2519 142.597 51.338C142.683 51.4241 142.793 51.4827 142.912 51.5064C143.032 51.5302 143.156 51.518 143.268 51.4714C143.38 51.4248 143.477 51.3459 143.544 51.2447C143.612 51.1435 143.648 51.0246 143.648 50.9029C143.56 50.5512 143.384 50.2875 143.033 50.2875ZM143.033 52.0457C142.944 52.0462 142.857 52.0655 142.777 52.1023C142.696 52.139 142.625 52.1924 142.567 52.2589C142.508 52.3253 142.465 52.4034 142.439 52.4879C142.413 52.5724 142.406 52.6614 142.417 52.749C142.41 52.9229 142.469 53.0929 142.584 53.2239C142.699 53.3548 142.859 53.4366 143.033 53.4523C143.2 53.4258 143.352 53.3403 143.462 53.2114C143.573 53.0825 143.633 52.9185 143.633 52.749C143.633 52.5795 143.573 52.4155 143.462 52.2866C143.352 52.1577 143.2 52.0723 143.033 52.0457ZM143.033 53.9798C142.868 53.9915 142.703 53.9678 142.548 53.9101C142.393 53.8524 142.253 53.7621 142.136 53.6454C142.019 53.5287 141.929 53.3882 141.871 53.2336C141.814 53.0789 141.79 52.9137 141.802 52.749C141.794 52.5552 141.839 52.3629 141.932 52.1926C142.025 52.0223 142.162 51.8804 142.329 51.782C142.184 51.6881 142.067 51.557 141.989 51.4024C141.912 51.2478 141.878 51.0753 141.89 50.9029C141.89 50.5998 142.01 50.3091 142.224 50.0947C142.439 49.8804 142.729 49.76 143.033 49.76C143.336 49.76 143.626 49.8804 143.841 50.0947C144.055 50.3091 144.175 50.5998 144.175 50.9029C144.168 51.0721 144.125 51.2378 144.049 51.3893C143.974 51.5408 143.867 51.6746 143.736 51.782C143.903 51.8804 144.04 52.0223 144.133 52.1926C144.226 52.3629 144.271 52.5552 144.263 52.749C144.243 53.0686 144.106 53.3698 143.88 53.5963C143.653 53.8228 143.352 53.9591 143.033 53.9798Z" fill="black"/>
<path d="M147.34 53.9798C147.184 53.9868 147.028 53.9628 146.881 53.9089C146.734 53.8551 146.6 53.7726 146.485 53.6662C146.371 53.5598 146.278 53.4317 146.214 53.2894C146.149 53.147 146.114 52.9932 146.109 52.8369H146.637C146.634 52.9184 146.648 52.9995 146.678 53.0753C146.709 53.151 146.754 53.2198 146.811 53.2775C146.869 53.3351 146.938 53.3804 147.014 53.4104C147.089 53.4405 147.171 53.4547 147.252 53.4523C147.34 53.4518 147.428 53.4325 147.508 53.3958C147.588 53.359 147.66 53.3056 147.718 53.2392C147.776 53.1727 147.82 53.0946 147.845 53.0101C147.871 52.9256 147.879 52.8366 147.867 52.749C147.867 52.3094 147.692 52.0457 147.252 52.0457H147.164V51.5182H147.252C147.415 51.5182 147.572 51.4534 147.687 51.338C147.803 51.2226 147.867 51.0661 147.867 50.9029C147.867 50.7396 147.803 50.5831 147.687 50.4677C147.572 50.3523 147.415 50.2875 147.252 50.2875C146.9 50.2875 146.725 50.5512 146.637 50.9029H146.109C146.104 50.7514 146.13 50.6007 146.186 50.4598C146.242 50.3189 146.326 50.191 146.433 50.0839C146.54 49.9767 146.668 49.8927 146.809 49.837C146.95 49.7813 147.101 49.7551 147.252 49.76C147.405 49.7481 147.559 49.7695 147.703 49.8228C147.847 49.876 147.978 49.9598 148.086 50.0684C148.195 50.177 148.279 50.3078 148.332 50.4518C148.385 50.5959 148.407 50.7497 148.395 50.9029C148.41 51.0862 148.367 51.2696 148.273 51.4273C148.178 51.585 148.036 51.709 147.867 51.782C148.047 51.8662 148.194 52.0053 148.289 52.1792C148.384 52.3531 148.421 52.5527 148.395 52.749C148.443 52.9037 148.45 53.0679 148.418 53.2264C148.385 53.3849 148.312 53.5324 148.207 53.6553C148.101 53.7782 147.967 53.8724 147.815 53.9292C147.664 53.9859 147.5 54.0033 147.34 53.9798Z" fill="black"/>
<path d="M152.352 50.9029C152.352 50.4633 152.176 50.1996 151.736 50.1996C151.297 50.1996 151.209 50.4633 151.209 50.9029V52.6611C151.209 53.1007 151.385 53.3644 151.736 53.3644C151.825 53.3639 151.912 53.3446 151.992 53.3078C152.072 53.2711 152.144 53.2177 152.202 53.1513C152.26 53.0848 152.304 53.0067 152.329 52.9222C152.355 52.8377 152.363 52.7487 152.352 52.6611V50.9029ZM151.824 53.9798C151.673 53.9847 151.522 53.9585 151.381 53.9027C151.24 53.847 151.112 53.763 151.005 53.6559C150.898 53.5488 150.814 53.4209 150.758 53.28C150.703 53.1391 150.676 52.9883 150.681 52.8369V50.9029C150.681 50.5998 150.802 50.3091 151.016 50.0947C151.23 49.8804 151.521 49.76 151.824 49.76C152.127 49.76 152.418 49.8804 152.632 50.0947C152.847 50.3091 152.967 50.5998 152.967 50.9029V52.749C152.973 52.9049 152.948 53.0604 152.894 53.2066C152.839 53.3529 152.757 53.487 152.651 53.6013C152.545 53.7156 152.417 53.8079 152.275 53.8728C152.133 53.9378 151.98 53.9741 151.824 53.9798Z" fill="black"/>
<path d="M31.1203 42.4633C30.7118 42.4871 30.3032 42.4206 29.9234 42.2687C29.5435 42.1167 29.2018 41.883 28.9225 41.5842C28.7032 41.3527 28.5413 41.0731 28.4497 40.7678C28.3581 40.4624 28.3394 40.1398 28.395 39.8259V32.1776H26.373V40.0018C26.373 42.2875 28.2192 43.8699 31.1203 43.8699C34.0214 43.8699 35.8675 42.2875 35.8675 40.0018V32.1776H33.8455V39.9138C33.8455 41.5842 32.8785 42.4633 31.1203 42.4633Z" fill="black"/>
<path d="M50.1098 32.2655L45.978 37.2765L41.8461 32.2655H40.1758V43.782H42.0219V34.9029L45.978 39.738L49.934 34.9029V43.782H51.7802V32.2655H50.1098Z" fill="black"/>
<path d="M5.45055 42.2875H1.93407V38.5952H5.45055C6.85714 38.5952 7.73626 39.2985 7.73626 40.4413C7.73626 41.5842 6.85714 42.2875 5.45055 42.2875ZM1.93407 33.6721H5.27473C6.68132 33.6721 7.56044 34.3754 7.56044 35.4303C7.56044 36.4853 6.68132 37.1886 5.27473 37.1886H1.93407V33.6721ZM7.64835 37.8919L7.47253 37.804L7.64835 37.716C8.1551 37.5577 8.59846 37.2425 8.91447 36.8159C9.23048 36.3893 9.40281 35.8733 9.40659 35.3424C9.40659 33.4084 7.91209 32.1776 5.45055 32.1776H0V43.6941H5.62637C8.08791 43.6941 9.58242 42.4633 9.58242 40.4413C9.59957 39.8594 9.41705 39.2892 9.0652 38.8254C8.71335 38.3616 8.21336 38.0321 7.64835 37.8919Z" fill="black"/>
<path d="M17.2307 33.8479H18.4614L19.868 38.8589H15.8241L17.2307 33.8479ZM15.9999 32.2655L12.4834 43.782H14.5054L15.4724 40.3534H20.3955L21.3625 43.782H23.3845L19.868 32.2655H15.9999Z" fill="black"/>
<path d="M56.0871 32.2655V43.782H64.5267V42.2875H57.9333V38.6831H63.5596V37.1886H57.9333V33.76H64.5267V32.2655H56.0871Z" fill="black"/>
<path d="M94.8569 32.2655L90.7251 37.2765L90.6372 37.1886L86.5053 32.2655H84.835V43.782H86.6811V34.9029L90.7251 39.738L94.6811 34.9029V43.782H96.4394V32.2655H94.8569Z" fill="black"/>
<path d="M115.516 33.6721H118.681C120.087 33.6721 121.054 34.4633 121.054 35.6062C121.054 36.749 120.087 37.5402 118.681 37.5402H115.516V33.6721ZM120.263 38.5952C120.992 38.505 121.663 38.1512 122.149 37.6006C122.634 37.0499 122.902 36.3405 122.901 35.6062C122.901 33.5842 121.23 32.2655 118.769 32.2655H113.582V43.782H115.428V38.8589H118.153L120.967 43.782H123.164L120.087 38.5952H120.263Z" fill="black"/>
<path d="M141.714 32.2655H139.692V43.782H141.714V32.2655Z" fill="black"/>
<path d="M160.263 33.6721H163.428C164.835 33.6721 165.802 34.4633 165.802 35.6062C165.802 36.749 164.835 37.5402 163.428 37.5402H160.263V33.6721ZM165.011 38.5952H165.098C165.827 38.505 166.498 38.1512 166.984 37.6006C167.47 37.0499 167.737 36.3405 167.736 35.6062C167.736 33.5842 166.065 32.2655 163.604 32.2655H158.417V43.782H160.263V38.8589H162.989L165.802 43.782H168L165.011 38.5952Z" fill="black"/>
<path d="M101.099 32.2655V43.782H109.626V42.2875H103.033V38.6831H108.659V37.1886H103.033V33.76H109.626V32.2655H101.099Z" fill="black"/>
<path d="M146.197 32.2655V43.782H154.637V42.2875H148.043V38.6831H153.67V37.1886H148.043V33.76H154.637V32.2655H146.197Z" fill="black"/>
<path d="M133.978 35.5182H135.912C135.671 34.4617 135.06 33.5263 134.189 32.8813C133.318 32.2362 132.245 31.9243 131.164 32.0018C129.88 31.9624 128.627 32.4009 127.648 33.2325C126.329 34.3754 126.329 35.6062 126.329 37.804V37.8919C126.329 40.0897 126.329 41.4083 127.648 42.6391C128.635 43.4571 129.883 43.8939 131.164 43.8699C133.714 43.8699 135.472 42.5512 135.912 40.3534H133.978C133.822 40.9678 133.454 41.5076 132.94 41.8775C132.425 42.2475 131.796 42.4238 131.164 42.3754C130.385 42.3961 129.628 42.1123 129.054 41.5842C128.351 40.9688 128.175 40.2655 128.175 37.8919C128.175 35.5182 128.351 34.8149 129.054 34.1116C129.651 33.6332 130.4 33.3838 131.164 33.4083C131.797 33.4121 132.413 33.6192 132.919 33.9991C133.426 34.3789 133.797 34.9115 133.978 35.5182Z" fill="black"/>
<path d="M75.8677 41.5842C75.2235 42.1789 74.3703 42.4949 73.4941 42.4633C73.2101 42.486 72.9245 42.4512 72.6542 42.361C72.384 42.2708 72.1347 42.127 71.9214 41.9382C71.708 41.7495 71.5349 41.5196 71.4123 41.2624C71.2898 41.0052 71.2205 40.726 71.2084 40.4413C71.2084 39.3864 71.9117 38.8589 72.8787 38.2435H72.9666L75.8677 41.5842ZM73.7578 33.5842C73.9204 33.5806 74.0821 33.6099 74.233 33.6705C74.384 33.7311 74.5211 33.8216 74.6361 33.9366C74.7511 34.0517 74.8417 34.1888 74.9022 34.3397C74.9628 34.4907 74.9922 34.6523 74.9886 34.8149C74.9685 35.0808 74.8759 35.3361 74.7209 35.5531C74.5659 35.7701 74.3545 35.9405 74.1095 36.0457C73.9199 36.1883 73.7131 36.3064 73.4941 36.3974H73.4062V36.3095C72.7908 35.6062 72.4391 35.1666 72.4391 34.727C72.4479 34.5644 72.4894 34.4053 72.561 34.259C72.6326 34.1128 72.7329 33.9825 72.856 33.8758C72.979 33.7692 73.1223 33.6884 73.2773 33.6383C73.4322 33.5882 73.5956 33.5698 73.7578 33.5842ZM77.9776 41.4963C78.771 40.5349 79.1784 39.3128 79.1205 38.0677H77.626C77.6911 38.8778 77.4737 39.6855 77.0106 40.3534L76.9227 40.4413L74.2853 37.4523L74.3732 37.3644C74.6369 37.1886 75.2523 36.749 75.2523 36.749C75.6201 36.5769 75.9311 36.3036 76.1491 35.9611C76.3671 35.6185 76.4829 35.221 76.4831 34.8149C76.4831 33.3204 75.3402 32.3534 73.6699 32.3534C71.9996 32.3534 70.8567 33.3204 70.8567 34.8149C70.9384 35.7373 71.3807 36.5903 72.0875 37.1886L72.1754 37.2765L72.0875 37.3644C70.9446 38.0677 69.7139 38.9468 69.7139 40.5292C69.7139 42.6391 71.1205 43.8699 73.4941 43.8699C74.0915 43.8968 74.6881 43.8015 75.2474 43.5899C75.8066 43.3783 76.3169 43.0547 76.7468 42.6391L76.8347 42.5512L77.8018 43.6941H79.8238L77.9776 41.4963Z" fill="black"/>
<path d="M85.714 3.78198V0.792969H82.4612V3.78198C77.1865 4.39736 73.2305 7.82594 73.2305 11.9578C73.2305 16.0897 77.1865 19.5182 82.4612 20.1336V23.1226H85.714V20.1336C90.9008 19.5182 94.9447 16.0897 94.9447 11.9578C94.9447 7.82594 90.9008 4.39736 85.714 3.78198ZM82.3733 18.6391C79.0327 17.9358 76.4832 15.2106 76.4832 11.9578C76.543 10.3354 77.1622 8.7837 78.2358 7.56589C79.3094 6.34808 80.7712 5.5392 82.3733 5.27648V18.6391ZM85.714 18.6391V5.27648C89.0546 5.97978 91.6041 8.70506 91.6041 11.9578C91.5173 13.5718 90.8886 15.1093 89.8198 16.3217C88.7509 17.5342 87.3043 18.3506 85.714 18.6391Z" fill="black"/>
</g>
<defs>
<clipPath id="clip0_747_429">
<rect width="168" height="55" fill="white" transform="translate(0 0.896484)"/>
</clipPath>
</defs>
</svg>
