<svg width="168" height="106" viewBox="0 0 168 106" fill="none" xmlns="http://www.w3.org/2000/svg">
<g clip-path="url(#clip0_678_109)">
<path fill-rule="evenodd" clip-rule="evenodd" d="M45.9642 67.5654C36.0239 82.6574 23.6464 86.9203 14.8435 86.9203C6.45161 86.9203 0 83.2978 0 76.98C0 69.3337 10.0645 62.1461 18.8387 62.1461C22.9677 62.1461 26.5806 64.7267 26.5806 68.4639C26.5806 71.9525 23.3596 77.3623 14.9677 77.3623C13.0286 77.362 11.1054 77.0124 9.29032 76.3301C10.9524 76.6408 12.6369 76.8166 14.3274 76.8558C21.4194 76.8558 24.6499 72.5929 24.6499 68.7219C24.6499 63.3026 19.4887 62.7865 18.4564 62.7865C9.94026 62.7865 2.5902 69.477 2.5902 76.8558C2.5902 83.4316 9.54839 86.4137 14.8435 86.4137C20.1386 86.4137 30.356 85.2381 41.1947 69.3719C47.9044 59.7184 56.8029 49.759 70.0884 46.6622C58.8674 50.9155 55.3787 53.1138 45.9642 67.5654Z" fill="black"/>
<path fill-rule="evenodd" clip-rule="evenodd" d="M37.0562 79.79C40.8029 79.9143 46.3465 75.7948 46.3465 72.1437C46.3467 71.759 46.2695 71.3781 46.1194 71.0239C45.9694 70.6696 45.7496 70.3491 45.4731 70.0816C45.1967 69.814 44.8692 69.6049 44.5102 69.4665C44.1512 69.3282 43.768 69.2635 43.3835 69.2763C36.4158 69.2763 31.5125 76.3683 31.5125 80.2393C31.5125 84.6264 35.6416 85.9167 37.7061 85.9167C44.9319 85.9167 54.4803 77.4006 54.4803 70.6909C54.4803 66.9537 52.5687 66.8677 51.1254 66.8677C50.0932 66.8677 49.5771 67.1258 49.5771 67.5176C49.5771 67.9095 50.3513 68.2823 50.7336 68.2823C55.5125 68.2823 64.0287 60.9322 64.0287 54.6144C64.0287 50.0935 59.8996 49.9693 58.7336 49.9693C51.2497 49.9693 46.6045 56.029 42.0932 62.2226C37.5818 68.4161 29.448 76.3301 19.7754 78.6527C29.7061 75.0111 36.2915 67.6897 40.9271 61.2381C45.448 55.1783 52.6738 48.8127 60.282 48.8127C62.6045 48.8127 66.7336 50.1031 66.7336 54.4902C66.7336 60.8175 55.8949 68.8271 51.1254 68.8271C49.0609 68.8271 48.8029 68.0529 48.8029 67.5368C48.8029 66.6288 50.7145 65.8546 52.282 65.8546C54.4803 65.8546 57.5771 67.1449 57.5771 70.7578C57.5771 76.5595 48.0191 86.624 37.19 86.624C33.319 86.624 29.9642 84.1771 29.9642 80.8223C29.9642 75.9191 36.5496 68.6933 44.0239 68.6933C46.4803 68.6933 47.8471 70.4997 47.8471 71.7901C47.8471 74.8868 43.0681 80.1819 37.0084 79.79H37.0562Z" fill="black"/>
<path fill-rule="evenodd" clip-rule="evenodd" d="M136.019 77.1043C135.885 77.1043 135.761 77.2381 135.627 77.3623C131.24 81.7494 127.111 85.0087 124.664 85.0087C122.982 85.0087 122.342 84.4926 122.342 82.428C122.321 82.0384 122.363 81.6479 122.466 81.2715C127.111 81.1377 133.697 78.0409 133.697 74.6861C133.697 74.0362 133.305 73.0135 131.498 73.0135C128.631 73.0135 124.272 75.8809 121.568 78.8151C117.18 83.8426 113.826 85.1329 113.051 85.1329C112.277 85.1329 111.245 84.6168 113.309 81.7781L119.627 73.2715H116.53L113.434 77.391C109.314 82.9442 106.084 85.2668 104.411 85.2668C103.503 85.2668 102.499 84.6168 104.535 81.7781L110.987 73.2715H107.766C104.277 77.9071 102.471 79.8474 94.0884 84.7411L102.605 73.2715H99.5078L98.2174 75.1831C97.9594 73.3767 96.7933 72.8605 94.9869 72.8605C91.8901 72.8605 88.0191 75.3074 85.5723 78.0218C81.7491 82.1509 77.4385 85.2476 75.1159 85.2476C73.7013 85.2476 73.0514 84.8558 73.0514 83.0493C73.0674 82.4392 73.154 81.833 73.3094 81.2429C78.2127 81.2429 83.632 76.9896 83.632 74.667C83.6607 74.0553 83.2497 73.0995 81.4433 73.0995C78.2127 73.0995 73.0514 76.7124 70.9869 80.1915C68.6643 79.035 69.5723 75.8044 73.5675 73.2237H69.8303L61.7061 81.8259C64.0287 78.5953 65.9594 75.7566 65.9594 74.7243C65.9564 74.4961 65.9062 74.271 65.812 74.0631C65.7177 73.8553 65.5815 73.6692 65.4118 73.5165C65.2421 73.3639 65.0426 73.2481 64.826 73.1763C64.6093 73.1045 64.3802 73.0784 64.1529 73.0995C62.6045 73.0995 57.4624 76.4543 54.9964 79.4173C59.5078 75.4221 63.1207 73.8737 63.5125 73.8737C64.2867 73.8737 64.0287 74.6479 63.6368 75.164L55.5126 86.0027H58.7336L68.282 75.9669C68.0783 76.9233 68.2104 77.9208 68.656 78.7912C69.1017 79.6617 69.8337 80.352 70.7288 80.7458C70.242 81.4742 69.9734 82.3264 69.9546 83.2022C69.9546 85.1138 71.7611 86.299 73.7013 86.299C76.1482 86.299 79.6368 84.2345 82.9916 81.3958C82.6666 82.0364 82.4902 82.7421 82.4755 83.4603C82.4753 83.845 82.5525 84.2259 82.7025 84.5801C82.8526 84.9344 83.0724 85.2549 83.3489 85.5224C83.6253 85.79 83.9528 85.9991 84.3118 86.1375C84.6708 86.2758 85.054 86.3405 85.4385 86.3277C87.503 86.3277 90.2174 85.0374 92.54 83.2309L89.8256 87.2261C89.3094 87.4842 88.7933 87.8761 88.1529 88.1819C78.4707 93.6013 70.8626 98.3707 70.8626 102.242C70.8626 103.532 71.6368 104.44 73.3094 104.44C77.5723 104.44 84.1481 98.2464 91.374 88.44L93.2186 86.0123C98.1219 83.2978 101.085 81.3671 103.799 78.6527L102.633 80.2106C99.4122 84.5881 102.633 85.8785 104.057 85.8785C105.864 85.8785 108.053 84.3301 110.117 82.3994C109.477 84.5881 110.767 85.8785 112.44 85.8785C114.351 85.8785 117.343 83.8139 119.799 81.6252C119.549 82.1034 119.415 82.6338 119.407 83.1736C119.371 83.6066 119.43 84.0424 119.579 84.4504C119.729 84.8584 119.966 85.2287 120.273 85.5356C120.581 85.8424 120.952 86.0782 121.361 86.2266C121.769 86.375 122.205 86.4323 122.638 86.3946C124.311 86.3946 127.025 85.2381 129.606 83.4316C131.166 82.3048 132.659 81.0889 134.079 79.79L129.826 85.9836H132.693L152.43 57.4722C151.264 58.6288 143.914 69.0852 136.048 77.0756L136.019 77.1043ZM130.084 73.8832C131.498 73.8832 131.374 74.6574 131.374 75.0398C131.374 77.4961 126.595 80.5929 122.6 80.7172C123.632 76.894 127.885 73.8832 130.084 73.8832ZM79.761 73.8832C79.9527 73.8604 80.1471 73.8812 80.3296 73.9441C80.5121 74.007 80.678 74.1103 80.815 74.2464C80.9519 74.3824 81.0564 74.5476 81.1205 74.7297C81.1846 74.9118 81.2067 75.106 81.1852 75.2978C81.1852 78.2703 76.0239 80.5929 73.4432 80.7172C74.4755 76.722 78.0884 73.8832 79.761 73.8832ZM87.2449 84.8462C86.3465 84.8462 85.5723 84.7219 85.5723 82.7817C85.5723 78.7865 90.2174 73.759 93.6965 73.759C96.0191 73.759 96.2772 75.3074 96.2772 76.0816C96.2772 80.7172 89.9594 84.8462 87.2449 84.8462ZM85.6965 93.1043C81.7013 98.7817 76.6643 103.943 73.5771 103.943C72.8029 103.943 72.1529 103.685 72.1529 102.786C72.1529 98.7817 80.0191 93.3623 88.4014 88.5929C88.6595 88.4591 88.7838 88.4591 89.0418 88.3349L85.687 93.1138L85.6965 93.1043Z" fill="black"/>
<path fill-rule="evenodd" clip-rule="evenodd" d="M150.719 69.4962H121.176L122.342 67.8235C122.982 68.4639 123.374 68.5977 125.563 68.5977C127.751 68.5977 150.719 69.3719 150.719 69.3719C150.977 69.3719 150.977 69.4962 150.719 69.4962Z" fill="black"/>
<path fill-rule="evenodd" clip-rule="evenodd" d="M160.526 74.0553C159.493 74.8295 156.702 79.3408 151.235 79.3408C149.429 79.3408 148.148 78.3086 148.148 76.4734C148.148 71.9621 154.839 68.4735 159.751 68.4735C162.074 68.4735 166.203 68.8653 166.203 74.1509C166.203 81.1186 159.627 85.7638 153.042 85.7638C148.53 85.7638 145.816 83.9573 140.53 83.9573C134.079 83.9573 131.756 87.0541 130.973 88.9848C131.364 88.0864 133.687 85.1616 139.622 85.1616C143.742 85.1616 147.269 87.0732 151.484 87.0732C158.452 87.0732 168 80.7459 168 74.0362C168 70.5571 165.935 67.7184 160.774 67.7184C154.456 67.7184 146.714 72.4973 146.714 77.1329C146.714 78.299 147.747 80.2297 150.968 80.2297C155.871 80.2297 159.742 75.078 160.526 74.0457V74.0553Z" fill="black"/>
<path fill-rule="evenodd" clip-rule="evenodd" d="M98.3417 96.7172C98.3417 95.3026 97.7013 95.5607 97.7013 95.4269H101.955C102.456 95.4044 102.957 95.4854 103.426 95.6647C103.895 95.8441 104.322 96.118 104.68 96.4694C105.039 96.8208 105.321 97.2422 105.51 97.7074C105.699 98.1726 105.79 98.6717 105.778 99.1736C105.778 101.362 103.589 102.653 101.955 102.653H97.7013C97.7013 102.653 98.3417 102.786 98.3417 101.362V96.7172ZM100.406 95.6849C100.148 95.6849 100.024 95.8187 100.024 95.943V101.62C100.024 102.012 100.148 102.395 100.54 102.395H101.18C102.605 102.395 104.048 101.238 104.048 99.0398C104.048 98.2656 103.665 95.6849 100.951 95.6849H100.406Z" fill="black"/>
<path fill-rule="evenodd" clip-rule="evenodd" d="M113.95 98.1413C114.319 97.8135 114.774 97.5993 115.262 97.5244C115.75 97.4495 116.249 97.517 116.699 97.7189C117.15 97.9209 117.532 98.2486 117.8 98.6626C118.069 99.0766 118.212 99.5594 118.213 100.053C118.208 100.421 118.129 100.784 117.982 101.122C117.834 101.459 117.62 101.763 117.353 102.016C117.085 102.269 116.77 102.466 116.425 102.595C116.08 102.724 115.713 102.783 115.345 102.767C115.086 102.779 114.826 102.74 114.582 102.651C114.337 102.562 114.113 102.427 113.921 102.251V104.44C113.921 105.606 114.313 105.472 114.437 105.472H111.857C111.857 105.472 112.373 105.606 112.373 104.44V98.9059C112.373 97.9502 111.857 97.9501 111.732 97.9501L113.921 97.434V98.084L113.95 98.1413ZM113.95 101.754C114.003 101.95 114.122 102.121 114.288 102.238C114.454 102.355 114.656 102.411 114.858 102.395C115.756 102.395 116.406 101.62 116.406 100.206C116.406 98.7912 115.632 98.0075 114.982 98.0075C114.586 98.0457 114.218 98.2296 113.95 98.5236V101.773V101.754Z" fill="black"/>
<path fill-rule="evenodd" clip-rule="evenodd" d="M126.853 101.496C126.853 102.786 127.369 102.528 127.369 102.653H124.76C124.894 102.528 125.276 102.786 125.276 101.496V98.7817C125.276 97.8832 124.894 97.8832 124.76 97.8832L126.824 97.3671V101.496H126.853Z" fill="black"/>
<path fill-rule="evenodd" clip-rule="evenodd" d="M125.955 96.0386C126.337 96.0386 126.729 95.7805 126.729 95.5224C126.729 95.2644 126.337 95.0063 125.955 95.0063C125.572 95.0063 125.18 95.2644 125.18 95.5224C125.18 95.7805 125.563 96.0386 125.955 96.0386Z" fill="black"/>
<path fill-rule="evenodd" clip-rule="evenodd" d="M123.89 101.878C123.881 101.948 123.887 102.02 123.91 102.087C123.933 102.154 123.97 102.214 124.02 102.264C124.07 102.314 124.131 102.352 124.198 102.375C124.265 102.397 124.336 102.404 124.406 102.395L122.495 102.653V102.012C122.268 102.265 121.989 102.465 121.677 102.599C121.365 102.733 121.027 102.797 120.688 102.786C118.777 102.786 118.882 101.362 118.882 100.588V98.6766C118.882 97.5105 118.499 97.6443 118.366 97.6443H120.43V101.123C120.43 102.289 121.08 102.414 121.204 102.414C121.47 102.418 121.732 102.348 121.96 102.211C122.188 102.074 122.373 101.876 122.495 101.64V98.7721C122.495 97.4818 121.978 97.6156 121.978 97.6156H123.89V101.878Z" fill="black"/>
<path fill-rule="evenodd" clip-rule="evenodd" d="M111.761 99.5559H107.756V99.8617C107.756 101.668 108.789 102.318 109.668 102.318C110.302 102.276 110.898 102 111.34 101.544C111.132 102.016 110.788 102.415 110.353 102.69C109.917 102.966 109.409 103.106 108.894 103.092C108.159 103.093 107.452 102.812 106.918 102.307C106.385 101.802 106.065 101.112 106.026 100.378C106.026 98.4663 108.091 97.4149 109.123 97.4149C109.751 97.3818 110.368 97.5899 110.848 97.9968C111.328 98.4037 111.634 98.9785 111.704 99.6037L111.761 99.5559ZM109.18 97.7494C108.225 97.7494 108.014 98.6575 107.89 99.2978H110.471C110.498 98.923 110.378 98.5522 110.138 98.2635C109.897 97.9748 109.554 97.7905 109.18 97.7494Z" fill="black"/>
<path fill-rule="evenodd" clip-rule="evenodd" d="M132.148 101.362C132.148 102.318 131.24 103.045 129.826 103.045C129.182 103.09 128.542 102.907 128.019 102.528V101.573C128.15 101.911 128.38 102.203 128.677 102.411C128.975 102.619 129.329 102.733 129.692 102.739C129.831 102.755 129.973 102.742 130.108 102.702C130.243 102.663 130.368 102.596 130.477 102.507C130.585 102.418 130.675 102.308 130.741 102.184C130.806 102.059 130.846 101.923 130.858 101.783C130.858 101.267 130.208 101.009 129.434 100.626C128.66 100.244 127.761 100.11 127.761 98.9442C127.761 98.0457 128.66 97.3958 130.084 97.3958C130.666 97.3759 131.243 97.5111 131.756 97.7877V98.6861C131.568 98.374 131.304 98.1153 130.988 97.9346C130.671 97.7539 130.314 97.6572 129.95 97.6539C129.729 97.643 129.513 97.7173 129.346 97.8614C129.179 98.0055 129.073 98.2084 129.051 98.4281C129.051 98.9442 129.434 99.2022 130.466 99.5941C130.724 99.7184 132.148 100.11 132.148 101.267V101.362Z" fill="black"/>
<path fill-rule="evenodd" clip-rule="evenodd" d="M136.918 102.911C137.051 102.786 137.309 102.786 137.309 101.878V96.4591C137.309 95.4269 136.918 95.4269 136.793 95.3026L138.858 94.7865V101.878C138.858 102.834 139.24 102.834 139.374 102.911H136.918Z" fill="black"/>
<path fill-rule="evenodd" clip-rule="evenodd" d="M147.632 102.786C148.901 100.103 150.364 97.5155 152.01 95.0445H147.374C147.253 95.0507 147.133 95.0308 147.021 94.9862C146.909 94.9417 146.807 94.8736 146.724 94.7865L145.95 96.5929C146.231 96.3342 146.6 96.1938 146.982 96.201H150.337C150.079 96.5929 149.047 98.5236 147.89 100.33C147.116 101.62 146.724 102.395 146.466 102.786H147.632Z" fill="black"/>
<path fill-rule="evenodd" clip-rule="evenodd" d="M141.697 102.786C143.014 100.126 144.479 97.5417 146.084 95.0445H141.563C141.423 95.0613 141.281 95.0469 141.147 95.0023C141.013 94.9577 140.89 94.884 140.788 94.7865L140.148 96.5929C140.26 96.4658 140.399 96.3648 140.554 96.2971C140.709 96.2294 140.877 96.1966 141.047 96.201H144.401C144.143 96.5929 143.111 98.5236 142.079 100.33C141.18 101.62 140.788 102.395 140.53 102.786H141.697Z" fill="black"/>
<path fill-rule="evenodd" clip-rule="evenodd" d="M153.176 102.653C154.208 102.653 155.087 101.754 155.087 100.206C155.087 99.1736 154.447 97.8832 153.281 97.8832C152.952 97.8978 152.632 97.9861 152.342 98.1417C152.052 98.2972 151.802 98.516 151.608 98.7817L152.249 95.0445H155.345C155.667 95.0514 155.983 94.9615 156.253 94.7865L155.479 96.201H152.507L152.124 98.0075C152.685 97.6116 153.35 97.3889 154.036 97.3671C154.735 97.3615 155.408 97.6275 155.915 98.1089C156.421 98.5904 156.721 99.2497 156.75 99.9478C156.75 101.754 155.068 102.911 153.262 102.911C152.555 102.92 151.854 102.79 151.197 102.528L151.073 101.496C151.286 101.853 151.588 102.147 151.951 102.35C152.313 102.553 152.722 102.658 153.137 102.653H153.176Z" fill="black"/>
<path fill-rule="evenodd" clip-rule="evenodd" d="M141.008 0.459106L139.842 0.975235L130.562 9.87368C129.843 9.38357 128.96 9.19799 128.105 9.35755C127.15 9.64507 126.339 10.2846 125.837 11.1468C125.335 12.0091 125.179 13.0298 125.4 14.0027C125.531 14.5073 125.748 14.9858 126.041 15.4173L97.3668 44.3205C96.7015 43.5662 95.8543 42.9945 94.9057 42.66C93.9572 42.3254 92.9388 42.239 91.9474 42.4089C90.7309 42.683 89.6409 43.3558 88.8507 44.3205L69.0562 28.8558C69.5168 27.8483 69.6505 26.722 69.4385 25.6347C69.0562 22.9203 66.7336 21.1138 64.411 21.63C63.8016 21.7568 63.2294 22.0216 62.7384 22.4041L53.9642 16.2106L52.9319 16.0863L53.3142 17.2429L61.0562 24.9848C60.8647 25.7924 60.8647 26.6336 61.0562 27.4412C61.448 30.1461 63.7611 31.9525 66.0836 31.4364C66.7931 31.2472 67.448 30.8936 67.9952 30.4042C68.2533 30.0218 68.3775 30.0218 68.5114 30.1461C68.6452 30.2703 75.8614 36.5977 78.4421 38.7482C81.0227 40.8988 85.1326 44.158 85.9259 44.808C86.4966 45.3598 87.0998 45.8768 87.7324 46.3564C87.3325 47.59 87.2439 48.9034 87.4743 50.1795C88.2485 53.9167 91.4791 56.2393 94.7001 55.5989C97.9211 54.9585 99.9952 51.4699 99.221 47.7231C99.0699 47.0477 98.8083 46.4018 98.4468 45.8116L126.7 16.2679C127.083 16.6149 127.542 16.866 128.04 17.0006C128.539 17.1352 129.062 17.1495 129.568 17.0421C130.045 16.9284 130.495 16.7203 130.891 16.4299C131.287 16.1396 131.621 15.7731 131.873 15.3518C132.125 14.9305 132.29 14.463 132.359 13.9769C132.427 13.4908 132.398 12.9958 132.272 12.5212C132.267 12.2043 132.178 11.8944 132.014 11.6228L140.616 1.55827L141.008 0.459106ZM65.1852 29.2476C64.4333 29.3115 63.6865 29.0764 63.1068 28.5933C62.5271 28.1102 62.1612 27.4181 62.0884 26.667C61.9165 25.8981 62.0315 25.093 62.4117 24.403C62.7919 23.713 63.4111 23.1857 64.1529 22.9203C64.9048 22.8564 65.6516 23.0915 66.2313 23.5746C66.811 24.0577 67.177 24.7498 67.2497 25.5009C67.4512 26.271 67.3493 27.0891 66.9652 27.7863C66.581 28.4835 65.9438 29.0066 65.1852 29.2476ZM95.1302 51.6897C94.7815 51.7391 94.4265 51.7177 94.0863 51.6268C93.746 51.5358 93.4277 51.3772 93.1502 51.1604C92.8727 50.9436 92.6417 50.673 92.4712 50.3649C92.3007 50.0567 92.1941 49.7174 92.1577 49.3671C92.0064 48.6878 92.1199 47.9763 92.4751 47.3778C92.8304 46.7792 93.4005 46.3387 94.0693 46.1461C95.3596 45.7542 96.6499 46.7865 97.0323 48.3349C97.1886 49.0317 97.0793 49.7618 96.7258 50.3823C96.3722 51.0027 95.7999 51.469 95.1207 51.6897H95.1302ZM129.826 15.4364C129.519 15.4777 129.208 15.4564 128.91 15.3739C128.613 15.2913 128.335 15.1493 128.094 14.9563C127.852 14.7633 127.653 14.5234 127.507 14.2511C127.361 13.9787 127.272 13.6796 127.245 13.3719C127.092 12.7578 127.18 12.1086 127.492 11.5575C127.803 11.0065 128.313 10.5955 128.918 10.4089C129.224 10.3677 129.535 10.389 129.833 10.4715C130.13 10.554 130.408 10.6961 130.65 10.889C130.891 11.082 131.09 11.3219 131.236 11.5943C131.382 11.8666 131.471 12.1657 131.498 12.4734C131.651 13.0875 131.563 13.7368 131.252 14.2878C130.941 14.8389 130.43 15.2499 129.826 15.4364Z" fill="black"/>
<path fill-rule="evenodd" clip-rule="evenodd" d="M94.8626 50.7912C95.3159 50.6593 95.7018 50.3593 95.9416 49.9526C96.1814 49.5459 96.2569 49.063 96.1529 48.6025C96.0909 48.1497 95.8588 47.7375 95.5037 47.4499C95.1485 47.1622 94.6971 47.0207 94.2413 47.0541C93.7895 47.178 93.4017 47.4692 93.1567 47.8686C92.9118 48.268 92.828 48.7457 92.9223 49.2046C93.1804 50.2369 93.9546 51.0111 94.8339 50.753L94.8626 50.7912Z" fill="black"/>
</g>
<defs>
<clipPath id="clip0_678_109">
<rect width="168" height="105.018" fill="white" transform="translate(0 0.459106)"/>
</clipPath>
</defs>
</svg>
