<svg width="168" height="79" viewBox="0 0 168 79" fill="none" xmlns="http://www.w3.org/2000/svg">
<g clip-path="url(#clip0_678_111)">
<g clip-path="url(#clip1_678_111)">
<path d="M86.5481 15.3449C85.6241 14.7849 86.5201 13.9169 87.3881 13.9169C88.7881 13.9169 90.0201 15.1209 90.0201 15.1209C90.0201 15.1209 87.6401 16.0169 86.5481 15.3449ZM73.6401 27.4129C70.4201 28.2809 71.2881 21.2249 75.3481 15.5969C79.4921 9.85693 82.7681 8.14893 82.7681 8.14893C82.0681 16.5209 77.0561 26.4889 73.6401 27.4129ZM93.6321 4.67693C91.5881 3.69693 88.7041 4.20093 86.0721 5.15293C86.2681 1.51293 85.7081 0.476929 85.7081 0.476929L82.7121 1.31693C82.9752 3.08684 83.0409 4.8805 82.9081 6.66493C75.0961 11.1729 69.8321 18.7329 68.3761 23.8289C66.7801 29.3729 71.2041 31.2489 74.9281 28.5329C84.0841 21.8129 85.9601 6.49693 85.9601 6.49693C88.7321 5.65693 90.9161 6.10493 92.2041 7.22493C95.4521 10.0249 91.2241 14.3369 91.2241 14.3369C90.3858 13.4931 89.2736 12.9768 88.0881 12.8809C84.8121 12.5729 83.1321 16.5209 87.5001 16.9409C88.2281 16.9969 90.1601 16.7449 90.8881 16.3809C91.6161 17.7249 91.3921 23.9689 87.1641 25.8169C83.3841 27.4689 81.9561 25.1449 81.9561 25.1449C81.8441 25.1449 79.9121 27.6649 80.0241 27.9169C80.0241 27.9169 82.0401 30.9129 86.4361 29.6249C89.9081 28.6169 91.5881 25.5929 92.4561 23.4089C93.9401 19.7969 92.8761 16.6049 92.2881 15.7649C98.1121 11.7049 97.2441 6.21693 93.6321 4.67693Z" fill="#FFC72C"/>
<path d="M159.348 37.7449C153.356 37.7449 149.52 41.2169 149.52 47.1809C149.52 52.9489 153.72 56.1129 159.348 56.1129C165.452 56.1129 168 53.7609 168 53.5929V45.6969H159.628V48.5809H164.864V52.0809C163.128 53.3409 159.348 53.1169 159.348 53.1169C155.876 53.1169 152.656 51.6329 152.656 47.1809C152.656 43.2329 155.54 40.7689 159.348 40.7689C162.12 40.7689 164.08 41.5249 165.172 42.1689L166.46 39.3969C165.032 38.5849 162.596 37.7449 159.348 37.7449ZM0 38.0529V55.8889H11.256C16.1 55.8889 17.192 53.2289 17.192 50.4289C17.196 49.5946 16.9572 48.7771 16.5048 48.0761C16.0524 47.3752 15.4059 46.8209 14.644 46.4809C15.848 45.6129 16.212 44.4649 16.212 43.0369C16.212 39.4529 14.28 38.0529 10.108 38.0529H0ZM140.896 38.0809V50.2329L130.312 38.4169L130.032 38.1089H127.568V55.9449H130.704V43.5689L141.792 55.9169H144.06V38.0809H140.896ZM45.276 38.0809V55.8889H60.312V52.8929H48.412V48.4409H57.036V45.5569H48.412V41.0769H60.284V38.0809H45.276ZM75.04 38.0809V41.0769H81.676V55.8889H84.84V41.0769H91.476V38.0809H75.04ZM66.08 38.0809V55.8889H69.216V38.0809H66.08ZM22.988 38.0809V55.9169H26.124V48.5809H30.8L35.392 55.8889H39.088L34.328 48.5529C37.016 48.3289 39.256 46.7329 39.256 43.2609C39.256 38.9769 35.924 38.0529 32.844 38.0529L22.988 38.0809ZM97.524 38.0809V55.9169H111.412V52.9209H100.66V38.1089H97.524V38.0809ZM116.508 38.0809V55.9169H119.644V38.0809H116.508ZM3.08 40.8809H9.968C11.872 40.8809 13.076 41.6369 13.076 43.1209C13.076 43.9889 12.824 45.5289 10.668 45.5289H3.08V40.8809ZM26.124 40.9649H32.872C34.076 40.9649 36.12 41.2729 36.12 43.5409C36.12 45.4449 34.272 45.6969 32.872 45.6969H26.124V40.9649ZM3.08 48.3289H10.836C12.516 48.3289 13.972 48.6929 13.972 50.7089C13.972 52.7249 12.264 53.0609 11.256 53.0609H3.08V48.3289ZM73.052 64.5969C70.896 64.5969 69.244 65.1569 68.32 66.1649C68.0147 66.4974 67.7862 66.893 67.6507 67.3236C67.5152 67.7543 67.4761 68.2094 67.536 68.6569C67.6124 69.4583 67.9932 70.1999 68.6 70.7289L68.88 70.9809L68.572 71.2049C68.367 71.3513 68.1792 71.5204 68.012 71.7089C67.6773 72.0827 67.4247 72.5225 67.2704 73C67.1161 73.4774 67.0635 73.9819 67.116 74.4809C67.284 76.3009 68.908 78.2609 73.052 78.2609C77.196 78.2609 78.848 76.3009 78.988 74.4809C79.0428 73.9818 78.9913 73.4767 78.8369 72.9989C78.6825 72.5211 78.4286 72.0815 78.092 71.7089C77.9182 71.5271 77.731 71.3587 77.532 71.2049L77.224 70.9809L77.504 70.7289C78.1079 70.1859 78.4874 69.437 78.568 68.6289C78.6279 68.1814 78.5888 67.7263 78.4533 67.2956C78.3178 66.865 78.0893 66.4694 77.784 66.1369C76.86 65.1289 75.208 64.5969 73.052 64.5969ZM86.8 64.5969C84.644 64.5969 82.992 65.1569 82.068 66.1649C81.7627 66.4974 81.5342 66.893 81.3987 67.3236C81.2632 67.7543 81.2241 68.2094 81.284 68.6569C81.3603 69.4583 81.7412 70.1999 82.348 70.7289L82.628 70.9809L82.32 71.2049C82.115 71.3513 81.9272 71.5204 81.76 71.7089C81.4253 72.0827 81.1727 72.5225 81.0184 73C80.8641 73.4774 80.8115 73.9819 80.864 74.4809C81.032 76.3009 82.656 78.2609 86.8 78.2609C90.944 78.2609 92.596 76.3009 92.736 74.4809C92.7908 73.9818 92.7393 73.4767 92.5849 72.9989C92.4305 72.5211 92.1766 72.0815 91.84 71.7089C91.6728 71.5204 91.485 71.3513 91.28 71.2049L90.972 70.9809L91.252 70.7289C91.8559 70.1859 92.2354 69.437 92.316 68.6289C92.3701 68.1816 92.3281 67.728 92.1929 67.2983C92.0577 66.8685 91.8324 66.4726 91.532 66.1369C90.58 65.1289 88.956 64.5969 86.8 64.5969ZM61.628 64.9329V78.0369H64.176V64.9329H61.628ZM98.336 64.9329L94.584 73.1089L94.556 75.4049H102.004V78.0369H104.3V75.4049H105.784V73.1089H104.3V64.9329H98.336ZM73.052 66.8649C74.508 66.8649 75.6 67.1729 76.076 67.6769C76.1681 67.772 76.2363 67.8875 76.2753 68.014C76.3142 68.1405 76.3227 68.2745 76.3 68.4049C76.216 69.1049 75.18 69.8329 73.052 69.8329C70.924 69.8329 69.888 69.1049 69.804 68.4049C69.7813 68.2745 69.7898 68.1405 69.8287 68.014C69.8677 67.8875 69.9359 67.772 70.028 67.6769C70.504 67.1729 71.596 66.8649 73.052 66.8649ZM86.8 66.8649C88.256 66.8649 89.348 67.1729 89.824 67.6769C89.9161 67.772 89.9843 67.8875 90.0233 68.014C90.0622 68.1405 90.0707 68.2745 90.048 68.4049C89.964 69.1049 88.928 69.8329 86.8 69.8329C84.672 69.8329 83.636 69.1049 83.552 68.4049C83.5293 68.2745 83.5378 68.1405 83.5767 68.014C83.6157 67.8875 83.6839 67.772 83.776 67.6769C84.224 67.1729 85.344 66.8649 86.8 66.8649ZM99.792 67.2569H102.004V73.1369H97.076L99.792 67.2569ZM73.052 72.3809C73.64 72.3809 75.656 72.4369 76.412 73.2769C76.5385 73.4143 76.63 73.5803 76.6788 73.7606C76.7275 73.941 76.732 74.1304 76.692 74.3129C76.58 75.5449 74.732 75.9929 73.024 75.9929C71.316 75.9929 69.468 75.5449 69.356 74.3129C69.3293 74.1302 69.3404 73.944 69.3886 73.7658C69.4368 73.5877 69.521 73.4212 69.636 73.2769C70.196 72.6889 71.428 72.3809 73.052 72.3809ZM86.8 72.3809C87.388 72.3809 89.404 72.4369 90.16 73.2769C90.2865 73.4143 90.378 73.5803 90.4268 73.7606C90.4755 73.941 90.48 74.1304 90.44 74.3129C90.328 75.5449 88.48 75.9929 86.772 75.9929C85.064 75.9929 83.216 75.5449 83.104 74.3129C83.0773 74.1302 83.0884 73.944 83.1366 73.7658C83.1848 73.5877 83.269 73.4212 83.384 73.2769C83.916 72.7169 85.176 72.3809 86.8 72.3809Z" fill="#07213F"/>
</g>
</g>
<defs>
<clipPath id="clip0_678_111">
<rect width="168" height="77.784" fill="white" transform="translate(0 0.476929)"/>
</clipPath>
<clipPath id="clip1_678_111">
<rect width="168" height="77.784" fill="white" transform="translate(0 0.476929)"/>
</clipPath>
</defs>
</svg>
