<svg width="168" height="58" viewBox="0 0 168 58" fill="none" xmlns="http://www.w3.org/2000/svg">
<g clip-path="url(#clip0_950_154)">
<path d="M56.4287 0.397747L56.4353 0.404332V0.397747H56.4287Z" fill="#231F20"/>
<path d="M14.7909 13.4561C14.5482 12.9421 14.1899 12.4913 13.7438 12.139C13.2864 11.785 12.7656 11.5213 12.2095 11.362C11.6189 11.1789 11.0037 11.0879 10.3854 11.092H6.90847V19.3432H10.4842C11.0849 19.3435 11.6822 19.2524 12.2556 19.0732C12.8017 18.9138 13.3116 18.6499 13.757 18.2961C14.1932 17.9506 14.5464 17.5119 14.7909 17.012C15.0631 16.4551 15.1964 15.8405 15.1794 15.2209C15.1928 14.6037 15.0596 13.9921 14.7909 13.4363M12.8153 4.42127C12.6244 4.04379 12.3576 3.70976 12.0317 3.44008C11.699 3.16883 11.3165 2.96527 10.9057 2.84084C10.4572 2.7062 9.99101 2.63961 9.52277 2.64328H6.92164V8.89916H9.5557C10.4415 8.91589 11.3093 8.64815 12.0317 8.13528C12.3897 7.86637 12.6748 7.51227 12.8611 7.10516C13.0474 6.69805 13.129 6.25083 13.0985 5.80415C13.1116 5.32755 13.0148 4.85434 12.8153 4.42127ZM17.3525 17.9801C16.968 18.7427 16.4273 19.4158 15.7655 19.9556C15.108 20.491 14.3581 20.9016 13.5529 21.1673C12.7449 21.4419 11.8973 21.5821 11.0439 21.5821H4.27441V0.397748H9.91129C10.6523 0.397462 11.3885 0.517554 12.091 0.753341C12.7795 0.978279 13.4172 1.33627 13.9677 1.80697C14.5171 2.28365 14.9649 2.8659 15.2848 3.51911C15.6447 4.23564 15.8254 5.02876 15.8116 5.83049C15.8146 6.63891 15.6106 7.43464 15.2189 8.14186C14.871 8.81467 14.3043 9.34888 13.6121 9.65645C14.2099 9.78469 14.7777 10.0261 15.2848 10.3676C16.3463 11.0632 17.1565 12.0812 17.5961 13.2717C17.8371 13.9024 17.9599 14.5721 17.9583 15.2472C17.9779 16.2027 17.7679 17.1489 17.3459 18.0064" fill="black"/>
<path d="M34.0844 4.79003C33.867 4.36056 33.5619 3.98144 33.1889 3.67715C32.8035 3.3829 32.3686 3.15989 31.9048 3.01863C31.408 2.86436 30.8906 2.78665 30.3704 2.78816H27.3676V9.87376H30.4297C30.949 9.87687 31.466 9.80365 31.964 9.65645C32.4447 9.53254 32.8936 9.3081 33.2811 8.99794C33.6548 8.69775 33.9564 8.31742 34.1635 7.88505C34.3825 7.4061 34.4906 6.88386 34.4796 6.3573C34.49 5.82655 34.3749 5.30084 34.1437 4.82296M37.3178 21.6546L30.3638 12.139H27.4269V21.6546H24.6348V0.39775H30.8446C31.6354 0.399491 32.4207 0.530733 33.1691 0.78627C33.9172 1.03107 34.6152 1.408 35.2303 1.89916C35.8471 2.39525 36.3483 3.02002 36.6987 3.72983C37.0823 4.51672 37.2741 5.38325 37.2585 6.25852C37.3029 7.51497 36.8965 8.74588 36.1127 9.72889C35.3651 10.6493 34.3684 11.3352 33.2416 11.7044L40.6959 21.648L37.3178 21.6546Z" fill="black"/>
<path d="M86.2589 21.6216L85.3831 11.3422C85.3107 10.552 85.2514 9.69597 85.1987 8.78722C85.146 7.87847 85.0934 7.00265 85.0407 6.15316H84.9748C84.6126 6.96972 84.1912 7.8653 83.7105 8.82673C83.2298 9.78816 82.7886 10.664 82.3935 11.4608L77.1846 21.7533H76.1376L70.8695 11.441C70.4875 10.6903 70.0661 9.84084 69.6183 8.90575C69.1705 7.97066 68.7556 7.0685 68.3737 6.2256H68.3013C68.2618 7.08825 68.2091 7.97724 68.1498 8.90575C68.0905 9.83425 68.0379 10.6376 67.9654 11.3422L67.0896 21.6216H64.6729L66.4574 0.397751H68.2157L74.0238 11.8098C74.4715 12.6724 74.9522 13.6141 75.4593 14.6216C75.9664 15.6292 76.4076 16.5972 76.7763 17.4994H76.8422C77.2307 16.5906 77.6522 15.6423 78.1263 14.6546C78.6004 13.6668 79.0745 12.679 79.5487 11.7769L85.3173 0.397751H87.0623L88.8864 21.6216H86.2589Z" fill="black"/>
<path d="M112.481 7.45702C112.026 6.43285 111.37 5.51033 110.552 4.74395C109.759 4.00162 108.831 3.41818 107.819 3.02523C106.813 2.63315 105.744 2.43215 104.664 2.43256C103.579 2.43336 102.503 2.63428 101.49 3.02523C100.474 3.41505 99.5441 3.9988 98.751 4.74395C97.9007 5.55565 97.2277 6.53463 96.7744 7.61923C96.3211 8.70383 96.0972 9.87055 96.117 11.0459C96.0997 12.2866 96.3466 13.5167 96.8414 14.6546C97.2904 15.6795 97.9371 16.606 98.7444 17.3808C99.5361 18.1262 100.467 18.708 101.484 19.093C102.495 19.4891 103.572 19.6924 104.658 19.6922C105.738 19.6932 106.808 19.4899 107.812 19.093C108.844 18.6981 109.788 18.1025 110.588 17.3407C111.388 16.5789 112.029 15.6659 112.474 14.6546C112.969 13.5167 113.216 12.2866 113.199 11.0459C113.218 9.81151 112.971 8.58752 112.474 7.45702M115.056 15.5501C114.46 16.8718 113.597 18.0556 112.521 19.0271C111.463 19.9858 110.231 20.7324 108.892 21.2265C106.159 22.245 103.15 22.245 100.417 21.2265C99.0794 20.7294 97.8482 19.983 96.7887 19.0271C95.7166 18.0535 94.8559 16.87 94.26 15.5501C93.6123 14.1149 93.2885 12.5546 93.3117 10.9801C93.289 9.42047 93.6129 7.87529 94.26 6.45608C94.8628 5.14405 95.7227 3.96624 96.7887 2.9923C97.8529 2.04111 99.0828 1.29337 100.417 0.786274C103.146 -0.258185 106.164 -0.258185 108.892 0.786274C110.228 1.29023 111.458 2.0383 112.521 2.9923C114.19 4.56599 115.331 6.61892 115.785 8.86808C116.239 11.1172 115.984 13.4519 115.056 15.5501Z" fill="black"/>
<path d="M140.323 22.0233L129.991 10.6837C129.142 9.74864 128.259 8.76087 127.357 7.72042C126.455 6.67996 125.632 5.74488 124.888 4.82296L124.829 4.86247C124.868 5.83707 124.888 6.78533 124.888 7.72042V21.6216H122.122V0.397747H124.045L133.672 11.0262L134.792 12.2576C135.194 12.6988 135.602 13.1597 136.023 13.6339L137.248 15.0628C137.656 15.5436 138.025 15.9914 138.368 16.3799H138.433C138.387 15.4975 138.368 14.6085 138.368 13.7458V0.397747H141.133V22.0233H140.323Z" fill="black"/>
<path d="M163.72 0.397751H146.638V2.76182H153.796V21.6216H156.562V2.76182H162.541L163.72 0.397751Z" fill="black"/>
<path d="M48.671 19.2642V12.1456H55.862V9.78157H48.671V2.76182H56.1254L57.3107 0.397751H45.9053V21.6216H58.529V19.2642H48.671Z" fill="black"/>
<path d="M84.0132 32.0986C84.5563 32.0981 85.0932 32.2149 85.587 32.441L85.6595 32.4739L85.7714 32.5266C86.0737 32.6678 86.3606 32.84 86.6275 33.0403C85.969 31.1701 83.3678 30.8474 82.0903 31.1438C78.7121 31.9274 78.9295 33.5671 73.7272 34.6075C71.1261 34.9763 67.5833 35.0882 61.9727 35.266L0 34.3771C2.29163 40.1127 33.2154 39.5464 58.858 37.4786C65.7394 37.0704 75.9793 36.3526 80.3518 35.5887C80.3674 35.3001 80.4093 35.0136 80.477 34.7326C80.6799 33.9625 81.1369 33.2834 81.7739 32.8053C82.4109 32.3273 83.1906 32.0782 83.9868 32.0986" fill="black"/>
<path d="M109.136 33.2905C102.261 33.7054 92.0144 34.4166 87.6418 35.187C87.6318 35.3331 87.612 35.4783 87.5826 35.6216C87.4915 36.4958 87.0727 37.303 86.4105 37.8809C85.7483 38.4588 84.8919 38.7645 84.0134 38.7364C83.2518 38.7393 82.5074 38.5095 81.8799 38.0779C81.7012 37.9754 81.5296 37.861 81.3662 37.7355C82.0247 39.6122 84.6258 39.9283 85.91 39.6386C89.2815 38.8549 89.0708 37.2152 94.2665 36.1748C96.8676 35.806 100.41 35.6941 106.028 35.5163L168 36.4053C165.709 30.6696 134.778 31.2359 109.136 33.2971" fill="black"/>
<path d="M41.5714 52.1635C41.0893 51.9059 40.5507 51.7724 40.0042 51.775C39.3492 51.775 38.7211 52.0351 38.258 52.4983C37.7949 52.9614 37.5347 53.5895 37.5347 54.2444C37.5347 54.8993 37.7949 55.5274 38.258 55.9906C38.7211 56.4537 39.3492 56.7138 40.0042 56.7138C40.5609 56.7359 41.1134 56.6086 41.6043 56.3451L41.5385 56.9246C41.0462 57.1745 40.4959 57.2882 39.9449 57.2538C39.5365 57.2729 39.1285 57.2089 38.7456 57.0658C38.3627 56.9227 38.0128 56.7034 37.717 56.4211C37.4213 56.1389 37.1859 55.7996 37.025 55.4237C36.8642 55.0479 36.7813 54.6433 36.7813 54.2345C36.7813 53.8257 36.8642 53.4212 37.025 53.0453C37.1859 52.6695 37.4213 52.3302 37.717 52.048C38.0128 51.7657 38.3627 51.5464 38.7456 51.4033C39.1285 51.2601 39.5365 51.1962 39.9449 51.2152C40.5537 51.2012 41.1569 51.3345 41.7031 51.6038L41.5714 52.1635Z" fill="#B32B2E"/>
<path d="M49.3758 51.2745V53.9481H45.9251V51.2745H45.293V57.1945H45.9251V54.4881H49.3758V57.1945H50.0079V51.2745H49.3758Z" fill="#B32B2E"/>
<path d="M57.429 57.1946L55.4535 54.4881H54.5052V57.1946H53.8467V51.2679H55.5061C55.7286 51.2528 55.9518 51.2828 56.1624 51.3561C56.373 51.4295 56.5665 51.5447 56.7314 51.6948C56.8962 51.8449 57.0291 52.0268 57.1218 52.2296C57.2145 52.4324 57.2653 52.6518 57.271 52.8747C57.2748 53.2233 57.1603 53.5628 56.9462 53.8379C56.7321 54.113 56.431 54.3074 56.0922 54.3893L58.206 57.1946H57.429ZM55.4139 51.8145H54.4854V53.9547H55.4535C55.6037 53.9692 55.7554 53.9526 55.899 53.9059C56.0426 53.8593 56.1751 53.7836 56.2881 53.6835C56.4012 53.5834 56.4924 53.4611 56.5561 53.3242C56.6198 53.1874 56.6547 53.0388 56.6585 52.8879C56.6529 52.7355 56.6163 52.5858 56.5508 52.4481C56.4853 52.3104 56.3923 52.1875 56.2776 52.087C56.1629 51.9865 56.0289 51.9105 55.8838 51.8636C55.7387 51.8168 55.5855 51.8001 55.4337 51.8145" fill="#B32B2E"/>
<path d="M64.0473 57.2999C63.4442 57.2844 62.8591 57.0914 62.3651 56.7452C61.8711 56.399 61.4901 55.9149 61.2698 55.3534C61.0494 54.7918 60.9994 54.1778 61.126 53.588C61.2527 52.9982 61.5503 52.4588 61.9818 52.0373C62.4133 51.6157 62.9595 51.3307 63.5521 51.2178C64.1446 51.1049 64.7573 51.1692 65.3136 51.4026C65.8699 51.636 66.345 52.0282 66.6796 52.5301C67.0142 53.032 67.1935 53.6214 67.1949 54.2247C67.1951 54.6347 67.1132 55.0406 66.9541 55.4185C66.7951 55.7964 66.5621 56.1387 66.2688 56.4252C65.9755 56.7117 65.6279 56.9367 65.2464 57.0869C64.8649 57.2372 64.4572 57.3096 64.0473 57.2999ZM64.0473 51.7223C63.5479 51.7197 63.059 51.8654 62.6425 52.1409C62.226 52.4165 61.9007 52.8095 61.7078 53.2701C61.5149 53.7307 61.463 54.2382 61.5589 54.7283C61.6547 55.2184 61.8938 55.6691 62.246 56.0231C62.5982 56.3771 63.0476 56.6187 63.5372 56.717C64.0268 56.8154 64.5346 56.7663 64.9962 56.5758C65.4578 56.3853 65.8525 56.062 66.1302 55.647C66.4079 55.2319 66.5562 54.7438 66.5562 54.2444C66.5624 53.9126 66.5019 53.5829 66.3781 53.275C66.2544 52.9671 66.07 52.6872 65.836 52.4519C65.602 52.2166 65.323 52.0308 65.0157 51.9054C64.7084 51.7801 64.3791 51.7178 64.0473 51.7223Z" fill="#B32B2E"/>
<path d="M75.8209 57.2933L72.8773 54.0008C72.39 53.4542 71.8303 52.7891 71.422 52.2886C71.422 52.8352 71.422 53.3818 71.422 53.9217V57.2143H70.7635V51.2877H71.2574L74.0495 54.4288C74.4512 54.8832 75.0109 55.5285 75.406 56.0158C75.406 55.489 75.406 54.9556 75.406 54.4551V51.2943H76.0646V57.3197L75.8209 57.2933Z" fill="#B32B2E"/>
<path d="M82.7494 57.2999C82.1464 57.2844 81.5613 57.0914 81.0673 56.7452C80.5733 56.399 80.1923 55.9149 79.9719 55.3534C79.7515 54.7918 79.7015 54.1778 79.8282 53.588C79.9548 52.9982 80.2525 52.4588 80.684 52.0373C81.1154 51.6157 81.6616 51.3307 82.2542 51.2178C82.8468 51.1049 83.4595 51.1692 84.0157 51.4026C84.572 51.636 85.0471 52.0282 85.3817 52.5301C85.7163 53.032 85.8956 53.6214 85.8971 54.2247C85.8972 54.6347 85.8153 55.0406 85.6563 55.4185C85.4972 55.7964 85.2642 56.1387 84.9709 56.4252C84.6776 56.7117 84.33 56.9367 83.9485 57.0869C83.567 57.2372 83.1593 57.3096 82.7494 57.2999ZM82.7494 51.7223C82.25 51.7197 81.7611 51.8654 81.3446 52.1409C80.9281 52.4165 80.6028 52.8095 80.4099 53.2701C80.217 53.7307 80.1652 54.2382 80.261 54.7283C80.3568 55.2184 80.596 55.6691 80.9482 56.0231C81.3004 56.3771 81.7497 56.6187 82.2393 56.717C82.7289 56.8154 83.2367 56.7663 83.6983 56.5758C84.16 56.3853 84.5546 56.062 84.8324 55.647C85.1101 55.2319 85.2583 54.7438 85.2583 54.2444C85.2646 53.9126 85.204 53.5829 85.0803 53.275C84.9566 52.9671 84.7722 52.6872 84.5381 52.4519C84.3041 52.2166 84.0251 52.0308 83.7179 51.9054C83.4106 51.7801 83.0812 51.7178 82.7494 51.7223Z" fill="#B32B2E"/>
<path d="M95.3522 57.1946L95.1086 54.1193C95.0691 53.6188 95.023 53.0788 95.0032 52.5784C94.7991 53.0723 94.4962 53.6781 94.2591 54.1588L92.7379 57.2341H92.5075L90.9863 54.1588C90.7624 53.7044 90.4793 53.1118 90.2554 52.5915C90.2554 53.092 90.2027 53.6781 90.1632 54.1193L89.9195 57.1946H89.3466L89.8273 51.2679H90.2422L91.8885 54.5605C92.1453 55.0676 92.435 55.6734 92.6721 56.2265C92.896 55.6866 93.1726 55.1202 93.4426 54.5605L95.0888 51.2679H95.4905L95.991 57.1946H95.3522Z" fill="#B32B2E"/>
<path d="M99.6201 51.2745V57.1945H103.09V56.6612H100.252V54.4881H102.307V53.9481H100.252V51.8079H102.761V51.2745H99.6201Z" fill="#B32B2E"/>
<path d="M105.771 51.2745V51.8079H107.832V57.1945H108.464V51.8079H110.538V51.2745H105.771Z" fill="#B32B2E"/>
<path d="M113.798 51.2745V57.1945H117.268V56.6612H114.43V54.4881H116.485V53.9481H114.43V51.8079H116.939V51.2745H113.798Z" fill="#B32B2E"/>
<path d="M124.096 57.1945L122.121 54.4881H121.179V57.1945H120.521V51.2679H122.18C122.402 51.2527 122.625 51.2828 122.835 51.3562C123.045 51.4296 123.239 51.5449 123.403 51.6951C123.567 51.8453 123.699 52.0273 123.791 52.23C123.883 52.4328 123.933 52.6521 123.938 52.8747C123.942 53.2224 123.829 53.5612 123.616 53.8362C123.403 54.1112 123.104 54.3061 122.766 54.3893L124.873 57.1945H124.096ZM122.081 51.8145H121.159V53.9547H122.101C122.251 53.9702 122.404 53.9543 122.548 53.908C122.692 53.8617 122.824 53.7861 122.938 53.6858C123.051 53.5855 123.142 53.4628 123.206 53.3255C123.269 53.1881 123.303 53.0391 123.306 52.8879C123.3 52.7355 123.264 52.5858 123.198 52.4481C123.133 52.3104 123.04 52.1875 122.925 52.087C122.81 51.9865 122.676 51.9105 122.531 51.8636C122.386 51.8167 122.233 51.8 122.081 51.8145Z" fill="#B32B2E"/>
<path d="M129.273 57.2472C128.715 57.2573 128.167 57.1014 127.699 56.7994L127.613 56.1409C128.092 56.5227 128.687 56.7294 129.299 56.727C129.454 56.7463 129.611 56.7332 129.76 56.6886C129.909 56.644 130.048 56.5689 130.167 56.468C130.286 56.3671 130.382 56.2426 130.45 56.1024C130.519 55.9622 130.557 55.8094 130.563 55.6536C130.563 55.0346 130.194 54.6922 129.365 54.3959C128.311 54.0205 127.811 53.52 127.811 52.7101C127.811 51.9001 128.37 51.235 129.562 51.235C130.006 51.2313 130.443 51.3473 130.827 51.5708L130.688 52.0976C130.347 51.8773 129.949 51.7585 129.543 51.7552C129.407 51.7379 129.27 51.7483 129.139 51.7858C129.008 51.8233 128.886 51.8872 128.781 51.9735C128.675 52.0598 128.589 52.1668 128.526 52.2877C128.463 52.4087 128.426 52.5412 128.416 52.6771C128.416 53.1776 128.752 53.5003 129.503 53.7703C130.557 54.1522 131.195 54.6263 131.195 55.6075C131.195 56.5887 130.451 57.267 129.273 57.267" fill="#B32B2E"/>
</g>
<defs>
<clipPath id="clip0_950_154">
<rect width="168" height="58" fill="white" transform="translate(0 0.00146484)"/>
</clipPath>
</defs>
</svg>
