<svg width="168" height="33" viewBox="0 0 168 33" fill="none" xmlns="http://www.w3.org/2000/svg">
<g clip-path="url(#clip0_678_199)">
<path d="M142.848 23.7485C141.438 23.4101 141.1 22.677 140.931 21.3235C140.592 17.8918 140.592 14.4351 140.931 11.0033C140.983 10.4771 141.195 9.97953 141.538 9.5766C141.88 9.17367 142.337 8.8845 142.848 8.74751C144.089 8.40914 155.255 8.23996 156.495 8.74751C157.567 9.08588 157.905 9.81901 158.075 10.8341C158.582 13.0899 158.582 18.8986 158.075 21.1544C158.048 21.6195 157.883 22.0661 157.602 22.4376C157.321 22.8091 156.936 23.0887 156.495 23.241C155.48 24.0869 144.427 24.0869 142.848 23.7485ZM160.161 0.959394C156.834 0.282657 144.032 0.0570776 138.957 0.959394C137.136 1.26647 135.441 2.08803 134.072 3.32712C132.703 4.56622 131.717 6.1711 131.231 7.95234C130.554 11.9564 130.554 20.9231 131.231 24.5888C131.907 27.9161 134.727 30.905 138.957 31.5818C143.355 32.4841 156.27 32.2585 160.33 31.4126C162.053 31.0832 163.644 30.2652 164.914 29.0563C166.184 27.8473 167.079 26.2984 167.492 24.5944C168.169 21.098 168.169 12.1876 167.492 7.95798C166.647 4.29232 163.488 1.69817 160.161 0.965033V0.959394ZM116.23 1.18497H125.873V31.469H116.23V1.18497ZM100.834 19.908C102.413 20.2464 102.751 21.4871 102.751 22.5586C102.751 23.6301 102.582 24.8144 100.834 24.9836C98.9164 25.3219 92.431 25.3219 90.006 24.9836C88.9345 24.8144 87.7502 24.8144 87.3555 22.897V22.3894H77.712C77.713 22.8644 77.7698 23.3376 77.8812 23.7993C78.2195 27.8033 79.7986 30.623 84.3666 31.5254C88.0322 32.2021 101.849 32.4277 106.079 31.5254C110.985 30.4539 112.226 26.1115 112.226 22.2202C112.226 17.8214 110.647 14.8889 106.812 13.6482C105.312 13.3124 103.78 13.1422 102.244 13.1407C101.341 13.1407 91.0211 12.8023 88.7654 12.4639C87.3555 12.2947 87.0171 11.3924 87.0171 10.2081C87.0171 9.02384 87.1863 8.12153 88.9345 7.78316C91.0211 7.44479 99.2548 7.44479 100.157 7.78316C100.582 7.88268 100.957 8.13044 101.216 8.48191C101.474 8.83337 101.599 9.26548 101.567 9.70058V10.3773H111.21C111.21 9.70058 111.041 9.13663 111.041 8.62908C110.534 3.89192 107.883 1.29776 103.146 0.902999C98.4089 0.395446 87.5811 0.564631 84.2538 1.07218C81.0957 1.74892 77.9376 3.72274 77.9376 10.1517C77.9376 15.3965 80.3625 18.047 84.5921 18.8929C85.8328 19.0621 89.3293 19.2313 89.8369 19.2313C91.0211 19.3441 100.157 19.7388 100.834 19.908ZM62.8238 19.7388H52.1652L56.7331 7.67037H58.3122L62.8238 19.7388ZM64.9668 25.9987L67.0534 31.4126H77.3736L64.4028 0.959394H50.4169L37.6153 31.4126H47.9355L50.0222 25.8295L64.9668 25.9987ZM9.98187 21.4871C10.1511 23.2353 11.0534 23.5737 11.8993 23.7429C13.3092 24.0812 23.291 24.0812 25.0393 23.7429C25.5892 23.6825 26.1051 23.4472 26.5112 23.0715C26.9173 22.6959 27.1921 22.1998 27.2951 21.6563C27.2951 21.1487 27.4642 20.2464 27.4642 19.908H37.4461C37.4571 21.2447 37.4007 22.5811 37.2769 23.9121C36.7694 27.5777 34.6264 30.5666 30.1148 31.6381C26.9567 32.3149 11.7301 32.3149 8.23364 31.6381C4.56798 30.7415 1.40987 28.4857 0.507553 24.6452C-0.169184 21.1487 -0.169184 12.0128 0.507553 8.17792C1.01511 5.35819 3.66566 2.03089 8.00806 1.18497C12.0121 0.508236 26.2236 0.282657 30.0584 1.18497C31.7901 1.60178 33.3607 2.51933 34.5742 3.82311C35.7878 5.1269 36.5905 6.75919 36.8822 8.51629C37.0013 9.73447 37.0578 10.958 37.0514 12.182H27.0695C27.0695 11.5052 27.2387 9.5314 25.4904 9.02384C24.4189 8.68548 14.6626 8.68548 12.1813 8.85466C10.9406 9.02384 10.2638 9.5314 10.0947 10.7721C9.6435 13.2535 9.64351 19.1749 9.98187 21.4871Z" fill="#003296"/>
</g>
<defs>
<clipPath id="clip0_678_199">
<rect width="168" height="31.7968" fill="white" transform="translate(0 0.364258)"/>
</clipPath>
</defs>
</svg>
