<svg width="168" height="32" viewBox="0 0 168 32" fill="none" xmlns="http://www.w3.org/2000/svg">
<g clip-path="url(#clip0_678_2520)">
<path d="M40.1999 28.2817C38.2831 28.2817 37.4262 27.8364 37.4262 25.5588V6.63905C37.4262 4.38402 38.1478 4.09086 40.0589 4.09086H41.2654V1.7569H28.75V4.07395H30.0973C31.8845 4.07395 32.7188 4.68845 32.7188 6.62214V25.5588C32.7188 27.4868 31.6759 28.2817 29.9 28.2817H28.6992V30.6157H41.35V28.2817H40.1999Z" fill="black"/>
<path d="M82.5606 28.2817C80.6494 28.2817 79.7869 27.8364 79.7869 25.5588V6.63905C79.7869 4.38402 80.5085 4.09086 82.4253 4.09086H83.643V1.7569H71.1444V4.07395H72.4749C74.2677 4.07395 75.0851 4.68845 75.0851 6.62214V25.5588C75.0851 27.4868 74.0478 28.2817 72.2663 28.2817H71.043V30.6157H83.7163V28.2817H82.5606Z" fill="black"/>
<path d="M44 1.7569V9.362H46.1648V7.77784C46.1648 5.86106 46.8583 4.09086 49.4515 4.09086H53.8601V25.5588C53.8601 27.4868 52.7326 28.2817 50.923 28.2817H49.6094V30.6157H62.7901V28.2817H61.4878C59.7119 28.2817 58.5619 27.4868 58.5619 25.5588V4.07395H62.9592C65.5525 4.07395 66.2459 5.84415 66.2459 7.76093V9.34509H68.4107V1.7569H44Z" fill="black"/>
<path d="M107.398 22.7851V23.2925C107.398 25.6884 106.732 28.2817 101.613 28.2817H92.7342L109.252 4.07395V1.7569H87.4349V9.57059H89.6392V8.61221C89.6392 6.14858 90.7667 4.10214 94.1211 4.10214H103.389L86.9219 28.2817V30.6157H109.562V22.7851H107.398Z" fill="black"/>
<path d="M134.124 22.7456V23.518C134.124 26.0887 132.861 28.2817 129.67 28.2817H121.101V17.0066H126.282C128.362 17.0066 128.836 18.7599 128.836 20.0001V21.2009H131.091V10.3542H128.836V11.3182C128.836 12.5529 128.362 14.3062 126.282 14.3062H121.124V4.07395H129.309C133.397 4.07395 133.498 7.49597 133.498 8.76442V9.38456H135.674V1.7569H112.695V4.07395H113.208C115.193 4.07395 116.219 4.31637 116.219 6.10912V25.897C116.219 27.9773 114.843 28.2817 113.569 28.2817H112.831V30.6157H136.193V22.7231L134.124 22.7456Z" fill="black"/>
<path d="M157.724 1.7569V4.07395H158.373C160.628 4.07395 161.468 4.85194 161.468 6.80818V22.8189L147.03 1.7569H139.453V4.07395H140.163C141.561 4.07395 142.661 4.63771 142.661 6.89274V25.7674C142.688 26.0973 142.645 26.4294 142.534 26.7414C142.423 27.0533 142.247 27.3379 142.016 27.576C141.786 27.8141 141.508 28.0003 141.2 28.122C140.892 28.2437 140.562 28.2982 140.231 28.2817H139.25V30.6157H149.082V28.2817H148.152C147.098 28.2817 145.519 28.0111 145.519 25.7674V8.12737L160.955 30.6157H164.337V6.82509C164.337 4.86885 165.143 4.09086 167.415 4.09086H168.002V1.7569H157.724Z" fill="black"/>
<path d="M16.0502 29.071C10.3055 29.071 5.75597 23.6025 5.75597 16.1948C5.75597 8.16684 9.02013 2.97463 15.4921 2.97463C20.8478 2.97463 22.9732 5.72013 23.8019 9.17597H25.8427C25.5946 7.1408 25.2338 3.59476 25.2789 2.8055C23.4693 2.38268 20.1431 0.691406 15.1595 0.691406C6.35356 0.691406 0 6.71798 0 16.1948C0 25.4573 7.32886 31.3542 15.0805 31.3542C18.6548 31.3542 22.2064 30.5199 25.2282 28.2817C25.3635 27.5432 25.8652 25.3727 26.3557 23.6307H24.1007C22.4376 27.577 19.3538 29.071 16.0277 29.071" fill="black"/>
</g>
<defs>
<clipPath id="clip0_678_2520">
<rect width="168.002" height="30.6628" fill="white" transform="translate(0 0.691406)"/>
</clipPath>
</defs>
</svg>
