<svg width="168" height="77" viewBox="0 0 168 77" fill="none" xmlns="http://www.w3.org/2000/svg">
<g clip-path="url(#clip0_678_133)">
<path d="M41.8644 0.482321C34.2801 1.20198 22.6138 9.14861 16.0779 15.2059C9.12059 21.661 -0.671546 33.5986 0.0363188 41.1711C0.744184 48.7436 7.0543 49.5374 9.57733 49.1329C12.1004 48.7284 17.8358 47.7593 24.997 41.8031C25.1976 42.6104 24.3009 44.8368 24.3009 44.8368C24.3009 44.8368 16.2195 50.4542 11.4734 55.7042C6.72733 60.9542 4.12003 65.1104 5.53407 66.3222C6.94812 67.534 10.2532 66.093 12.1678 64.6806C14.0824 63.2683 24.761 50.4391 27.5874 43.8273L37.8245 37.7598C37.8245 37.7598 35.17 42.8059 34.6644 44.016C34.1588 45.2261 33.2891 47.3143 36.1189 47.6177C38.9487 47.9211 41.0436 47.5621 46.7976 43.3216C45.8908 45.0627 46.1723 47.1711 48.4408 47.9346C50.9133 48.7672 54.488 49.1143 58.2346 44.8385C58.2346 44.8385 57.6431 47.0733 59.2459 47.3025C61.8953 47.6733 65.9655 45.1621 68.0925 43.4464C68.6976 46.02 69.4256 48.211 73.5902 48.4385C77.7549 48.666 80.4077 44.5773 80.7953 43.0672C81.3009 41.0986 80.5037 39.4857 81.1105 36.3054C81.7172 33.125 82.0273 31.7143 86.0402 29.67C87.3279 28.9132 86.3554 28.0907 85.597 28.47C81.3565 32.1778 69.2301 41.8031 69.2301 41.8031L69.0414 40.9183L68.0925 41.4239L67.9037 42.6879C67.9037 42.6879 64.9947 44.8082 63.4796 45.4048C61.9644 46.0014 60.3346 45.7554 61.3947 43.6351C62.4549 41.5149 67.1251 34.2559 68.4094 32.8924C67.1217 33.12 65.1228 33.7773 65.1228 33.7773C65.1228 33.7773 63.3869 32.5638 60.1307 32.6396C56.8745 32.7155 50.9504 35.4424 47.2391 41.8031C47.2391 41.8031 42.5453 46.202 38.8358 46.3537C37.1706 46.4295 36.8015 45.2396 37.6341 43.1952C38.4667 41.1509 40.0122 37.802 41.2998 35.9902C43.3442 33.7183 49.9627 27.9542 52.988 24.9947C56.0133 22.0351 61.715 16.6891 56.3386 16.084C53.3049 15.8565 48.8335 19.8542 45.5318 23.9834C42.8082 27.3896 38.3251 36.179 38.3251 36.179L28.3408 42.3087L30.2992 37.2525H27.7712C27.7712 37.2525 18.4004 48.1891 10.0745 47.8705C6.13744 47.7188 4.64081 42.5076 4.64081 39.7806C4.64081 37.0537 5.94362 29.6683 15.4459 19.5559C23.8509 10.6233 36.3329 1.24243 42.997 1.60985C51.2554 2.06491 50.6436 9.63569 50.6436 9.63569C50.6436 9.63569 54.7509 6.28513 54.3717 5.65479C54.3717 5.65479 51.5874 0.807602 43.3138 0.472209C42.831 0.442924 42.3468 0.446302 41.8644 0.482321ZM107.015 16.2172C106.866 16.2178 106.717 16.2388 106.573 16.2795C102.181 16.2795 95.7869 23.3346 91.0914 33.0256C88.0105 36.0054 83.5712 39.661 83.5712 39.661L84.2032 40.293L90.1442 35.2368C90.1442 35.2368 86.6756 42.7368 83.4447 47.4323H87.3026C87.3026 47.4323 89.6807 42.0846 90.5891 40.9233C91.4976 39.7621 93.6414 37.4716 98.2358 35.8048C99.4476 35.2992 99.8015 35.5284 99.247 36.9424C98.7886 38.1087 93.67 49.0065 90.7155 53.4357C87.788 57.8228 84.8638 56.2688 84.7122 53.7407C84.1054 54.3964 83.4481 55.1952 83.4481 55.1952C83.4481 55.1952 85.0577 57.0138 86.9234 56.9632C88.7891 56.9127 93.4004 55.4464 97.7925 47.4222C102.185 39.3981 103.909 34.3907 103.607 33.5834C103.305 32.7761 101.039 33.1537 99.6262 33.7099C98.2138 34.266 93.038 37.4649 91.2212 38.8284C92.1279 36.7587 93.7139 33.4537 94.57 31.6874C96.4391 29.82 108.727 22.3183 109.041 18.6694C109.23 16.4784 107.773 16.2054 107.018 16.2104L107.015 16.2172ZM107.268 17.3548C108.63 17.4054 108.262 18.8481 107.585 19.6924C103.241 25.0941 98.2779 27.9104 95.4498 29.6767C100.348 20.2318 105.909 17.2975 107.271 17.3481L107.268 17.3548ZM55.9577 17.4812C56.0829 17.4566 56.2117 17.4566 56.3369 17.4812C57.8537 17.5823 56.9756 18.9643 56.1464 20.2621C54.9852 22.079 48.7189 28.1834 42.0549 33.784C46.8852 23.8874 53.6773 18.0677 55.961 17.4745L55.9577 17.4812ZM119.212 23.5486C118.369 23.6902 117.855 24.6812 116.62 26.2655C115.946 27.125 116.684 27.7941 117.19 27.8464C117.695 27.8986 118.214 27.302 118.516 26.6447C118.818 25.9874 119.666 24.6222 119.971 24.3711C120.276 24.12 120.045 23.5992 119.591 23.5486C119.47 23.5292 119.346 23.5264 119.224 23.5402L119.212 23.5486ZM123.319 23.675C122.477 23.8166 121.971 24.8093 120.729 26.3919C120.055 27.2514 120.793 27.9222 121.297 27.9728C121.801 28.0233 122.258 27.4907 122.561 26.8351C122.864 26.1795 123.775 24.8127 124.078 24.5598C124.381 24.307 124.152 23.7273 123.699 23.675C123.574 23.6548 123.448 23.652 123.323 23.6666L123.319 23.675ZM141.707 24.1806C140.458 24.9003 137.494 25.47 136.589 25.5087C135.945 26.4155 133.049 32.7121 133.049 32.7121H129.073L129.009 33.5969H132.485L129.705 39.6003C129.705 39.6003 123.065 44.8739 120.227 45.4132C118.637 45.7166 118.533 44.5705 119.216 43.3284C119.898 42.0863 122.908 35.8924 125.408 33.0913C124.005 33.243 121.742 33.2177 121.742 33.2177L116.372 42.6964C116.372 42.6964 112.518 45.9879 109.041 46.298C107.339 46.4497 108.006 44.5537 108.535 43.6436C109.064 42.7334 113.157 35.6599 113.465 34.4093C113.773 33.1587 111.758 33.0188 111.758 33.0188C109.639 33.0188 106.767 33.993 106.196 34.4093C105.625 34.8256 106.26 35.4711 106.828 35.1677C107.396 34.8643 109.13 34.2458 109.735 34.6621C110.34 35.0784 109.936 36.1301 109.482 36.9997C109.029 37.8694 105.677 43.6368 104.996 44.9632C104.315 46.2896 104.167 48.179 106.892 48.179C109.617 48.179 116.055 44.0076 116.055 44.0076C116.055 44.0076 114.24 47.8621 116.246 47.8621C118.251 47.8621 121.568 45.9273 122.819 45.2093C124.069 44.4913 129.454 40.7211 129.454 40.7211C129.454 40.7211 125.46 47.6733 128.377 47.7424C131.295 47.8115 137.667 44.134 137.667 44.134C137.667 44.134 135.749 47.8621 138.362 47.8621C140.974 47.8621 147.84 44.5132 147.84 44.5132C147.84 44.5132 147.985 48.3677 152.074 48.3677C156.163 48.3677 162.355 45.2919 167.999 41.3531L167.62 40.7211C167.62 40.7211 159.928 46.7733 153.212 47.2941C148.819 47.6312 151.813 42.2986 153.591 40.4059C154.122 40.6705 154.567 41.4559 156.687 41.4795C160.021 41.5183 164.795 39.6829 165.345 36.0458C165.648 34.0402 161.989 32.5469 158.394 33.2649C156.689 33.602 153.141 34.5172 148.219 43.566C148.219 43.566 142.076 46.3958 140.827 46.4716C139.578 46.5475 140.182 45.157 140.448 44.5132C140.714 43.8694 145.176 35.134 146.199 33.5818H151.76V32.6969H146.696C146.696 32.6969 148.005 29.0632 151.752 24.6711C151.894 24.4891 151.953 24.0896 151.499 24.3559C150.471 24.9542 147.139 25.5559 147.139 25.5559L143.473 32.6969H136.214C137.197 30.7284 137.66 27.725 141.71 24.7351C141.977 24.4773 142.204 24.1722 141.71 24.1722L141.707 24.1806ZM135.64 33.5969H142.907C141.727 35.6598 138.041 43.2037 138.041 43.2037C138.041 43.2037 133.545 45.4739 132.859 45.7318C131.342 46.2997 129.916 46.6031 130.521 45.1638C131.126 43.7245 135.645 33.5885 135.645 33.5885L135.64 33.5969ZM61.1453 33.7233C64.7436 33.8733 64.4672 34.925 63.4829 36.061C60.7577 39.2042 58.4268 43.6452 58.4268 43.6452C58.4268 43.6452 54.9211 47.2334 51.665 47.311C47.62 47.4037 49.088 44.2503 50.3386 42.3188C51.5891 40.3874 56.4127 33.516 61.1419 33.7149L61.1453 33.7233ZM160.103 33.9121C160.314 33.8952 160.525 33.8952 160.735 33.9121C160.735 33.9121 163.718 33.9913 163.643 35.8082C163.498 39.2902 159.228 40.7363 157.449 40.7363C155.669 40.7363 155.185 40.6469 153.973 39.6627C156.753 35.3801 158.65 34.1379 160.1 33.9037L160.103 33.9121ZM78.2689 35.611C76.6779 38.6649 77.8829 42.2767 77.8256 43.4464C77.7751 44.5065 76.6846 47.7424 73.656 47.7424C69.0127 47.7424 68.8526 43.0031 68.8526 43.0031L78.2689 35.611ZM23.8594 46.2896C21.0329 52.0941 10.2313 63.4672 8.06048 64.9318C6.16778 66.2127 5.22059 65.0666 6.73407 62.8419C11.8829 55.0722 23.8594 46.2896 23.8594 46.2896Z" fill="black"/>
<path fill-rule="evenodd" clip-rule="evenodd" d="M49.7976 69.9441C49.7976 72.1992 50.3369 73.9891 51.3768 75.1874C51.8403 75.7274 52.4178 76.158 53.0677 76.448C53.7176 76.7379 54.4237 76.8801 55.1352 76.8643C56.5054 76.8643 57.5066 76.4784 58.4908 75.5902C59.8392 74.3582 60.4189 72.757 60.4189 70.2138C60.4189 68.0936 60.0532 66.5514 59.224 65.3177C58.5869 64.3739 57.3532 63.1604 55.0594 63.1604C51.8015 63.1604 49.7976 65.7424 49.7976 69.9441ZM58.0088 66.2363C58.4521 67.1615 58.6442 68.4913 58.6442 70.4379C58.6442 72.6155 58.3375 73.6756 57.6819 74.5048C57.1021 75.2565 56.2931 75.6424 55.2144 75.6424C54.1358 75.6424 52.9021 75.0643 52.3998 74.2166C51.879 73.3284 51.5571 71.5941 51.5571 69.6087C51.5571 67.9722 51.7695 66.8346 52.2313 65.9666C52.7369 65.0228 53.8324 64.4245 55.0644 64.4245C56.5813 64.4245 57.5521 65.2537 58.0139 66.2363H58.0088ZM63.1914 76.6048H64.7706V70.657C65.4262 70.6773 65.7161 70.8492 66.2369 71.4997C66.9498 72.3677 67.7538 73.5222 68.588 74.7761C68.9899 75.3499 69.3321 75.9632 69.6094 76.6065H71.5948L69.6296 73.6773C69.1661 73.0233 68.8189 72.4975 68.5493 72.1368C68.1715 71.5864 67.7239 71.0873 67.2178 70.652H67.4116C69.5133 70.652 70.9206 69.2076 70.9206 67.0284C70.9292 66.4962 70.8155 65.9691 70.5881 65.4878C70.3608 65.0066 70.0259 64.5839 69.6094 64.2525C68.974 63.7334 68.0925 63.4098 66.2757 63.4098H63.1914V76.6115V76.6048ZM66.3128 64.7329C66.878 64.7134 67.4416 64.8056 67.9712 65.0042C68.7229 65.2924 69.2639 66.1402 69.2639 67.0082C69.2639 67.8761 69.0313 68.5874 68.5897 68.9936C68.1077 69.4739 67.3746 69.6677 66.1998 69.6677H64.7858V64.7396L66.3128 64.7329ZM74.2493 76.6048H75.7914V63.3913H74.2493V76.6115V76.6048ZM84.1358 63.2683C82.7656 63.2683 81.6296 63.6728 80.6841 64.5205C79.297 65.7357 78.6414 67.5542 78.6414 70.0722C78.6414 72.3458 79.1622 73.984 80.2813 75.1992C81.2824 76.2778 82.6897 76.8576 84.3465 76.8576C85.6948 76.8576 87.1223 76.4716 88.0661 75.8548V69.6862H83.615L83.9217 70.9975H86.583V75.0256C85.9446 75.3915 85.2167 75.5719 84.4813 75.5464C83.229 75.5464 81.879 75.007 81.279 74.1391C80.679 73.2711 80.3538 71.8638 80.3538 70.1295C80.3359 68.9901 80.512 67.8559 80.8745 66.7756C81.4139 65.2587 82.6274 64.5407 84.1712 64.5407C85.1925 64.5407 85.9628 64.8306 87.0364 65.5621L87.751 64.5795C86.7471 63.7089 85.4559 63.2416 84.1274 63.2683H84.1358ZM91.1116 76.6115H92.6538V63.3913H91.1116V76.6115ZM96.0987 76.6115H97.7369L97.6611 68.9615C97.6408 67.6503 97.5852 66.4941 97.4925 65.3767C97.7622 66.0896 98.379 67.3419 98.9959 68.5368L103.236 76.6115H104.893V63.4301H103.332L103.381 70.5947C103.4 72.3289 103.55 74.6042 103.55 74.6042C103.55 74.6042 102.798 72.7924 102.318 71.8469L97.9223 63.42H96.0987V76.6115ZM110.999 63.3913L106.584 76.6115H108.183L109.455 72.5464H114.389L115.643 76.6115H117.437L113.055 63.3913H110.999ZM111.303 66.7183L111.958 64.7716L112.595 66.816C112.943 67.952 113.984 71.2486 113.984 71.2486H109.9C109.9 71.2486 111.23 66.9947 111.303 66.7183ZM119.241 76.6048H125.832L126.045 75.2767H120.82V63.3913H119.239V76.6115L119.241 76.6048Z" fill="black"/>
</g>
<defs>
<clipPath id="clip0_678_133">
<rect width="167.999" height="76.413" fill="white" transform="translate(0 0.452515)"/>
</clipPath>
</defs>
</svg>
