<svg width="168" height="63" viewBox="0 0 168 63" fill="none" xmlns="http://www.w3.org/2000/svg">
<g clip-path="url(#clip0_678_1112)">
<path fill-rule="evenodd" clip-rule="evenodd" d="M84.0567 0.00585938L86.4988 7.85967L93.8784 4.07799L90.0552 11.3568L97.9505 13.8997L90.0967 16.3359L93.8784 23.7155L86.5995 19.8923L84.0567 27.7876L81.6146 19.9397L74.229 23.7155L78.0581 16.4366L70.1628 13.8878L78.0166 11.4517L74.229 4.07206L81.5079 7.90116L84.0567 0.00585938ZM86.238 9.26447H81.7331V10.4974H83.6003C83.6714 11.6828 83.707 12.6787 83.707 13.7456C83.7158 14.388 83.6742 15.0302 83.5825 15.6661C83.4106 16.899 81.8932 17.8592 81.1404 18.2741L81.3597 18.9795C82.7196 18.3989 84.0003 17.648 85.171 16.7449C85.4805 16.4732 85.7237 16.1344 85.8819 15.7542C86.0401 15.374 86.1092 14.9627 86.0838 14.5517C86.0483 13.4966 86.0542 13.1054 86.0838 12.4653C86.1135 11.8251 86.1194 11.2798 86.1431 10.8056C86.1668 10.3314 86.1965 9.88685 86.238 9.43636V9.25854" fill="#4C4D5A"/>
<path fill-rule="evenodd" clip-rule="evenodd" d="M150.971 44.5977H154.557V46.0737C154.557 48.3439 154.918 48.6106 159.488 48.6106C164.058 48.6106 164.23 48.6106 164.23 45.5698C164.252 45.1246 164.234 44.6783 164.177 44.2362C163.347 43.2285 162.357 42.9973 159.802 42.8551L157.224 42.6832C152.447 42.4165 151.261 41.0887 151.261 37.5738C151.261 32.9445 153.602 32.2806 159.559 32.2806C166.08 32.2806 167.858 33.3357 167.858 38.1665H164.254V37.3485C164.254 35.4103 163.566 34.9361 159.559 34.9361C155.09 34.9361 155.031 35.2621 155.031 37.6034C155.031 39.7847 155.292 40.087 159.737 40.3063C166.257 40.6086 168 41.225 168 45.8306C168 50.3177 165.493 51.2661 159.518 51.2661C153.543 51.2661 150.971 50.3888 150.971 46.4352V44.5977Z" fill="#4C4D5A"/>
<path fill-rule="evenodd" clip-rule="evenodd" d="M132.312 36.6728V51.0645H128.53V32.494H133.497L143.87 46.8857V32.494H147.652V51.0645H142.685L132.312 36.6728Z" fill="#4C4D5A"/>
<path d="M118.264 32.494H113.807L105.467 51.0645H109.438L111.08 47.3362H121.038L122.698 51.0645H126.652L118.264 32.494ZM112.254 44.7104L116.053 35.8785L119.847 44.7104H112.254Z" fill="#4C4D5A"/>
<path fill-rule="evenodd" clip-rule="evenodd" d="M85.0638 32.494H88.8396V40.1463H99.7163V32.494H103.534V51.0645H99.7341V42.9262H88.8396V51.0645H85.0638V32.494Z" fill="#4C4D5A"/>
<path fill-rule="evenodd" clip-rule="evenodd" d="M71.2776 41.4562H81.6506V45.8662C81.6506 51.0171 78.0941 51.2542 72.5402 51.2542C65.611 51.2542 62.9437 50.2228 62.9437 44.7341V38.8067C62.9437 33.3357 65.611 32.2865 72.5402 32.2865C77.4006 32.2865 81.6506 32.5414 81.6506 36.3942V38.6288H77.8867V37.5263C77.8867 35.2087 77.5488 34.9361 72.552 34.9361C67.164 34.9361 66.7372 35.2621 66.7372 38.8956V44.6451C66.7372 48.2964 67.164 48.6165 72.552 48.6165C75.1304 48.6165 76.3159 48.5809 76.9679 48.2431C77.62 47.9052 77.8985 47.2532 77.8985 45.3802V44.0821H71.2776V41.4562Z" fill="#4C4D5A"/>
<path fill-rule="evenodd" clip-rule="evenodd" d="M44.0354 36.6728V51.0645H40.2359V32.494H45.2268L55.6116 46.8857V32.494H59.3755V51.0645H54.4202L44.0354 36.6728Z" fill="#4C4D5A"/>
<path fill-rule="evenodd" clip-rule="evenodd" d="M18.4636 32.494H22.2631V46.5953C22.2631 48.0771 22.9329 48.6106 27.3962 48.6106C31.8595 48.6106 32.5649 48.0771 32.5649 46.5953V32.494H36.3584V46.0737C36.3584 50.2229 33.6081 51.2601 27.3962 51.2601C21.2732 51.2601 18.4636 50.2169 18.4636 46.0737V32.494Z" fill="#4C4D5A"/>
<path fill-rule="evenodd" clip-rule="evenodd" d="M10.7879 32.494H14.5873V46.8324C14.5873 50.3888 11.7244 51.2424 7.29664 51.2424C2.86887 51.2424 0 50.4303 0 46.8324V43.8094H3.79947V46.7731C3.79947 48.2668 4.28552 48.5869 7.29664 48.5869C10.3078 48.5869 10.7879 48.2668 10.7879 46.7731V32.494Z" fill="#4C4D5A"/>
<path d="M37.8004 61.1471C37.8004 62.297 37.427 62.706 36.3719 62.706H34.0009C32.857 62.706 32.4954 62.1903 32.4954 61.1233V59.9379C32.4954 58.8709 32.857 58.3612 34.0009 58.3612H36.1585C36.9172 58.3612 37.7293 58.5449 37.7293 59.5467V59.7008H37.1899C37.1899 58.9124 36.9528 58.8531 35.5421 58.8531H34.0602C33.509 58.8531 33.0703 59.0191 33.0703 59.7541V61.3367C33.0703 62.0717 33.509 62.2377 34.0602 62.2377H36.2948C36.8876 62.2377 37.2136 62.0362 37.2136 61.4553V61.0581H35.0679V60.5958H37.8004V61.1885" fill="#4C4D5A"/>
<path d="M39.4292 58.4323H43.5784V58.9006H40.022V60.2461H43.4599V60.7144H40.022V62.1903H43.6199V62.6585H39.4707V58.4323" fill="#4C4D5A"/>
<path d="M45.0486 58.4323H48.4272C49.6127 58.4323 49.8379 58.8354 49.8379 59.6178V59.9616C49.8379 60.5543 49.5001 60.7203 49.0614 60.7618C49.6542 60.8685 49.7846 61.1708 49.7846 61.556V62.6348H49.2452V61.7042C49.2452 61.0463 48.9251 60.9633 48.4094 60.9633H45.6413V62.6348H45.0486V58.4323ZM48.362 60.5247C48.9962 60.5247 49.263 60.3528 49.263 59.9319V59.5467C49.263 59.0784 49.0614 58.9539 48.2198 58.9539H45.6413V60.578H48.3798" fill="#4C4D5A"/>
<path d="M51.4201 58.4323H52.3151L54.7809 61.9888L57.2467 58.4323H58.1417V62.6585H57.549V58.948L54.9765 62.6585H54.5734L52.0009 58.948V62.6585H51.4082V58.4323" fill="#4C4D5A"/>
<path d="M61.8767 58.4323H62.588L65.0953 62.6585H64.4492L63.9276 61.7635H60.5431L60.0155 62.6585H59.3695L61.8767 58.4323ZM62.2324 58.9006L60.8157 61.2715H63.649L62.2324 58.9006Z" fill="#4C4D5A"/>
<path d="M66.3288 58.4323H67.1823L71.047 62.1429V58.4323H71.6397V62.6585H70.7862L66.9215 58.948V62.6585H66.3288V58.4323Z" fill="#4C4D5A"/>
<path d="M75.2786 60.8744L72.8602 58.4323H73.6248L75.5631 60.3943L77.5014 58.4323H78.2719L75.8713 60.8744V62.6526H75.2786V60.8744Z" fill="#4C4D5A"/>
<path d="M79.2024 62.6585H79.8544V61.9354H79.2024V62.6585Z" fill="#4C4D5A"/>
<path d="M83.0192 61.6509C83.0192 62.5696 83.7542 62.7178 84.59 62.7178H86.1785C87.0202 62.7178 87.8737 62.6408 87.8737 61.6035V61.3249C87.8737 60.6077 87.4055 60.2876 86.2911 60.2876H84.6018C83.7127 60.2876 83.5527 60.1216 83.5527 59.6178C83.5527 58.9243 83.9439 58.865 85.0464 58.865H85.6391C87.1387 58.865 87.2099 58.9895 87.2217 59.6593H87.7552V59.517C87.7552 58.7642 87.3996 58.4027 85.977 58.4027H84.7619C83.5764 58.4027 82.9836 58.6161 82.9836 59.5881C82.9836 60.7084 83.5764 60.8151 85.3012 60.8151H86.386C87.0973 60.8151 87.3047 60.9514 87.3047 61.479C87.3047 62.0065 87.0617 62.2614 86.2378 62.2614H84.4596C83.7483 62.2614 83.529 62.0599 83.529 61.6687V61.3664H82.9896V61.6509" fill="#4C4D5A"/>
<path d="M89.5034 62.6585H90.0962V58.4323H89.5034V62.6585Z" fill="#4C4D5A"/>
<path d="M91.8101 58.4323H92.6637L96.5284 62.1429V58.4323H97.1211V62.6585H96.2676L92.4029 58.948V62.6585H91.8101V58.4323Z" fill="#4C4D5A"/>
<path d="M98.6915 59.9675C98.6915 58.9006 99.0531 58.3908 100.197 58.3908H102.378C103.422 58.3908 103.706 58.8709 103.706 59.44V59.8015H103.202V59.6059C103.202 58.8887 102.758 58.8531 102.236 58.8531H100.256C99.7051 58.8531 99.2606 59.0191 99.2606 59.7541V61.3367C99.2606 62.0717 99.7051 62.2377 100.256 62.2377H102.254C103.024 62.2377 103.244 62.0717 103.244 61.5027V61.2419H103.783V61.5264C103.783 62.291 103.534 62.7119 102.355 62.7119H100.173C99.0294 62.7119 98.6678 62.1962 98.6678 61.1293V59.9438" fill="#4C4D5A"/>
<path d="M105.318 58.4323H109.468V58.9006H105.911V60.2461H109.343V60.7144H105.911V62.1903H109.509V62.6585H105.36V58.4323" fill="#4C4D5A"/>
<path d="M115.325 58.9243L113.748 60.1809L113.457 59.8134L115.194 58.4323H115.864V62.6585H115.325V58.9243Z" fill="#4C4D5A"/>
<path d="M117.647 61.3842C117.647 60.7144 117.795 60.5662 118.453 60.4832C118.347 60.4848 118.241 60.4636 118.143 60.421C118.046 60.3784 117.958 60.3154 117.887 60.2363C117.816 60.1571 117.762 60.0636 117.73 59.962C117.698 59.8605 117.688 59.7532 117.7 59.6474V59.3748C117.7 58.6694 118.092 58.4027 118.993 58.4027H121.055C121.962 58.4027 122.353 58.6694 122.353 59.3748V59.6474C122.367 59.7499 122.358 59.8541 122.329 59.9532C122.3 60.0523 122.25 60.1441 122.183 60.2228C122.116 60.3016 122.033 60.3654 121.94 60.4102C121.847 60.4551 121.745 60.4799 121.642 60.4832C122.063 60.5543 122.407 60.7321 122.407 61.3012V61.7161C122.407 62.4452 122.016 62.706 121.174 62.706H118.874C118.038 62.706 117.647 62.4452 117.647 61.7161V61.3842ZM120.575 62.2377C121.761 62.2377 121.867 62.1251 121.867 61.4375C121.867 60.7499 121.654 60.7203 120.741 60.7203H119.307C118.4 60.7203 118.181 60.7558 118.181 61.4375C118.181 62.1191 118.281 62.2377 119.479 62.2377H120.575ZM120.712 60.252C121.636 60.252 121.814 60.2046 121.814 59.5289C121.814 58.9954 121.678 58.8531 120.848 58.8531H119.206C118.376 58.8531 118.234 58.9954 118.234 59.5289C118.234 60.2046 118.418 60.252 119.336 60.252H120.712Z" fill="#4C4D5A"/>
<path d="M127.908 59.4281C127.908 59.0843 127.724 58.8354 126.965 58.8354H125.234C124.843 58.8354 124.345 58.9539 124.345 59.517V60.661C124.505 60.1809 124.938 60.1157 125.341 60.1157H127.285C128.109 60.1157 128.471 60.4298 128.471 61.153V61.5501C128.471 62.6171 127.724 62.6882 126.764 62.6882H125.341C124.588 62.6882 123.782 62.5993 123.782 61.4553V59.4755C123.782 58.6042 124.553 58.373 125.122 58.373H126.847C128.115 58.373 128.423 58.7939 128.423 59.4755V59.6652H127.884V59.4103L127.908 59.4281ZM126.532 62.2436C127.593 62.2436 127.961 62.2436 127.961 61.3901C127.961 60.6669 127.878 60.6017 126.473 60.6017H125.661C124.476 60.6017 124.345 60.7973 124.345 61.4197C124.345 62.2436 124.766 62.2436 125.75 62.2436H126.532Z" fill="#4C4D5A"/>
<path d="M131.802 58.9243L130.219 60.1809L129.929 59.8134L131.666 58.4323H132.335V62.6585H131.802V58.9243Z" fill="#4C4D5A"/>
</g>
<defs>
<clipPath id="clip0_678_1112">
<rect width="168" height="62.712" fill="white" transform="translate(0 0.00585938)"/>
</clipPath>
</defs>
</svg>
