<svg width="168" height="44" viewBox="0 0 168 44" fill="none" xmlns="http://www.w3.org/2000/svg">
<g clip-path="url(#clip0_690_2940)">
<path d="M78.2721 43.1795V36.3621H73.4892L71.0977 33.9699H64.7605L61.8668 31.5778H55.5055L53.114 29.1858H46.442L42.5438 25.8608H74.0393L75.6415 28.7313L77.5309 25.8608H89.3445L91.1142 28.7792L93.5057 25.8608H123.805L120.218 29.1858H113.259L111.155 31.5778H104.339L102.163 33.9699H95.634L93.434 36.3621H88.651V43.1795H78.2721ZM79.994 42.0791H86.9531L85.6378 40.1415H81.2136L79.994 42.0791ZM84.1312 35.8119L87.4074 40.907V30.8603L84.1312 35.8119ZM79.3483 40.7395L82.5767 35.8119L79.3483 30.8363V40.7395ZM82.0268 39.089H84.8008L83.3898 36.6969L82.0268 39.089ZM88.6032 28.5638V35.1899H93.0274L94.1035 34.0656H90.062L91.0663 33.0132H101.589L102.856 31.7214H95.6819L96.6385 30.6688H110.605L111.848 29.3532H100.967L101.948 28.3007H119.764L121.127 27.1287H93.9121L91.0663 31.1234L88.675 27.1046H78.2004L75.6415 31.0276L73.2502 27.0808H45.4375L46.8963 28.2767H64.8082L65.98 29.3532H54.9076L56.2708 30.6688H70.0217L71.0739 31.6974H63.7083L65.1909 32.9891H75.5936L76.6937 34.0418H72.7957L73.8479 35.166H78.2482V28.4921L88.6032 28.5638ZM81.9072 32.4868L83.4615 34.6637L84.8726 32.4868H81.9072ZM81.2854 31.6257H85.6138L86.9531 29.5207H80.0418L81.2854 31.6257ZM153.028 21.1484L151.858 22.8468H150.183V14.1874H152.287C152.407 15.5023 152.878 16.7607 153.654 17.8298C154.428 18.8991 155.475 19.7398 156.687 20.2633C157.704 20.6725 158.797 20.8566 159.89 20.8028C160.984 20.7492 162.053 20.459 163.025 19.9523C163.495 19.5713 163.823 19.0436 163.957 18.4538C164.093 17.864 164.025 17.2462 163.766 16.6991C163.169 15.7183 161.71 15.0247 158.314 14.307C155.779 13.8047 149.92 13.087 149.92 7.53739C149.92 1.98775 154.511 0.911312 157.501 0.911312C159.733 0.889355 161.908 1.62274 163.67 2.99243L164.77 1.41365H166.66V9.59458H164.436C164.296 7.88354 163.497 6.29389 162.207 5.16051C160.918 4.02715 159.239 3.43854 157.525 3.51868C156.895 3.45875 156.259 3.55135 155.672 3.78865C155.086 4.02596 154.565 4.40104 154.152 4.88217C153.959 5.16113 153.826 5.47821 153.765 5.81231C153.703 6.1464 153.713 6.48984 153.794 6.81977C153.938 7.4417 154.128 8.61384 159.462 9.76203C161.303 10.1448 168 10.9102 168 16.6752C168 21.7224 163.838 23.4209 159.987 23.4209C157.458 23.522 154.983 22.668 153.052 21.0288L153.028 21.1484ZM72.1022 22.3444C70.3003 21.1824 68.8621 19.5361 67.9528 17.5943C67.0434 15.6522 66.6995 13.4932 66.9606 11.3647C66.9157 9.40466 67.4358 7.47309 68.4588 5.80066C69.4816 4.12823 70.9641 2.78561 72.7292 1.9331C74.4943 1.0806 76.4674 0.754232 78.4129 0.992972C80.3583 1.23171 82.194 2.02547 83.7008 3.27948L84.5856 1.60502H86.977V9.85771H84.5616C84.3263 8.60441 83.7927 7.42622 83.006 6.42278C82.2193 5.41934 81.2026 4.62013 80.0418 4.09279C79.0773 3.68344 78.0107 3.57862 76.9849 3.79238C75.9593 4.00614 75.0233 4.52826 74.3024 5.28882C72.9848 7.39341 72.2861 9.82644 72.2861 12.3096C72.2861 14.7928 72.9848 17.2258 74.3024 19.3304C74.9928 20.1346 75.9242 20.6945 76.9581 20.9273C77.9921 21.16 79.0735 21.0529 80.0418 20.6221C81.0785 20.2631 81.9603 19.5586 82.5394 18.6266C83.1184 17.6945 83.3596 16.5918 83.2225 15.503C83.2225 13.9243 82.792 13.9243 81.1179 13.9482H79.7787V11.5561H90.6121V13.9482H89.7272C88.364 13.9482 87.8619 13.9482 87.838 15.503V22.9663H85.4465C85.0638 22.464 84.7051 21.9138 84.2747 21.4115C82.2866 22.8537 79.8909 23.6245 77.4351 23.6122C75.5743 23.6937 73.7275 23.2547 72.1022 22.3444ZM31.9497 23.4447C31.1495 23.4494 30.35 23.3935 29.5584 23.2774C27.5515 22.9683 25.6694 22.1097 24.1203 20.7966C22.5712 19.4836 21.4157 17.7674 20.7817 15.8379C20.1252 13.8265 20.0254 11.6748 20.4928 9.61112C20.9601 7.54747 21.9773 5.64887 23.4362 4.11671C25.7397 1.95521 28.7917 0.771833 31.9497 0.815627C32.9373 0.816322 33.9223 0.91245 34.8913 1.10268C36.4126 1.40736 37.8536 2.02644 39.1219 2.92029C40.3903 3.81414 41.458 4.96308 42.2569 6.29351C43.2791 8.2191 43.7775 10.3796 43.7019 12.5586C43.6264 14.7375 42.9796 16.8584 41.8264 18.7085C40.6985 20.2548 39.2077 21.4999 37.4853 22.3342C35.763 23.1685 33.862 23.5663 31.9497 23.4926V23.4447ZM28.2669 4.47551C26.1385 5.86293 25.3494 9.2597 25.3494 12.202C25.3494 15.1443 26.282 19.0194 29.1518 20.2633C30.0319 20.6203 30.9765 20.7913 31.9259 20.7657C32.8518 20.7985 33.776 20.6605 34.6521 20.359C37.8806 19.0912 38.5023 15.4552 38.5262 12.178C38.6943 10.7627 38.5263 9.32757 38.036 7.98926C37.5457 6.65096 36.7469 5.44714 35.7043 4.47551C34.5884 3.75446 33.2773 3.39526 31.9497 3.44692C30.6779 3.42189 29.428 3.7803 28.3626 4.47551H28.2669ZM128.23 22.7749V20.1677C131.051 20.1677 131.697 20.4069 131.697 18.7563V5.40843C131.697 3.85358 130.932 4.14063 128.23 4.14063V1.48541H148.413V10.384H146.022V8.90088C146.103 7.55398 145.76 6.21554 145.041 5.07354C144.156 4.40643 143.064 4.0682 141.957 4.11671H136.193V10.5275C137.248 10.6487 138.316 10.4749 139.278 10.0252C140.115 9.35537 140.187 6.60447 140.187 6.60447H142.434V17.5602H140.043C140.043 17.5602 140.043 14.618 139.158 13.6851C138.274 12.7521 136.073 13.1349 136.073 13.1349V20.3111H141.957C142.423 20.3824 142.899 20.361 143.356 20.248C143.815 20.135 144.246 19.9328 144.626 19.6529C145.006 19.3729 145.328 19.0207 145.571 18.6164C145.815 18.2122 145.976 17.7639 146.046 17.2971C146.069 17.0266 146.069 16.7544 146.046 16.4839V13.709H148.437V22.7989L128.23 22.7749ZM119.812 22.7749L109.289 7.10682V18.5888C109.289 20.5265 110.055 20.2155 112.948 20.2155V22.7749H102.521V20.1915C105.104 20.1915 105.678 20.5025 105.678 18.3975V5.86294C105.678 4.81041 105.535 4.14063 104.339 4.14063H102.521V1.48541H111.059L120.218 14.8811C120.218 14.8811 120.218 9.02049 120.218 5.45628C120.218 4.73864 120.218 4.06887 118.831 4.09279H116.87V1.46149H126.842V4.09279H124.451C123.542 4.09279 123.566 4.85825 123.566 5.3606V22.7749H119.812ZM90.349 22.7749V20.1915C91.7839 20.1915 93.3382 20.4307 93.3382 18.9477V5.09746C93.3382 3.90142 91.9512 4.11671 90.349 4.11671V1.48541H101.063V4.11671C99.1735 4.11671 98.0972 3.90141 98.0972 5.07354V18.9477C98.0972 20.3829 99.006 20.2155 101.063 20.2155V22.7749H90.349ZM0.0956579 22.7749V20.2394C2.48711 20.2394 2.84583 20.0002 3.06106 19.6175C3.14419 19.215 3.14419 18.7998 3.06106 18.3975V5.839C3.08713 5.46632 3.03834 5.09218 2.91757 4.73864C2.60668 3.90142 0.526119 4.09279 0 4.09279V1.46149H11.1202V4.06886C9.61363 4.06886 8.34615 4.06887 7.9396 4.64297C7.72343 4.99328 7.63082 5.40596 7.67655 5.8151C7.67655 6.24567 7.67655 20.1677 7.67655 20.1677H9.35056C13.0573 20.1677 15.4248 20.1677 15.9987 18.4692C16.3758 16.8999 16.6 15.2976 16.6684 13.6851H18.8685V22.7749H0.0956579ZM60.3363 22.7749C60.3363 22.7749 53.3293 12.3694 49.8139 7.10682V18.5888C49.8139 20.4546 50.6509 20.1915 53.4727 20.1915V22.7749H43.0461V20.1915C45.8202 20.1915 46.2028 20.3829 46.2028 18.3975V5.839C46.2028 4.78649 46.418 4.23631 45.3898 4.14063H42.9983V1.46149H51.5357L60.6471 14.8811C60.6471 14.8811 60.6471 9.02049 60.6471 5.45628C60.6471 4.73864 60.6471 4.06887 59.2601 4.09279H57.2991V1.46149H67.2715V4.09279H64.8801C63.8995 4.09279 63.9952 4.83433 63.9952 5.33667V22.7749H60.3363Z" fill="#003150"/>
</g>
<defs>
<clipPath id="clip0_690_2940">
<rect width="168" height="42.365" fill="white" transform="translate(0 0.814453)"/>
</clipPath>
</defs>
</svg>
