<svg width="168" height="54" viewBox="0 0 168 54" fill="none" xmlns="http://www.w3.org/2000/svg">
<g clip-path="url(#clip0_2722_70)">
<path fill-rule="evenodd" clip-rule="evenodd" d="M128.416 53.1054V43.5885H127.387L124.733 44.4266V45.5167H124.951L126.988 44.8466V53.0977L128.416 53.1054ZM119.562 45.8928C119.53 46.289 119.39 46.669 119.159 46.992C118.927 47.3149 118.612 47.5685 118.246 47.7255C116.845 47.2654 116.221 46.6889 116.221 45.8546C116.221 45.0204 116.847 44.4992 117.893 44.4992C118.939 44.4992 119.562 45.007 119.562 45.8928ZM119.877 50.6865C119.877 51.622 119.113 52.2043 117.878 52.2043C116.643 52.2043 115.906 51.6182 115.906 50.6369C115.941 50.1789 116.116 49.7426 116.406 49.3861C116.696 49.0297 117.087 48.7701 117.529 48.6419C119.18 49.1631 119.877 49.7778 119.877 50.6865ZM121.358 50.6369C121.331 50.0545 121.118 49.496 120.751 49.0434C120.383 48.5909 119.88 48.2682 119.315 48.1226C119.804 47.9545 120.23 47.6416 120.537 47.2256C120.844 46.8097 121.017 46.3102 121.034 45.7935C121.034 44.3694 119.806 43.4492 117.908 43.4492C116.011 43.4492 114.758 44.3923 114.758 45.8546C114.768 46.3715 114.934 46.8733 115.237 47.2926C115.539 47.712 115.962 48.0289 116.45 48.2009C115.893 48.3673 115.4 48.7008 115.039 49.1563C114.678 49.6118 114.465 50.1673 114.43 50.7476C114.43 52.2749 115.766 53.2543 117.819 53.2543C119.966 53.2543 121.358 52.2272 121.358 50.6369ZM109.117 45.8928C109.085 46.289 108.946 46.669 108.714 46.992C108.482 47.3149 108.167 47.5685 107.802 47.7255C106.4 47.2654 105.776 46.6889 105.776 45.8546C105.776 45.0204 106.402 44.4992 107.449 44.4992C108.495 44.4992 109.117 45.007 109.117 45.8928ZM109.432 50.6865C109.432 51.622 108.668 52.2043 107.433 52.2043C106.198 52.2043 105.461 51.6182 105.461 50.6369C105.497 50.1789 105.671 49.7426 105.961 49.3861C106.251 49.0297 106.643 48.7701 107.084 48.6419C108.728 49.1631 109.432 49.7778 109.432 50.6865ZM110.912 50.6369C110.885 50.0544 110.673 49.4957 110.306 49.0428C109.938 48.5899 109.435 48.2667 108.871 48.1207C109.36 47.9525 109.786 47.6397 110.093 47.2237C110.399 46.8078 110.573 46.3083 110.589 45.7916C110.589 44.3674 109.361 43.4473 107.464 43.4473C105.566 43.4473 104.312 44.3904 104.312 45.8527C104.321 46.3697 104.488 46.8716 104.79 47.291C105.092 47.7104 105.516 48.0272 106.003 48.199C105.446 48.3651 104.954 48.6986 104.592 49.1541C104.231 49.6097 104.018 50.1653 103.984 50.7457C103.984 52.273 105.32 53.2524 107.372 53.2524C109.52 53.2543 110.912 52.2272 110.912 50.6369ZM99.0753 53.1073V43.5885H98.0463L95.3926 44.4266V45.5167H95.6122L97.6473 44.8466V53.0977L99.0753 53.1073ZM85.1713 53.1073V52.0076H80.7041V48.6858H84.3313V47.5862H80.7041V44.6977H84.9614V43.5885H79.2723V53.0958L85.1713 53.1073ZM74.9272 52.7999V51.7461H74.7038C74.0846 51.9768 73.4306 52.1001 72.7699 52.1107C70.7291 52.1107 69.513 50.698 69.513 48.3345C69.513 45.9711 70.7291 44.5794 72.7699 44.5794C73.4414 44.5966 74.1053 44.7256 74.7343 44.9612H74.9253V44.8772L74.868 43.8291C74.1687 43.6041 73.4377 43.4932 72.7031 43.5007C72.0591 43.4497 71.4118 43.5415 70.8073 43.7694C70.2029 43.9973 69.6561 44.3558 69.2061 44.8193C68.7561 45.2828 68.414 45.8398 68.204 46.4508C67.994 47.0617 67.9215 47.7114 67.9914 48.3536C67.9212 48.996 67.9935 49.6459 68.2033 50.2571C68.4132 50.8683 68.7553 51.4256 69.2053 51.8893C69.6554 52.353 70.2022 52.7117 70.8068 52.9397C71.4114 53.1677 72.0589 53.2595 72.7031 53.2084C73.4642 53.2432 74.2231 53.1027 74.9214 52.798L74.9272 52.7999ZM64.0072 53.1073V43.5885H62.6956V50.7935L57.5831 43.5885H56.2276V53.0958H57.5373V45.8107L62.7491 53.1073H64.0072ZM49.689 53.1073H51.1304V43.5885H49.689V53.1073ZM41.3138 53.2065C40.4821 53.2167 39.6563 53.0663 38.8816 52.7636L38.8301 51.6812V51.5972H39.021C39.7809 51.9219 40.5932 52.1068 41.4188 52.1432C42.6425 52.1432 43.4043 51.5704 43.4043 50.6503C43.4043 49.6251 42.4249 49.186 41.3864 48.7221C40.2008 48.1914 38.8549 47.5881 38.8549 45.9787C38.8549 44.4266 40.0672 43.4969 42.1003 43.4969C42.877 43.5039 43.6486 43.6229 44.3913 43.8501L44.4485 44.8867V44.9707H44.2576C43.5711 44.7241 42.8504 44.5856 42.1213 44.5603C41.0007 44.5603 40.3325 45.0356 40.3325 45.8298C40.3325 46.7443 41.2184 47.1375 42.2416 47.5938C43.4787 48.1436 44.88 48.7679 44.88 50.5109C44.8724 52.1985 43.5379 53.2046 41.3004 53.2046L41.3138 53.2065Z" fill="black"/>
<path fill-rule="evenodd" clip-rule="evenodd" d="M117.441 31.7997H133.585V27.1511H129.03L117.676 13.7875L128.367 5.67H132.981V1.06527H117.441V5.67191H120.712L105.093 17.5083V5.67191H110.424V1.071H94.2499V5.68336H99.643V27.1855H94.2499V31.8016H110.424V27.1855H105.093V23.3348L113.285 17.1131L121.815 27.1511H117.441V31.7997ZM28.2984 23.0866C28.2984 25.6868 25.8471 28.1362 18.2509 28.1572C14.7095 28.1763 6.26177 26.8628 6.20259 23.2184V21.1909H0.763588V31.7921H6.2045V29.9536C10.0786 31.7679 14.3032 32.7115 18.5811 32.718C24.6482 32.7428 29.2243 31.5229 31.2728 29.1117C32.7906 27.476 33.6672 25.3474 33.7412 23.1172C33.7268 21.0906 33.003 19.1331 31.6956 17.5846C30.3881 16.0362 28.5795 14.9946 26.584 14.6408C24.9166 14.3597 23.2334 14.1819 21.544 14.1082C17.4072 14.0714 13.275 13.8229 9.16359 13.3636C6.92232 13.0925 5.34541 12.0635 5.48095 9.681C5.50547 8.68787 5.90439 7.7407 6.59777 7.02927C8.42286 5.292 11.8497 4.67536 15.8454 4.81664C19.0108 4.9326 22.1208 5.68171 24.9919 7.01973C25.7224 7.22974 26.3648 7.67166 26.8221 8.2788C27.2794 8.88593 27.5269 9.62534 27.5271 10.3855V11.8364H32.9719V1.08055H27.5271V3.30845C23.6138 1.27521 19.2543 0.252748 14.845 0.334091C8.44577 0.295909 4.91586 1.58455 2.71277 3.61009C1.87961 4.40242 1.21109 5.35146 0.745559 6.40275C0.280027 7.45405 0.0266461 8.58692 -4.8471e-05 9.73636C-0.0735565 11.3484 0.376483 12.9409 1.28283 14.276C2.18917 15.611 3.50317 16.617 5.0285 17.1436C8.31977 18.3311 15.2135 18.5163 18.5067 18.6614C21.6166 18.8026 24.4497 18.6785 26.4275 19.7648C27.0031 20.106 27.4789 20.5925 27.8072 21.1755C28.1356 21.7585 28.305 22.4176 28.2984 23.0866ZM36.2211 1.071V5.68336H41.6601V27.1855H36.2211V31.8016H71.6882V21.3532H66.2454V27.1855H47.101V18.8809H55.669V22.1054H61.108V10.7329H55.669V14.2685H47.101V5.67764H66.2454V11.8364H71.6901V1.08436L36.2211 1.071ZM91.1419 5.68336V1.071H75.2716V5.68336H80.5139V27.1855H75.2716V31.8016H91.1419V27.1855H85.9549V5.68336H91.1419ZM150.324 32.6015C160.961 32.6015 168.004 25.1561 168.004 16.2731C168 7.85018 161.639 0 150.064 0C139.837 0 132.705 7.23355 132.705 16.2406C132.705 25.2477 139.889 32.6035 150.32 32.6035L150.324 32.6015ZM138.083 16.2406C138.096 14.6643 138.426 13.1067 139.053 11.6605C139.68 10.2143 140.592 8.90914 141.734 7.82261C142.876 6.73608 144.225 5.89041 145.701 5.33595C147.177 4.7815 148.749 4.52957 150.324 4.59518C151.902 4.54947 153.474 4.8181 154.947 5.38545C156.421 5.95281 157.767 6.80755 158.907 7.89995C160.047 8.99235 160.959 10.3006 161.589 11.7486C162.219 13.1965 162.554 14.7553 162.576 16.3342C162.417 19.483 161.051 22.4496 158.762 24.6177C156.473 26.7857 153.437 27.9885 150.284 27.9763C147.131 27.964 144.104 26.7375 141.832 24.5517C139.56 22.3659 138.217 19.3887 138.083 16.2387V16.2406Z" fill="black"/>
</g>
<defs>
<clipPath id="clip0_2722_70">
<rect width="168" height="53.2541" fill="white"/>
</clipPath>
</defs>
</svg>
