<svg width="168" height="71" viewBox="0 0 168 71" fill="none" xmlns="http://www.w3.org/2000/svg">
<g clip-path="url(#clip0_2881_55)">
<path d="M84.3821 0H85.1333C86.6357 3.68939 88.585 7.25516 93.1396 7.54993C95.6404 7.70207 98.7783 6.80825 101.697 6.34232C110.16 5.0111 119.213 3.08083 126.915 2.26308C125.836 4.16108 124.622 5.97879 123.282 7.70208C122.331 9.0333 120.753 12.1141 118.908 12.5325C115.875 13.1981 110.55 12.5325 105.929 12.5325C101.079 12.5325 96.6674 12.8653 92.9495 12.5325C88.8037 12.1522 86.5121 9.06181 84.8005 6.82726C83.8496 8.78606 81.3108 12.0571 78.306 12.4184C72.7814 13.084 64.1285 12.4184 57.9288 12.4184C55.5421 12.4184 52.5183 12.8368 50.9874 12.4184C49.6657 12.0476 47.4121 8.61491 46.756 7.74011C45.2632 5.83836 43.7513 4.12679 43.4375 2.30111C44.5881 1.91125 45.7957 2.67195 47.0603 2.90967C54.2014 4.23138 61.3234 5.3249 68.493 6.38037C71.6309 6.83678 74.9304 7.64502 77.5548 7.28369C81.5865 6.72268 83.203 3.29952 84.3441 0.0380285" fill="#101729"/>
<path d="M168 5.92393V8.64343C166.553 14.0408 164.261 19.1755 161.211 23.8574C160.403 25.0935 159.052 27.5943 157.892 27.9366C156.428 28.3645 154.992 27.5848 153.509 27.9366C152.025 28.2885 149.705 30.6371 148.83 31.5595C148.517 31.8733 147.556 32.5103 148.079 33.0618C152.035 33.0618 153.842 30.0666 157.132 29.8954C156.399 32.1015 154.64 33.8701 153.214 35.6007C150.332 39.1385 147.15 42.4216 143.705 45.4137C141.994 46.9161 140.301 48.7037 138.114 49.3408C138.228 48.1712 137.924 47.439 137.962 46.317C140.139 43.9588 143.068 41.5627 145.36 39.3757C146.073 38.691 147.338 37.9588 147.176 36.9604C145.017 36.4945 139.635 37.4644 139.474 35.3059C139.407 34.355 141.708 33.0714 142.65 32.2821C143.981 31.1601 144.941 30.2473 145.968 29.4295C148.821 27.0904 151.417 23.3534 156.532 23.8479C159.442 19.664 162.133 15.29 163.474 9.50872C159.499 9.5943 156.181 11.6577 153.062 13.3122C145.074 17.477 138.323 23.0682 131.924 28.5262C130.612 29.6577 129.376 31.065 127.702 31.7021C127.369 30.6752 127.635 29.0396 127.55 27.775C131.876 22.4216 138.009 18.1712 144.913 14.0349C149.439 11.3249 154.659 8.168 160.127 6.03804C162.542 5.08717 167.059 2.97623 167.971 5.8859" fill="#101729"/>
<path d="M76.5276 37.4739C76.6036 39.195 78.629 40.0983 80.0078 40.6403C83.5345 42.0434 87.4547 42.0975 91.0189 40.7925C92.179 40.298 94.1568 38.7481 94.3469 37.7782C95.2122 33.1474 87.5006 32.5389 84.2296 32.7956C81.2915 33.0238 76.3944 34.2695 76.5276 37.4739ZM93.7384 31.588C94.8509 32.4343 95.7352 33.4898 97.2091 34.0032C96.8382 30.447 97.2091 26.149 96.1536 23.2869C95.2027 25.9398 94.5656 28.8305 93.7384 31.588ZM88.908 25.9969C89.4309 24.3043 89.4024 17.8669 88.908 16.4881C87.881 13.6355 82.3184 13.7781 81.358 16.4881C80.797 18.0856 80.8255 24.7702 81.358 26.3012C82.0331 28.2029 84.03 28.6213 86.3406 28.5642C87.1583 27.9842 88.442 27.5373 88.908 25.9969ZM88.6037 30.3804C88.9542 30.6753 89.3695 30.8833 89.8156 30.9874C90.2617 31.0915 90.7261 31.0887 91.171 30.9794C93.3675 25.9778 94.3279 19.7496 96.1536 14.3772C96.5824 14.3922 97.0037 14.4933 97.3925 14.6747C97.7813 14.856 98.1297 15.1138 98.4167 15.4327C99.0062 20.6339 98.9682 26.4628 99.6243 31.5975C100.775 30.9034 101.478 29.5722 102.344 28.4216C104.835 25.1031 107.564 21.3091 110.188 18.0095C112.005 18.1046 113.355 17.7528 115.171 17.8574C115.608 18.3709 114.22 19.5975 113.963 20.4248C110.968 20.1395 109.304 23.1443 107.631 25.4073C106.157 27.3851 104.987 29.0872 103.827 30.6847C101.44 34.0603 98.797 38.4818 95.9729 40.9541C91.3802 44.9858 79.5418 45.9177 74.5402 41.2584C73.0664 39.8796 71.9348 37.8447 70.6131 36.1237C66.7146 31.046 63.1012 25.9018 59.1456 20.5769C56.5497 21.0619 55.9697 19.5214 55.2185 18.1617C56.7114 18.5515 58.48 17.6577 60.0489 18.1617C60.9998 18.466 62.3596 21.0143 63.0727 21.9652C65.9253 25.7116 68.9301 30.0286 71.8208 33.1284C73.4093 32.4494 74.8869 31.5359 76.2043 30.4184C75.1963 25.1886 73.9602 20.1775 72.8762 15.0238C73.6654 14.653 74.4452 14.2726 75.2914 13.9588C76.5466 19.7591 77.4119 25.9303 78.9143 31.4739C80.0292 31.4265 81.1172 31.117 82.0902 30.5706C81.1869 29.1633 78.9143 28.1458 78.6195 25.8828C78.4039 22.8667 78.4548 19.8376 78.7716 16.8305C78.9897 15.3772 79.7161 14.0485 80.8217 13.0804C81.9273 12.1124 83.3404 11.5678 84.8097 11.5436C93.3105 11.1442 94.3184 26.1015 88.6132 30.4184" fill="#101729"/>
<path d="M0 12.1141C1.90175 13.6926 2.99523 15.832 4.52614 17.6957C7.52865 21.4148 10.8642 24.8522 14.4913 27.9652C15.309 28.6688 19.1316 32.3487 20.6815 31.8828C21.6324 31.5975 21.7465 29.4295 21.5848 27.813C21.0808 22.6023 18.0286 17.5626 16.7544 13.626C24.7227 17.7718 32.7005 26.6149 31.7021 39.5849C31.569 41.2869 30.9034 45.2901 29.5912 45.4708C28.5167 45.6229 27.6894 44.2156 27.1759 43.3598C30.2948 38.0444 28.0507 29.9145 25.6641 25.9969C25.2647 25.3408 24.9034 24.0096 24 24.3424C24.6276 28.1459 25.4739 34.6688 21.7369 35.363C18.4279 35.9715 15.0238 32.5104 12.8368 30.6752C10.989 29.1612 9.22415 27.5487 7.54994 25.8447C7.02696 25.3217 6.27577 24.3994 5.88591 24.6466C8.80509 31.3693 13.9113 37.9589 19.1981 43.2077C20.149 44.1586 24.4089 47.401 24.3328 48.7893C24.3328 49.5405 23.3154 50.2441 22.5262 50.6055C12.3518 41.7053 3.07132 31.9208 0.028525 15.8891L0 12.1141Z" fill="#101729"/>
<path d="M149.289 18.7512C151.19 18.2473 153.225 19.3123 153.216 21.3186C153.216 24.6181 147.235 25.3123 147.33 21.1665C147.323 20.5986 147.516 20.0464 147.873 19.6053C148.231 19.1642 148.732 18.8621 149.289 18.7512Z" fill="#101729"/>
<path d="M137.364 27.9652C138.086 28.2409 137.925 29.9905 137.81 30.3804C137.24 32.3867 132.048 34.0032 131.021 35.8099C131.116 37.4264 130.831 39.4232 131.173 40.7925C133.665 39.9652 134.711 37.6926 137.211 36.8653C137.587 37.7241 137.641 38.6895 137.364 39.5849C135.519 41.8194 132.79 43.1696 130.869 45.2901V51.176C133.056 50.4914 135.443 47.905 137.364 46.9541C138.314 50.0349 136.622 51.0999 134.796 52.3836C132.2 54.2188 128.92 56.8527 125.886 57.6704C125.886 50.1712 125.988 42.7734 126.191 35.4771C129.833 32.8812 133.284 30.0951 137.364 27.9367" fill="#101729"/>
<path d="M121.056 38.6815C121.18 41.962 119.858 45.3947 119.097 48.7893C118.164 52.2174 117.509 55.7153 117.139 59.2489C119.772 58.7164 121.303 57.0714 123.795 56.3963C125.211 59.382 122.673 60.2949 120.628 61.2267C116.94 62.9451 113.16 64.4561 109.303 65.7529C110.321 60.6562 112.318 53.4581 113.829 47.344C114.276 45.5563 114.448 42.4375 115.341 41.1538C115.959 40.2695 119.868 39.1094 121.047 38.7386" fill="#101729"/>
<path d="M49.8177 45.775C48.4104 50.4438 42.5626 44.9953 38.7971 45.1665C37.7892 45.214 36.7527 45.756 36.6862 46.3741C36.5911 47.1538 38.4453 48.3804 39.1014 48.9414C39.7575 49.5024 41.2218 50.672 41.3645 51.5088C41.7733 53.9906 37.3613 57.8701 35.7733 58.4502C34.4937 58.8864 33.0977 58.8322 31.8557 58.298C28.385 56.9383 25.637 53.7338 23.5546 51.3567C25.2757 46.7449 28.9365 53.4105 31.5514 53.924C33.7765 54.3614 35.6592 53.401 35.6307 51.6609C35.5832 49.2932 31.2091 48.5421 30.9429 46.0793C30.6481 43.2932 34.0047 41.1823 36.3819 41.0967C40.8795 40.9256 46.0237 44.634 49.8177 45.775Z" fill="#101729"/>
<path d="M100.527 48.6372C98.6254 50.4343 97.1515 54.97 96.3052 57.5468C98.0738 57.5468 99.6523 57.2711 101.288 57.0904C102.581 53.9621 104.654 51.6039 105.215 47.7338C103.513 46.7354 101.411 47.7338 100.527 48.6372ZM102.039 68.4153C100.27 68.5199 98.1879 69.5278 96.6095 68.8717C97.4082 65.8004 99.0247 63.5373 99.928 60.5706C98.302 60.1618 96.3718 60.7228 94.7933 60.8654C93.0247 63.5278 91.9407 66.9034 90.4193 69.7751C88.6697 69.7751 87.2624 70.0413 85.4367 69.9272C87.2624 64.6974 90.3813 59.0302 92.9866 53.6197C93.89 51.718 94.6127 49.6451 95.7062 48.3424C97.7315 45.9177 103.085 43.8638 107.174 43.512C112.879 43.0175 111.215 47.6483 109.741 50.7576C106.936 56.653 104.72 62.6911 102.039 68.4153Z" fill="#101729"/>
<path d="M56.3025 55.8828C56.854 55.2552 60.4578 51.7941 60.2296 50.7576C59.9063 49.2457 57.5386 50.1396 56.7589 50.7576C55.2755 51.9272 54.2105 53.4581 52.2327 55.7402C50.7589 57.4327 48.1535 59.7434 48.0013 61.1697C47.9348 61.8733 48.0013 62.653 48.6099 62.6816C49.3896 62.4534 48.8666 61.6071 48.9142 60.8654C49.5893 59.8575 51.3294 60.0572 52.2327 60.7133C53.4974 59.0492 54.743 57.699 56.3025 55.8828ZM54.6479 65.848C54.1345 66.0381 53.4974 66.1142 52.9839 66.3044C52.9839 67.1697 53.3548 67.9684 52.9839 68.7196C52.0879 68.9147 51.1604 68.9147 50.2644 68.7196C50.1048 68.1283 50.0564 67.5124 50.1218 66.9034C46.556 65.4486 41.8397 64.6594 42.5718 60.4185C43.0092 57.8987 45.7097 55.5025 47.5544 53.325C48.5053 52.241 49.4562 51.2235 50.407 50.149C51.7478 48.6942 52.7177 46.7544 55.2375 46.6784C58.5655 46.5833 65.6305 47.6292 66.106 49.7021C66.5814 51.775 64.7367 53.2014 63.8429 54.3804C61.004 58.3815 57.9305 62.2107 54.6384 65.848" fill="#101729"/>
<path d="M72.3058 70.5263H67.6275C65.5546 70.1649 61.5419 69.0049 61.7416 65.848C61.8176 64.6023 63.4912 62.7576 64.3089 61.4739C66.3913 58.2029 67.7701 56.2156 69.8906 52.9161C70.7844 51.5088 71.6592 49.2077 72.9143 48.8368C74.4928 48.3804 77.2788 49.1126 78.0395 48.989C76.366 52.1269 74.4262 54.989 72.61 57.8987C70.7939 60.8084 68.4357 63.6039 67.4753 67.2553C71.973 69.0239 73.9413 65.5532 75.6243 63.0334C77.973 59.5152 79.8462 56.5009 82.1188 52.9161C83.0696 51.4232 84.3343 48.428 85.5895 47.9335C87.225 47.2869 89.3929 47.9335 91.1711 47.6292C88.1758 52.5738 84.2773 58.6689 80.9112 63.6324C78.7051 66.8749 76.8319 70.0793 72.3058 70.5738" fill="#101729"/>
</g>
<defs>
<clipPath id="clip0_2881_55">
<rect width="168" height="70.5738" fill="white"/>
</clipPath>
</defs>
</svg>
