<svg preserveAspectRatio="xMidYMid meet" width="114" height="98.6143" overflow="visible" style="display: block;" viewBox="0 0 114 98.6143" fill="none" xmlns="http://www.w3.org/2000/svg">
<g id="Vector">
<path fill-rule="evenodd" clip-rule="evenodd" d="M0 65.9082V0H114V65.9082L57.0071 98.6143L0 65.9082Z" fill="black"/>
<path d="M2.87664 2.90563V64.2216L56.9568 95.3047H57.0348L111.023 64.2216H111.072V2.92689L2.87664 2.90563Z" fill="#3A3935"/>
<path fill-rule="evenodd" clip-rule="evenodd" d="M5.88184 5.79709V38.978H108.103V5.78292L5.88184 5.79709Z" fill="#008C5C"/>
<path fill-rule="evenodd" clip-rule="evenodd" d="M5.88184 41.8907V62.5136L57.0068 91.8888L108.103 62.542V41.8907H5.88184Z" fill="#EB192E"/>
<path fill-rule="evenodd" clip-rule="evenodd" d="M30.8206 35.0873V15.0455H41.451V9.70906H12.6782V15.0455H23.3085V35.0873H30.8206Z" fill="#3A3935"/>
<path fill-rule="evenodd" clip-rule="evenodd" d="M100.059 34.6125C94.2836 35.7322 86.8566 36.0298 81.4918 33.9038C79.4164 33.1142 77.5856 31.792 76.1835 30.0702C74.7815 28.3484 73.8576 26.2877 73.5048 24.0955C72.8883 19.1347 75.0498 14.8187 79.6634 11.9202C85.0423 8.57516 93.5466 8.68855 99.4004 10.9847V16.5054C94.9711 14.7479 88.3165 13.2383 84.0643 16.0235C82.6913 16.8868 81.6345 18.1714 81.052 19.6851C80.4695 21.1988 80.3926 22.8604 80.8327 24.4215C81.4422 26.9303 83.9651 29.2122 86.7573 30.0343C88.9209 30.5959 91.1682 30.7615 93.3907 30.5233V26.42H90.4709V21.4592H100.059V34.6125Z" fill="#3A3935"/>
<path fill-rule="evenodd" clip-rule="evenodd" d="M55.3343 16.0093L50.7561 24.9388H59.6006L55.3343 16.0093ZM48.6867 30.0981L46.1567 35.0589H38.4745L50.9475 9.70906H59.5297L72.2861 35.0873H64.5472L61.8967 30.1264L48.6867 30.0981Z" fill="#3A3935"/>
<path d="M65.3483 82.0026V45.8594L65.157 45.6751H61.4718L61.2804 45.8594V79.7986L57.0283 82.1302L52.7761 79.7986V45.8452L52.5848 45.6609H48.8358L48.7153 45.7106L48.6516 45.8452V81.9884L48.7508 82.1514L56.9078 86.843H57.1062L65.2491 82.1514L65.3483 82.0026Z" fill="#3A3935"/>
<path d="M42.6773 78.6647H42.8545L42.9537 78.5017V74.5897L42.8545 74.4125L35.0589 70.1604V60.7065L42.0749 62.5065L42.2166 62.3152V58.4528L42.0395 58.2615L35.0376 56.6953V49.1973H42.7694L42.9537 49.0131V45.8452L42.7694 45.6609H31.2957L31.1115 45.8452V71.9038L31.1965 72.0809L42.6773 78.6647Z" fill="#3A3935"/>
<path d="M83.689 71.4573V67.9138L83.5898 67.7508H83.4126L75.7304 71.9463V61.5356L82.9166 59.7143L83.0583 59.5229V56.0716L82.9803 55.9228L82.867 55.8732L75.78 57.4323V49.1973H83.5756L83.7599 49.0131V45.8452L83.5756 45.6609H72.0311L71.8397 45.8452V78.0552L71.9319 78.2253H72.1303L83.6252 71.6203L83.689 71.4573Z" fill="#3A3935"/>
<path d="M21.4305 66.4823L24.5984 68.3107H24.8039L24.896 68.1548V45.8452L24.7047 45.6468H21.5298L21.3455 45.8452V53.6975L13.7129 52.0321V45.8452L13.5286 45.6468H10.382L10.2616 45.7106L10.1978 45.8452V59.9482L10.297 60.1112L13.4649 61.89H13.6491L13.7483 61.7341V55.2779L21.3809 57.2268V66.3193L21.4305 66.4823Z" fill="#3A3935"/>
<path d="M93.1781 49.1973H99.8327C99.9749 49.2028 100.109 49.2637 100.207 49.367C100.305 49.4703 100.359 49.6078 100.357 49.7501V51.4297C100.357 51.8195 100.293 52.0179 99.7831 52.1384L93.1781 53.5558V49.1973ZM89.6843 68.0343H89.8827L93.1498 66.1917V57.078L95.0703 56.5819L100.719 61.6561L100.967 61.7057L103.837 60.0332L103.922 59.9056V59.7993L98.961 55.6181L102.441 54.7322C103.603 54.4487 103.787 53.8959 103.78 52.7266V46.9933C103.727 46.6093 103.53 46.26 103.228 46.0164C102.927 45.7728 102.544 45.6533 102.157 45.6822H89.7835L89.5992 45.9161V67.8855L89.6843 68.0414" fill="#3A3935"/>
</g>
</svg>
