<svg width="168" height="61" viewBox="0 0 168 61" fill="none" xmlns="http://www.w3.org/2000/svg">
<g clip-path="url(#clip0_678_538)">
<path d="M11.0195 59.7809V38.6227H0V32.2235H30.6966V38.6227H19.8671V59.7809H11.0195Z" fill="#231F20"/>
<path d="M33.3944 32.2235H42.3888V59.7895H33.3944V32.2235Z" fill="#231F20"/>
<path d="M148.324 59.7809V38.6227H137.308V32.2235H168.001V38.6227H157.206V59.7809H148.324Z" fill="#231F20"/>
<path d="M106.404 45.9288C106.404 36.3342 113.55 31.5801 122.381 31.5801C131.211 31.5801 138.331 36.9344 138.357 45.9288C138.383 54.9232 131.215 60.2645 122.381 60.2645C113.546 60.2645 106.404 56.1279 106.404 45.9288ZM115.342 45.9288C115.342 51.1535 117.368 55.3938 122.368 55.3938C127.036 55.3938 129.251 51.1535 129.251 45.9288C129.251 40.704 126.699 36.4638 122.368 36.4638C117.294 36.4638 115.342 40.704 115.342 45.9288Z" fill="#231F20"/>
<path d="M84.7913 60.0011C79.9638 59.0166 75.3565 55.4499 75.7236 50.182H84.1134C84.6273 51.3133 84.4243 52.4749 85.2016 53.5587C85.5824 54.148 86.1012 54.6356 86.7129 54.9793C87.1729 55.2674 87.6658 55.4993 88.181 55.6702C89.5397 56.0537 90.9801 56.0387 92.3306 55.627C92.8263 55.4811 93.2855 55.2318 93.6778 54.8953C94.07 54.5589 94.3865 54.143 94.6061 53.6753C94.8394 53.1259 94.8549 52.5084 94.6493 51.9481C94.5196 51.6341 94.3575 51.3346 94.1657 51.0542C93.5223 50.0395 92.3608 49.7934 91.2597 49.4393C86.389 47.9151 79.9638 48.5282 77.291 43.3941C76.5479 41.8496 76.3944 40.0868 76.8592 38.4371C77.1999 37.2644 77.8715 36.215 78.7937 35.4145C79.5896 34.5974 80.5218 33.9253 81.5485 33.4282C86.7301 31.0965 92.6544 31.3426 97.7021 33.5577C100.725 34.8531 103.19 37.6555 103.316 41.1315H95.3272C95.0076 39.7297 94.1761 38.4978 92.9955 37.6771C92.2463 37.2034 91.4043 36.8956 90.5262 36.7742C89.6482 36.6528 88.7543 36.7207 87.9046 36.9733C86.566 37.3273 85.1022 38.4716 85.6593 39.9959C85.9788 40.9199 86.9547 41.3431 87.9046 41.5935C92.3478 42.7982 96.7953 43.0314 100.828 45.4797C101.767 46.051 102.541 46.8582 103.071 47.8211C103.601 48.7839 103.87 49.8688 103.851 50.9679C103.76 58.1962 96.9422 60.5365 90.3875 60.5409C88.5024 60.5392 86.6221 60.3512 84.7741 59.9795" fill="#231F20"/>
<path d="M54.3755 59.8802C49.548 58.9 44.958 55.3334 45.3077 50.0654H53.6889C54.1985 51.1967 53.9955 52.3712 54.7728 53.4421C55.1602 54.0305 55.6828 54.5176 56.297 54.8627C56.7581 55.1488 57.2508 55.3806 57.7651 55.5536C59.1209 55.9263 60.5541 55.9114 61.9018 55.5104C62.3992 55.3647 62.8602 55.1154 63.2546 54.7791C63.649 54.4427 63.9679 54.0269 64.1903 53.5587C64.4216 53.0081 64.4324 52.3898 64.2205 51.8315C64.096 51.5151 63.9336 51.215 63.7369 50.9376C63.1065 49.9229 61.9449 49.6725 60.8439 49.3227C55.9602 47.7942 49.535 48.4116 46.8622 43.2775C46.1318 41.728 45.9787 39.9686 46.4304 38.3162C46.7711 37.1435 47.4427 36.0941 48.3649 35.2936C49.1612 34.4831 50.09 33.8143 51.1111 33.3159C56.2927 30.9799 62.2299 31.2303 67.2777 33.4455C70.2743 34.7409 72.7529 37.5389 72.891 41.0192H64.9114C64.6063 39.6112 63.7714 38.3744 62.5797 37.5648C61.0382 36.5372 59.2635 36.4206 57.4845 36.874C56.1675 37.228 54.6994 38.368 55.2434 39.8965C55.5802 40.8249 56.5647 41.2481 57.4845 41.4985C61.932 42.6989 66.3925 42.9364 70.4384 45.3847C71.3766 45.957 72.149 46.7644 72.6792 47.727C73.2094 48.6897 73.4789 49.7741 73.461 50.8729C73.3574 58.0969 66.5522 60.4502 59.9932 60.4502C58.1077 60.4495 56.227 60.2586 54.3798 59.8802" fill="#231F20"/>
<path d="M59.1307 0.270367H82.8451V23.5227H59.1307V0.270367ZM62.3001 7.32596H68.4792V20.6772H73.8162V7.33892H79.8916V3.39227H62.3001V7.32596Z" fill="#231F20"/>
<path d="M68.4792 20.6772L68.4796 7.33892H62.3005L62.3001 3.39227H79.8916V7.33892H73.8162V20.6772H68.4792Z" fill="white"/>
<path d="M85.6306 0.179688H109.38V23.6134H85.6306V0.179688ZM88.8864 14.4291H94.9747V20.4742H100.117V14.4291H106.206V9.21724H100.117V3.21523H94.979V9.21724H88.8907L88.8864 14.4291Z" fill="#ED1C24"/>
<path d="M94.9743 20.4699V14.4247H88.8903L88.8907 9.21724H94.979V3.21523H100.117V9.21724H106.206L106.205 14.4247H100.117V20.4699H94.9743Z" fill="white"/>
</g>
<defs>
<clipPath id="clip0_678_538">
<rect width="168.001" height="60.3612" fill="white" transform="translate(0 0.179688)"/>
</clipPath>
</defs>
</svg>
