<svg width="168" height="66" viewBox="0 0 168 66" fill="none" xmlns="http://www.w3.org/2000/svg">
<path d="M63.2918 63.3463C62.8858 64.6152 62.835 64.869 64.2054 64.869C65.5251 64.869 66.0326 64.8182 66.7432 63.6508C66.8447 63.6001 66.997 63.6509 66.997 63.7016C66.8955 64.1076 66.4894 64.9197 66.2864 65.2243C65.8296 65.2243 65.3728 65.2243 64.9668 65.2243C64.51 65.2243 64.0532 65.2243 63.6471 65.2243H62.3275C61.8707 65.2243 61.4647 65.2243 61.1094 65.275C61.0079 65.2243 61.0079 65.072 61.1094 64.9705L61.3631 64.9197C61.9215 64.8182 62.023 64.7167 62.3782 63.5493L63.6979 59.2859C64.0532 58.22 64.0532 58.017 63.4441 57.9155L63.1903 57.8647C63.1396 57.7632 63.1396 57.611 63.2411 57.5602C63.6979 57.5602 64.1039 57.611 64.5607 57.611C65.0683 57.611 65.4236 57.611 65.9819 57.5602C66.0834 57.611 66.0834 57.814 65.9819 57.8647L65.6266 57.9155C64.9668 58.017 64.916 58.1185 64.5607 59.2859L63.2918 63.3463ZM71.6665 61.2146C71.6665 62.0774 70.5498 62.6357 68.8749 63.1433C68.7734 63.3463 68.7227 63.7016 68.7227 64.1584C68.7227 64.5644 68.9764 64.8182 69.281 64.8182C69.687 64.8182 69.9915 64.5644 70.4991 64.1584C70.6006 64.1584 70.6514 64.2599 70.6514 64.3614C69.9408 65.2243 69.281 65.4273 68.8242 65.4273C68.1136 65.4273 67.9106 64.7675 67.9106 64.2092C67.9106 63.4986 68.3674 62.0774 69.6363 61.1131C70.2453 60.6563 70.7021 60.5548 71.0066 60.5548C71.4127 60.504 71.6665 60.9101 71.6665 61.2146ZM69.8393 61.4176C69.3825 61.9252 69.1287 62.4327 68.9764 62.7373C69.7378 62.4835 70.093 62.2805 70.4991 61.8744C70.8544 61.5191 70.9559 61.2146 70.9559 61.1131C70.9559 61.0116 70.9051 60.8593 70.7021 60.8593C70.5499 60.8593 70.2453 60.9608 69.8393 61.4176ZM77.9601 59.0321C78.2139 58.1693 78.1124 58.0678 77.6048 58.017H77.2495C77.148 57.9663 77.1988 57.814 77.2495 57.7632C77.9094 57.6617 78.5184 57.611 79.1782 57.611C79.7873 57.611 80.4979 57.6617 81.0562 57.8647C81.6145 58.1185 82.0205 58.5246 82.0205 59.2859C82.0205 60.4533 80.8532 60.9608 80.2441 61.0116C80.0411 61.0116 80.1426 61.1131 80.2441 61.1131C80.9547 61.3669 81.4622 62.0267 81.4622 62.788C81.4622 63.194 81.3607 63.8031 80.8532 64.2599C80.3964 64.7167 79.5335 65.1228 78.1124 65.1228C77.5033 65.1228 77.0465 65.072 76.5897 65.072C76.1837 65.072 75.7776 65.072 75.4224 65.1228C75.3208 65.072 75.3208 64.9197 75.4224 64.8182L75.6761 64.7675C76.2344 64.666 76.336 64.5644 76.6912 63.3971L77.9601 59.0321ZM77.3511 63.8539C77.0973 64.6152 77.4526 64.869 78.2646 64.869C79.229 64.869 80.4471 64.2599 80.4471 62.7373C80.4471 61.7729 79.5843 61.3161 78.7722 61.3161C78.2139 61.3161 78.1631 61.3161 78.0616 61.7221L77.3511 63.8539ZM78.3662 60.6055C78.2646 60.8593 78.3154 60.9608 78.7722 60.9608C79.5843 60.9608 81.0562 60.5548 81.0562 59.1336C81.0562 58.4738 80.5486 57.9663 79.635 57.9663C79.1782 57.9663 79.1782 57.9663 79.0767 58.3215L78.3662 60.6055ZM84.3553 61.5699L83.8477 63.0418H83.8985C84.2538 62.382 84.8121 61.4684 85.1166 61.1131C85.3704 60.7578 85.6749 60.504 85.9287 60.504C86.3347 60.504 86.3855 60.9101 86.3855 61.0623C86.3855 61.2146 86.284 61.5699 86.1317 61.7729C85.9795 61.9252 85.8272 61.9759 85.7764 61.7221C85.7257 61.4176 85.6749 61.2654 85.5227 61.2654C85.4212 61.2654 85.2689 61.3669 85.1166 61.6206C84.406 62.5342 83.797 63.9046 83.1879 65.2243C83.1372 65.3258 83.0864 65.3765 82.9849 65.3765C82.8834 65.3765 82.5281 65.3258 82.6296 65.072C82.7819 64.6152 83.4924 62.585 83.797 61.4684C83.8477 61.3669 83.797 61.2146 83.6955 61.2146C83.3909 61.2146 83.0864 61.5191 82.8834 61.8237C82.7819 61.8237 82.6804 61.7729 82.6804 61.6206C83.0356 61.0116 83.4924 60.504 84.0508 60.504C84.6598 60.504 84.4568 61.2654 84.3553 61.5699ZM90.3444 60.2502C90.5474 60.1487 90.852 60.2502 90.9027 60.4025C90.7505 60.8086 89.7354 63.3463 89.3801 64.4122C89.3293 64.6152 89.3801 64.666 89.4816 64.666C89.6846 64.666 89.9891 64.4629 90.6489 63.9046C90.7505 63.9046 90.8012 63.9554 90.8012 64.0569C90.3444 64.7167 89.4816 65.3258 88.8725 65.3258C88.7202 65.3258 88.568 65.2243 88.5172 65.0212C88.5172 64.9197 88.5172 64.8182 88.6187 64.5644L88.974 63.5493H88.9233C88.1112 64.5644 86.9438 65.3765 86.3855 65.3765C86.081 65.3765 85.8779 65.072 85.8779 64.7167C85.8779 64.4629 86.1317 63.5493 86.8931 62.4835C87.4514 61.7221 87.9589 61.2654 88.4157 61.0116C88.8725 60.7578 89.1263 60.6563 89.4308 60.6563C89.5323 60.6563 89.6338 60.707 89.6846 60.707C89.7353 60.707 89.8369 60.8086 89.9384 60.9608L90.3444 60.2502ZM88.365 61.5699C87.6544 62.2297 86.9438 63.7524 86.9438 64.5644C86.9438 64.7167 86.9946 64.7675 87.0961 64.7675C87.1976 64.7675 87.5529 64.6152 88.2127 64.0061C89.0755 63.1941 89.5831 62.2297 89.7353 61.5191C89.6338 61.3161 89.4816 61.1131 89.177 61.1131C88.9233 61.1131 88.7202 61.2146 88.365 61.5699ZM94.4048 61.1638C94.4048 61.3669 94.3033 61.4684 94.2018 61.5191C94.1003 61.5191 94.0495 61.5191 93.9988 61.4176C93.7958 61.2146 93.6435 61.0623 93.2882 61.0623C92.9329 61.0623 92.8314 61.3669 92.8314 61.5191C92.8314 61.7729 92.8822 61.9759 93.2375 62.585C93.542 63.0418 93.6943 63.3463 93.6943 63.8539C93.6943 64.1584 93.542 64.5644 93.0852 64.9705C92.7807 65.2243 92.3746 65.3765 91.9178 65.3765C91.461 65.3765 91.2072 65.0212 91.2072 64.7675C91.2072 64.666 91.258 64.5137 91.3595 64.4122C91.461 64.3107 91.5625 64.3107 91.664 64.4122C91.8163 64.5644 92.1716 64.869 92.4761 64.869C92.7299 64.869 93.0344 64.5644 93.0344 64.2092C93.0344 64.0061 92.8822 63.6509 92.6284 63.1941C92.3239 62.7373 92.2224 62.3312 92.2224 62.1282C92.2224 61.6714 92.4254 61.3669 92.9329 60.9101C93.2882 60.6055 93.6435 60.5548 93.7958 60.5548C94.1003 60.504 94.4048 60.8593 94.4048 61.1638ZM97.6532 61.1638C97.6532 61.3669 97.5517 61.4684 97.4501 61.5191C97.3486 61.5191 97.2979 61.5191 97.2471 61.4176C97.0441 61.2146 96.8918 61.0623 96.5366 61.0623C96.1813 61.0623 96.0798 61.3669 96.0798 61.5191C96.0798 61.7729 96.1305 61.9759 96.4858 62.585C96.7903 63.0418 96.9426 63.3463 96.9426 63.8539C96.9426 64.1584 96.7903 64.5644 96.3335 64.9705C96.029 65.2243 95.623 65.3765 95.1662 65.3765C94.7094 65.3765 94.4556 65.0212 94.4556 64.7675C94.4556 64.666 94.5063 64.5137 94.6078 64.4122C94.7094 64.3107 94.8109 64.3107 94.9124 64.4122C95.0647 64.5644 95.4199 64.869 95.7245 64.869C95.9782 64.869 96.2828 64.5644 96.2828 64.2092C96.2828 64.0061 96.1305 63.6509 95.8767 63.1941C95.5722 62.7373 95.4707 62.3312 95.4707 62.1282C95.4707 61.6714 95.6737 61.3669 96.1813 60.9101C96.5366 60.6055 96.8918 60.5548 97.0441 60.5548C97.3994 60.504 97.6532 60.8593 97.6532 61.1638ZM99.3789 64.2092C99.2773 64.4629 99.3281 64.6152 99.4804 64.6152C99.6326 64.6152 100.089 64.2599 100.698 63.6508C101.764 62.6357 102.323 61.2654 102.729 60.6055C102.982 60.5548 103.236 60.6563 103.287 60.8086C103.185 61.1131 102.424 62.991 101.967 64.3614C101.917 64.5137 101.917 64.666 102.018 64.666C102.221 64.666 102.83 64.1076 103.135 63.7524C103.236 63.7524 103.338 63.7524 103.338 63.9046C103.033 64.4629 101.917 65.3765 101.308 65.3765C101.105 65.3765 100.952 65.1735 101.003 64.9705L101.764 62.8895C100.952 63.9554 99.5311 65.4273 98.8713 65.4273C98.4145 65.4273 98.3637 64.9705 98.516 64.4629L99.5819 61.6714C99.6834 61.4684 99.6834 61.3161 99.5819 61.3161C99.3788 61.3161 98.7698 61.8237 98.516 62.1282C98.4145 62.1282 98.3637 62.0774 98.313 62.0267V61.9759C98.6175 61.5191 99.7341 60.6055 100.292 60.6055C100.445 60.6055 100.698 60.7578 100.648 60.9608L99.3789 64.2092ZM106.891 61.1638C106.891 61.3669 106.789 61.4684 106.688 61.5191C106.586 61.5191 106.535 61.5191 106.485 61.4176C106.282 61.2146 106.129 61.0623 105.774 61.0623C105.419 61.0623 105.317 61.3669 105.317 61.5191C105.317 61.7729 105.368 61.9759 105.723 62.585C106.028 63.0418 106.18 63.3463 106.18 63.8539C106.18 64.1584 106.028 64.5644 105.571 64.9705C105.266 65.2243 104.86 65.3765 104.404 65.3765C103.947 65.3765 103.693 65.0212 103.693 64.7675C103.693 64.666 103.744 64.5137 103.845 64.4122C103.947 64.3107 104.048 64.3107 104.15 64.4122C104.302 64.5644 104.657 64.869 104.962 64.869C105.216 64.869 105.52 64.5644 105.52 64.2092C105.52 64.0061 105.368 63.6509 105.114 63.1941C104.81 62.7373 104.708 62.3312 104.708 62.1282C104.708 61.6714 104.911 61.3669 105.419 60.9101C105.774 60.6055 106.129 60.5548 106.282 60.5548C106.637 60.504 106.891 60.8593 106.891 61.1638ZM22.1293 34.162C22.9414 34.162 23.7027 35.0249 23.7027 36.3445V46.9016C23.7027 50.759 22.1293 50.4545 20.4544 50.4545C18.7795 50.4545 18.5764 48.7795 18.5764 46.8508V36.3953C18.5764 35.0249 19.287 34.2128 20.1498 34.2128V33.6037H14.4145V34.162C15.2266 34.162 15.9879 35.0249 15.9879 36.3445V47.7644C15.9879 49.9469 17.1553 51.6218 19.9468 51.6218C22.7384 51.6218 24.464 51.4696 24.464 46.8508V36.3953C24.464 35.0249 25.1746 34.2128 26.0375 34.2128V33.6037H22.1293V34.162ZM142.927 34.162C143.739 34.162 144.45 35.0249 144.45 36.3445V46.9016C144.45 50.759 142.876 50.4545 141.201 50.4545C139.526 50.4545 139.323 48.7795 139.323 46.8508V36.3953C139.323 35.0249 140.034 34.2128 140.846 34.2128V33.6037H135.212V34.162C136.024 34.162 136.735 35.0249 136.735 36.3445V47.7644C136.735 49.9469 137.902 51.6218 140.694 51.6218C143.485 51.6218 145.211 51.4696 145.211 46.8508V36.3953C145.211 35.0249 145.871 34.2128 146.734 34.2128V33.6037H142.978L142.927 34.162ZM33.6508 50.353C33.4477 50.4037 32.4326 50.5052 31.6205 50.4545C30.9607 50.4037 30.9607 50.3022 30.9607 48.8303V36.1922C30.9607 34.7203 31.316 34.3651 32.4834 34.3651C33.9553 34.3651 34.5644 34.7711 35.0719 36.0907C36.0363 38.5777 35.884 43.2472 35.6302 46.8001C35.6302 46.8001 35.2242 49.8962 33.6508 50.353ZM33.2447 33.6037H26.8495V34.162C27.7124 34.162 28.3722 35.0249 28.3722 36.3445V48.5258C28.3722 49.8962 27.6616 50.7083 26.8495 50.7083V51.2666H34.006C35.1734 51.2666 36.493 50.6067 37.3051 48.2212C38.1172 45.785 38.2187 43.7548 38.0665 40.7095C37.9142 37.6641 37.4066 35.7862 36.6961 34.8726C36.0363 34.0098 34.9196 33.6037 33.2447 33.6037ZM43.8526 50.4545C43.0405 50.353 42.939 49.9977 42.939 48.678V42.8412C44.7662 42.9934 44.9692 42.9935 45.426 45.4297H45.9335V39.3391H45.426C45.0199 41.6231 44.7662 41.7753 42.939 41.9276V35.9892C42.939 34.6696 43.0405 34.4158 43.6495 34.4666L44.6646 34.5173C47.2024 34.6188 47.3039 36.1415 47.4562 37.0043H48.0653V33.6037H38.8278V34.162C39.6399 34.162 40.4012 35.0249 40.4012 36.3445V48.5258C40.4012 49.8962 39.6906 50.7083 38.8278 50.7083V51.2666H48.2683L48.9789 48.069H48.2175C47.4054 50.9113 45.1214 50.5052 43.8526 50.4545ZM152.469 50.4545C151.657 50.353 151.555 49.9977 151.555 48.678V42.8412C153.382 42.9934 153.585 42.9935 154.042 45.4297H154.55V39.3391H154.042C153.636 41.6231 153.382 41.7753 151.555 41.9276V35.9892C151.555 34.6696 151.657 34.4158 152.266 34.4666L153.332 34.5173C155.869 34.6188 155.971 36.1415 156.123 37.0043H156.732V33.6037H147.444V34.162C148.256 34.162 148.967 35.0249 148.967 36.3445V48.5258C148.967 49.8962 148.256 50.7083 147.444 50.7083V51.2666H156.834L157.544 48.069H156.834C156.073 50.9113 153.738 50.5052 152.469 50.4545ZM9.94804 43.704H5.53233L9.94804 32.7916V43.704ZM12.7903 29.7971H7.91782V30.3554C9.18671 30.3554 9.33897 31.3197 8.88218 32.3348C7.30876 36.446 3.19758 46.9016 2.74079 47.9675C2.13172 49.2871 1.31964 50.759 0 50.759V51.3173H4.61873V50.759C3.55287 50.759 3.24834 49.2364 3.75589 47.9675C4.26344 46.6986 5.17704 44.5161 5.17704 44.5161H9.94804V48.3228C9.94804 50.6575 9.13595 50.759 7.96858 50.759V51.3173H14.8205V50.759C13.8562 50.759 12.8411 50.7083 12.8411 48.3228C12.8411 47.0539 12.7903 29.7971 12.7903 29.7971ZM113.387 40.0496C113.387 40.6079 113.184 40.9125 112.778 40.9125H110.494V30.5584H112.778C113.184 30.5584 113.387 30.9137 113.387 31.5735V40.0496ZM113.946 29.7971H105.571V30.3554C106.789 30.3554 107.55 31.1675 107.55 32.7409V48.069C107.55 50.5052 106.637 50.7083 105.571 50.7083V51.2666H112.423V50.7083C111.205 50.7083 110.444 50.4545 110.444 48.069V41.7753H114.098C115.265 41.7753 116.179 40.9125 116.179 38.9838V32.4871C116.23 30.9137 115.468 29.7971 113.946 29.7971ZM57.6073 45.988L54.2066 33.6545H49.6894V34.2128C50.806 34.2128 51.2628 34.6188 51.2628 36.446V48.5765C51.2628 49.9469 50.603 50.759 49.6894 50.759V51.3173H53.6483V50.759C52.7347 50.759 52.0749 49.8962 52.0749 48.5765V35.8877L56.3891 51.3173H56.7952L61.2616 35.9385V48.5765C61.2616 49.9469 60.6018 50.759 59.6882 50.759V51.3173H65.4743V50.759C64.5607 50.759 63.8502 49.8962 63.8502 48.5765V36.3953C63.8502 35.0249 64.51 34.2128 65.4743 34.2128V33.6037H61.1094L57.5565 45.6835M85.0659 40.4049C85.0659 42.5367 82.8326 42.2321 82.0205 42.2321V35.5832C82.0205 34.8726 82.0713 34.5173 82.6804 34.5173C83.8985 34.5173 85.0659 34.3143 85.0659 35.9892C85.0659 35.9385 85.0659 40.4049 85.0659 40.4049ZM88.3142 49.7947L85.3704 42.8412C86.284 42.6382 87.5021 42.2829 87.5021 40.6079C87.5021 38.8315 87.4514 37.0043 87.4514 35.7862C87.4514 33.6037 85.4212 33.6037 83.3909 33.6037H77.9601V34.162C78.7722 34.162 79.4828 35.0249 79.4828 36.3445V48.5258C79.4828 49.8962 78.5692 50.7083 77.9094 50.7083V51.2666H83.594V50.7083C82.7819 50.7083 82.0205 49.8454 82.0205 48.5258V43.0442H82.8834L85.7764 50.3022C85.7764 50.3022 85.9287 50.7083 86.2332 51.0128C86.487 51.2666 87.0961 51.2666 87.0961 51.2666H89.2278V50.7083C89.0248 50.759 88.771 50.8605 88.3142 49.7947ZM117.905 34.162C118.97 34.162 119.427 35.0249 119.427 36.3445V48.5258C119.427 49.8962 118.92 50.7083 117.905 50.7083V51.2666H123.488V50.7083C122.422 50.7083 121.965 49.8454 121.965 48.5258V36.3953C121.965 35.0249 122.422 34.2128 123.488 34.2128V33.6037H117.905V34.162ZM95.0647 40.4049C93.1359 39.3898 92.3746 38.0702 92.3746 36.9536C92.3746 36.3445 92.6284 34.0098 94.2018 34.0098C96.5873 34.0605 97.2979 37.4104 97.5517 38.8823H98.0085V33.3499H97.5009C97.5009 33.959 97.2471 34.1113 96.9934 34.1113C96.1305 34.0605 95.826 33.0454 93.542 33.1469C92.0701 33.1977 90.1921 34.5173 90.1921 38.0194C90.1921 39.6436 90.8012 41.8768 92.7807 43.2472C95.6737 45.1759 96.5873 45.988 96.5873 47.4599C96.5873 48.069 96.3843 50.7083 94.1003 50.7083C92.4761 50.7083 91.4103 48.0182 91.2072 47.0031L90.852 45.1759H90.3444V51.3681H90.9027C90.9535 50.8605 91.1057 50.6067 91.3088 50.6067C92.1716 50.6067 93.0344 51.5203 94.5063 51.4696C98.313 51.4188 99.0236 48.1705 99.0236 46.3941C98.9728 43.907 97.7547 41.7753 95.0647 40.4049ZM130.847 42.3336V42.7904C130.847 42.7904 131.608 42.8412 131.608 44.1101V48.2212C131.608 50.4037 130.847 50.6067 129.477 50.6067C128.106 50.6067 127.599 50.0992 127.599 48.4243V36.243C127.599 35.0756 128.208 34.1113 129.629 34.1113C131.202 34.1113 132.877 35.6847 132.877 38.73H133.74V33.3499H133.08C133.08 35.4309 131.862 33.2992 129.68 33.2992C128.106 33.2992 126.787 33.7052 126.076 34.5173C125.315 35.3802 124.96 36.3953 124.96 37.6134V47.1554C124.96 48.3735 125.315 49.3886 126.076 50.2007C126.837 51.0635 128.462 51.5203 129.527 51.5203C130.137 51.5203 131.05 51.2666 131.507 51.0635C131.964 50.8605 132.37 50.5052 132.725 50.0992C133.486 49.2364 133.892 48.2212 133.892 47.0539V44.1101C133.892 42.9427 134.654 42.8412 134.654 42.8412V42.3844C134.705 42.3336 130.847 42.3336 130.847 42.3336ZM76.2852 49.5409L72.6816 33.6037H69.5347V34.162C70.6514 34.162 70.4991 35.0756 70.2961 36.1415L67.7076 49.0333C67.3523 50.5052 66.8955 50.759 66.4387 50.759V51.3173H69.4332V50.759C68.3166 50.759 68.3166 49.8454 68.6211 48.475L69.1287 45.8865H72.8846L73.5952 49.0841C73.9505 50.5052 73.3921 50.759 72.7323 50.759V51.3173H77.3003V50.759C77.0465 50.7083 76.5897 50.6067 76.2852 49.5409ZM69.3317 45.0744L70.9051 37.1566L72.6816 45.0744H69.3317ZM157.95 33.6037V37.0043H158.56C158.661 36.3445 158.813 35.3294 159.422 34.9234C160.031 34.5173 160.64 34.5681 161.706 34.5681V48.5258C161.706 49.8962 161.047 50.7083 160.184 50.7083V51.2666H165.767V50.7083C164.955 50.7083 164.244 49.8454 164.244 48.5258V34.5681C165.259 34.5681 165.868 34.5681 166.528 34.9234C167.137 35.3294 167.289 36.2938 167.391 37.0043H168V33.6037H157.95Z" fill="black"/>
<path fill-rule="evenodd" clip-rule="evenodd" d="M76.0245 24.1662H74.0439L76.6851 17.5627C76.6851 17.5627 76.6851 17.5627 81.8365 17.5627C81.8365 17.5627 81.8365 17.4308 81.8365 24.1662H79.4592C79.4592 24.1662 79.4592 24.1662 79.4592 25.2235C79.4592 25.2235 79.4592 25.2235 93.8553 25.2235C93.8553 25.2235 93.8553 25.2235 93.8553 24.1662H91.4789C91.4789 24.1662 91.4789 24.1662 91.4789 14.5248H95.0445C96.3656 14.5248 97.4218 13.3366 97.4218 12.2794V3.03466C97.4218 2.2422 96.4965 0.922073 94.9116 0.922073H79.4592V1.97836H81.3089L72.7247 24.1672H70.875V25.2244H76.0255L76.0245 24.1662ZM91.4779 1.97741H93.1948C93.5905 1.97741 93.8544 2.24124 93.8544 2.63795V12.808C93.8544 13.2037 93.5905 13.4676 93.1948 13.4676H91.4779V1.97741ZM85.2702 1.97741H88.0433V24.1662H85.2702V1.97741ZM81.8365 4.09095V16.3736H76.9499L81.8365 4.09095Z" fill="black"/>
</svg>
