<svg width="168" height="70" viewBox="0 0 168 70" fill="none" xmlns="http://www.w3.org/2000/svg">
<g clip-path="url(#clip0_678_768)">
<path d="M5.12598 31.6998C4.69477 31.6979 4.27246 31.8224 3.91117 32.0578C3.54988 32.2932 3.26541 32.6292 3.09292 33.0245C2.67473 34.0151 2.48606 35.0875 2.54099 36.1614C2.45701 37.4219 2.77943 38.6762 3.46092 39.7399C3.65455 40.0038 3.91036 40.2158 4.20566 40.3571C4.50096 40.4983 4.82656 40.5644 5.15355 40.5494C5.591 40.5656 6.02242 40.4433 6.38627 40.1999C6.85894 39.8426 7.20407 39.3426 7.3706 38.774C7.63175 37.9445 7.74996 37.0766 7.72017 36.2074C7.76242 35.2585 7.64104 34.3094 7.36139 33.4016C7.19654 32.8794 6.87545 32.4202 6.44147 32.0861C6.06643 31.8262 5.619 31.691 5.16276 31.6998M5.07999 31.2582C5.76451 31.1989 6.4538 31.2855 7.10238 31.5122C7.75096 31.739 8.34403 32.1008 8.84246 32.5737C9.31448 33.0267 9.68673 33.5732 9.93543 34.1783C10.1841 34.7835 10.3038 35.4338 10.2867 36.0878C10.3052 37.2426 9.92144 38.3679 9.20124 39.2708C8.72511 39.8766 8.11091 40.3598 7.40996 40.6798C6.70901 40.9999 5.94165 41.1476 5.17196 41.1106C4.49731 41.1544 3.82094 41.0569 3.18613 40.8243C2.55132 40.5917 1.97206 40.2291 1.48541 39.7598C0.998772 39.2905 0.615483 38.7248 0.360044 38.0988C0.104604 37.4728 -0.0173582 36.8004 0.00198924 36.1246C-0.00823513 35.4658 0.117991 34.8121 0.372733 34.2045C0.627475 33.5969 1.00524 33.0486 1.48221 32.5941C1.95918 32.1396 2.52507 31.7887 3.14424 31.5636C3.76342 31.3384 4.42249 31.2438 5.07999 31.2858" fill="#2E5251"/>
<path d="M15.585 35.1219V37.6333H15.7598C15.9934 37.6406 16.2257 37.5966 16.4405 37.5045C16.6272 37.4158 16.7815 37.2711 16.8821 37.0906C17.0181 36.8539 17.0999 36.5899 17.1213 36.3178H17.2777V39.3812H17.1213C17.1255 39.1682 17.0852 38.9567 17.0028 38.7602C16.9204 38.5638 16.7978 38.3867 16.6429 38.2405C16.3761 38.0476 16.052 37.9503 15.723 37.9645H15.5482V39.8043C15.5306 40.0029 15.5524 40.203 15.6126 40.3931C15.6546 40.4842 15.7259 40.5586 15.815 40.6047C15.9432 40.6692 16.0855 40.7008 16.229 40.6967H16.4313V40.8439H13.1748V40.6967H13.3772C13.5297 40.7031 13.6815 40.6715 13.8188 40.6047C13.8989 40.5451 13.9622 40.4659 14.0027 40.3747C14.0283 40.1854 14.0283 39.9936 14.0027 39.8043V35.8027C14.0273 35.6072 14.0273 35.4094 14.0027 35.2139C13.9559 35.1262 13.8859 35.053 13.8004 35.0023C13.6663 34.9465 13.5224 34.9183 13.3772 34.9195H13.1748V34.7631H18.4276V36.5202H18.2344C18.222 36.1866 18.1063 35.8652 17.9032 35.6003C17.7012 35.3803 17.4333 35.2318 17.1397 35.1771C16.8023 35.1215 16.4605 35.0969 16.1186 35.1035L15.585 35.1219Z" fill="#2E5251"/>
<path d="M22.8521 35.122V37.6334H23.0176C23.2513 37.6416 23.4838 37.5976 23.6984 37.5046C23.8858 37.4136 24.0425 37.2697 24.1491 37.0906C24.2788 36.8525 24.3541 36.5886 24.3699 36.3179H24.5447V39.3812H24.3791C24.3845 39.1689 24.3456 38.9578 24.2648 38.7614C24.184 38.565 24.0632 38.3876 23.9099 38.2405C23.6425 38.0489 23.3188 37.9518 22.99 37.9645H22.8244V39.8044C22.7942 39.9995 22.7942 40.1981 22.8244 40.3931C22.8675 40.4866 22.9425 40.5616 23.036 40.6047C23.1612 40.6685 23.3003 40.7001 23.4408 40.6967H23.6524V40.8439H20.3866V40.6967H20.6994C20.8517 40.7007 21.0029 40.6692 21.1409 40.6047C21.2215 40.5432 21.2874 40.4647 21.3342 40.3747C21.3702 40.1869 21.3856 39.9956 21.3801 39.8044V35.8027C21.3846 35.6054 21.3692 35.4082 21.3342 35.214C21.2807 35.1282 21.2083 35.0559 21.1226 35.0024C20.9888 34.9458 20.8447 34.9176 20.6994 34.9196H20.4878V34.7632H25.7406V36.5203H25.5566C25.5487 36.1859 25.4325 35.8631 25.2254 35.6003C25.0234 35.3804 24.7555 35.2319 24.4619 35.1772C24.1276 35.1219 23.7888 35.0972 23.45 35.1036L22.8521 35.122Z" fill="#2E5251"/>
<path d="M30.9583 40.7059V40.8531H27.7017V40.7059H27.9133C28.0626 40.7087 28.2105 40.6773 28.3457 40.6139C28.4281 40.5568 28.492 40.4768 28.5297 40.3839C28.5758 40.1975 28.5944 40.0053 28.5849 39.8136V35.8119C28.5931 35.614 28.5745 35.416 28.5297 35.2231C28.4871 35.1347 28.4157 35.0633 28.3273 35.0207C28.1983 34.9583 28.0566 34.9268 27.9133 34.9288H27.7017V34.7724H30.9583V34.9288H30.7651C30.6098 34.9251 30.4557 34.9565 30.3143 35.0207C30.2374 35.0798 30.1745 35.1552 30.1303 35.2415C30.1052 35.4308 30.1052 35.6226 30.1303 35.8119V39.8136C30.1051 40.009 30.1051 40.2069 30.1303 40.4023C30.1784 40.4922 30.252 40.5659 30.3419 40.6139C30.4736 40.6778 30.6187 40.7093 30.7651 40.7059H30.9583Z" fill="#2E5251"/>
<path d="M38.9715 34.6067V36.7317H38.8059C38.6995 36.2351 38.4348 35.7864 38.0515 35.453C37.6985 35.1648 37.2561 35.0087 36.8004 35.0115C36.4198 35.0148 36.0486 35.1299 35.733 35.3425C35.4173 35.5552 35.1711 35.8559 35.025 36.2074C34.8201 36.6834 34.7197 37.1979 34.7306 37.716C34.7266 38.2206 34.7979 38.7229 34.9422 39.2063C35.0484 39.6086 35.2805 39.9664 35.6045 40.2274C35.9404 40.4714 36.3489 40.5946 36.7637 40.577C37.1378 40.5779 37.5067 40.4896 37.84 40.3194C38.2304 40.0923 38.5788 39.7998 38.8703 39.4547V39.9699C38.5617 40.3015 38.1894 40.5675 37.7756 40.7518C37.3553 40.9224 36.9042 41.0038 36.4509 40.991C35.8358 41.0041 35.2267 40.8684 34.6754 40.5954C34.1795 40.3484 33.767 39.9614 33.4887 39.4823C33.2082 39.0091 33.0619 38.4685 33.0655 37.9184C33.0655 37.3337 33.2279 36.7604 33.5347 36.2626C33.8333 35.7458 34.2696 35.3222 34.795 35.0391C35.3105 34.7548 35.8898 34.606 36.4785 34.6067C36.9544 34.6138 37.425 34.7073 37.8675 34.8827C38.0397 34.9632 38.2225 35.019 38.4103 35.0483C38.5009 35.0456 38.5882 35.0133 38.6587 34.9563C38.7382 34.8551 38.7891 34.7343 38.8059 34.6067H38.9715Z" fill="#2E5251"/>
<path d="M44.4438 40.7059V40.8531H41.1873V40.7059H41.3897C41.5419 40.7088 41.6928 40.6774 41.8312 40.6139C41.9113 40.5544 41.9747 40.4751 42.0152 40.3839C42.0613 40.1975 42.0768 40.0049 42.0612 39.8136V35.8119C42.0755 35.6144 42.0601 35.416 42.0152 35.2231C41.9662 35.1363 41.8926 35.0659 41.8036 35.0207C41.6758 34.9551 41.5333 34.9234 41.3897 34.9288H41.1873V34.7724H44.4438V34.9288H44.2415C44.0892 34.9258 43.9383 34.9573 43.7999 35.0207C43.7181 35.0746 43.6541 35.1514 43.6159 35.2415C43.5862 35.4305 43.5862 35.6229 43.6159 35.8119V39.8136C43.5969 40.0115 43.6156 40.2113 43.6711 40.4023C43.689 40.4493 43.7161 40.4922 43.7509 40.5285C43.7857 40.5649 43.8273 40.5939 43.8735 40.6139C44.0017 40.6784 44.144 40.7101 44.2874 40.7059H44.4438Z" fill="#2E5251"/>
<path d="M49.9182 38.7924L48.9983 36.7042L48.0784 38.7924H49.9182ZM50.0654 39.1236H47.876L47.6092 39.7216C47.5395 39.8753 47.4989 40.0406 47.4896 40.2091C47.4841 40.286 47.5001 40.3629 47.5358 40.4311C47.5716 40.4994 47.6257 40.5563 47.692 40.5955C47.8897 40.6672 48.0981 40.7046 48.3084 40.7059V40.8531H46.2385V40.7059C46.4488 40.6802 46.6438 40.5827 46.7905 40.4299C47.0107 40.1499 47.1903 39.8402 47.324 39.51L49.541 34.6436H49.6331L51.8777 39.648C51.9973 39.9849 52.1781 40.2968 52.4112 40.5679C52.5366 40.6694 52.6916 40.7275 52.8528 40.7335V40.8807H49.8354V40.7335H49.9642C50.14 40.7459 50.3156 40.7076 50.4702 40.6231C50.5053 40.6033 50.5337 40.5734 50.5517 40.5374C50.5697 40.5013 50.5766 40.4607 50.5714 40.4207C50.5794 40.3658 50.5794 40.31 50.5714 40.2551C50.538 40.1369 50.4918 40.0228 50.4334 39.9147L50.0654 39.1236Z" fill="#2E5251"/>
<path d="M60.4322 38.682L60.2022 40.8162H54.6827V40.669H54.885C55.0373 40.6729 55.1885 40.6414 55.3266 40.577C55.4117 40.5204 55.4787 40.4406 55.5198 40.347C55.5454 40.1578 55.5454 39.9659 55.5198 39.7767V35.775C55.5444 35.5795 55.5444 35.3817 55.5198 35.1863C55.469 35.0984 55.396 35.0255 55.3082 34.9747C55.1747 34.917 55.0304 34.8888 54.885 34.8919H54.6827V34.7355H58.0128V34.8919H57.7368C57.5876 34.889 57.4396 34.9205 57.3044 34.9839C57.22 35.0372 57.1529 35.1139 57.1113 35.2047C57.0862 35.3939 57.0862 35.5857 57.1113 35.775V39.6663C57.0874 39.8649 57.0874 40.0656 57.1113 40.2642C57.1599 40.3505 57.2384 40.416 57.3321 40.4482C57.5149 40.4775 57.7012 40.4775 57.884 40.4482H58.3991C58.6854 40.4598 58.97 40.3997 59.2271 40.2734C59.4607 40.1479 59.6549 39.96 59.7882 39.7307C59.9906 39.3884 60.1453 39.0201 60.2482 38.636L60.4322 38.682Z" fill="#2E5251"/>
<path d="M109.785 31.1386L109.868 34.294H109.565C109.461 33.5603 109.103 32.8864 108.553 32.3897C108.072 31.936 107.438 31.6799 106.777 31.6722C106.356 31.6495 105.942 31.7875 105.618 32.0586C105.478 32.1666 105.366 32.3063 105.291 32.4663C105.216 32.6263 105.18 32.8018 105.186 32.9785C105.182 33.1768 105.236 33.372 105.342 33.5396C105.522 33.7933 105.75 34.009 106.014 34.1744C106.509 34.4909 107.029 34.7678 107.569 35.0023C108.429 35.3566 109.208 35.8825 109.859 36.5478C110.24 37.0185 110.445 37.6073 110.439 38.2129C110.445 38.6 110.366 38.9837 110.207 39.3368C110.048 39.6898 109.813 40.0034 109.519 40.2551C108.851 40.8391 107.986 41.1453 107.099 41.1106C106.808 41.1142 106.518 41.0834 106.235 41.0186C105.882 40.9401 105.537 40.8292 105.204 40.6875C105.024 40.6103 104.83 40.5666 104.634 40.5587C104.492 40.5616 104.355 40.6064 104.238 40.6875C104.09 40.7968 103.973 40.9426 103.898 41.1106H103.659V37.5413H103.898C104.048 38.4216 104.48 39.2291 105.131 39.8411C105.658 40.3355 106.349 40.6174 107.072 40.6323C107.544 40.6601 108.008 40.5053 108.369 40.1999C108.518 40.0824 108.639 39.933 108.724 39.7628C108.808 39.5925 108.853 39.4056 108.856 39.2156C108.855 38.984 108.788 38.7575 108.663 38.5624C108.525 38.3277 108.337 38.1267 108.111 37.9737C107.696 37.6785 107.252 37.4258 106.786 37.2193C106.116 36.9195 105.479 36.5528 104.882 36.1246C104.506 35.8655 104.192 35.5262 103.962 35.1311C103.749 34.7621 103.638 34.343 103.64 33.9168C103.635 33.5507 103.708 33.1877 103.856 32.8527C104.003 32.5176 104.222 32.2185 104.496 31.9758C105.081 31.4374 105.854 31.15 106.649 31.1754C106.959 31.1724 107.269 31.2127 107.569 31.295C107.85 31.366 108.122 31.471 108.378 31.6078C108.591 31.7216 108.821 31.7993 109.059 31.8378C109.113 31.8416 109.167 31.8338 109.218 31.8147C109.269 31.7957 109.315 31.7659 109.353 31.7274C109.458 31.5595 109.527 31.3715 109.555 31.1754L109.785 31.1386Z" fill="#2E5251"/>
<path d="M118.801 34.7724V36.4282H118.644C118.58 36.1387 118.468 35.862 118.313 35.6095C118.188 35.4347 118.02 35.2952 117.825 35.2047C117.623 35.1413 117.412 35.1133 117.2 35.1219H116.74V39.8136C116.726 40.0115 116.745 40.2103 116.795 40.4023C116.84 40.4916 116.91 40.5653 116.998 40.6139C117.129 40.6778 117.274 40.7093 117.421 40.7059H117.623V40.8531H114.357V40.7059H114.569C114.718 40.7108 114.867 40.6792 115.001 40.6139C115.087 40.5555 115.157 40.4764 115.204 40.3839C115.229 40.1947 115.229 40.0028 115.204 39.8136V35.1219H114.734C114.405 35.0948 114.078 35.1898 113.815 35.3887C113.529 35.6651 113.35 36.0331 113.309 36.4282H113.143V34.7724H118.801Z" fill="#2E5251"/>
<path d="M123.788 38.7924L122.868 36.7042L121.948 38.7924H123.788ZM123.935 39.1236H121.745L121.479 39.7216C121.409 39.8753 121.368 40.0406 121.359 40.2091C121.351 40.2863 121.366 40.364 121.402 40.4327C121.438 40.5014 121.493 40.558 121.561 40.5955C121.755 40.6694 121.961 40.7068 122.169 40.7059V40.8531H120.099V40.7059C120.312 40.6822 120.511 40.5846 120.66 40.4299C120.873 40.1466 121.049 39.8375 121.184 39.51L123.41 34.6436H123.493L125.747 39.648C125.869 39.982 126.046 40.2931 126.271 40.5679C126.401 40.6679 126.558 40.7257 126.722 40.7335V40.8807H123.732V40.7335H123.87C124.043 40.7485 124.217 40.71 124.367 40.6231C124.402 40.6033 124.431 40.5734 124.449 40.5374C124.467 40.5013 124.474 40.4607 124.468 40.4207C124.481 40.3662 124.481 40.3096 124.468 40.2551C124.43 40.1386 124.384 40.0249 124.33 39.9147L123.935 39.1236Z" fill="#2E5251"/>
<path d="M130.678 34.7723L133.76 38.544V35.9222C133.787 35.6647 133.735 35.405 133.612 35.1771C133.514 35.0803 133.395 35.0069 133.265 34.9623C133.134 34.9177 132.995 34.9031 132.858 34.9195V34.7631H134.919V34.9195C134.736 34.9379 134.556 34.9812 134.385 35.0483C134.29 35.1082 134.218 35.1992 134.183 35.3058C134.116 35.5041 134.088 35.7133 134.1 35.9222V40.9818H133.953L129.721 35.913V39.8043C129.705 39.9335 129.719 40.0646 129.762 40.1875C129.805 40.3103 129.876 40.4216 129.969 40.5126C130.136 40.6379 130.341 40.7027 130.549 40.6966H130.696V40.8438H128.461V40.6966C128.718 40.7194 128.975 40.6438 129.178 40.485C129.256 40.3906 129.313 40.2818 129.348 40.165C129.383 40.0481 129.394 39.9255 129.381 39.8043V35.4898L129.252 35.3334C129.158 35.2036 129.039 35.0941 128.902 35.0115C128.763 34.9494 128.613 34.918 128.461 34.9195V34.7631L130.678 34.7723Z" fill="#2E5251"/>
<path d="M139.15 35.0944V39.8688C139.127 40.0212 139.127 40.1763 139.15 40.3287C139.18 40.3851 139.225 40.4327 139.279 40.4667C139.393 40.5134 139.515 40.5354 139.638 40.5311C139.859 40.5434 140.081 40.5032 140.284 40.4136C140.487 40.3241 140.666 40.1878 140.806 40.0159C141.224 39.3795 141.418 38.6222 141.358 37.8633C141.384 37.2285 141.254 36.597 140.981 36.0235C140.818 35.6955 140.549 35.4327 140.217 35.2783C139.861 35.1628 139.487 35.113 139.113 35.1311M136.731 40.8899V40.7427H136.933C137.08 40.7501 137.226 40.7184 137.356 40.6507C137.452 40.5983 137.529 40.5181 137.577 40.4207C137.602 40.2314 137.602 40.0397 137.577 39.8504V35.8487C137.595 35.6507 137.577 35.4511 137.522 35.2599C137.475 35.1722 137.405 35.099 137.32 35.0484C137.186 34.9907 137.042 34.9624 136.896 34.9656H136.694V34.8092H139.454C140.081 34.7825 140.706 34.8827 141.294 35.1035C141.821 35.322 142.264 35.7062 142.554 36.1983C142.85 36.709 143 37.2915 142.986 37.8817C142.988 38.2838 142.916 38.6829 142.775 39.0592C142.657 39.3989 142.472 39.7116 142.232 39.9792C142.005 40.2096 141.741 40.3994 141.45 40.5403C141.106 40.6939 140.745 40.8051 140.374 40.8715C140.067 40.8921 139.76 40.8921 139.454 40.8715L136.731 40.8899Z" fill="#2E5251"/>
<path d="M148.708 38.7924L147.788 36.7042L146.868 38.7924H148.708ZM148.855 39.1236H146.675L146.399 39.7215C146.329 39.8752 146.288 40.0406 146.279 40.2091C146.273 40.2871 146.29 40.365 146.328 40.4336C146.365 40.5021 146.422 40.5584 146.491 40.5955C146.684 40.6694 146.89 40.7068 147.098 40.7059V40.853H145.019V40.7059C145.229 40.6802 145.424 40.5827 145.571 40.4299C145.798 40.1531 145.981 39.8428 146.113 39.5099L148.34 34.6435H148.432L150.676 39.6479C150.792 39.9828 150.966 40.2944 151.191 40.5679C151.319 40.6647 151.473 40.7222 151.633 40.7334V40.8806H148.625V40.7334H148.744C148.923 40.7477 149.102 40.7093 149.26 40.6231C149.293 40.6016 149.32 40.5715 149.338 40.5358C149.356 40.5002 149.364 40.4604 149.361 40.4207C149.369 40.3658 149.369 40.31 149.361 40.2551C149.323 40.1386 149.277 40.0249 149.223 39.9147L148.855 39.1236Z" fill="#2E5251"/>
<path d="M155.764 35.0943V37.7621H156.031C156.342 37.7701 156.653 37.7298 156.951 37.6425C157.165 37.5711 157.345 37.4238 157.457 37.2285C157.586 36.9887 157.646 36.7183 157.632 36.4466C157.65 36.2613 157.63 36.0743 157.573 35.8971C157.516 35.7199 157.423 35.5562 157.301 35.4162C157.155 35.29 156.986 35.1946 156.802 35.1361C156.619 35.0776 156.425 35.0571 156.234 35.0759L155.764 35.0943ZM155.764 38.0932V39.8043C155.753 40.0119 155.774 40.22 155.829 40.4206C155.879 40.5154 155.96 40.59 156.059 40.6322C156.248 40.697 156.448 40.722 156.648 40.7058V40.853H153.428V40.7058C153.631 40.7249 153.836 40.6966 154.026 40.623C154.123 40.5863 154.202 40.5138 154.247 40.4206C154.296 40.2192 154.315 40.0114 154.302 39.8043V35.8302C154.315 35.6201 154.297 35.4092 154.247 35.2047C154.198 35.116 154.12 35.0475 154.026 35.0115C153.834 34.9426 153.631 34.9144 153.428 34.9287V34.7723H156.335C156.888 34.7528 157.442 34.8054 157.981 34.9287C158.324 35.014 158.629 35.2115 158.846 35.4898C159.068 35.7624 159.185 36.1047 159.177 36.4558C159.181 36.6664 159.139 36.8753 159.053 37.0677C158.967 37.2601 158.84 37.4312 158.681 37.5689C158.415 37.784 158.098 37.9267 157.761 37.9828L159.251 40.0527C159.381 40.233 159.525 40.4023 159.683 40.5586C159.811 40.6468 159.961 40.6978 160.116 40.7058V40.853H158.147L156.142 38.0932H155.764Z" fill="#2E5251"/>
<path d="M164.072 35.0943V39.8687C164.061 40.0235 164.077 40.179 164.118 40.3287C164.141 40.3865 164.183 40.435 164.237 40.4667C164.354 40.5131 164.479 40.535 164.605 40.5311C164.827 40.5426 165.048 40.5021 165.251 40.4126C165.454 40.3231 165.633 40.1872 165.773 40.0159C166.187 39.3778 166.381 38.6218 166.325 37.8633C166.347 37.2288 166.217 36.5983 165.948 36.0234C165.788 35.6907 165.514 35.4264 165.176 35.2783C164.819 35.1628 164.445 35.1129 164.072 35.1311M161.698 40.8898V40.7427H161.901C162.047 40.7461 162.192 40.7146 162.324 40.6507C162.416 40.5978 162.49 40.5174 162.535 40.4207C162.56 40.2314 162.56 40.0396 162.535 39.8503V35.8486C162.56 35.6532 162.56 35.4554 162.535 35.2599C162.489 35.1722 162.418 35.099 162.333 35.0483C162.199 34.9917 162.055 34.9635 161.91 34.9655H161.707V34.8091H164.467C165.094 34.7835 165.719 34.8836 166.307 35.1035C166.835 35.3219 167.277 35.7062 167.567 36.1982C167.859 36.7107 168.008 37.292 168 37.8817C168 38.2829 167.931 38.6811 167.797 39.0592C167.673 39.3977 167.485 39.7098 167.245 39.9791C167.015 40.2054 166.751 40.3947 166.463 40.5403C166.119 40.6938 165.758 40.805 165.387 40.8714C165.081 40.8915 164.773 40.8915 164.467 40.8714L161.698 40.8898Z" fill="#2E5251"/>
<path d="M44.7843 21.2862C46.025 21.5681 47.2929 21.7131 48.5652 21.7186C50.2046 21.8405 51.8342 21.3777 53.1648 20.4123C53.6536 20.0324 54.0489 19.5454 54.32 18.9888C54.5911 18.4323 54.7309 17.8209 54.7287 17.2018C54.7251 16.3321 54.4694 15.4822 53.9927 14.7548C53.4274 13.9142 52.6137 13.271 51.6653 12.9149C50.4112 12.4286 49.0727 12.1972 47.7281 12.2342C47.0565 12.2342 46.4677 12.2342 45.9894 12.2342C45.5973 12.2415 45.2065 12.2815 44.8211 12.3538L44.7843 21.2862ZM44.7843 10.9003C45.2435 10.9841 45.7074 11.0394 46.1734 11.0659C46.6947 11.1027 47.265 11.1211 47.8844 11.1211C49.1076 11.1812 50.3311 11.0096 51.4905 10.6151C52.2473 10.3046 52.8898 9.76809 53.3304 9.07885C53.7508 8.39592 53.9707 7.60857 53.9651 6.80663C53.9655 6.18106 53.8223 5.56373 53.5464 5.0023C53.2704 4.44086 52.8692 3.95032 52.3737 3.56849C51.0338 2.58318 49.387 2.10705 47.7281 2.2254C46.7295 2.21027 45.7334 2.32782 44.7659 2.57497L44.7843 10.9003ZM53.3764 11.7742C54.6475 11.9663 55.8445 12.4934 56.8445 13.3013C57.3488 13.7539 57.7508 14.3088 58.0237 14.9291C58.2965 15.5493 58.434 16.2206 58.4268 16.8982C58.4138 18.0193 58.0467 19.1076 57.3781 20.0076C56.6647 21.0024 55.6627 21.7539 54.5079 22.1602C52.6984 22.6846 50.8151 22.9083 48.9332 22.8225H38.4644V22.2522H39.2924C39.6704 22.2856 40.0507 22.223 40.398 22.0702C40.7454 21.9174 41.0485 21.6794 41.2794 21.3782C41.5952 20.6165 41.7215 19.7894 41.6474 18.968V4.97598C41.7525 4.09274 41.589 3.19832 41.1782 2.40939C40.9406 2.16521 40.6535 1.9748 40.3361 1.85102C40.0187 1.72724 39.6785 1.67296 39.3383 1.69184H38.5104V1.1123H48.0961C49.5411 1.07869 50.9853 1.20829 52.4013 1.49866C53.8341 1.7657 55.1451 2.48081 56.1454 3.5409C56.9866 4.46331 57.4497 5.66864 57.4425 6.91702C57.4537 7.98545 57.0964 9.02509 56.4306 9.86078C55.6412 10.7844 54.5935 11.4508 53.4224 11.7742" fill="#2E5251"/>
<path d="M76.9643 14.304L73.2846 5.53709L69.4761 14.304H76.9643ZM77.4886 15.5735H68.9425L67.4338 19.0048C67.1401 19.5796 66.9531 20.203 66.8819 20.8446C66.886 21.0167 66.9316 21.1851 67.0149 21.3357C67.0982 21.4863 67.2167 21.6145 67.3602 21.7094C68.0002 22.0479 68.7154 22.2188 69.4393 22.2061V22.7765H62.4295V22.2061C63.0714 22.1493 63.6885 21.931 64.2233 21.5714C65.0312 20.6527 65.6557 19.5879 66.0632 18.4344L73.8917 0.587891H74.6093L82.1986 18.6552C82.5681 19.7004 83.1437 20.6608 83.8913 21.4794C84.5039 21.9422 85.2486 22.1969 86.0163 22.2061V22.7765H77.2035V22.2061C77.8449 22.2351 78.4819 22.0854 79.0434 21.7738C79.1889 21.6693 79.3068 21.5309 79.387 21.3707C79.4671 21.2104 79.5071 21.033 79.5033 20.8538C79.4229 20.0811 79.2015 19.3297 78.8501 18.6368L77.4886 15.5735Z" fill="#2E5251"/>
<path d="M107.559 16.8429L108.102 16.9533L106.207 22.8225H89.0412V22.2521H89.8875C90.274 22.2843 90.6623 22.2165 91.015 22.0554C91.3678 21.8943 91.6733 21.6453 91.9022 21.3322C92.2032 20.5763 92.3199 19.7595 92.2426 18.9496V4.97591C92.3471 4.0937 92.187 3.20033 91.7826 2.40933C91.5381 2.15882 91.2418 1.96479 90.9144 1.84085C90.5871 1.7169 90.2366 1.66601 89.8875 1.69177H89.0412V1.11223H99.0683V1.69177C98.2364 1.63722 97.4019 1.74663 96.6122 2.01375C96.2072 2.18335 95.866 2.47628 95.637 2.85089C95.4109 3.64564 95.3238 4.47348 95.3795 5.29789V18.9772C95.3337 19.6026 95.4247 20.2304 95.6462 20.817C95.7847 21.0446 95.9951 21.2194 96.2442 21.3138C97.0875 21.4672 97.9456 21.5227 98.8016 21.4794H100.411C101.617 21.5376 102.824 21.4104 103.99 21.1022C104.701 20.8289 105.333 20.3832 105.83 19.8051C106.557 18.9255 107.132 17.9305 107.532 16.8613" fill="#2E5251"/>
<path d="M130.034 16.8429L130.568 16.9533L128.673 22.8225H111.516V22.2521H112.353C112.738 22.2863 113.126 22.2194 113.478 22.0581C113.829 21.8967 114.133 21.6466 114.359 21.3322C114.669 20.5787 114.789 19.7604 114.708 18.9496V4.97591C114.814 4.09466 114.657 3.20182 114.257 2.40933C114.011 2.1586 113.713 1.96452 113.384 1.84061C113.055 1.71669 112.704 1.6659 112.353 1.69177H111.516V1.11223H121.534V1.69177C120.702 1.63722 119.867 1.74663 119.078 2.01375C118.671 2.18059 118.329 2.47418 118.103 2.85089C117.872 3.64469 117.784 4.47339 117.845 5.29789V18.9772C117.797 19.6019 117.885 20.2294 118.103 20.817C118.248 21.0454 118.465 21.2199 118.719 21.3138C119.559 21.4685 120.414 21.5241 121.267 21.4794H122.877C124.082 21.5376 125.289 21.4104 126.455 21.1022C127.167 20.8289 127.799 20.3832 128.295 19.8051C129.019 18.9217 129.597 17.9278 130.006 16.8613" fill="#2E5251"/>
<path d="M70.7444 49.3071L70.3212 50.917H70.2016C70.1936 50.7078 70.1468 50.5019 70.0636 50.3098C69.9869 50.1072 69.8526 49.9313 69.6773 49.8039C69.5206 49.6863 69.3305 49.6219 69.1346 49.6199C69.0444 49.6192 68.9551 49.6376 68.8726 49.6741C68.7901 49.7106 68.7163 49.7642 68.6562 49.8315C68.5918 49.8919 68.54 49.9645 68.5037 50.045C68.4674 50.1255 68.4473 50.2124 68.4446 50.3006C68.4491 50.4821 68.4997 50.6594 68.5918 50.8158C68.789 51.0926 69.0174 51.3457 69.2725 51.5701C69.5015 51.7686 69.6944 52.0051 69.8429 52.2693C69.9464 52.4611 69.9972 52.677 69.9901 52.8948C69.9948 53.1443 69.9207 53.389 69.7785 53.594C69.6384 53.8223 69.4289 53.9996 69.1805 54.0999C68.8888 54.2197 68.5759 54.2791 68.2606 54.2747C67.9949 54.2652 67.7303 54.2345 67.4695 54.1827C67.2663 54.1405 67.0603 54.1128 66.8531 54.0999C66.7802 54.0853 66.7052 54.0853 66.6323 54.0999C66.5487 54.1423 66.4687 54.1916 66.3931 54.2471H66.2736L66.6967 52.4073H66.8255C66.8529 52.6846 66.9179 52.957 67.0187 53.2168C67.1102 53.4315 67.26 53.6163 67.4511 53.7504C67.6412 53.8785 67.8658 53.9459 68.095 53.9435C68.2058 53.9473 68.3162 53.9279 68.4191 53.8867C68.5221 53.8456 68.6153 53.7835 68.693 53.7043C68.7697 53.6365 68.8308 53.5529 68.8721 53.4592C68.9134 53.3655 68.9339 53.264 68.9321 53.1616C68.931 52.9879 68.8867 52.8172 68.8033 52.6648C68.6261 52.4056 68.4193 52.1678 68.187 51.9565C67.9239 51.7137 67.7005 51.4313 67.5247 51.1194C67.4389 50.9415 67.3949 50.7465 67.3959 50.549C67.3967 50.3744 67.4349 50.2019 67.5078 50.0432C67.5808 49.8845 67.6869 49.7433 67.819 49.6291C68.1288 49.3668 68.5267 49.232 68.9321 49.2519C69.2102 49.259 69.4859 49.3055 69.7509 49.3899C69.8862 49.4277 70.0248 49.4524 70.1649 49.4635C70.2318 49.4624 70.2977 49.4467 70.358 49.4175C70.4287 49.3737 70.491 49.3176 70.542 49.2519L70.7444 49.3071Z" fill="#2E5251"/>
<path d="M72.2178 49.298C72.2893 49.2973 72.3603 49.3108 72.4266 49.3376C72.4929 49.3645 72.5533 49.4042 72.6042 49.4544C72.6987 49.5536 72.7514 49.6854 72.7514 49.8224C72.7514 49.8916 72.7375 49.9601 72.7105 50.0238C72.6834 50.0876 72.6439 50.1452 72.5941 50.1933C72.5443 50.2414 72.4853 50.2789 72.4206 50.3037C72.356 50.3285 72.287 50.34 72.2178 50.3375C72.1497 50.339 72.0821 50.3267 72.0188 50.3014C71.9556 50.2762 71.8981 50.2384 71.8498 50.1903C71.8005 50.1425 71.7613 50.0853 71.7345 50.0221C71.7076 49.9589 71.6937 49.891 71.6935 49.8224C71.6926 49.7535 71.7061 49.6853 71.733 49.6219C71.7599 49.5586 71.7997 49.5015 71.8498 49.4544C71.8976 49.4051 71.9548 49.3659 72.018 49.339C72.0812 49.3122 72.1491 49.2982 72.2178 49.298ZM72.5214 50.9171L71.7302 53.3917C71.6955 53.4769 71.6739 53.5668 71.6659 53.6584C71.6575 53.6823 71.6575 53.7082 71.6659 53.732C71.6775 53.7371 71.69 53.7397 71.7027 53.7397C71.7153 53.7397 71.7278 53.7371 71.7394 53.732C71.785 53.7299 71.8279 53.7101 71.859 53.6768C72.0088 53.5344 72.136 53.37 72.2362 53.1893L72.365 53.2629C71.997 53.8976 71.6199 54.1828 71.2059 54.1828C71.0711 54.1897 70.939 54.1435 70.8379 54.054C70.7932 54.0174 70.7575 53.9709 70.7335 53.9183C70.7096 53.8657 70.6981 53.8082 70.6999 53.7504C70.7023 53.6372 70.7241 53.5252 70.7643 53.4193L71.3071 51.7542C71.3532 51.6397 71.3811 51.5186 71.3899 51.3954C71.3891 51.3683 71.3821 51.3417 71.3694 51.3177C71.3566 51.2938 71.3384 51.2731 71.3163 51.2574C71.26 51.2176 71.1919 51.1982 71.1231 51.2022H70.9851V51.0459L72.2546 50.8343L72.5214 50.9171Z" fill="#2E5251"/>
<path d="M74.5705 50.917L74.1197 52.4165C74.3321 52.0947 74.5657 51.7874 74.8189 51.4966C74.9971 51.3134 75.1944 51.15 75.4076 51.009C75.5576 50.938 75.7202 50.8974 75.8859 50.8894C75.9484 50.8891 76.0103 50.9021 76.0674 50.9275C76.1244 50.9529 76.1755 50.99 76.2171 51.0366C76.3158 51.1443 76.3686 51.2862 76.3643 51.4322C76.3545 51.5889 76.3235 51.7436 76.2723 51.8921L75.7756 53.364C75.7654 53.4465 75.7654 53.5299 75.7756 53.6124C75.7707 53.6224 75.7681 53.6335 75.7681 53.6446C75.7681 53.6558 75.7707 53.6668 75.7756 53.6768C75.7934 53.6831 75.8129 53.6831 75.8307 53.6768C75.8547 53.6845 75.8804 53.6845 75.9044 53.6768C76.0036 53.5947 76.0904 53.4987 76.1619 53.3916C76.2003 53.346 76.2343 53.2967 76.2631 53.2444L76.4011 53.3272C76.0515 53.8976 75.6744 54.1828 75.288 54.1828C75.1619 54.1901 75.0375 54.1508 74.9384 54.0724C74.899 54.0379 74.8671 53.9955 74.845 53.948C74.8228 53.9004 74.8107 53.8488 74.8096 53.7964C74.8208 53.6488 74.8518 53.5034 74.9016 53.364L75.3892 51.8645C75.4155 51.7937 75.431 51.7192 75.4352 51.6438C75.4429 51.6198 75.4429 51.5941 75.4352 51.5702C75.4083 51.5611 75.3792 51.5611 75.3524 51.5702C75.2178 51.5907 75.0928 51.6517 74.9936 51.7449C74.5675 52.1426 74.2155 52.613 73.9541 53.134L73.6413 54.1643H72.7214L73.4113 51.9289C73.4562 51.7714 73.493 51.6118 73.5217 51.4506C73.5345 51.4181 73.5345 51.3819 73.5217 51.3494C73.4924 51.3238 73.4579 51.305 73.4205 51.2942C73.3353 51.28 73.2483 51.28 73.163 51.2942V51.1562L74.4141 50.9446L74.5705 50.917Z" fill="#2E5251"/>
<path d="M79.4384 53.3272L79.5304 53.4192C79.3362 53.6574 79.099 53.8571 78.8312 54.0079C78.5504 54.167 78.234 54.2524 77.9113 54.2563C77.7135 54.2605 77.5178 54.2163 77.341 54.1275C77.1771 54.0468 77.0445 53.9142 76.9638 53.7503C76.8814 53.5976 76.8373 53.4271 76.8351 53.2536C76.8413 52.8518 76.9522 52.4586 77.157 52.1129C77.3626 51.7586 77.6536 51.4613 78.0034 51.2481C78.3132 51.038 78.6777 50.9229 79.0521 50.917C79.2719 50.8995 79.4905 50.9615 79.6684 51.0918C79.7328 51.1436 79.7846 51.2096 79.8196 51.2845C79.8547 51.3594 79.8722 51.4414 79.8707 51.5241C79.8743 51.5974 79.8623 51.6706 79.8354 51.7388C79.8084 51.807 79.7672 51.8687 79.7144 51.9197C79.6731 51.9703 79.6213 52.0114 79.5625 52.0399C79.5037 52.0685 79.4394 52.084 79.3741 52.0853C79.2755 52.0868 79.18 52.0506 79.1072 51.9841C79.0702 51.9541 79.0402 51.9163 79.0195 51.8733C78.9989 51.8304 78.9879 51.7834 78.9876 51.7357C78.9915 51.6692 79.011 51.6045 79.0446 51.547C79.0781 51.4894 79.1248 51.4406 79.1808 51.4045C79.2728 51.3401 79.3096 51.2849 79.3096 51.2389C79.3185 51.2219 79.3232 51.203 79.3232 51.1837C79.3232 51.1645 79.3185 51.1456 79.3096 51.1286C79.2505 51.0962 79.1838 51.0804 79.1164 51.0826C78.9026 51.0856 78.6982 51.1713 78.5461 51.3217C78.302 51.5343 78.1127 51.8025 77.9942 52.1037C77.8764 52.3963 77.814 52.7082 77.8101 53.0236C77.8042 53.1224 77.8182 53.2214 77.8514 53.3147C77.8846 53.4079 77.9363 53.4935 78.0034 53.5664C78.0616 53.6341 78.1335 53.6888 78.2144 53.7268C78.2952 53.7649 78.3832 53.7854 78.4725 53.7872C78.6472 53.7795 78.8188 53.7389 78.9784 53.6676C79.1703 53.5829 79.3474 53.468 79.5029 53.3272" fill="#2E5251"/>
<path d="M81.0826 52.6741C81.2521 52.6579 81.4173 52.6112 81.5702 52.5361C81.6978 52.4786 81.8133 52.3975 81.9105 52.2969C82.0223 52.1645 82.118 52.0194 82.1957 51.8645C82.2711 51.7096 82.3119 51.5401 82.3152 51.3678C82.327 51.3194 82.327 51.2689 82.3152 51.2206C82.2988 51.1975 82.2765 51.1794 82.2506 51.168C82.2246 51.1567 82.1961 51.1526 82.168 51.1562C82.0131 51.1829 81.8747 51.2686 81.7817 51.3954C81.4729 51.7685 81.2498 52.2051 81.1285 52.6741M81.1285 52.858C81.121 52.9837 81.121 53.1096 81.1285 53.2352C81.1259 53.3097 81.1385 53.384 81.1653 53.4536C81.1922 53.5232 81.2329 53.5866 81.2849 53.64C81.3358 53.699 81.3997 53.7455 81.4715 53.7758C81.5433 53.8062 81.6212 53.8195 81.699 53.8148C81.8734 53.8126 82.0454 53.775 82.2049 53.7044C82.4113 53.6053 82.6032 53.4784 82.7752 53.3272L82.8856 53.4192C82.6642 53.6811 82.3959 53.8995 82.0945 54.0631C81.8252 54.194 81.5292 54.2601 81.2298 54.2563C81.0801 54.2719 80.9288 54.2553 80.786 54.2077C80.6432 54.1601 80.5123 54.0826 80.4018 53.9804C80.2574 53.7969 80.1796 53.5699 80.1811 53.3364C80.1863 52.9303 80.3007 52.5331 80.5122 52.1865C80.7392 51.8093 81.055 51.4935 81.4322 51.2666C81.7823 51.0453 82.1864 50.9244 82.6005 50.917C82.7638 50.9088 82.9243 50.9612 83.0512 51.0642C83.1009 51.1078 83.1405 51.1616 83.1675 51.2219C83.1945 51.2822 83.2081 51.3477 83.2076 51.4138C83.2044 51.5909 83.1501 51.7635 83.0512 51.9105C82.9239 52.1265 82.7474 52.3093 82.536 52.4441C82.321 52.5764 82.0889 52.6785 81.8461 52.7476C81.6163 52.8029 81.3825 52.8398 81.1469 52.858" fill="#2E5251"/>
<path d="M88.2697 49.3164L87.0554 53.3089C87.0139 53.438 86.9832 53.5703 86.9634 53.7044C86.9673 53.7694 86.9932 53.8311 87.037 53.8792C87.0681 53.9336 87.1168 53.9758 87.175 53.9988L87.635 54.0448V54.1644H85.1971V54.0448C85.3684 54.0561 85.5402 54.0342 85.7031 53.9804C85.7944 53.9538 85.8749 53.8991 85.9331 53.824C86.0279 53.6622 86.102 53.4891 86.1539 53.3089L86.853 50.9447C86.9634 50.5767 87.0278 50.3835 87.037 50.3651C87.041 50.31 87.041 50.2547 87.037 50.1995C87.0404 50.1504 87.0332 50.1011 87.0158 50.055C86.9983 50.009 86.971 49.9673 86.9358 49.9328C86.8996 49.8974 86.8563 49.87 86.8087 49.8526C86.7611 49.8352 86.7103 49.828 86.6598 49.8316H86.3102V49.7028L88.1501 49.2888L88.2697 49.3164Z" fill="#2E5251"/>
<path d="M91.0564 51.3218C91.1679 51.2561 91.2551 51.1561 91.3048 51.0366C91.4127 50.7425 91.4597 50.4295 91.4428 50.1167C91.456 49.9468 91.4175 49.7769 91.3324 49.6292C91.3017 49.5873 91.2614 49.5533 91.2151 49.5299C91.1687 49.5064 91.1176 49.4942 91.0656 49.4942C91.0137 49.4942 90.9625 49.5064 90.9162 49.5299C90.8698 49.5533 90.8296 49.5873 90.7988 49.6292C90.6707 49.8219 90.6093 50.0513 90.6241 50.2823C90.6172 50.4438 90.6487 50.6046 90.716 50.7515C90.8017 50.9456 90.9165 51.1255 91.0564 51.285M90.2837 51.8002C90.1904 51.8816 90.1042 51.9708 90.0261 52.067C89.8212 52.4654 89.714 52.9068 89.7134 53.3549C89.702 53.5271 89.7472 53.6983 89.8422 53.8424C89.884 53.8912 89.9364 53.9298 89.9953 53.9553C90.0543 53.9808 90.1183 53.9925 90.1825 53.9896C90.2704 53.9893 90.357 53.9683 90.4353 53.9283C90.5136 53.8884 90.5814 53.8306 90.6333 53.7596C90.8049 53.5462 90.8961 53.2792 90.8909 53.0053C90.896 52.8144 90.855 52.625 90.7713 52.4533C90.6361 52.2165 90.4723 51.9972 90.2837 51.8002ZM90.1549 51.6438C90.017 51.4727 89.9026 51.284 89.8145 51.0826C89.7444 50.9102 89.7069 50.7261 89.7042 50.5399C89.6984 50.3702 89.7273 50.2012 89.7889 50.043C89.8506 49.8849 89.9439 49.7409 90.0629 49.62C90.3303 49.3812 90.6799 49.2559 91.038 49.2704C91.2039 49.2568 91.3708 49.2766 91.5288 49.3288C91.6869 49.3809 91.8327 49.4643 91.9579 49.574C92.1254 49.7251 92.2353 49.9297 92.2689 50.1528C92.3024 50.3759 92.2576 50.6037 92.142 50.7975C92.0401 50.9613 91.9054 51.1022 91.7464 51.2114C91.5872 51.3051 91.4174 51.3792 91.2405 51.4322C91.4387 51.6698 91.6142 51.9254 91.7648 52.1958C91.8326 52.3493 91.8671 52.5155 91.866 52.6833C91.8675 52.8866 91.8284 53.0881 91.751 53.2761C91.6736 53.4641 91.5594 53.6348 91.4152 53.778C91.1049 54.0637 90.6962 54.2186 90.2745 54.2104C89.9204 54.2306 89.5718 54.1155 89.2993 53.8884C89.1855 53.7866 89.0947 53.6618 89.0329 53.5222C88.971 53.3827 88.9396 53.2315 88.9407 53.0789C88.9444 52.863 89.0012 52.6513 89.1062 52.4625C89.2214 52.2654 89.3784 52.0958 89.5661 51.9658C89.7563 51.8238 89.9674 51.7121 90.1917 51.6346" fill="#2E5251"/>
<path d="M94.5994 52.0485C94.756 51.6272 94.8881 51.1972 94.995 50.7606C95.0582 50.5234 95.0921 50.2794 95.0962 50.0339C95.1072 49.8931 95.0681 49.753 94.9858 49.6383C94.9489 49.5962 94.9037 49.5622 94.8531 49.5385C94.8024 49.5147 94.7474 49.5017 94.6915 49.5003C94.6036 49.5029 94.5192 49.5353 94.4523 49.5923C94.2901 49.781 94.1737 50.0045 94.1119 50.2455C93.9668 50.6568 93.8861 51.0882 93.8727 51.5242C93.8691 51.684 93.9211 51.84 94.0198 51.9657C94.0498 52.0057 94.0888 52.0382 94.1335 52.0605C94.1782 52.0829 94.2274 52.0945 94.2774 52.0945C94.3864 52.0949 94.4949 52.0794 94.5994 52.0485ZM92.6216 54.2748V54.1276C92.9976 54.0161 93.3435 53.8211 93.6335 53.5572C93.9984 53.2043 94.2892 52.782 94.489 52.3153C94.3037 52.3854 94.1076 52.4227 93.9094 52.4257C93.7817 52.4266 93.6553 52.4008 93.5381 52.3502C93.4209 52.2995 93.3155 52.2249 93.2287 52.1313C93.0359 51.8967 92.9405 51.5971 92.962 51.2942C92.9559 50.8298 93.0976 50.3756 93.3667 49.9971C93.5038 49.7781 93.6954 49.5986 93.9228 49.476C94.1502 49.3534 94.4056 49.2921 94.6638 49.2979C94.8349 49.2868 95.0063 49.3141 95.1655 49.3778C95.3246 49.4414 95.4676 49.5399 95.5838 49.6659C95.8333 49.9634 95.9585 50.3456 95.9333 50.733C95.9289 51.2309 95.8126 51.7213 95.593 52.1681C95.3819 52.599 95.0952 52.9884 94.7466 53.318C94.4255 53.6249 94.0515 53.8711 93.6427 54.0448C93.3217 54.1707 92.9837 54.2482 92.6399 54.2748" fill="#2E5251"/>
<path d="M99.2614 49.3163L98.0471 53.3088C98.0044 53.4382 97.9706 53.5704 97.9459 53.7044C97.9498 53.7693 97.9758 53.831 98.0196 53.8791C98.0541 53.9341 98.1058 53.9762 98.1667 53.9987L98.6266 54.0448V54.1643H96.1337V54.0448C96.3079 54.0572 96.483 54.0353 96.6489 53.9803C96.7391 53.9517 96.819 53.8973 96.8789 53.8239C96.9656 53.6593 97.0364 53.4868 97.0904 53.3088L97.7896 50.9446C97.9 50.5766 97.9735 50.3834 97.9735 50.365C97.9816 50.3101 97.9816 50.2544 97.9735 50.1995C97.977 50.1503 97.9697 50.101 97.9522 50.0549C97.9347 50.0089 97.9075 49.9672 97.8723 49.9327C97.7963 49.8655 97.6977 49.8294 97.5963 49.8315H97.2375V49.7211L99.0774 49.3071L99.2614 49.3163Z" fill="#2E5251"/>
<path d="M87.4232 36.3086C87.0776 36.0647 86.6999 35.8697 86.3009 35.729C86.3009 35.3886 86.3561 35.0483 86.3745 34.7263C86.8258 34.6551 87.2672 34.5316 87.6899 34.3583C88.1001 34.1895 88.4678 33.932 88.7668 33.6044C89.0658 33.2768 89.2887 32.8871 89.4194 32.4633C89.4418 32.3914 89.4497 32.3158 89.4423 32.2409C89.4349 32.1659 89.4125 32.0933 89.3765 32.0272C89.3404 31.9611 89.2914 31.9029 89.2324 31.8562C89.1734 31.8094 89.1057 31.775 89.0331 31.7549C88.8843 31.7113 88.7243 31.7273 88.5869 31.7993C88.4496 31.8714 88.3457 31.994 88.2971 32.1413C88.2135 32.4069 88.0707 32.65 87.8795 32.8524C87.6883 33.0548 87.4536 33.2111 87.1932 33.3096C86.9504 33.4122 86.6976 33.4893 86.4388 33.5396C86.5032 32.1781 86.4941 31.1938 86.4941 31.1018C86.4893 30.9473 86.4238 30.8008 86.3119 30.6941C86.2001 30.5874 86.0507 30.529 85.8961 30.5314C85.7423 30.5337 85.5952 30.5953 85.4856 30.7032C85.3759 30.8111 85.3121 30.9572 85.3074 31.111C85.3074 31.111 85.3074 32.2057 85.2522 33.6776C84.6754 33.6846 84.0992 33.6353 83.532 33.5304C83.59 33.1899 83.6207 32.8454 83.6239 32.5001C83.6301 32.085 83.5837 31.6708 83.4859 31.2674C83.337 30.5699 82.9887 29.9307 82.4832 29.4275C83.8076 28.8183 85.243 28.4876 86.7004 28.456C88.1578 28.4243 89.6061 28.6924 90.9557 29.2436C93.2003 30.0991 93.7155 31.571 93.7155 32.6565C93.717 32.8663 93.6986 33.0757 93.6603 33.282C93.2446 34.354 92.546 35.2931 91.6388 35.9994C90.7316 36.7057 89.6498 37.1527 88.5087 37.2929C88.1878 36.9388 87.8402 36.6097 87.4691 36.3086M86.1629 37.4309C86.1629 37.2653 86.1629 37.0905 86.2273 36.9249C86.4051 36.999 86.5747 37.0915 86.7333 37.2009L86.9725 37.4217H86.1629M85.0774 36.5477C85.0774 36.8053 85.0222 37.0629 84.9854 37.3205C84.7159 37.2817 84.46 37.1775 84.2402 37.0169C84.1832 36.9717 84.1395 36.9119 84.1136 36.8439C84.0877 36.776 84.0806 36.7022 84.0931 36.6306C84.0931 36.5662 84.093 36.5662 84.139 36.5386C84.441 36.4626 84.757 36.4626 85.059 36.5386M84.2219 40.7058C83.8094 41.8708 83.2266 42.9682 82.4924 43.9624C82.0145 43.4379 81.5978 42.8608 81.2505 42.2421C80.467 40.8633 79.6103 39.5275 78.6839 38.2404C80.2195 38.0138 81.6127 37.2153 82.5844 36.005C82.8831 35.5827 83.1157 35.1174 83.2744 34.6251C83.9175 34.7468 84.5701 34.8114 85.2246 34.8183L85.1693 35.3795C84.6609 35.2686 84.1316 35.3036 83.6423 35.4806C83.4241 35.5668 83.2366 35.7161 83.1039 35.9095C82.9711 36.1029 82.8991 36.3316 82.8971 36.5662C82.8779 36.8069 82.9152 37.0487 83.0063 37.2724C83.0974 37.4961 83.2396 37.6953 83.4216 37.8541C83.8195 38.1696 84.2912 38.3785 84.7923 38.4612C84.6678 39.2246 84.477 39.9756 84.2219 40.7058ZM76.3197 36.0234C76.0899 35.9026 75.8534 35.7951 75.6114 35.7014V34.7171C77.948 34.4135 79.2911 33.6684 79.6958 32.5185C80.016 33.236 80.6035 33.8004 81.3333 34.0915C81.5541 34.1743 81.8208 34.2755 82.0968 34.3583C81.9742 34.7035 81.8072 35.0313 81.6 35.3335C80.9101 36.2534 79.6866 36.9065 77.8099 37.2193C77.3763 36.7366 76.8629 36.332 76.2921 36.0234M75.7677 37.4401H75.501C75.501 37.2745 75.501 37.1089 75.501 36.9341L75.7217 37.0353C75.9077 37.1355 76.0861 37.2493 76.2553 37.3757C76.0805 37.3757 75.9333 37.4309 75.7494 37.4401M73.3667 36.9065C73.3426 36.8828 73.3243 36.8539 73.3131 36.822C73.3019 36.7901 73.2983 36.7561 73.3023 36.7225C73.3023 36.7225 73.3023 36.649 73.4679 36.603C73.7685 36.5166 74.0873 36.5166 74.3878 36.603C74.3878 36.8605 74.3878 37.1273 74.3878 37.3849C74.0413 37.3356 73.7192 37.1778 73.4679 36.9341M74.3878 33.7144C72.4376 33.8432 70.9105 33.4936 70.101 32.7209C69.9228 32.5686 69.7796 32.3796 69.6811 32.1668C69.5827 31.9541 69.5314 31.7226 69.5307 31.4882C69.5951 30.0071 71.1865 28.894 73.7991 28.4984C76.0625 28.1421 78.3808 28.4889 80.4409 29.4919C80.1382 29.7835 79.9038 30.1385 79.7543 30.5313C79.6048 30.9241 79.544 31.3451 79.5762 31.7641C79.5237 31.7258 79.4645 31.6977 79.4015 31.6814C79.2515 31.645 79.0932 31.669 78.9607 31.7481C78.8283 31.8272 78.7322 31.9552 78.6931 32.1045C78.5183 32.8037 77.4604 33.3096 75.7309 33.5672C75.7309 32.1689 75.8046 31.1018 75.8046 30.9822C75.8084 30.9067 75.7965 30.8311 75.7699 30.7603C75.7433 30.6895 75.7024 30.6249 75.6498 30.5706C75.5972 30.5162 75.5339 30.4733 75.464 30.4444C75.3941 30.4155 75.319 30.4013 75.2434 30.4027C75.1662 30.3977 75.0888 30.4084 75.016 30.4343C74.9431 30.4601 74.8762 30.5005 74.8194 30.553C74.7626 30.6054 74.7171 30.6689 74.6856 30.7396C74.6541 30.8102 74.6373 30.8865 74.6362 30.9638C74.6362 30.9638 74.6362 32.1689 74.5534 33.7236H74.3878M82.4188 31.5434C82.4857 31.8641 82.5196 32.1908 82.52 32.5185C82.52 32.7761 82.52 33.0244 82.52 33.282C82.3198 33.223 82.1233 33.1523 81.9313 33.0704C81.6519 32.9714 81.4023 32.8029 81.206 32.5808C81.0096 32.3587 80.873 32.0904 80.8089 31.8009C80.7685 31.5374 80.7918 31.2679 80.8766 31.0151C80.9614 30.7623 81.1053 30.5334 81.2965 30.3475L81.5908 30.1083C82.0595 30.4609 82.386 30.9702 82.5107 31.5434M96.0429 42.1777C95.9026 42.1157 95.7434 42.1119 95.6002 42.1671C95.4571 42.2223 95.3417 42.3319 95.2793 42.4721C95.2426 42.5464 95.2237 42.6283 95.2242 42.7113C95.2283 42.8002 95.2539 42.8868 95.2987 42.9637C95.3436 43.0405 95.4064 43.1054 95.4818 43.1528C95.3625 43.4174 95.172 43.6435 94.9315 43.806C94.6911 43.9685 94.4102 44.0608 94.1203 44.0727C92.7588 44.1371 92.1976 43.2264 91.1488 40.9542C90.7069 40.0077 90.1475 39.1207 89.4838 38.314C93.1635 37.3941 94.7918 34.5147 94.9481 33.512C94.9921 33.2506 95.0137 32.9859 95.0126 32.7209C95.0126 31.3962 94.479 29.3539 91.5537 28.2224C89.9548 27.5697 88.2311 27.2798 86.5067 27.3736C84.7823 27.4675 83.1003 27.9428 81.5817 28.7652C79.179 27.4646 76.4155 26.9895 73.7163 27.4129C70.4874 27.8913 68.5279 29.4183 68.4543 31.4974C68.4442 31.8931 68.5214 32.2861 68.6804 32.6486C68.8394 33.0112 69.0763 33.3342 69.3742 33.5948C70.1194 34.3123 71.6189 35.1035 74.5626 34.9195C74.5626 35.1127 74.5626 35.3059 74.5626 35.499C74.11 35.4304 73.6477 35.465 73.2104 35.6002C73.0213 35.6694 72.8481 35.7759 72.7012 35.9134C72.5542 36.0509 72.4364 36.2166 72.3548 36.4006C72.284 36.614 72.267 36.8416 72.3055 37.0631C72.3441 37.2846 72.4368 37.4931 72.5756 37.6701C73.0474 38.2023 73.7066 38.5319 74.4155 38.59C74.4155 39.2983 74.3327 39.9239 74.2959 40.3563C73.9555 43.4932 72.7596 43.9348 71.8765 44.036C71.6312 44.0696 71.3814 44.0428 71.1489 43.9578C70.9165 43.8728 70.7083 43.7323 70.5426 43.5484C70.4573 43.4663 70.4077 43.3539 70.4046 43.2356C70.4806 43.1076 70.5084 42.9567 70.4831 42.81C70.4578 42.6633 70.3811 42.5304 70.2666 42.4353C70.1674 42.3408 70.0356 42.2881 69.8986 42.2881C69.7616 42.2881 69.6299 42.3408 69.5307 42.4353C69.3596 42.6333 69.2545 42.8796 69.2298 43.14C69.205 43.4004 69.2619 43.6621 69.3927 43.8888C69.6529 44.3238 70.0342 44.6738 70.49 44.8959C70.9457 45.1181 71.4562 45.2028 71.9592 45.1399C73.9739 45.0019 75.1514 43.4196 75.455 40.4666C75.5102 40.0067 75.5561 39.3811 75.5929 38.6268H75.9885C76.4761 38.6268 76.982 38.5532 77.488 38.498C78.5534 39.8737 79.5129 41.3283 80.3581 42.8492C80.7761 43.5767 81.2694 44.2581 81.83 44.8823C81.3903 45.3577 80.8102 45.68 80.1742 45.8022C79.8093 45.8764 79.4315 45.8572 79.0761 45.7462C78.7206 45.6352 78.3989 45.4361 78.1411 45.1675C78.1032 45.108 78.0786 45.041 78.0691 44.9711C78.0596 44.9013 78.0653 44.8301 78.086 44.7627C78.086 44.3855 77.9663 44.2199 77.6536 44.1371C77.5158 44.1083 77.3724 44.1261 77.2458 44.1877C77.1193 44.2494 77.0168 44.3513 76.9545 44.4775C76.9099 44.6236 76.8882 44.7756 76.8901 44.9283C76.8914 45.2182 76.9743 45.5019 77.1293 45.747C77.4903 46.2126 77.9715 46.5708 78.521 46.7832C79.0705 46.9955 79.6675 47.0539 80.2478 46.9521C81.1803 46.8181 82.0381 46.3664 82.6764 45.6734C84.277 46.9705 85.7489 47.0073 86.5584 46.7037C87.0324 46.5406 87.4451 46.2363 87.7411 45.8317C88.0371 45.4272 88.2022 44.9418 88.2143 44.4407C88.2107 44.1923 88.1261 43.9518 87.9734 43.7559C87.8206 43.56 87.608 43.4193 87.368 43.3552C87.1012 43.2816 86.9264 43.4564 86.7976 43.6956C86.7581 43.8362 86.7625 43.9856 86.8102 44.1237C86.8579 44.2617 86.9466 44.382 87.0644 44.4683C87.0949 44.5985 87.0785 44.7353 87.0184 44.8547C86.9428 45.0415 86.8294 45.2106 86.6853 45.3515C86.5413 45.4924 86.3698 45.602 86.1813 45.6734C85.7043 45.7568 85.2142 45.7251 84.7518 45.5811C84.2894 45.4371 83.8681 45.185 83.5228 44.8455C84.3678 43.7282 85.0348 42.487 85.5005 41.1658C85.7898 40.3509 85.9993 39.5098 86.1261 38.6544C86.8235 38.6722 87.5212 38.6414 88.2143 38.5624C88.9801 39.4186 89.6211 40.3787 90.1185 41.4142C91.0385 43.4288 91.9585 45.333 94.2215 45.2226C94.7707 45.2028 95.3007 45.0161 95.7412 44.6874C96.1816 44.3587 96.5115 43.9036 96.6868 43.3828C96.7397 43.1477 96.7079 42.9015 96.5968 42.6877C96.4856 42.4739 96.3024 42.3063 96.0796 42.2145" fill="#2E5251"/>
<path d="M10.5814 64.9183L10.7102 62.6001L8.74156 64.9183H10.5814ZM10.5814 65.3506H8.37356L7.93202 65.8934L7.43528 66.4913C7.34819 66.6021 7.27412 66.7225 7.2145 66.8501C7.17777 66.9245 7.15887 67.0064 7.15931 67.0893C7.16316 67.1356 7.17755 67.1805 7.20148 67.2203C7.2254 67.2602 7.25819 67.2941 7.29727 67.3193C7.42772 67.4066 7.58189 67.4515 7.73881 67.4481V67.6413H5.61379L5.66898 67.4481C5.85006 67.4172 6.02256 67.3482 6.17498 67.2457C6.48654 66.9878 6.77018 66.698 7.0213 66.3809L12.0533 60.3646H12.2925L12.0533 66.1878C12.0533 66.4913 12.0533 66.6753 12.0533 66.7397C12.0375 66.9223 12.0863 67.1046 12.1913 67.2549C12.3231 67.3793 12.4976 67.4484 12.6789 67.4481L12.6236 67.6413H9.54189L9.59708 67.4481C9.77382 67.4404 9.94942 67.4157 10.1214 67.3745C10.242 67.2994 10.338 67.1907 10.3974 67.0617C10.5043 66.8139 10.5666 66.5492 10.5814 66.2798V65.3506Z" fill="#2E5251"/>
<path d="M17.4518 66.3717L17.6082 66.5189C17.3296 66.8812 16.9903 67.1924 16.6055 67.4388C16.192 67.6806 15.7229 67.8105 15.244 67.816C14.9526 67.8179 14.6652 67.7484 14.4068 67.6136C14.1719 67.4864 13.9846 67.2862 13.8733 67.0433C13.757 66.8122 13.6971 66.5568 13.6985 66.2981C13.7046 65.7026 13.8663 65.1191 14.1677 64.6055C14.4606 64.0697 14.8847 63.617 15.4004 63.29C15.8433 62.9875 16.3637 62.8183 16.8998 62.8024C17.2292 62.7716 17.558 62.867 17.8198 63.0692C17.9079 63.1448 17.98 63.2373 18.0316 63.3413C18.0832 63.4453 18.1133 63.5586 18.1202 63.6745C18.127 63.7904 18.1105 63.9065 18.0715 64.0159C18.0326 64.1252 17.972 64.2256 17.8934 64.3111C17.8339 64.3864 17.7586 64.4478 17.6727 64.4907C17.5869 64.5336 17.4926 64.5571 17.3966 64.5595C17.3219 64.5632 17.2473 64.5512 17.1776 64.5243C17.1079 64.4973 17.0446 64.456 16.9918 64.4031C16.9407 64.3566 16.9003 64.2997 16.8733 64.2362C16.8463 64.1727 16.8334 64.1041 16.8354 64.0351C16.8374 63.9361 16.8636 63.839 16.9117 63.7525C16.9599 63.6659 17.0284 63.5923 17.1114 63.5383C17.2402 63.4371 17.3138 63.3544 17.3138 63.2808C17.3145 63.2511 17.3072 63.2217 17.2926 63.1958C17.278 63.1699 17.2567 63.1484 17.231 63.1336C17.1536 63.0698 17.0553 63.037 16.955 63.0416C16.6428 63.0485 16.3457 63.1772 16.1271 63.4004C15.7742 63.7304 15.506 64.1406 15.3452 64.5963C15.1697 65.0355 15.0762 65.5032 15.0692 65.9762C15.0541 66.2742 15.1528 66.5668 15.3452 66.7949C15.4268 66.8906 15.5284 66.9674 15.6428 67.0198C15.7572 67.0723 15.8817 67.0991 16.0075 67.0985C16.2596 67.0936 16.5076 67.0339 16.7343 66.9237C17.0138 66.7981 17.2668 66.6201 17.4794 66.3993" fill="#2E5251"/>
<path d="M22.2177 66.3718L22.3741 66.519C22.0955 66.8812 21.7562 67.1925 21.3713 67.4389C20.962 67.6823 20.4953 67.8124 20.0191 67.8161C19.7274 67.8203 19.4394 67.7507 19.1819 67.6137C18.9443 67.4869 18.754 67.2869 18.6392 67.0433C18.5271 66.8107 18.4675 66.5563 18.4644 66.2982C18.4704 65.7027 18.6322 65.1191 18.9336 64.6055C19.229 64.0716 19.6526 63.6195 20.1662 63.29C20.6125 62.9872 21.1359 62.8181 21.6749 62.8025C22.0041 62.7735 22.3322 62.8687 22.5948 63.0693C22.7604 63.2295 22.8598 63.4459 22.8734 63.6759C22.887 63.9058 22.8139 64.1325 22.6684 64.3111C22.6063 64.3858 22.5291 64.4465 22.4419 64.4893C22.3548 64.5321 22.2596 64.5561 22.1625 64.5595C22.0878 64.5633 22.0132 64.5513 21.9435 64.5243C21.8737 64.4974 21.8105 64.4561 21.7577 64.4031C21.7085 64.3553 21.6692 64.2981 21.6423 64.2349C21.6155 64.1717 21.6015 64.1038 21.6013 64.0352C21.6035 63.9351 21.6308 63.8372 21.6806 63.7504C21.7304 63.6636 21.8012 63.5907 21.8865 63.5384C22.0153 63.4372 22.0797 63.3544 22.0797 63.2808C22.0804 63.2511 22.073 63.2218 22.0585 63.1959C22.0439 63.17 22.0226 63.1485 21.9969 63.1336C21.9609 63.1011 21.9188 63.0761 21.8729 63.0603C21.8271 63.0445 21.7785 63.0382 21.7301 63.0417C21.4179 63.0486 21.1207 63.1773 20.9022 63.4004C20.5465 63.7299 20.2751 64.1401 20.111 64.5963C19.9355 65.0356 19.842 65.5033 19.8351 65.9762C19.8187 66.276 19.9211 66.5702 20.1202 66.7949C20.2005 66.89 20.3005 66.9664 20.4133 67.0188C20.5261 67.0712 20.649 67.0985 20.7734 67.0985C21.0256 67.0945 21.2737 67.0349 21.5001 66.9237C21.7823 66.8027 22.036 66.6241 22.2453 66.3994" fill="#2E5251"/>
<path d="M25.8064 62.7748L24.7853 66.3442C24.7487 66.4547 24.724 66.5688 24.7117 66.6845C24.7033 66.7083 24.7033 66.7343 24.7117 66.7581C24.7442 66.7709 24.7804 66.7709 24.8129 66.7581C24.9785 66.7581 25.1901 66.6201 25.4568 66.3349C25.9325 65.7716 26.3401 65.154 26.6711 64.4951L27.1495 62.8852H28.4742L27.4715 66.3442C27.419 66.5102 27.376 66.6791 27.3427 66.8501C27.3328 66.88 27.3328 66.9122 27.3427 66.9421C27.3692 66.9528 27.3989 66.9528 27.4255 66.9421C27.4792 66.9401 27.5309 66.9208 27.5726 66.8869C27.7602 66.7002 27.9269 66.4935 28.0694 66.2705L28.2442 66.3993C27.7567 67.3193 27.2231 67.7148 26.6436 67.7148C26.4571 67.7271 26.2729 67.6679 26.1284 67.5492C26.0688 67.4944 26.0215 67.4275 25.9898 67.3529C25.9581 67.2784 25.9426 67.1979 25.9444 67.1169C25.9547 66.873 25.998 66.6316 26.0732 66.3993L26.3308 65.4794C26.0273 65.947 25.6955 66.3955 25.3372 66.8225C25.1086 67.0898 24.8421 67.3223 24.5461 67.5124C24.357 67.6176 24.146 67.6775 23.9298 67.6872C23.8397 67.6874 23.7505 67.6687 23.6681 67.6322C23.5857 67.5958 23.5119 67.5424 23.4514 67.4756C23.383 67.4091 23.3296 67.3287 23.2947 67.2399C23.2598 67.1511 23.2442 67.0558 23.249 66.9605C23.2576 66.7164 23.3009 66.4748 23.3778 66.2429L23.9666 64.1455C24.0422 63.922 24.0916 63.6905 24.1138 63.4556C24.1276 63.4075 24.1276 63.3565 24.1138 63.3084C24.0763 63.2665 24.0288 63.2349 23.9758 63.2164C23.8567 63.201 23.7361 63.201 23.617 63.2164V63.0232L25.4568 62.7104L25.8064 62.7748Z" fill="#2E5251"/>
<path d="M31.4723 62.7748L30.6811 65.7278C31.0456 64.7792 31.5377 63.8848 32.1438 63.0692C32.2201 62.9819 32.3132 62.9109 32.4175 62.8603C32.5218 62.8098 32.6352 62.7807 32.751 62.7748C32.8195 62.7727 32.8877 62.7865 32.9499 62.8152C33.0122 62.844 33.0669 62.8868 33.1097 62.9404C33.2095 63.0686 33.2586 63.2291 33.2478 63.3912C33.2585 63.6955 33.1714 63.9954 32.9994 64.2467C32.9642 64.3098 32.9138 64.363 32.8527 64.4016C32.7916 64.4402 32.7219 64.4628 32.6498 64.4675C32.5844 64.4698 32.5198 64.4526 32.4642 64.4183C32.4085 64.3839 32.3643 64.3338 32.337 64.2743C32.2979 64.1917 32.2484 64.1144 32.1898 64.0443C32.1752 64.0382 32.1596 64.0351 32.1438 64.0351C32.128 64.0351 32.1124 64.0382 32.0978 64.0443C32.062 64.0324 32.0233 64.0324 31.9875 64.0443C31.8678 64.1252 31.7648 64.2282 31.6839 64.3479C31.5077 64.6057 31.3568 64.8799 31.2331 65.1666C31.0491 65.5438 30.9019 65.8658 30.8007 66.0866C30.6345 66.5821 30.4933 67.0856 30.3776 67.5952H29.1081L29.9728 64.1179C30.022 63.9496 30.0559 63.7772 30.074 63.6027C30.0776 63.5253 30.0584 63.4486 30.0188 63.382C29.9867 63.3285 29.9383 63.2866 29.8808 63.2624C29.7618 63.2456 29.6411 63.2456 29.5221 63.2624V63.1152L31.1135 62.7656L31.4723 62.7748Z" fill="#2E5251"/>
<path d="M36.5791 63.8512C36.5963 63.6365 36.5482 63.4216 36.441 63.2348C36.4134 63.1924 36.375 63.1582 36.3297 63.1355C36.2844 63.1129 36.234 63.1027 36.1835 63.106C36.1207 63.1091 36.0591 63.1245 36.0023 63.1513C35.9455 63.1781 35.8945 63.2159 35.8523 63.2624C35.5127 63.6457 35.2532 64.093 35.0888 64.5779C34.8472 65.1209 34.7098 65.7044 34.684 66.2982C34.6743 66.4363 34.7063 66.5741 34.776 66.6938C34.7973 66.7295 34.8267 66.7598 34.8619 66.7822C34.897 66.8045 34.9369 66.8184 34.9784 66.8225C35.0733 66.8137 35.1651 66.7844 35.2477 66.7368C35.3302 66.6892 35.4015 66.6243 35.4567 66.5466C35.7058 66.2695 35.9162 65.9601 36.0823 65.6266C36.3806 65.0902 36.5507 64.492 36.5791 63.8788M38.2533 62.876L37.2598 66.335L37.1586 66.7673C37.1556 66.8041 37.1556 66.841 37.1586 66.8777C37.1452 66.9133 37.1452 66.9525 37.1586 66.9881C37.1827 67.014 37.2154 67.0304 37.2506 67.0341C37.3669 67.0129 37.4733 66.9548 37.5542 66.8685C37.6961 66.7192 37.8225 66.5559 37.9313 66.381L38.1153 66.4822C37.9217 66.8635 37.6525 67.2015 37.3242 67.4757C37.0588 67.6755 36.7364 67.7852 36.4043 67.7885C36.2364 67.7984 36.0713 67.7423 35.9443 67.6321C35.8925 67.5804 35.8519 67.5186 35.825 67.4505C35.7981 67.3825 35.7855 67.3096 35.7879 67.2365C35.8135 66.9795 35.8691 66.7263 35.9535 66.4822L36.0823 66.059C35.788 66.6182 35.3918 67.1173 34.914 67.5309C34.7207 67.6938 34.4769 67.7849 34.224 67.7885C34.0819 67.7962 33.9405 67.7631 33.8166 67.693C33.6927 67.6229 33.5915 67.5187 33.5249 67.3929C33.3724 67.1107 33.2963 66.7936 33.3041 66.473C33.3325 65.8831 33.4861 65.3061 33.7549 64.7803C34.0275 64.184 34.4335 63.6584 34.9416 63.244C35.2515 62.9563 35.6511 62.7841 36.0731 62.7565C36.1606 62.751 36.2482 62.7637 36.3305 62.7938C36.4129 62.8239 36.4881 62.8707 36.5514 62.9312C36.6969 63.1064 36.7866 63.321 36.809 63.5476L37.0022 62.9036L38.2533 62.876Z" fill="#2E5251"/>
<path d="M42.5127 66.3718L42.669 66.519C42.3904 66.8812 42.0512 67.1925 41.6663 67.4389C41.2529 67.6806 40.7837 67.8106 40.3048 67.816C40.0162 67.8191 39.7315 67.7495 39.4769 67.6137C39.2393 67.4869 39.049 67.2869 38.9341 67.0433C38.8221 66.8107 38.7625 66.5563 38.7594 66.2981C38.7654 65.7027 38.9271 65.1191 39.2285 64.6055C39.524 64.0716 39.9476 63.6195 40.4612 63.29C40.9074 62.9872 41.4308 62.8181 41.9699 62.8024C42.2991 62.7735 42.6272 62.8687 42.8898 63.0692C43.0553 63.2294 43.1547 63.4459 43.1684 63.6758C43.182 63.9058 43.1089 64.1325 42.9634 64.3111C42.9013 64.3858 42.8242 64.4465 42.737 64.4893C42.6498 64.5321 42.5545 64.556 42.4575 64.5595C42.3828 64.5632 42.3082 64.5512 42.2384 64.5243C42.1687 64.4974 42.1054 64.4561 42.0527 64.4031C42.0034 64.3553 41.9642 64.2981 41.9373 64.2349C41.9105 64.1717 41.8965 64.1038 41.8963 64.0351C41.8984 63.9351 41.9257 63.8372 41.9756 63.7504C42.0254 63.6636 42.0961 63.5907 42.1814 63.5384C42.3102 63.4372 42.3747 63.3544 42.3747 63.2808C42.3753 63.2511 42.368 63.2218 42.3534 63.1959C42.3389 63.17 42.3176 63.1484 42.2918 63.1336C42.2559 63.101 42.2138 63.0761 42.1679 63.0603C42.1221 63.0445 42.0735 63.0381 42.0251 63.0416C41.7107 63.0509 41.4115 63.1791 41.188 63.4004C40.838 63.7329 40.5703 64.1424 40.406 64.5963C40.2305 65.0356 40.137 65.5032 40.13 65.9762C40.115 66.2742 40.2136 66.5668 40.406 66.7949C40.4899 66.888 40.5919 66.9629 40.7058 67.0151C40.8197 67.0673 40.9431 67.0957 41.0684 67.0985C41.3205 67.0945 41.5687 67.0348 41.7951 66.9237C42.076 66.8004 42.3293 66.6221 42.5402 66.3994" fill="#2E5251"/>
<path d="M43.5141 63.2532L45.1331 62.7749C45.2478 62.9134 45.3408 63.0685 45.4091 63.2349C45.5181 63.5684 45.5831 63.9148 45.6023 64.2652C45.6759 65.1207 45.7311 66.0406 45.7587 67.0249C46.2179 66.3939 46.6447 65.7399 47.0374 65.0655C47.1741 64.8607 47.2506 64.6217 47.2582 64.3756C47.2509 64.2959 47.2245 64.2192 47.1813 64.1519C47.1381 64.0847 47.0792 64.0289 47.0098 63.9892C46.8899 63.9093 46.7816 63.8134 46.6878 63.704C46.645 63.6217 46.6228 63.5301 46.6234 63.4372C46.6258 63.2632 46.6967 63.0971 46.8207 62.9748C46.9446 62.8526 47.1117 62.7841 47.2858 62.7841C47.3796 62.7831 47.4725 62.8022 47.5582 62.8403C47.6439 62.8784 47.7204 62.9346 47.7825 63.0049C47.8519 63.0731 47.9065 63.1548 47.9429 63.245C47.9793 63.3352 47.9967 63.432 47.9941 63.5292C47.9834 63.8091 47.9178 64.0842 47.8009 64.3388C47.534 64.8913 47.2266 65.4232 46.881 65.9302C46.324 66.8043 45.7094 67.6402 45.0412 68.4324C44.7565 68.7747 44.4492 69.0974 44.1212 69.3984C43.8962 69.5845 43.649 69.7421 43.3853 69.8675C43.2466 69.9314 43.0963 69.9659 42.9437 69.9687C42.8481 69.969 42.7534 69.9505 42.6651 69.9142C42.5767 69.8779 42.4963 69.8245 42.4286 69.7571C42.3613 69.6931 42.3078 69.6161 42.2714 69.5306C42.235 69.4452 42.2165 69.3532 42.217 69.2604C42.2143 69.1702 42.23 69.0805 42.2633 68.9967C42.2965 68.9128 42.3464 68.8366 42.4101 68.7728C42.4661 68.7084 42.5354 68.657 42.6133 68.622C42.6911 68.5871 42.7756 68.5695 42.8609 68.5704C42.9789 68.5771 43.0936 68.6114 43.1958 68.6705C43.2981 68.7296 43.385 68.8119 43.4497 68.9108C43.5692 69.058 43.6612 69.1316 43.744 69.1316C43.8252 69.1321 43.9049 69.1098 43.974 69.0672C44.1434 68.9625 44.293 68.8286 44.4156 68.6716C44.4156 68.2393 44.4156 67.9081 44.4156 67.6873C44.4156 67.4665 44.4156 66.9605 44.3696 66.4178L44.2776 64.4216C44.2733 64.1391 44.194 63.8628 44.0476 63.6212C43.9997 63.5659 43.9403 63.5216 43.8736 63.4914C43.8069 63.4612 43.7345 63.4459 43.6613 63.4464H43.4589L43.5141 63.2532Z" fill="#2E5251"/>
<path d="M53.5502 62.7749L52.529 66.3442C52.4924 66.4547 52.4678 66.5688 52.4555 66.6846C52.447 66.7084 52.447 66.7343 52.4555 66.7582C52.488 66.771 52.5241 66.771 52.5566 66.7582C52.7222 66.7582 52.9338 66.6202 53.2006 66.335C53.6763 65.7716 54.0839 65.1541 54.4149 64.4951L54.8932 62.8853H56.2179L55.2152 66.3442C55.1628 66.5103 55.1197 66.6792 55.0864 66.8502C55.0805 66.8805 55.0805 66.9118 55.0864 66.9422C55.113 66.9529 55.1426 66.9529 55.1692 66.9422C55.2232 66.9416 55.2754 66.9221 55.3164 66.887C55.504 66.7003 55.6706 66.4936 55.8132 66.2706L55.9879 66.3994C55.5004 67.3193 54.9668 67.7149 54.3873 67.7149C54.201 67.7253 54.0175 67.6663 53.8721 67.5493C53.8125 67.4944 53.7653 67.4275 53.7336 67.353C53.7018 67.2784 53.6863 67.1979 53.6881 67.1169C53.6984 66.873 53.7417 66.6316 53.8169 66.3994L54.0745 65.4795C53.7711 65.947 53.4392 66.3955 53.081 66.8226C52.8524 67.0899 52.5858 67.3223 52.2899 67.5125C52.1011 67.6186 51.8899 67.6785 51.6735 67.6873C51.5834 67.6875 51.4943 67.6687 51.4119 67.6323C51.3295 67.5958 51.2557 67.5425 51.1952 67.4757C51.1268 67.4091 51.0733 67.3288 51.0384 67.24C51.0035 67.1511 50.9879 67.0559 50.9928 66.9605C51.006 66.717 51.0492 66.476 51.1216 66.243L51.7103 64.1456C51.8223 63.9477 51.9118 63.7379 51.9771 63.52C51.9909 63.4719 51.9909 63.4209 51.9771 63.3728C51.9396 63.331 51.8921 63.2993 51.8391 63.2808C51.72 63.2654 51.5994 63.2654 51.4803 63.2808V63.0877L53.3202 62.7749H53.5502Z" fill="#2E5251"/>
<path d="M59.538 62.7749L58.8849 65.0287C59.1828 64.5567 59.5117 64.105 59.8693 63.6764C60.1031 63.3951 60.3831 63.1556 60.6972 62.9681C60.8916 62.8494 61.1134 62.7828 61.3411 62.7749C61.4293 62.7731 61.5167 62.7903 61.5977 62.8252C61.6786 62.8601 61.7511 62.912 61.8103 62.9773C61.9411 63.1199 62.0106 63.3083 62.0035 63.5016C61.9993 63.7462 61.9558 63.9884 61.8747 64.2192L61.2032 66.4546C61.1633 66.5804 61.1355 66.7098 61.1204 66.841C61.109 66.8706 61.109 66.9033 61.1204 66.9329C61.1279 66.9461 61.1386 66.9571 61.1514 66.9652C61.1642 66.9732 61.1789 66.9779 61.194 66.979C61.2347 66.9757 61.2733 66.9596 61.3043 66.9329C61.4501 66.8111 61.5772 66.6685 61.6815 66.5098C61.7262 66.4334 61.7754 66.3597 61.8287 66.289L62.0311 66.4086C61.5159 67.2733 60.9731 67.7057 60.412 67.7057C60.2271 67.7149 60.0458 67.6522 59.906 67.5309C59.8459 67.4805 59.798 67.417 59.7661 67.3452C59.7342 67.2735 59.7191 67.1954 59.722 67.1169C59.7337 66.892 59.7739 66.6694 59.8416 66.4546L60.504 64.2192C60.5402 64.1153 60.5619 64.007 60.5684 63.8972C60.581 63.8615 60.581 63.8225 60.5684 63.7868C60.5326 63.7749 60.4938 63.7749 60.458 63.7868C60.2691 63.8154 60.0964 63.9099 59.9704 64.0536C59.3922 64.6573 58.9195 65.3539 58.5721 66.1142L58.1398 67.6781H56.8059L57.7902 64.3112C57.8636 64.0812 57.9098 63.8435 57.9282 63.6028C57.9428 63.5517 57.9428 63.4976 57.9282 63.4464C57.889 63.4066 57.8421 63.3753 57.7902 63.3545C57.6711 63.339 57.5505 63.339 57.4314 63.3545L57.4866 63.1612L59.2529 62.8485L59.538 62.7749Z" fill="#2E5251"/>
<path d="M66.2005 63.6856C66.2137 63.5218 66.168 63.3587 66.0717 63.2256C66.0374 63.1799 65.993 63.1428 65.9419 63.1173C65.8908 63.0917 65.8344 63.0784 65.7773 63.0784C65.6398 63.089 65.5116 63.1515 65.4185 63.2532C65.0694 63.6432 64.8033 64.1002 64.6366 64.5963C64.3997 65.1376 64.2625 65.7173 64.2318 66.3074C64.2196 66.4369 64.252 66.5667 64.3238 66.6753C64.3424 66.7114 64.3699 66.7422 64.4037 66.7647C64.4375 66.7873 64.4765 66.8008 64.517 66.8041C64.6575 66.7949 64.7891 66.7324 64.885 66.6293C65.614 65.8056 66.0732 64.7782 66.2005 63.6856ZM68.5094 60.3646L66.7984 66.2338C66.7244 66.4488 66.6721 66.6707 66.642 66.8961C66.6352 66.9121 66.6317 66.9293 66.6317 66.9467C66.6317 66.9641 66.6352 66.9813 66.642 66.9973C66.6534 67.0109 66.6674 67.022 66.6832 67.0299C66.6991 67.0378 66.7163 67.0423 66.734 67.0433C66.8102 67.0376 66.882 67.005 66.9364 66.9513C67.1176 66.7899 67.2755 66.6042 67.4056 66.3993L67.5987 66.4913C67.102 67.3561 66.5592 67.7884 65.9705 67.7884C65.7926 67.7992 65.6175 67.7397 65.4829 67.6228C65.4282 67.5671 65.3854 67.5009 65.3569 67.4282C65.3285 67.3555 65.315 67.2777 65.3173 67.1997C65.3321 66.9585 65.3785 66.7204 65.4553 66.4913L65.6117 65.9578C65.3217 66.5338 64.936 67.0564 64.471 67.5032C64.272 67.6726 64.0234 67.7727 63.7626 67.7884C63.6337 67.7889 63.5063 67.7601 63.39 67.7044C63.2737 67.6486 63.1716 67.5673 63.0911 67.4665C62.9001 67.1991 62.806 66.8746 62.8243 66.5465C62.8286 66.0152 62.9478 65.4911 63.1739 65.0103C63.3753 64.5493 63.6451 64.1213 63.9742 63.7407C64.2181 63.4501 64.5107 63.2042 64.839 63.014C65.0861 62.874 65.3644 62.7981 65.6485 62.7932C65.7732 62.79 65.8966 62.8185 66.0073 62.876C66.1483 62.9603 66.273 63.0693 66.3753 63.198L66.7616 61.8917C66.8426 61.6665 66.8921 61.4313 66.9088 61.1926C66.9085 61.152 66.8993 61.1121 66.8818 61.0755C66.8643 61.0389 66.839 61.0066 66.8076 60.981C66.7396 60.9198 66.6507 60.8869 66.5592 60.889H66.3753L66.4305 60.6866L68.1507 60.3646H68.5094Z" fill="#2E5251"/>
<path d="M69.7409 65.3599C69.9877 65.3333 70.2293 65.2713 70.4585 65.1759C70.645 65.0804 70.8132 64.9528 70.9552 64.7987C71.1304 64.6052 71.2733 64.3846 71.3784 64.1456C71.4882 63.9122 71.5478 63.6583 71.5532 63.4004C71.5576 63.3173 71.5314 63.2355 71.4796 63.1704C71.4515 63.1433 71.4184 63.122 71.3821 63.1078C71.3458 63.0936 71.3069 63.0867 71.2679 63.0877C71.0407 63.1285 70.8371 63.2533 70.6976 63.4372C70.2593 64.0064 69.9459 64.6615 69.7777 65.3599M69.7777 65.6358C69.7672 65.8227 69.7672 66.0101 69.7777 66.197C69.7717 66.3114 69.789 66.4258 69.8285 66.5334C69.8681 66.6409 69.929 66.7393 70.0076 66.8225C70.0864 66.9028 70.1811 66.9656 70.2857 67.0068C70.3904 67.048 70.5025 67.0668 70.6148 67.0617C70.8696 67.0551 71.1202 66.9956 71.3508 66.8869C71.6638 66.7194 71.9517 66.5089 72.2063 66.2614L72.3626 66.3994C72.0443 66.8184 71.6475 67.1714 71.1944 67.4389C70.8036 67.6465 70.3674 67.754 69.9249 67.7517C69.705 67.7783 69.482 67.7539 69.273 67.6805C69.064 67.6072 68.8748 67.4867 68.7198 67.3285C68.4944 67.0577 68.3736 66.7149 68.3794 66.3626C68.3867 65.7535 68.5617 65.1583 68.8854 64.6423C69.2077 64.0689 69.6778 63.5924 70.2468 63.2624C70.7629 62.9294 71.3621 62.7477 71.9763 62.7381C72.2187 62.7225 72.4581 62.798 72.6478 62.9497C72.721 63.0174 72.7787 63.1001 72.8168 63.1922C72.8549 63.2843 72.8726 63.3836 72.8687 63.4832C72.8641 63.747 72.7877 64.0046 72.6478 64.2283C72.4523 64.5432 72.1921 64.8129 71.8843 65.0195C71.5661 65.224 71.2187 65.3791 70.854 65.4795C70.5152 65.5583 70.1707 65.6106 69.8237 65.6358" fill="#2E5251"/>
<path d="M75.3245 62.7748L74.5333 65.7278C74.8991 64.778 75.3944 63.8833 76.0052 63.0692C76.0815 62.9819 76.1746 62.9109 76.2789 62.8603C76.3832 62.8098 76.4966 62.7807 76.6124 62.7748C76.6809 62.7727 76.749 62.7865 76.8113 62.8152C76.8736 62.844 76.9283 62.8868 76.9711 62.9404C77.0708 63.0686 77.12 63.2291 77.1091 63.3912C77.1198 63.6955 77.0328 63.9954 76.8607 64.2467C76.8249 64.3092 76.7743 64.362 76.7134 64.4005C76.6525 64.439 76.583 64.462 76.5112 64.4675C76.4445 64.4704 76.3784 64.4537 76.3212 64.4193C76.2639 64.385 76.218 64.3345 76.1892 64.2743C76.1538 64.1897 76.104 64.1119 76.042 64.0443C76.0154 64.0336 75.9858 64.0336 75.9592 64.0443C75.9234 64.0324 75.8847 64.0324 75.8488 64.0443C75.7271 64.1226 75.6236 64.2261 75.5452 64.3479C75.3689 64.6072 75.2151 64.8811 75.0853 65.1666C74.9013 65.5438 74.7633 65.8658 74.6621 66.0866C74.4959 66.5821 74.3547 67.0856 74.239 67.5952H72.9695L73.8342 64.1179C73.882 63.9497 73.9128 63.7771 73.9262 63.6027C73.928 63.5266 73.9122 63.4511 73.8802 63.382C73.8459 63.3303 73.7982 63.2889 73.7422 63.2624C73.6232 63.2456 73.5024 63.2456 73.3834 63.2624L73.4294 63.1152L75.0117 62.7656L75.3245 62.7748Z" fill="#2E5251"/>
<path d="M83.1167 63.8512C83.1315 63.6378 83.0869 63.4245 82.9879 63.2348C82.9603 63.1924 82.9219 63.1582 82.8766 63.1355C82.8314 63.1129 82.7809 63.1027 82.7304 63.106C82.6009 63.1117 82.4788 63.1679 82.39 63.2624C82.0542 63.6468 81.7977 64.0939 81.6356 64.5779C81.3908 65.1198 81.2534 65.704 81.2309 66.2982C81.2168 66.4366 81.2491 66.5758 81.3229 66.6938C81.3437 66.73 81.3729 66.7607 81.4081 66.7831C81.4434 66.8056 81.4836 66.8191 81.5253 66.8225C81.62 66.8131 81.7116 66.7836 81.7941 66.736C81.8766 66.6884 81.948 66.6238 82.0036 66.5466C82.2496 66.2691 82.457 65.9597 82.62 65.6266C82.9184 65.0902 83.0883 64.492 83.1167 63.8788M84.791 62.876L83.779 66.3626L83.6686 66.7949C83.6648 66.8316 83.6648 66.8686 83.6686 66.9053C83.6598 66.9224 83.6552 66.9413 83.6552 66.9605C83.6552 66.9797 83.6598 66.9987 83.6686 67.0157C83.68 67.0293 83.694 67.0404 83.7099 67.0483C83.7257 67.0562 83.743 67.0608 83.7607 67.0617C83.877 67.0405 83.9834 66.9824 84.0643 66.8961C84.2001 66.7417 84.326 66.5788 84.4415 66.4086L84.6254 66.5098C84.4318 66.8937 84.159 67.2323 83.8251 67.5033C83.561 67.7055 83.2378 67.8154 82.9051 67.8161C82.7401 67.8255 82.5781 67.7693 82.4544 67.6597C82.4007 67.6094 82.3588 67.5479 82.3318 67.4795C82.3047 67.411 82.2931 67.3375 82.298 67.2641C82.3235 67.0071 82.3792 66.7539 82.4636 66.5098L82.5924 66.0866C82.2922 66.6444 81.8932 67.1432 81.4149 67.5585C81.2232 67.7242 80.9783 67.8156 80.7249 67.8161C80.583 67.8227 80.442 67.7891 80.3183 67.7191C80.1946 67.6491 80.0932 67.5456 80.0258 67.4205C79.8795 67.1363 79.8068 66.82 79.8142 66.5005C79.8382 65.91 79.9921 65.3321 80.265 64.8079C80.5376 64.2116 80.9436 63.686 81.4517 63.2716C81.7616 62.9839 82.1612 62.8117 82.5832 62.7841C82.6692 62.7799 82.7551 62.7932 82.8357 62.8232C82.9164 62.8533 82.9901 62.8994 83.0524 62.9589C83.2016 63.1326 83.2946 63.3475 83.3191 63.5752L83.5031 62.9312L84.791 62.876Z" fill="#2E5251"/>
<path d="M88.5723 63.6856C88.5855 63.5218 88.5398 63.3587 88.4435 63.2256C88.4097 63.1793 88.3653 63.1419 88.3141 63.1162C88.2629 63.0906 88.2063 63.0777 88.1491 63.0784C88.0116 63.089 87.8834 63.1515 87.7904 63.2532C87.4413 63.6432 87.1751 64.1002 87.0084 64.5963C86.7714 65.1376 86.6344 65.7173 86.6036 66.3074C86.5914 66.4369 86.6239 66.5667 86.6956 66.6753C86.7164 66.7116 86.7457 66.7423 86.781 66.7647C86.8162 66.7871 86.8563 66.8007 86.898 66.8041C87.0352 66.7926 87.1632 66.7303 87.2568 66.6293C87.6577 66.2433 87.9713 65.7759 88.1767 65.2587C88.4235 64.7681 88.5704 64.2334 88.609 63.6856M90.918 60.3646L89.2162 66.2338C89.1415 66.4492 89.0861 66.6709 89.0507 66.8961C89.0438 66.9121 89.0402 66.9293 89.0402 66.9467C89.0402 66.9641 89.0438 66.9813 89.0507 66.9973C89.0748 67.0232 89.1075 67.0395 89.1427 67.0433C89.2193 67.0393 89.2916 67.0065 89.345 66.9513C89.5296 66.7907 89.6907 66.6049 89.8234 66.3993L90.0073 66.4913C89.5228 67.3561 88.9801 67.7884 88.379 67.7884C88.2923 67.7941 88.2054 67.7823 88.1232 67.7539C88.0411 67.7254 87.9655 67.6809 87.9008 67.6228C87.8431 67.5689 87.7975 67.5033 87.7674 67.4303C87.7372 67.3572 87.7231 67.2786 87.7259 67.1997C87.7407 66.9585 87.7871 66.7204 87.8639 66.4913L88.0204 65.9578C87.7334 66.5356 87.3472 67.0587 86.8796 67.5032C86.6813 67.6737 86.4324 67.774 86.1713 67.7884C86.0435 67.7895 85.9172 67.761 85.8023 67.7051C85.6874 67.6493 85.587 67.5676 85.5089 67.4665C85.3104 67.2024 85.2127 66.8762 85.233 66.5465C85.2372 66.0152 85.3565 65.4911 85.5825 65.0103C85.784 64.5493 86.0538 64.1213 86.3829 63.7407C86.6267 63.4501 86.9193 63.2042 87.2476 63.014C87.4947 62.874 87.773 62.7981 88.0571 62.7932C88.1846 62.7911 88.3108 62.8195 88.4251 62.876C88.5631 62.9608 88.6847 63.0699 88.7839 63.198L89.1794 61.8917C89.254 61.6652 89.3003 61.4304 89.3174 61.1926C89.3189 61.1527 89.3114 61.1129 89.2955 61.0763C89.2796 61.0397 89.2556 61.0071 89.2254 60.981C89.1541 60.9192 89.0622 60.8864 88.9678 60.889H88.7839L88.839 60.6866L90.5685 60.3646H90.918Z" fill="#2E5251"/>
<path d="M91.8753 67.7885H91.6822C91.6822 67.4941 91.6822 67.2825 91.6822 67.1353C91.6822 66.7397 91.6822 66.1602 91.5902 65.4058C91.5657 64.8975 91.4948 64.3926 91.3785 63.8972C91.3378 63.7447 91.2586 63.6054 91.1486 63.4924C91.0744 63.4367 90.9838 63.4076 90.8911 63.4096H90.6703V63.2256L92.4181 62.7565C92.8051 63.943 92.9765 65.1892 92.9241 66.4362C93.3216 66.0769 93.6794 65.6759 93.9912 65.2402C94.1558 65.0201 94.2575 64.7594 94.2855 64.4859C94.2783 64.305 94.2139 64.1311 94.1016 63.9892C94.019 63.8766 93.9422 63.76 93.8716 63.6396C93.8576 63.5636 93.8576 63.4856 93.8716 63.4096C93.8681 63.3251 93.8818 63.2408 93.9118 63.1617C93.9418 63.0826 93.9876 63.0105 94.0463 62.9496C94.1047 62.8895 94.1749 62.8421 94.2525 62.8105C94.3301 62.7788 94.4133 62.7635 94.4971 62.7656C94.5798 62.7612 94.6624 62.7755 94.7389 62.8073C94.8153 62.8392 94.8835 62.8878 94.9386 62.9496C95.0832 63.1187 95.1616 63.3344 95.1594 63.5568C95.1615 63.8019 95.1179 64.0452 95.0307 64.2743C94.917 64.564 94.7687 64.8389 94.5891 65.093C94.39 65.4047 94.1588 65.6945 93.8991 65.9578C93.43 66.4361 92.7585 67.0341 91.8937 67.7976" fill="#2E5251"/>
<path d="M96.8887 65.3598C97.1352 65.3321 97.3768 65.2701 97.6063 65.1758C97.7928 65.0804 97.961 64.9528 98.1031 64.7987C98.2753 64.6028 98.4178 64.3828 98.5262 64.1455C98.6322 63.9108 98.6916 63.6578 98.701 63.4004C98.7039 63.3584 98.698 63.3163 98.6837 63.2767C98.6695 63.2371 98.6471 63.2009 98.6182 63.1704C98.5922 63.1431 98.5607 63.1216 98.5258 63.1073C98.491 63.0931 98.4535 63.0863 98.4158 63.0876C98.3021 63.1046 98.1931 63.1443 98.0951 63.2044C97.9971 63.2644 97.9122 63.3436 97.8455 63.4372C97.4002 64.0021 97.086 64.6588 96.9255 65.3598M96.9255 65.6358C96.8928 65.8212 96.8744 66.0088 96.8704 66.197C96.8662 66.4269 96.9482 66.6501 97.1004 66.8225C97.1812 66.9026 97.2775 66.9651 97.3836 67.0063C97.4896 67.0474 97.603 67.0663 97.7166 67.0617C97.9714 67.055 98.2221 66.9955 98.4526 66.8869C98.7656 66.7194 99.0536 66.5088 99.3081 66.2614L99.4645 66.3994C99.1432 66.8189 98.7432 67.172 98.287 67.4389C97.8995 67.6464 97.4663 67.7539 97.0267 67.7516C96.8055 67.7776 96.5812 67.753 96.3709 67.6797C96.1606 67.6064 95.9696 67.4863 95.8125 67.3285C95.5938 67.0544 95.4768 66.7131 95.4813 66.3626C95.4895 65.7549 95.661 65.1607 95.978 64.6423C96.3035 64.0713 96.773 63.5956 97.3396 63.2624C97.8595 62.9304 98.4613 62.7489 99.0781 62.738C99.3181 62.7192 99.5559 62.7952 99.7405 62.9496C99.8164 63.0157 99.8764 63.0979 99.9162 63.1903C99.956 63.2826 99.9746 63.3827 99.9705 63.4832C99.9659 63.747 99.8896 64.0046 99.7498 64.2283C99.5542 64.5432 99.2939 64.8129 98.9861 65.0195C98.6647 65.2241 98.3142 65.3791 97.9466 65.4794C97.6109 65.5584 97.2695 65.6107 96.9255 65.6358Z" fill="#2E5251"/>
<path d="M102.473 62.7748L101.682 65.7278C102.046 64.7792 102.538 63.8848 103.144 63.0692C103.222 62.9809 103.316 62.9092 103.422 62.8586C103.528 62.808 103.643 62.7795 103.761 62.7748C103.828 62.7741 103.894 62.7886 103.955 62.8173C104.015 62.846 104.069 62.8881 104.11 62.9404C104.21 63.0686 104.259 63.2291 104.248 63.3912C104.259 63.6955 104.172 63.9954 104 64.2467C103.965 64.3098 103.914 64.363 103.853 64.4016C103.792 64.4402 103.723 64.4628 103.65 64.4675C103.585 64.4686 103.521 64.451 103.466 64.4168C103.41 64.3825 103.366 64.3331 103.338 64.2743C103.298 64.1917 103.249 64.1144 103.19 64.0443C103.176 64.0382 103.16 64.0351 103.144 64.0351C103.129 64.0351 103.113 64.0382 103.098 64.0443C103.062 64.0336 103.024 64.0336 102.988 64.0443C102.868 64.1252 102.765 64.2282 102.684 64.3479C102.508 64.6057 102.357 64.8799 102.234 65.1666C102.076 65.4653 101.935 65.7724 101.811 66.0866C101.636 66.5801 101.491 67.0839 101.378 67.5952H100.109L100.973 64.1179C101.023 63.9496 101.056 63.7772 101.075 63.6027C101.078 63.5253 101.059 63.4486 101.019 63.382C100.99 63.3266 100.941 63.2841 100.881 63.2624C100.762 63.2456 100.642 63.2456 100.523 63.2624V63.1152L102.114 62.7656L102.473 62.7748Z" fill="#2E5251"/>
<path d="M108.094 62.7749L107.864 64.394H107.671C107.664 64.0302 107.527 63.6808 107.285 63.4096C107.195 63.2998 107.083 63.2101 106.956 63.1467C106.829 63.0833 106.69 63.0475 106.549 63.0417C106.476 63.0375 106.403 63.0484 106.335 63.0737C106.267 63.0991 106.205 63.1383 106.153 63.1889C106.101 63.2289 106.059 63.2804 106.03 63.3395C106.001 63.3986 105.987 63.4635 105.988 63.5292C105.989 63.6376 106.014 63.7444 106.061 63.842C106.142 63.9884 106.244 64.1217 106.365 64.2376C106.744 64.6097 107.08 65.0232 107.367 65.4703C107.488 65.6902 107.551 65.937 107.551 66.1878C107.55 66.4624 107.477 66.7319 107.34 66.9698C107.194 67.2232 106.976 67.4279 106.714 67.5585C106.435 67.7185 106.116 67.7981 105.794 67.7885C105.542 67.7777 105.292 67.7376 105.049 67.6689C104.907 67.6162 104.759 67.5851 104.608 67.5769C104.541 67.5602 104.472 67.5602 104.405 67.5769C104.341 67.6223 104.285 67.6783 104.24 67.7425H104.046L104.304 65.9946H104.47C104.549 66.314 104.667 66.6228 104.819 66.9146C104.921 67.0926 105.067 67.2415 105.242 67.3469C105.395 67.4493 105.574 67.5037 105.758 67.5033C105.934 67.5101 106.106 67.4473 106.236 67.3285C106.296 67.2741 106.344 67.2072 106.375 67.1325C106.407 67.0579 106.422 66.9773 106.42 66.8962C106.422 66.7291 106.381 66.5644 106.3 66.4178C106.136 66.1589 105.945 65.9184 105.73 65.7003C105.426 65.3852 105.155 65.04 104.92 64.6699C104.826 64.4849 104.779 64.2796 104.782 64.072C104.783 63.8982 104.821 63.7266 104.892 63.5681C104.963 63.4096 105.067 63.2679 105.196 63.1521C105.522 62.8852 105.935 62.7505 106.356 62.7749C106.626 62.7818 106.895 62.822 107.156 62.8945C107.279 62.9271 107.406 62.9456 107.533 62.9497C107.598 62.9494 107.662 62.9333 107.72 62.9029C107.778 62.8725 107.827 62.8286 107.864 62.7749H108.094Z" fill="#2E5251"/>
<path d="M110.015 65.3598C110.262 65.3321 110.503 65.2701 110.733 65.1758C110.919 65.0804 111.087 64.9527 111.229 64.7987C111.402 64.6028 111.544 64.3828 111.652 64.1455C111.758 63.9108 111.818 63.6577 111.827 63.4004C111.83 63.3584 111.824 63.3163 111.81 63.2767C111.796 63.2371 111.773 63.2009 111.744 63.1704C111.718 63.1431 111.687 63.1216 111.652 63.1073C111.617 63.0931 111.58 63.0863 111.542 63.0876C111.428 63.1046 111.319 63.1443 111.221 63.2043C111.123 63.2644 111.038 63.3436 110.972 63.4372C110.527 64.0021 110.212 64.6587 110.052 65.3598M110.052 65.6358C110.019 65.8212 110.001 66.0088 109.997 66.197C109.992 66.4269 110.074 66.6501 110.227 66.8225C110.307 66.9026 110.404 66.9651 110.51 67.0063C110.616 67.0474 110.729 67.0663 110.843 67.0617C111.098 67.055 111.348 66.9955 111.579 66.8869C111.892 66.7194 112.18 66.5088 112.434 66.2614L112.591 66.3993C112.269 66.8189 111.869 67.172 111.413 67.4389C111.026 67.6464 110.593 67.7539 110.153 67.7516C109.932 67.7776 109.708 67.753 109.497 67.6797C109.287 67.6064 109.096 67.4863 108.939 67.3285C108.72 67.0544 108.603 66.7131 108.608 66.3625C108.616 65.7549 108.787 65.1607 109.104 64.6423C109.43 64.0713 109.899 63.5956 110.466 63.2624C110.986 62.9304 111.588 62.7489 112.204 62.738C112.444 62.7192 112.682 62.7952 112.867 62.9496C112.943 63.0157 113.003 63.0979 113.042 63.1903C113.082 63.2826 113.101 63.3827 113.097 63.4832C113.092 63.747 113.016 64.0046 112.876 64.2283C112.68 64.5432 112.42 64.8129 112.112 65.0195C111.791 65.224 111.441 65.3791 111.073 65.4794C110.737 65.5584 110.396 65.6107 110.052 65.6358Z" fill="#2E5251"/>
<path d="M119.777 66.3717L119.934 66.5189C119.655 66.8812 119.316 67.1924 118.931 67.4388C118.518 67.6806 118.049 67.8105 117.57 67.816C117.278 67.8179 116.991 67.7484 116.733 67.6136C116.498 67.4864 116.31 67.2862 116.199 67.0433C116.083 66.8122 116.023 66.5568 116.024 66.2981C116.03 65.7026 116.192 65.1191 116.493 64.6055C116.786 64.0697 117.21 63.617 117.726 63.29C118.169 62.9875 118.689 62.8183 119.225 62.8024C119.555 62.7716 119.884 62.867 120.145 63.0692C120.234 63.1448 120.306 63.2373 120.357 63.3413C120.409 63.4453 120.439 63.5586 120.446 63.6745C120.453 63.7904 120.436 63.9065 120.397 64.0159C120.358 64.1252 120.298 64.2256 120.219 64.3111C120.16 64.3864 120.084 64.4478 119.998 64.4907C119.913 64.5336 119.818 64.5571 119.722 64.5595C119.648 64.5632 119.573 64.5512 119.503 64.5243C119.434 64.4973 119.37 64.456 119.317 64.4031C119.266 64.3566 119.226 64.2997 119.199 64.2362C119.172 64.1727 119.159 64.1041 119.161 64.0351C119.163 63.9361 119.189 63.839 119.237 63.7525C119.285 63.6659 119.354 63.5923 119.437 63.5383C119.566 63.4371 119.63 63.3544 119.63 63.2808C119.633 63.2518 119.627 63.2227 119.614 63.1967C119.601 63.1707 119.581 63.1488 119.557 63.1336C119.479 63.0698 119.381 63.037 119.281 63.0416C118.968 63.0485 118.671 63.1772 118.453 63.4004C118.1 63.7304 117.832 64.1406 117.671 64.5963C117.495 65.0355 117.402 65.5032 117.395 65.9762C117.38 66.2742 117.478 66.5668 117.671 66.7949C117.753 66.8906 117.854 66.9674 117.968 67.0198C118.083 67.0723 118.207 67.0991 118.333 67.0985C118.585 67.0936 118.833 67.0339 119.06 66.9237C119.34 66.7981 119.592 66.6201 119.805 66.3993" fill="#2E5251"/>
<path d="M123.824 63.0509C123.655 63.0444 123.49 63.1038 123.364 63.2165C122.984 63.6688 122.702 64.195 122.536 64.7619C122.247 65.4568 122.088 66.199 122.067 66.9514C122.063 67.0974 122.116 67.2392 122.214 67.3469C122.258 67.3966 122.312 67.4362 122.372 67.4632C122.432 67.4902 122.498 67.5039 122.564 67.5033C122.694 67.5077 122.821 67.4653 122.923 67.3837C123.162 67.1378 123.355 66.8512 123.493 66.5374C123.723 66.0714 123.907 65.5848 124.045 65.0839C124.176 64.6101 124.247 64.1218 124.257 63.6304C124.267 63.4784 124.221 63.3279 124.128 63.2073C124.091 63.1611 124.045 63.1233 123.993 63.0963C123.94 63.0693 123.883 63.0538 123.824 63.0509ZM124.036 62.7749C124.308 62.7743 124.577 62.8407 124.818 62.9681C125.05 63.0884 125.242 63.2739 125.37 63.5016C125.492 63.7342 125.555 63.9932 125.554 64.256C125.546 64.8554 125.381 65.4424 125.075 65.9578C124.781 66.5036 124.35 66.9633 123.824 67.2917C123.362 67.606 122.819 67.7786 122.26 67.7885C122.057 67.7981 121.854 67.7654 121.664 67.6926C121.474 67.6198 121.301 67.5083 121.156 67.3653C120.899 67.0809 120.761 66.7089 120.77 66.3258C120.768 65.853 120.868 65.3854 121.064 64.9551C121.25 64.5477 121.498 64.1721 121.8 63.842C122.1 63.5309 122.448 63.27 122.831 63.0693C123.204 62.8781 123.617 62.7773 124.036 62.7749Z" fill="#2E5251"/>
<path d="M128.745 62.7749L128.092 65.0287C128.39 64.5567 128.719 64.105 129.077 63.6764C129.311 63.3951 129.59 63.1556 129.905 62.9681C130.099 62.8494 130.321 62.7828 130.549 62.7749C130.637 62.7731 130.724 62.7903 130.805 62.8252C130.886 62.8601 130.959 62.912 131.018 62.9773C131.149 63.1199 131.218 63.3083 131.211 63.5016C131.207 63.7462 131.163 63.9884 131.082 64.2192L130.42 66.4546C130.374 66.5793 130.343 66.709 130.328 66.841C130.316 66.8706 130.316 66.9033 130.328 66.9329C130.336 66.9452 130.347 66.9556 130.36 66.9635C130.372 66.9714 130.387 66.9767 130.401 66.979C130.442 66.9757 130.481 66.9596 130.512 66.9329C130.658 66.8111 130.785 66.6685 130.889 66.5098C130.934 66.4334 130.983 66.3597 131.036 66.289L131.239 66.4086C130.723 67.2733 130.19 67.7057 129.619 67.7057C129.435 67.7149 129.253 67.6522 129.113 67.5309C129.053 67.4805 129.005 67.417 128.974 67.3452C128.942 67.2735 128.927 67.1954 128.93 67.1169C128.941 66.892 128.981 66.6694 129.049 66.4546L129.711 64.2192C129.748 64.1153 129.769 64.007 129.776 63.8972C129.788 63.8615 129.788 63.8225 129.776 63.7868C129.74 63.7734 129.701 63.7734 129.665 63.7868C129.476 63.8154 129.304 63.9099 129.178 64.0536C128.6 64.6573 128.127 65.3539 127.78 66.1142L127.347 67.6781H126.013L126.998 64.3112C127.071 64.0812 127.117 63.8435 127.136 63.6028C127.15 63.5517 127.15 63.4976 127.136 63.4464C127.098 63.4046 127.051 63.3729 126.998 63.3545C126.879 63.339 126.758 63.339 126.639 63.3545L126.694 63.1612L128.46 62.8485L128.745 62.7749Z" fill="#2E5251"/>
<path d="M135.406 63.6856C135.419 63.5218 135.373 63.3587 135.277 63.2256C135.243 63.1799 135.198 63.1428 135.147 63.1173C135.096 63.0917 135.04 63.0784 134.983 63.0784C134.845 63.089 134.717 63.1515 134.624 63.2532C134.275 63.6432 134.009 64.1002 133.842 64.5963C133.605 65.1376 133.468 65.7173 133.437 66.3074C133.425 66.4369 133.458 66.5667 133.529 66.6753C133.548 66.7114 133.575 66.7422 133.609 66.7647C133.643 66.7873 133.682 66.8008 133.722 66.8041C133.863 66.7949 133.995 66.7324 134.09 66.6293C134.819 65.8056 135.278 64.7782 135.406 63.6856ZM137.715 60.3646L136.004 66.2338C135.935 66.4502 135.883 66.6716 135.847 66.8961C135.841 66.9121 135.837 66.9293 135.837 66.9467C135.837 66.9641 135.841 66.9813 135.847 66.9973C135.859 67.0109 135.873 67.022 135.889 67.0299C135.905 67.0378 135.922 67.0423 135.939 67.0433C136.016 67.0376 136.087 67.005 136.142 66.9513C136.323 66.7899 136.481 66.6042 136.611 66.3993L136.804 66.4913C136.307 67.3561 135.765 67.7884 135.176 67.7884C134.998 67.7992 134.823 67.7397 134.688 67.6228C134.634 67.5671 134.591 67.5009 134.562 67.4282C134.534 67.3555 134.52 67.2777 134.523 67.1997C134.538 66.9585 134.584 66.7204 134.661 66.4913L134.817 65.9578C134.527 66.5338 134.141 67.0564 133.676 67.5032C133.478 67.6737 133.229 67.774 132.968 67.7884C132.839 67.7889 132.712 67.7601 132.595 67.7044C132.479 67.6486 132.377 67.5673 132.297 67.4665C132.106 67.1991 132.011 66.8746 132.03 66.5465C132.034 66.0152 132.153 65.4911 132.379 65.0103C132.581 64.5493 132.851 64.1213 133.18 63.7407C133.424 63.4501 133.716 63.2042 134.044 63.014C134.292 62.874 134.57 62.7981 134.854 62.7932C134.979 62.79 135.102 62.8185 135.213 62.876C135.354 62.9603 135.478 63.0693 135.581 63.198L135.967 61.8917C136.048 61.6665 136.097 61.4313 136.114 61.1926C136.114 61.152 136.105 61.1121 136.087 61.0755C136.07 61.0389 136.044 61.0066 136.013 60.981C135.945 60.9198 135.856 60.8869 135.765 60.889H135.581L135.636 60.6866L137.356 60.3646H137.715Z" fill="#2E5251"/>
<path d="M139.636 60.3646C139.737 60.3629 139.837 60.3815 139.93 60.4194C140.024 60.4574 140.108 60.5138 140.179 60.5854C140.284 60.6946 140.356 60.8322 140.384 60.9812C140.413 61.1303 140.398 61.2844 140.34 61.4249C140.282 61.5653 140.185 61.686 140.06 61.7721C139.935 61.8583 139.788 61.9062 139.636 61.9101C139.535 61.9096 139.435 61.8891 139.342 61.8496C139.249 61.8101 139.164 61.7525 139.094 61.6801C139.022 61.6093 138.965 61.5246 138.928 61.4314C138.89 61.3381 138.871 61.2381 138.873 61.1374C138.871 60.9315 138.95 60.7332 139.094 60.5854C139.164 60.5138 139.249 60.4574 139.342 60.4194C139.436 60.3815 139.536 60.3629 139.636 60.3646ZM139.958 62.7748L138.882 66.5097C138.841 66.6447 138.813 66.7834 138.799 66.9237C138.785 66.9591 138.785 66.9987 138.799 67.0341C138.826 67.0621 138.862 67.0786 138.9 67.0801C138.965 67.0762 139.027 67.0502 139.075 67.0065C139.298 66.7982 139.49 66.5598 139.646 66.2981L139.82 66.4085C139.293 67.3285 138.732 67.7884 138.137 67.7884C137.938 67.7984 137.742 67.7289 137.594 67.5952C137.527 67.5332 137.475 67.4576 137.44 67.3735C137.405 67.2894 137.388 67.1987 137.392 67.1077C137.397 66.9413 137.428 66.7768 137.484 66.6201L138.21 64.1087C138.27 63.9335 138.304 63.7507 138.312 63.566C138.312 63.5261 138.305 63.4866 138.289 63.4501C138.273 63.4136 138.249 63.3809 138.22 63.3544C138.139 63.2973 138.042 63.2683 137.944 63.2716H137.75L137.824 63.0692L139.6 62.7748H139.958Z" fill="#2E5251"/>
<path d="M143.29 61.4961L142.867 62.922H143.557L143.373 63.5292H142.692L141.818 66.5649C141.773 66.705 141.745 66.8503 141.735 66.9973C141.723 67.0361 141.723 67.078 141.735 67.1169C141.751 67.1243 141.768 67.1281 141.786 67.1281C141.803 67.1281 141.821 67.1243 141.837 67.1169C141.871 67.1179 141.904 67.1119 141.936 67.0992C141.968 67.0865 141.996 67.0675 142.02 67.0433C142.24 66.8626 142.429 66.6484 142.582 66.4085L142.766 66.5189C142.573 66.8804 142.303 67.1947 141.974 67.4388C141.724 67.6186 141.427 67.721 141.119 67.7332C140.918 67.7451 140.72 67.6793 140.567 67.5492C140.501 67.4927 140.448 67.4219 140.413 67.3423C140.378 67.2627 140.362 67.1762 140.365 67.0893C140.375 66.8236 140.422 66.5606 140.503 66.3073L141.331 63.474H140.622L140.723 63.0876C141.126 62.9477 141.506 62.7527 141.855 62.508C142.263 62.1937 142.637 61.8359 142.968 61.4409L143.29 61.4961Z" fill="#2E5251"/>
<path d="M145.608 60.3647C145.709 60.3629 145.809 60.3815 145.902 60.4195C145.996 60.4574 146.08 60.5139 146.151 60.5855C146.295 60.7332 146.374 60.9315 146.372 61.1374C146.374 61.2381 146.355 61.3381 146.317 61.4314C146.279 61.5247 146.223 61.6093 146.151 61.6802C146.081 61.7599 145.996 61.8245 145.9 61.8698C145.804 61.915 145.7 61.9401 145.594 61.9434C145.488 61.9466 145.382 61.9281 145.284 61.8888C145.185 61.8495 145.096 61.7904 145.021 61.7151C144.947 61.6398 144.888 61.5499 144.85 61.4511C144.811 61.3523 144.794 61.2466 144.798 61.1406C144.802 61.0347 144.828 60.9307 144.874 60.8352C144.92 60.7397 144.985 60.6547 145.066 60.5855C145.136 60.513 145.22 60.456 145.314 60.4179C145.407 60.3799 145.508 60.3618 145.608 60.3647ZM145.93 62.7749L144.854 66.5098C144.812 66.645 144.781 66.7834 144.762 66.9238C144.763 66.9449 144.769 66.9657 144.778 66.9846C144.788 67.0036 144.801 67.0205 144.817 67.0341C144.841 67.06 144.874 67.0764 144.909 67.0801C144.977 67.0762 145.042 67.0504 145.093 67.0066C145.312 66.7974 145.501 66.559 145.654 66.2982L145.838 66.4086C145.305 67.3285 144.744 67.7885 144.155 67.7885C144.056 67.7945 143.957 67.7804 143.864 67.7472C143.771 67.714 143.685 67.6623 143.612 67.5953C143.545 67.5333 143.493 67.4577 143.458 67.3736C143.423 67.2894 143.407 67.1988 143.41 67.1077C143.415 66.9422 143.443 66.7782 143.493 66.6202L144.229 64.1088C144.283 63.9324 144.317 63.7502 144.33 63.566C144.331 63.5253 144.322 63.4848 144.305 63.448C144.287 63.4113 144.261 63.3792 144.229 63.3545C144.152 63.2961 144.058 63.2667 143.962 63.2717H143.769L143.842 63.0693L145.618 62.7749H145.93Z" fill="#2E5251"/>
<path d="M149.49 63.0508C149.321 63.0444 149.156 63.1038 149.03 63.2164C148.65 63.6687 148.368 64.195 148.202 64.7619C147.915 65.4571 147.759 66.1994 147.742 66.9513C147.738 67.0238 147.748 67.0965 147.774 67.1646C147.799 67.2327 147.838 67.2947 147.889 67.3469C147.93 67.3973 147.982 67.4377 148.041 67.4648C148.1 67.4919 148.164 67.505 148.229 67.5032C148.362 67.506 148.492 67.4639 148.597 67.3837C148.83 67.1343 149.019 66.8484 149.158 66.5373C149.392 66.0731 149.577 65.586 149.71 65.0839C149.845 64.611 149.916 64.1221 149.922 63.6304C149.937 63.4778 149.89 63.3257 149.793 63.2072C149.758 63.1596 149.712 63.1208 149.66 63.0936C149.607 63.0665 149.549 63.0519 149.49 63.0508ZM149.701 62.7748C149.974 62.7723 150.243 62.8388 150.483 62.968C150.719 63.0831 150.912 63.2699 151.035 63.5016C151.162 63.7325 151.225 63.9927 151.219 64.2559C151.211 64.854 151.049 65.44 150.75 65.9578C150.452 66.5006 150.021 66.9594 149.499 67.2917C149.036 67.6045 148.493 67.777 147.935 67.7884C147.732 67.7998 147.528 67.7679 147.338 67.695C147.147 67.622 146.975 67.5097 146.831 67.3653C146.568 67.0838 146.426 66.7106 146.435 66.3257C146.434 65.8529 146.534 65.3853 146.73 64.9551C146.915 64.5477 147.164 64.172 147.466 63.842C147.766 63.5308 148.113 63.2699 148.496 63.0692C148.87 62.8791 149.282 62.7783 149.701 62.7748Z" fill="#2E5251"/>
<path d="M154.41 62.7748L153.767 65.0286C154.062 64.5574 154.388 64.1057 154.742 63.6763C154.978 63.3971 155.257 63.1579 155.57 62.968C155.767 62.8489 155.992 62.7824 156.223 62.7748C156.309 62.7738 156.395 62.7913 156.475 62.8262C156.554 62.8611 156.625 62.9126 156.683 62.9772C156.813 63.1198 156.883 63.3082 156.876 63.5016C156.871 63.7453 156.831 63.9869 156.756 64.2191L156.085 66.4545C156.045 66.5804 156.017 66.7097 156.002 66.8409C155.996 66.8554 155.993 66.8711 155.993 66.8869C155.993 66.9027 155.996 66.9183 156.002 66.9329C156.023 66.9582 156.052 66.9746 156.085 66.9789C156.125 66.9756 156.164 66.9595 156.195 66.9329C156.335 66.8081 156.459 66.6659 156.563 66.5097C156.563 66.4545 156.646 66.3809 156.719 66.2889L156.913 66.4085C156.397 67.2733 155.864 67.7056 155.294 67.7056C155.109 67.7129 154.928 67.6505 154.788 67.5308C154.729 67.4791 154.682 67.4154 154.65 67.3439C154.619 67.2725 154.603 67.195 154.604 67.1169C154.619 66.8916 154.663 66.6692 154.732 66.4545L155.386 64.2191C155.422 64.1152 155.443 64.0069 155.45 63.8971C155.458 63.8797 155.462 63.8609 155.462 63.8419C155.462 63.8229 155.458 63.8041 155.45 63.7867C155.415 63.7724 155.375 63.7724 155.34 63.7867C155.153 63.8159 154.984 63.9104 154.861 64.0535C154.28 64.6547 153.807 65.3518 153.463 66.1141L153.031 67.678H151.688L152.672 64.3111C152.745 64.0811 152.791 63.8434 152.81 63.6027C152.824 63.5516 152.824 63.4975 152.81 63.4464C152.772 63.4045 152.725 63.3728 152.672 63.3544C152.553 63.339 152.432 63.339 152.313 63.3544L152.368 63.1612L154.144 62.8484L154.41 62.7748Z" fill="#2E5251"/>
<path d="M161.514 62.7748L161.284 64.3939H161.091C161.084 64.0301 160.947 63.6808 160.704 63.4096C160.616 63.2988 160.504 63.2085 160.377 63.145C160.25 63.0815 160.11 63.0462 159.968 63.0416C159.896 63.0385 159.824 63.0499 159.756 63.0752C159.688 63.1004 159.626 63.1391 159.573 63.1888C159.523 63.2306 159.484 63.2828 159.457 63.3416C159.43 63.4004 159.416 63.4644 159.417 63.5292C159.415 63.6369 159.437 63.7437 159.481 63.8419C159.562 63.9883 159.664 64.1216 159.784 64.2375C160.163 64.613 160.502 65.026 160.796 65.4702C160.914 65.6908 160.974 65.9376 160.971 66.1877C160.97 66.4623 160.897 66.7318 160.76 66.9697C160.613 67.2231 160.396 67.4278 160.134 67.5584C159.871 67.71 159.573 67.7894 159.269 67.7884C159.014 67.7771 158.761 67.7369 158.515 67.6688C158.373 67.6161 158.224 67.5851 158.073 67.5768C158.007 67.5601 157.937 67.5601 157.871 67.5768C157.807 67.6222 157.751 67.6782 157.705 67.7424H157.512L157.77 65.9946H157.945C158.018 66.3146 158.132 66.6238 158.285 66.9145C158.389 67.0906 158.534 67.2389 158.708 67.3469C158.862 67.4463 159.04 67.5005 159.223 67.5032C159.4 67.51 159.571 67.4473 159.702 67.3285C159.763 67.2744 159.812 67.2079 159.845 67.1333C159.879 67.0587 159.896 66.9778 159.895 66.8961C159.893 66.7283 159.849 66.5636 159.766 66.4177C159.605 66.1566 159.414 65.9157 159.196 65.7002C158.894 65.3858 158.625 65.0405 158.395 64.6699C158.301 64.4848 158.254 64.2795 158.257 64.0719C158.258 63.8982 158.296 63.7265 158.367 63.568C158.438 63.4096 158.542 63.2678 158.671 63.152C158.992 62.884 159.404 62.7491 159.821 62.7748C160.092 62.7805 160.361 62.8207 160.622 62.8944C160.745 62.9264 160.871 62.9449 160.999 62.9496C161.064 62.9518 161.129 62.9369 161.188 62.9062C161.246 62.8755 161.295 62.8303 161.33 62.7748H161.514Z" fill="#2E5251"/>
</g>
<defs>
<clipPath id="clip0_678_768">
<rect width="168" height="69.3808" fill="white" transform="translate(0 0.587891)"/>
</clipPath>
</defs>
</svg>
