<svg width="168" height="72" viewBox="0 0 168 72" fill="none" xmlns="http://www.w3.org/2000/svg">
<g clip-path="url(#clip0_950_159)">
<path d="M77.2592 1.35145C80.9972 -0.982104 84.908 -0.287078 88.9918 3.43653C89.3386 3.76528 89.7651 3.99795 90.2292 4.11162C90.6934 4.22529 91.1792 4.21603 91.6386 4.08474C91.7245 4.06701 91.8139 4.08367 91.8876 4.13114C91.9614 4.17861 92.0136 4.25311 92.033 4.33863C92.0483 4.40987 92.0388 4.48422 92.0059 4.54929C90.8986 6.80183 91.5954 9.84841 92.1356 12.236C92.1537 12.321 92.1468 12.4094 92.1156 12.4904C92.0844 12.5715 92.0303 12.6418 91.9599 12.6927C91.8895 12.7436 91.8059 12.773 91.7191 12.7773C91.6324 12.7816 91.5462 12.7605 91.4712 12.7167L88.4516 10.8964C88.3736 10.8534 88.3113 10.787 88.2734 10.7064C88.2356 10.6259 88.2242 10.5354 88.2409 10.448C89.2835 3.16104 80.9702 -0.231265 76.1788 5.66745C74.3782 7.88217 73.3429 10.8477 73.0728 14.5641C73.0677 14.6511 73.0375 14.7347 72.9857 14.8047C72.9339 14.8748 72.8628 14.9282 72.7811 14.9585C68.7514 16.5304 69.1025 19.4689 72.8621 20.9922C72.9462 21.0259 73.0203 21.0802 73.0779 21.15C73.1355 21.2199 73.1746 21.3031 73.1916 21.392C74.3044 27.1556 76.4867 33.3191 83.6872 32.3521C86.9283 31.92 90.1315 29.0409 88.6515 25.5891C88.6327 25.5556 88.6209 25.5186 88.6167 25.4804C88.6125 25.4422 88.6161 25.4036 88.6272 25.3668C88.6383 25.33 88.6567 25.2958 88.6813 25.2662C88.7058 25.2367 88.7361 25.2124 88.7703 25.1948C90.0022 24.3926 91.0693 23.3622 91.9141 22.159C92.005 22.0325 92.1378 21.9423 92.289 21.9044C92.4401 21.8665 92.5997 21.8834 92.7396 21.952C92.8795 22.0206 92.9905 22.1366 93.053 22.2793C93.1154 22.422 93.1253 22.5823 93.0809 22.7316C92.3649 25.0752 92.1514 27.5436 92.4543 29.9754C92.4867 30.2454 92.3733 30.3481 92.1086 30.2779C90.7527 29.9159 90.0019 30.0348 89.0728 31.1745C86.172 34.7397 83.3631 36.0361 78.7554 34.4534C72.6947 32.3467 70.4745 27.5554 68.3246 21.9538C67.8175 20.6237 67.0478 19.4094 66.0613 18.3832C66.0023 18.332 65.9659 18.2597 65.9598 18.1819C65.9538 18.104 65.9786 18.0269 66.0289 17.9673C70.0478 12.3386 71.1174 5.1813 77.2592 1.35145Z" fill="black"/>
<path d="M81.0402 13.1435C80.2733 14.1808 79.3298 15.0749 78.2529 15.7849C78.1995 15.8181 78.1354 15.8293 78.074 15.8162C78.0125 15.8031 77.9586 15.7667 77.9234 15.7147C77.8949 15.6687 77.8827 15.6144 77.8885 15.5606C77.8944 15.5068 77.9181 15.4565 77.9558 15.4176L80.6567 12.7167C80.7266 12.6478 80.7742 12.5595 80.7934 12.4632C80.8127 12.3669 80.8027 12.2671 80.7647 12.1766L79.3008 8.60601C79.2916 8.57431 79.2761 8.5448 79.2552 8.5193C79.2342 8.49379 79.2083 8.47282 79.179 8.45765C79.1497 8.44249 79.1176 8.43346 79.0847 8.43111C79.0517 8.42875 79.0187 8.43312 78.9875 8.44395L78.4473 8.579C78.3844 8.59381 78.3181 8.58348 78.2626 8.55019C78.2071 8.5169 78.1668 8.46328 78.1502 8.40074C78.1394 8.36187 78.1394 8.32077 78.1502 8.2819L78.7228 5.96455C78.7323 5.92653 78.7492 5.89077 78.7725 5.8593C78.7959 5.82784 78.8252 5.8013 78.8588 5.78121C78.8925 5.76113 78.9297 5.7479 78.9685 5.74229C79.0073 5.73667 79.0468 5.73878 79.0847 5.74848C79.1414 5.76089 79.1925 5.79119 79.2306 5.83491L80.1435 6.82343C80.1974 6.87928 80.2377 6.94688 80.2612 7.02093C80.2846 7.09497 80.2905 7.17344 80.2785 7.25017C80.2678 7.35671 80.2348 7.45982 80.1818 7.55285C80.1287 7.64588 80.0568 7.72679 79.9706 7.79035C79.8943 7.84367 79.8387 7.92165 79.8131 8.01118C79.7875 8.10071 79.7935 8.1963 79.8302 8.2819L81.0942 11.3231C81.1227 11.3865 81.1745 11.4365 81.2389 11.4626C81.3033 11.4888 81.3753 11.4891 81.4399 11.4635C81.5025 11.4358 81.5526 11.3857 81.5804 11.3231L82.7417 8.47097C82.7827 8.37358 82.8016 8.26829 82.7969 8.16272C82.7922 8.05716 82.7642 7.95395 82.7147 7.86056C82.1745 6.81262 82.4554 6.05638 83.5628 5.59724C83.7195 5.53782 83.8221 5.59723 83.8707 5.73768L84.6756 8.14686C84.6859 8.17559 84.6904 8.20607 84.6889 8.23655C84.6874 8.26703 84.68 8.29692 84.6669 8.32451C84.6539 8.35211 84.6355 8.37686 84.6129 8.39735C84.5903 8.41785 84.5639 8.43368 84.5351 8.44395C84.4893 8.45746 84.4405 8.45746 84.3947 8.44395L83.8545 8.30891C83.7828 8.2901 83.7067 8.29776 83.6403 8.33051C83.5738 8.36325 83.5214 8.41888 83.4926 8.48717L81.9585 12.2036C81.9396 12.2502 81.9327 12.3008 81.9384 12.3508C81.9441 12.4008 81.9621 12.4486 81.9909 12.4899C82.8264 13.6401 83.9054 14.5918 85.1509 15.2772C85.1797 15.2939 85.2047 15.3161 85.2247 15.3427C85.2447 15.3693 85.2591 15.3995 85.2672 15.4318C85.2752 15.464 85.2767 15.4975 85.2716 15.5304C85.2665 15.5632 85.2548 15.5947 85.2373 15.6229C85.2136 15.6665 85.177 15.7018 85.1326 15.724C85.0882 15.7462 85.038 15.7543 84.9889 15.7471C83.6384 15.5419 82.3906 13.997 81.4777 13.0787C81.4545 13.044 81.4226 13.0161 81.3852 12.9977C81.3478 12.9793 81.3063 12.9711 81.2647 12.9738C81.2231 12.9765 81.1829 12.9902 81.1483 13.0133C81.1136 13.0365 81.0856 13.0683 81.0672 13.1057L81.0402 13.1435ZM80.4568 20.1658L79.6681 20.0037C79.4088 19.9497 79.371 19.8309 79.5601 19.6472L81.2887 17.9294C81.3164 17.8918 81.3531 17.8617 81.3954 17.8418C81.4377 17.8219 81.4843 17.8129 81.5309 17.8156C81.5776 17.8183 81.6229 17.8325 81.6626 17.8571C81.7024 17.8817 81.7354 17.9159 81.7586 17.9564L83.1361 19.6364C83.2927 19.8255 83.2495 19.9443 83.0172 20.0037L82.2229 20.2036C82.1706 20.2176 82.1259 20.2513 82.0978 20.2975C82.0696 20.3438 82.0603 20.3991 82.0719 20.4521C82.0824 20.4766 82.0951 20.5 82.1097 20.5223C83.5898 22.4939 85.7775 27.0746 84.6756 29.4568C84.6316 29.5499 84.5566 29.6248 84.4634 29.6686C84.3702 29.7124 84.2647 29.7223 84.165 29.6968C84.0653 29.6712 83.9776 29.6117 83.9169 29.5284C83.8563 29.4452 83.8266 29.3435 83.8329 29.2407L84.0219 26.4048C84.027 26.3133 83.9976 26.2233 83.9396 26.1523C83.8817 26.0813 83.7993 26.0346 83.7086 26.0213L83.2063 25.951C83.1593 25.9504 83.113 25.9394 83.0707 25.9188C83.0285 25.8982 82.9913 25.8685 82.9619 25.8319C82.9325 25.7952 82.9115 25.7525 82.9005 25.7068C82.8895 25.6611 82.8888 25.6135 82.8984 25.5675C83.0443 24.0117 82.6639 22.452 81.818 21.1381C81.7671 21.0625 81.6978 21.001 81.6167 20.9594C81.5356 20.9178 81.4453 20.8974 81.3541 20.9001C81.263 20.9028 81.1741 20.9285 81.0955 20.9748C81.017 21.0212 80.9515 21.0866 80.9051 21.1651C80.139 22.5336 79.8091 24.1036 79.9598 25.6648C79.97 25.7084 79.9693 25.7539 79.9579 25.7972C79.9464 25.8406 79.9246 25.8805 79.8943 25.9135C79.8639 25.9465 79.826 25.9716 79.7838 25.9866C79.7415 26.0016 79.6963 26.0061 79.6519 25.9997H79.1117C79.0616 25.9989 79.0119 26.0082 78.9654 26.0269C78.9189 26.0456 78.8766 26.0733 78.8409 26.1085C78.8052 26.1437 78.7769 26.1856 78.7575 26.2318C78.7382 26.2781 78.7282 26.3277 78.7282 26.3778L78.8957 29.2839C78.9006 29.3677 78.8739 29.4502 78.8209 29.5152C78.7679 29.5803 78.6924 29.623 78.6094 29.6351C78.1502 29.7053 77.9126 29.3704 77.9018 28.9328C77.7625 25.929 78.7227 22.9773 80.6026 20.6303C80.6312 20.6026 80.654 20.5695 80.6695 20.5328C80.685 20.4962 80.693 20.4568 80.693 20.417C80.693 20.3771 80.685 20.3378 80.6695 20.3011C80.654 20.2644 80.6312 20.2313 80.6026 20.2036C80.567 20.178 80.5266 20.1596 80.4838 20.1496L80.4568 20.1658ZM10.4122 42.313C12.1588 42.5074 13.5002 42.6983 14.4365 42.8856C14.5123 42.8986 14.582 42.9355 14.6355 42.9909C14.6889 43.0463 14.7233 43.1172 14.7336 43.1935C14.9742 44.4387 15.0721 45.7073 15.0253 46.9747C14.8993 48.6456 14.6094 48.6744 14.1556 47.0611C12.3136 40.5304 4.03814 44.0199 4.17859 50.2049C4.32984 56.8545 12.0273 58.0699 15.9112 53.7647C15.9472 53.7313 15.9944 53.7127 16.0435 53.7127C16.0926 53.7127 16.1399 53.7313 16.1759 53.7647L16.2137 53.8133L16.3055 53.9646C16.3371 54.0066 16.3541 54.0578 16.3541 54.1104C16.3541 54.163 16.3371 54.2142 16.3055 54.2563C14.4041 56.7951 12.0327 58.1581 9.19142 58.3454C-3.41088 59.161 -3.07057 40.8545 10.4284 42.3616L10.4122 42.313ZM147.838 50.6047C147.806 55.1097 143.598 58.7073 138.434 58.7073C133.275 58.6695 129.11 54.9909 129.143 50.4858C129.175 45.9808 133.383 42.3562 138.547 42.3832C143.706 42.421 147.871 46.0996 147.838 50.6047ZM138.466 57.3515C141.486 57.3515 143.933 54.2617 143.933 50.4534C143.933 46.6452 141.486 43.5554 138.466 43.5554C135.447 43.5554 133 46.6722 133 50.4534C133 54.2346 135.447 57.3569 138.466 57.3569L138.466 57.3515ZM34.5851 50.6263H28.2596C28.2151 50.6197 28.1696 50.6238 28.1269 50.6381C28.0842 50.6525 28.0455 50.6767 28.0139 50.7088C27.9824 50.7409 27.9588 50.78 27.9452 50.8229C27.9315 50.8658 27.9282 50.9113 27.9355 50.9558V56.8977C27.9316 56.9928 27.9569 57.0867 28.0081 57.1669C28.0593 57.2471 28.1339 57.3096 28.2218 57.3461L29.6154 57.9997C29.64 58.0112 29.6621 58.0276 29.6803 58.0477C29.6986 58.0679 29.7126 58.0915 29.7216 58.1171C29.7307 58.1427 29.7346 58.1699 29.733 58.197C29.7315 58.2242 29.7246 58.2507 29.7127 58.2752C29.6955 58.3084 29.6701 58.3368 29.6389 58.3576C29.6077 58.3784 29.5718 58.3909 29.5344 58.394C27.1932 58.497 24.8479 58.4537 22.5121 58.2644C22.4672 58.2602 22.4257 58.2387 22.3965 58.2044C22.3672 58.1701 22.3525 58.1257 22.3555 58.0807C22.3564 58.0525 22.3649 58.0251 22.3801 58.0013C22.3953 57.9775 22.4167 57.9583 22.4419 57.9457L23.5925 57.3299C23.6719 57.2898 23.739 57.229 23.7865 57.1538C23.8341 57.0787 23.8604 56.992 23.8626 56.9031C24.0787 51.8363 24.1165 47.8102 23.976 44.8248C23.9256 43.8201 23.3512 43.2331 22.2529 43.0638C22.1664 43.0638 22.1448 43.0044 22.1826 42.9234C22.2029 42.8721 22.2342 42.826 22.2745 42.7883C22.2804 42.7858 22.2869 42.7845 22.2934 42.7845C22.2999 42.7845 22.3063 42.7858 22.3123 42.7883C24.5414 42.8171 26.8552 42.7577 29.2535 42.6101C29.2933 42.6062 29.3334 42.6101 29.3716 42.6217C29.4098 42.6333 29.4453 42.6523 29.4761 42.6777C29.507 42.703 29.5326 42.7341 29.5514 42.7694C29.5702 42.8046 29.5818 42.8431 29.5857 42.8829C29.5896 42.9226 29.5857 42.9627 29.5741 43.0009C29.5625 43.0391 29.5435 43.0746 29.5182 43.1055C29.4928 43.1363 29.4617 43.1619 29.4265 43.1807C29.3912 43.1995 29.3527 43.2112 29.313 43.2151C27.3035 43.5014 27.8977 47.207 27.9463 48.6168C27.9418 48.6662 27.9485 48.7159 27.9659 48.7624C27.9832 48.8088 28.0109 48.8507 28.0467 48.885C28.0825 48.9192 28.1256 48.945 28.1728 48.9603C28.2199 48.9756 28.2699 48.98 28.319 48.9733H34.6499C34.695 48.9801 34.741 48.976 34.7842 48.9614C34.8274 48.9468 34.8665 48.9221 34.8982 48.8893C34.9299 48.8566 34.9533 48.8167 34.9665 48.7731C34.9797 48.7294 34.9822 48.6833 34.974 48.6384L34.8228 44.1172C34.8214 44.0281 34.794 43.9413 34.7442 43.8674C34.6943 43.7936 34.624 43.7358 34.5419 43.7012L33.3589 43.161C33.3348 43.149 33.3132 43.1323 33.2956 43.1119C33.2779 43.0916 33.2644 43.0679 33.2559 43.0423C33.2474 43.0167 33.2439 42.9897 33.2459 42.9628C33.2478 42.9359 33.255 42.9097 33.267 42.8856C33.2827 42.8515 33.3078 42.8226 33.3394 42.8025C33.3711 42.7824 33.4078 42.7718 33.4453 42.7721L40.3595 42.7181C40.4235 42.7133 40.487 42.7329 40.5371 42.773C40.5872 42.8131 40.6203 42.8707 40.6296 42.9342C40.6357 42.9993 40.6158 43.0641 40.5744 43.1147C40.5329 43.1652 40.4732 43.1974 40.4082 43.2043C39.0631 43.4689 38.8741 44.2306 38.8741 45.5324C38.8741 49.0904 38.8741 52.6519 38.8741 56.2171C38.8741 57.2326 39.4142 57.7188 40.3541 57.9294C40.3714 57.9332 40.3878 57.9405 40.4022 57.9508C40.4166 57.9611 40.4287 57.9742 40.4378 57.9894C40.4469 58.0046 40.4528 58.0215 40.4552 58.0391C40.4575 58.0566 40.4562 58.0745 40.4514 58.0915C40.4568 58.1054 40.4568 58.1208 40.4514 58.1347C40.4514 58.1833 40.3974 58.2265 40.3758 58.2752C40.363 58.3102 40.3393 58.3401 40.3082 58.3606C40.277 58.381 40.2401 58.3908 40.2029 58.3886L33.4183 58.2536C33.3949 58.2522 33.372 58.2462 33.3509 58.2359C33.3297 58.2257 33.3109 58.2114 33.2953 58.1938C33.2798 58.1762 33.2678 58.1558 33.2602 58.1336C33.2526 58.1114 33.2494 58.0879 33.2508 58.0645C33.2521 58.0322 33.2624 58.0009 33.2805 57.9742C33.2987 57.9475 33.3239 57.9263 33.3535 57.9132L34.5203 57.4325C34.6172 57.3927 34.7005 57.3255 34.76 57.2392C34.8195 57.1529 34.8525 57.0511 34.8552 56.9463L34.9902 51.0314C34.9917 50.9277 34.9522 50.8277 34.8805 50.7528C34.8087 50.678 34.7103 50.6345 34.6067 50.6317L34.5851 50.6263ZM62.0476 57.5081L63.0739 57.8808C63.1095 57.8935 63.1421 57.9131 63.1701 57.9384C63.198 57.9638 63.2207 57.9944 63.2367 58.0286C63.2528 58.0627 63.2619 58.0997 63.2637 58.1374C63.2654 58.175 63.2597 58.2127 63.2468 58.2481C63.2262 58.304 63.1885 58.3519 63.139 58.3849C63.0895 58.4179 63.0307 58.4343 62.9713 58.4318L56.5702 58.2914C56.5287 58.2914 56.4888 58.2749 56.4594 58.2455C56.4301 58.2161 56.4136 58.1763 56.4136 58.1347C56.4132 58.1089 56.4195 58.0835 56.4318 58.0608C56.4441 58.0381 56.462 58.0189 56.4838 58.0051L57.5155 57.265C57.6049 57.2019 57.6713 57.1112 57.7044 57.0069C57.7376 56.9025 57.7357 56.7902 57.6992 56.687L56.1543 52.1658C56.1244 52.0551 56.0567 51.9583 55.963 51.8922C55.8693 51.8261 55.7554 51.7949 55.6411 51.8039H52.5621C52.4739 51.7995 52.3865 51.822 52.3113 51.8682C52.2361 51.9145 52.1766 51.9825 52.1408 52.0631C51.3268 53.659 50.7465 55.3636 50.4176 57.1246C50.4016 57.2144 50.4163 57.307 50.4595 57.3874C50.5026 57.4678 50.5716 57.5313 50.6553 57.5675L51.2441 57.8214C52.0291 58.2932 51.9643 58.4966 51.0496 58.4318C50.4176 58.3886 46.5608 58.4696 46.4689 58.2319C46.4604 58.2111 46.4564 58.1887 46.457 58.1662C46.4577 58.1437 46.463 58.1216 46.4726 58.1013C46.4823 58.081 46.4961 58.0629 46.5131 58.0482C46.5301 58.0335 46.5498 58.0225 46.5713 58.0159C46.9448 57.944 47.2975 57.7886 47.6024 57.5613C47.9074 57.334 48.157 57.0406 48.3326 56.7033C49.9207 53.1021 51.4944 49.5009 53.0537 45.8997C53.3019 45.2083 53.3888 44.4692 53.3076 43.739C53.3006 43.6519 53.3259 43.5652 53.3787 43.4955C53.4315 43.4257 53.5081 43.3779 53.5939 43.3609L56.0841 42.6317C56.1365 42.6056 56.1943 42.5921 56.2528 42.5921C56.3114 42.5922 56.3691 42.6059 56.4215 42.6321C56.4739 42.6583 56.5194 42.6962 56.5546 42.7431C56.5898 42.7899 56.6136 42.8442 56.6242 42.9018C58.3132 47.6445 59.9913 52.3927 61.6587 57.1462C61.6897 57.237 61.7407 57.3195 61.8081 57.3878C61.8754 57.4561 61.9573 57.5083 62.0476 57.5405V57.5081ZM52.8646 50.2103C52.8559 50.2316 52.8515 50.2544 52.8516 50.2774C52.8518 50.3003 52.8565 50.3231 52.8656 50.3442C52.8747 50.3653 52.8878 50.3844 52.9044 50.4004C52.9209 50.4164 52.9404 50.4289 52.9618 50.4372H55.3224C55.3451 50.4379 55.3677 50.4342 55.389 50.4261C55.4102 50.4181 55.4297 50.406 55.4463 50.3904C55.4628 50.3749 55.4761 50.3562 55.4855 50.3355C55.4948 50.3148 55.5 50.2925 55.5007 50.2698C55.5033 50.2482 55.5033 50.2265 55.5007 50.2049L54.3825 47.1475C54.3666 47.1045 54.3347 47.0692 54.2935 47.0491C54.2522 47.029 54.2048 47.0255 54.161 47.0395C54.1375 47.0481 54.1161 47.0618 54.0984 47.0795C54.0807 47.0973 54.067 47.1186 54.0584 47.1421L52.8754 50.1779L52.8646 50.2103ZM80.3217 51.6364C81.6048 54.3798 83.7583 56.6225 86.4473 58.0159C86.685 58.1401 86.6688 58.2157 86.4041 58.2319C84.921 58.374 83.4289 58.3957 81.9423 58.2968C80.2947 58.0969 77.0105 53.1813 76.0003 51.7174C75.9469 51.6375 75.8692 51.5769 75.7787 51.5445C75.6882 51.5121 75.5898 51.5096 75.4978 51.5375C75.4058 51.5653 75.3251 51.622 75.2678 51.6991C75.2105 51.7763 75.1794 51.8698 75.1793 51.9659V57.0652C75.1799 57.1503 75.2039 57.2336 75.2487 57.306C75.2935 57.3784 75.3573 57.4371 75.4331 57.4757L76.5135 58.0159C76.5568 58.0395 76.5906 58.0772 76.6095 58.1228C76.6284 58.1683 76.6311 58.219 76.6172 58.2663C76.6033 58.3136 76.5737 58.3547 76.5332 58.3829C76.4927 58.411 76.4438 58.4245 76.3947 58.421C75.579 58.34 69.5506 58.3616 69.4858 58.1617C69.4754 58.1384 69.47 58.1133 69.4699 58.0878C69.4698 58.0623 69.475 58.0371 69.4851 58.0137C69.4953 57.9903 69.5102 57.9693 69.5289 57.952C69.5476 57.9347 69.5697 57.9215 69.5938 57.9132L70.7876 57.3461C70.8749 57.3092 70.9496 57.2477 71.0024 57.169C71.0551 57.0903 71.0838 56.9979 71.0847 56.9031C71.3125 52.7003 71.3215 48.4884 71.1117 44.2846C71.1122 44.1957 71.0849 44.1088 71.0335 44.0362C70.9822 43.9635 70.9094 43.9088 70.8255 43.8795C70.6148 43.7985 69.2049 43.4797 69.2049 43.1664C69.1998 43.1321 69.2026 43.0971 69.2131 43.0641C69.2236 43.031 69.2415 43.0008 69.2655 42.9758C69.2895 42.9507 69.3189 42.9315 69.3515 42.9196C69.3841 42.9077 69.4189 42.9035 69.4534 42.9072C73.0726 42.8369 84.1516 40.8221 83.0064 47.9794C82.6931 49.9348 81.6722 50.2103 80.3758 51.1881C80.303 51.2328 80.2509 51.3044 80.2307 51.3873C80.2105 51.4703 80.2238 51.5578 80.2677 51.631L80.3217 51.6364ZM75.4602 44.7708V49.4271C75.4616 49.6172 75.5377 49.7991 75.6721 49.9335C75.8066 50.068 75.9885 50.1441 76.1786 50.1455H76.8916C77.6211 50.1064 78.3054 49.7797 78.7944 49.237C79.2835 48.6943 79.5375 47.9798 79.5007 47.2502V46.9477C79.5375 46.218 79.2835 45.5036 78.7944 44.9609C78.3054 44.4182 77.6211 44.0914 76.8916 44.0523H76.1786C75.9894 44.0552 75.8089 44.1319 75.6756 44.2662C75.5424 44.4005 75.467 44.5816 75.4656 44.7708H75.4602ZM98.2178 52.263C98.1643 53.8594 98.2058 55.4575 98.342 57.049C98.3451 57.1544 98.379 57.2566 98.4394 57.343C98.4999 57.4294 98.5843 57.4961 98.6823 57.5351L99.606 57.9619C99.6586 57.9851 99.7013 58.0262 99.7264 58.078C99.7516 58.1297 99.7575 58.1887 99.7433 58.2445C99.729 58.3002 99.6955 58.3491 99.6486 58.3824C99.6017 58.4157 99.5445 58.4313 99.4872 58.4264C98.7093 58.3724 92.4649 58.2806 92.4109 58.1401C92.4075 58.1376 92.4048 58.1343 92.4029 58.1306C92.401 58.1268 92.4001 58.1227 92.4001 58.1185C92.4001 58.1143 92.401 58.1102 92.4029 58.1064C92.4048 58.1027 92.4075 58.0994 92.4109 58.0969L93.8801 57.2758C93.9699 57.2279 94.0455 57.1573 94.0995 57.071C94.1535 56.9848 94.1841 56.8859 94.1881 56.7843C94.4473 52.6019 94.4473 48.4075 94.1881 44.2252C94.1843 44.1503 94.1581 44.0783 94.1128 44.0185C94.0675 43.9588 94.0053 43.9141 93.9342 43.8903L92.2758 43.3501C92.2499 43.3422 92.2258 43.3291 92.2051 43.3116C92.1844 43.2941 92.1675 43.2726 92.1553 43.2483C92.1432 43.2241 92.1361 43.1976 92.1346 43.1705C92.133 43.1434 92.1369 43.1163 92.1462 43.0908C92.1599 43.0506 92.1851 43.0154 92.2187 42.9894C92.2524 42.9635 92.2929 42.948 92.3352 42.945C95.2162 42.8045 98.0971 42.7055 100.978 42.6479C105.877 42.5506 108.865 48.7249 103.598 51.0476C103.555 51.0653 103.515 51.0915 103.482 51.1245C103.449 51.1576 103.423 51.1969 103.406 51.2402C103.388 51.2834 103.379 51.3298 103.38 51.3765C103.38 51.4232 103.39 51.4693 103.409 51.5122C104.656 54.3105 106.824 56.5978 109.551 57.9943C109.594 58.0182 109.626 58.0583 109.64 58.1058C109.655 58.1532 109.649 58.2044 109.626 58.2481C109.612 58.2783 109.588 58.3036 109.56 58.3209C109.531 58.3381 109.498 58.3466 109.464 58.3454H104.711C104.61 58.3476 104.509 58.3286 104.416 58.2895C104.323 58.2504 104.24 58.1922 104.171 58.1185C102.374 56.1956 100.722 54.1428 99.2279 51.9767C98.5797 51.0332 98.2358 51.1322 98.1962 52.2738L98.2178 52.263ZM98.4608 44.976V49.2218C98.4608 49.4664 98.5572 49.7011 98.7291 49.875C98.901 50.0489 99.1346 50.1481 99.3791 50.1509H99.9841C100.34 50.1418 100.69 50.0626 101.015 49.9177C101.34 49.7728 101.633 49.5651 101.878 49.3066C102.122 49.0481 102.313 48.7439 102.439 48.4114C102.566 48.0789 102.626 47.7246 102.615 47.369V46.8288C102.627 46.4732 102.569 46.1187 102.444 45.7856C102.319 45.4525 102.129 45.1475 101.885 44.888C101.642 44.6285 101.35 44.4196 101.025 44.2734C100.701 44.1272 100.351 44.0466 99.9949 44.0361H99.3953C99.2722 44.0354 99.1502 44.0593 99.0364 44.1064C98.9226 44.1535 98.8195 44.2229 98.7329 44.3104C98.6463 44.398 98.5781 44.502 98.5324 44.6163C98.4866 44.7306 98.4641 44.8529 98.4662 44.976H98.4608ZM122.866 58.4048L116.254 58.3346C116.206 58.3347 116.159 58.3162 116.124 58.2831C116.089 58.2499 116.068 58.2046 116.065 58.1563C116.065 58.1174 116.077 58.0795 116.099 58.0476C116.121 58.0157 116.153 57.9914 116.189 57.9781C116.614 57.8563 116.985 57.5938 117.241 57.2336C117.498 56.8735 117.624 56.4369 117.599 55.9956C117.599 52.4521 117.599 48.9103 117.599 45.3704C117.599 44.0739 117.237 43.4365 115.979 43.1502C115.953 43.1439 115.929 43.1326 115.908 43.117C115.887 43.1013 115.869 43.0816 115.855 43.059C115.842 43.0364 115.833 43.0114 115.829 42.9853C115.825 42.9593 115.826 42.9327 115.833 42.9072C115.845 42.8643 115.87 42.8264 115.905 42.7991C115.94 42.7719 115.983 42.7567 116.027 42.7559H123.017C123.065 42.7573 123.112 42.7756 123.148 42.8076C123.184 42.8396 123.207 42.8833 123.214 42.9309C123.221 42.9786 123.211 43.0272 123.186 43.0683C123.161 43.1094 123.122 43.1403 123.077 43.1556C121.807 43.523 121.532 44.0145 121.532 45.3596C121.532 49.2488 121.532 53.1381 121.532 57.0274C121.535 57.096 121.556 57.1626 121.593 57.2205C121.63 57.2784 121.681 57.3254 121.742 57.3569L122.99 57.9511C123.047 57.977 123.092 58.0245 123.114 58.0832C123.136 58.1419 123.135 58.207 123.109 58.2644C123.09 58.3082 123.058 58.3453 123.018 58.3704C122.977 58.3955 122.93 58.4076 122.882 58.4048H122.866ZM153.786 58.4048C153.723 58.4049 153.663 58.3807 153.617 58.3375C153.572 58.2942 153.545 58.2351 153.543 58.1725C153.541 58.1171 153.56 58.063 153.594 58.0196C153.629 57.9761 153.677 57.9462 153.732 57.9349C154.812 57.7134 155.271 57.0652 155.271 55.9308C155.271 52.2144 155.228 48.5052 155.141 44.8032C155.163 44.4072 155.031 44.0181 154.774 43.7164C154.517 43.4148 154.153 43.2237 153.759 43.1827C153.701 43.1698 153.651 43.1346 153.62 43.085C153.589 43.0354 153.578 42.9753 153.591 42.918C153.602 42.8698 153.629 42.8266 153.667 42.7953C153.705 42.764 153.752 42.7463 153.802 42.7451H160.505C160.541 42.7462 160.575 42.7588 160.602 42.7809C160.63 42.8031 160.649 42.8336 160.658 42.8678C160.666 42.902 160.663 42.9381 160.649 42.9705C160.636 43.003 160.612 43.03 160.581 43.0476L159.349 43.7066C159.284 43.7388 159.228 43.7887 159.189 43.8507C159.15 43.9127 159.129 43.9844 159.128 44.0577C158.89 48.1179 158.879 52.1882 159.096 56.2495C159.095 56.3865 159.147 56.5184 159.24 56.6187C159.333 56.719 159.461 56.7801 159.598 56.7897C163.051 57.3407 165.689 56.2207 167.512 53.4298C167.55 53.3712 167.61 53.33 167.679 53.3148C167.747 53.2997 167.819 53.3119 167.879 53.3488C167.929 53.3826 167.967 53.4325 167.985 53.4903C168.004 53.5481 168.003 53.6105 167.981 53.6675L166.431 57.9889C166.406 58.0565 166.361 58.1151 166.302 58.1574C166.244 58.1997 166.174 58.2237 166.102 58.2266L153.786 58.3994V58.4048Z" fill="black"/>
<path d="M65.915 70.8829C59.6058 73.6107 59.1358 63.5797 65.5261 65.6864C65.6767 65.734 65.8031 65.8387 65.8776 65.9781C66.0626 66.308 66.1593 66.6801 66.1585 67.0584C66.1576 67.1037 66.1421 67.1476 66.1143 67.1834C66.0865 67.2192 66.0479 67.2451 66.0042 67.2572C65.9605 67.2694 65.9141 67.2671 65.8718 67.2507C65.8295 67.2344 65.7937 67.2048 65.7695 67.1665L65.2996 66.3832C65.2519 66.3028 65.1886 66.2327 65.1135 66.177C65.0384 66.1214 64.9529 66.0813 64.862 66.0591C61.7236 65.2596 60.7837 70.0186 64.203 70.9207C64.3787 70.9691 64.565 70.9621 64.7366 70.9007C64.9082 70.8393 65.0566 70.7265 65.1617 70.5777C65.2669 70.4288 65.3236 70.2512 65.3241 70.069C65.3246 69.8868 65.2689 69.7088 65.1645 69.5594L64.7756 69.0193C64.6406 68.8194 64.6946 68.7168 64.9377 68.7168H66.461C66.677 68.7168 66.7527 68.8194 66.6878 69.0247L66.2179 70.575C66.1953 70.6503 66.1565 70.7198 66.1042 70.7786C66.052 70.8373 65.9875 70.884 65.9154 70.9153L65.915 70.8829ZM71.7655 66.1293H70.2962C70.2529 66.1243 70.209 66.129 70.1677 66.1431C70.1265 66.1573 70.0889 66.1805 70.0578 66.2111C70.0267 66.2416 70.0029 66.2788 69.9881 66.3198C69.9732 66.3608 69.9678 66.4046 69.9721 66.448V70.1104C69.9714 70.2019 69.9887 70.2927 70.0231 70.3775C70.0574 70.4623 70.1082 70.5395 70.1724 70.6047C70.2366 70.6699 70.313 70.7219 70.3973 70.7575C70.4815 70.7932 70.572 70.8119 70.6635 70.8126C71.1715 70.8188 71.673 70.6993 72.1236 70.4646C72.5741 70.2299 72.9595 69.8874 73.2456 69.4676C73.2567 69.454 73.2707 69.4431 73.2866 69.4356C73.3025 69.4281 73.3198 69.4242 73.3374 69.4242C73.3549 69.4242 73.3723 69.4281 73.3882 69.4356C73.4041 69.4431 73.4181 69.454 73.4292 69.4676C73.4533 69.4953 73.4695 69.529 73.4762 69.5651C73.4828 69.6012 73.4797 69.6384 73.467 69.6729L72.9539 70.8775C72.9177 70.9576 72.8592 71.0256 72.7855 71.0735C72.7118 71.1214 72.6259 71.1471 72.5379 71.1476H68.5676C68.3894 71.1476 68.3246 71.0611 68.3786 70.8883C68.8978 69.2849 68.9072 67.56 68.4056 65.9511C68.3138 65.6432 68.4056 65.5189 68.7405 65.5891C69.8655 65.8485 71.0348 65.8485 72.1598 65.5891C72.2368 65.5707 72.3167 65.5677 72.3948 65.5803C72.4729 65.5929 72.5478 65.6209 72.6151 65.6625C72.6824 65.7042 72.7408 65.7588 72.7869 65.8232C72.833 65.8875 72.8659 65.9604 72.8836 66.0375C72.8889 66.0824 72.8889 66.1277 72.8836 66.1725V66.7127C72.8836 66.9126 72.7864 66.9936 72.592 66.9612C72.4768 66.9451 72.3699 66.8922 72.2871 66.8105C72.2044 66.7287 72.1503 66.6224 72.1328 66.5074C72.1163 66.4164 72.0683 66.334 71.9972 66.2747C71.9261 66.2155 71.8364 66.1831 71.7439 66.1833L71.7655 66.1293ZM79.1011 66.1725L78.8256 65.897C78.6689 65.735 78.7013 65.6486 78.9282 65.6378L80.1922 65.5567C80.2421 65.5537 80.2912 65.5699 80.3295 65.6021C80.3677 65.6343 80.392 65.6799 80.3975 65.7296C80.3985 65.7588 80.3932 65.7879 80.382 65.8149C80.3708 65.8419 80.354 65.8663 80.3327 65.8862C79.6466 66.5183 79.8573 69.9322 79.9221 70.7478C79.9258 70.7954 79.9201 70.8432 79.9052 70.8885C79.8903 70.9338 79.8667 70.9758 79.8355 71.0119C79.8044 71.0481 79.7665 71.0777 79.7238 71.0991C79.6812 71.1205 79.6348 71.1333 79.5872 71.1368C79.5289 71.1399 79.4707 71.1294 79.4172 71.1059C79.3637 71.0825 79.3165 71.0468 79.2793 71.0017L76.1841 67.1665C76.1636 67.1408 76.1383 67.1194 76.1095 67.1036C76.0807 67.0878 76.0491 67.0778 76.0165 67.0743C75.9838 67.0708 75.9508 67.0738 75.9193 67.0831C75.8878 67.0925 75.8585 67.1079 75.833 67.1286C75.8038 67.1518 75.7803 67.1815 75.7644 67.2152C75.7485 67.2489 75.7405 67.2858 75.7412 67.3231V70.024C75.7416 70.1097 75.7624 70.1941 75.8018 70.2701C75.8413 70.3462 75.8982 70.4118 75.9681 70.4615L76.5082 70.8613C76.7513 71.0395 76.7243 71.1259 76.4218 71.1259H74.7635C74.461 71.1259 74.4177 71.0179 74.6338 70.8072L75.1254 70.3103C75.1749 70.2647 75.2147 70.2097 75.2426 70.1485C75.2704 70.0872 75.2857 70.021 75.2874 69.9538L75.4333 66.8045C75.4387 66.7294 75.4247 66.6541 75.3925 66.5859C75.3604 66.5178 75.3111 66.4591 75.2496 66.4156L74.623 65.9565C74.4285 65.8106 74.4502 65.7188 74.6932 65.6756C75.1776 65.595 75.6739 65.6227 76.1463 65.7566C76.323 65.8036 76.4801 65.9058 76.5946 66.0483L79.0632 69.0247C79.2631 69.2677 79.3874 69.2353 79.4306 68.922C79.5378 68.184 79.5177 67.4331 79.3712 66.7019C79.337 66.4967 79.2387 66.3075 79.0903 66.1617L79.1011 66.1725ZM81.9208 65.8808C81.8869 65.8961 81.8485 65.8979 81.8134 65.8859C81.7783 65.8739 81.7491 65.8489 81.7317 65.816C81.7146 65.7988 81.7049 65.7755 81.7049 65.7512C81.7049 65.7269 81.7146 65.7036 81.7317 65.6864C81.7475 65.681 81.7646 65.681 81.7803 65.6864L86.0369 65.6053C86.1364 65.5955 86.236 65.6234 86.316 65.6834C86.396 65.7434 86.4506 65.8312 86.4691 65.9295L86.6851 66.7127C86.7016 66.7765 86.692 66.8441 86.6586 66.9008C86.6252 66.9576 86.5706 66.9987 86.5069 67.0152C86.4581 67.0263 86.4071 67.023 86.3602 67.0057C86.3132 66.9885 86.2722 66.958 86.2422 66.918C85.9946 66.5321 85.6288 66.2367 85.1994 66.0761C84.77 65.9154 84.3001 65.8981 83.86 66.0267C83.7812 66.0362 83.7091 66.0758 83.6588 66.1372C83.6085 66.1986 83.5838 66.277 83.5899 66.3562V70.3589C83.5823 70.4389 83.6063 70.5188 83.6568 70.5814C83.7072 70.6439 83.7802 70.6843 83.86 70.6938C84.4098 70.8428 84.9929 70.8108 85.5231 70.6026C86.0534 70.3945 86.5025 70.0211 86.804 69.5378C86.836 69.4895 86.8825 69.4525 86.9368 69.4321C86.9912 69.4118 87.0505 69.409 87.1065 69.4244C87.1281 69.4306 87.148 69.4416 87.1649 69.4565C87.1817 69.4714 87.195 69.4899 87.2038 69.5106C87.2126 69.5313 87.2167 69.5537 87.2157 69.5761C87.2148 69.5986 87.2088 69.6206 87.1983 69.6405L86.7067 70.7964C86.6706 70.8992 86.6021 70.9874 86.5115 71.0478C86.4209 71.1082 86.3131 71.1375 86.2044 71.1313H82.099C81.991 71.1313 81.9586 71.0827 82.0072 70.9855C82.4179 70.1969 82.6242 69.3179 82.6072 68.4289C82.5902 67.5399 82.3505 66.6694 81.91 65.897L81.9208 65.8808ZM91.2766 69.2623C91.6962 68.7931 92.0098 68.2391 92.1962 67.6379C92.3826 67.0367 92.4374 66.4025 92.357 65.7782C92.354 65.7541 92.3558 65.7296 92.3623 65.7061C92.3689 65.6827 92.38 65.6608 92.3951 65.6417C92.4102 65.6226 92.4289 65.6067 92.4502 65.5949C92.4714 65.5831 92.4948 65.5756 92.519 65.5729H93.3023C93.4643 65.5729 93.513 65.6486 93.4481 65.7998L91.1632 70.8234C91.1163 70.9201 91.0342 70.9951 90.9338 71.0333C90.8334 71.0714 90.7222 71.0698 90.623 71.0287C90.5725 71.0048 90.5274 70.9709 90.4902 70.9292C90.4531 70.8874 90.4248 70.8386 90.4069 70.7856C89.839 69.0598 89.0817 67.4022 88.149 65.843C88.1004 65.762 88.122 65.7242 88.2138 65.7188L90.0342 65.6378C90.3043 65.6378 90.3637 65.735 90.2125 65.9565L89.9694 66.3076C89.9293 66.3633 89.9047 66.4286 89.8981 66.4969C89.8915 66.5653 89.903 66.6341 89.9316 66.6965L90.9849 69.1975C91.0606 69.3776 91.1632 69.3938 91.2928 69.2461L91.2766 69.2623ZM94.885 65.8808C94.8166 65.9169 94.7571 65.8952 94.7067 65.816C94.6311 65.7026 94.6581 65.6486 94.7932 65.6486L99.0011 65.6053C99.0927 65.6027 99.1826 65.6304 99.2569 65.6842C99.3311 65.7379 99.3855 65.8146 99.4117 65.9025L99.6331 66.6209C99.6533 66.6968 99.6432 66.7775 99.6048 66.8461C99.5665 66.9146 99.5031 66.9656 99.4279 66.9882C99.3669 67.0045 99.3023 67.0013 99.2432 66.979C99.1841 66.9567 99.1334 66.9165 99.0984 66.864C98.8806 66.4768 98.5325 66.1796 98.116 66.0253C97.6995 65.8709 97.2417 65.8695 96.8242 66.0213C96.7471 66.0378 96.6783 66.0809 96.6298 66.1432C96.5814 66.2055 96.5565 66.2828 96.5595 66.3616V70.3265C96.552 70.4102 96.5779 70.4935 96.6315 70.5583C96.6851 70.6231 96.7622 70.664 96.8458 70.6722C97.4047 70.8286 97.9997 70.7959 98.538 70.579C99.0764 70.3621 99.5279 69.9732 99.8222 69.473C99.8493 69.4358 99.8897 69.4106 99.9351 69.4025C99.9804 69.3945 100.027 69.4042 100.065 69.4298C100.09 69.4487 100.109 69.4735 100.121 69.5018C100.133 69.5301 100.138 69.5611 100.136 69.5918C100.063 70.0929 99.8428 70.5611 99.5035 70.9369C99.4524 70.9935 99.3899 71.0387 99.32 71.0694C99.2502 71.1001 99.1747 71.1157 99.0984 71.1151H95.0687C94.912 71.1151 94.8634 71.0449 94.9336 70.8991C95.3365 70.1228 95.5437 69.2598 95.5371 68.3853C95.5305 67.5107 95.3103 66.651 94.8958 65.8808H94.885Z" fill="black"/>
<path d="M97.4675 68.2792C96.9922 68.0901 97.8997 67.3717 98.0077 67.3177C98.2724 67.2097 98.4021 67.3177 98.4021 67.577V68.8194C98.4021 68.8824 98.377 68.9429 98.3324 68.9875C98.2879 69.032 98.2274 69.0571 98.1644 69.0571C98.1073 69.0589 98.0515 69.0397 98.0077 69.003C97.8282 68.861 97.6887 68.6749 97.6026 68.4629C97.5877 68.4265 97.5656 68.3934 97.5378 68.3656C97.51 68.3378 97.4769 68.3158 97.4405 68.3008L97.4675 68.2792ZM71.4203 67.3501H71.5931C71.6201 67.3463 71.6476 67.3479 71.674 67.3549C71.7003 67.3618 71.725 67.3739 71.7467 67.3905C71.7683 67.4071 71.7864 67.4279 71.7999 67.4515C71.8134 67.4752 71.8221 67.5013 71.8254 67.5284V68.8194C71.8262 68.8465 71.8213 68.8736 71.8113 68.8988C71.8012 68.924 71.7861 68.947 71.7669 68.9662C71.7477 68.9854 71.7248 69.0005 71.6996 69.0105C71.6743 69.0206 71.6473 69.0254 71.6201 69.0247C71.564 69.0247 71.51 69.0035 71.4689 68.9652L70.7072 68.2036C70.6805 68.1846 70.6587 68.1595 70.6436 68.1304C70.6286 68.1013 70.6207 68.0689 70.6207 68.0361C70.6207 68.0033 70.6286 67.971 70.6436 67.9419C70.6587 67.9127 70.6805 67.8876 70.7072 67.8687L70.9935 67.5824C71.1042 67.4574 71.2552 67.3752 71.4203 67.3501ZM85.4216 68.9706C85.3406 69.1273 85.2434 69.1327 85.1299 68.9976L84.5357 68.2738C84.5013 68.2411 84.4745 68.2012 84.4571 68.1569C84.4398 68.1127 84.4325 68.0652 84.4355 68.0177C84.4386 67.9703 84.4521 67.9242 84.475 67.8825C84.498 67.8409 84.5297 67.8048 84.5682 67.7768L85.0057 67.3771C85.0633 67.3204 85.1409 67.2886 85.2218 67.2886C85.3026 67.2886 85.3802 67.3204 85.4378 67.3771C85.4644 67.4028 85.4847 67.4342 85.4973 67.4689C85.5991 67.7049 85.6452 67.9611 85.6321 68.2178C85.619 68.4745 85.547 68.7247 85.4216 68.949V68.9706Z" fill="black"/>
</g>
<defs>
<clipPath id="clip0_950_159">
<rect width="168" height="72" fill="white" transform="translate(0 0.00146484)"/>
</clipPath>
</defs>
</svg>
