<svg width="168" height="20" viewBox="0 0 168 20" fill="none" xmlns="http://www.w3.org/2000/svg">
<g clip-path="url(#clip0_697_535)">
<path d="M127.743 0.852354H127.44C125.86 0.852354 124.39 1.2473 123.022 2.02801C122.728 2.19334 122.471 2.35867 122.241 2.524C122.177 2.56992 122.113 2.61584 122.057 2.66177C121.157 3.32308 120.404 4.13134 119.807 5.08657L119.789 5.12331L119.743 5.20597V14.9786L119.789 15.0613L119.807 15.098C119.972 15.3736 120.165 15.64 120.377 15.9063C120.79 16.4207 121.249 16.8891 121.773 17.2932C121.865 17.3667 121.956 17.4402 122.057 17.5137C122.305 17.6974 122.581 17.8811 122.893 18.0648C124.299 18.8914 125.814 19.3139 127.449 19.3139H127.752C130.186 19.3139 132.032 18.3311 133.144 17.5137C133.401 17.3208 133.658 17.1187 133.897 16.8983C134.484 16.3656 134.99 15.7685 135.403 15.0889L135.467 14.9786V5.1876L135.431 5.12331L135.403 5.0682C134.99 4.3977 134.484 3.7915 133.897 3.25878C133.658 3.03835 133.401 2.83628 133.144 2.6434C133.079 2.59747 133.024 2.55155 132.96 2.50563C132.703 2.33111 132.445 2.16579 132.179 2.00964C130.811 1.22893 129.332 0.833984 127.752 0.833984M127.743 3.95683C128.762 3.95683 129.754 4.21401 130.673 4.73754C130.847 4.83858 131.031 4.94879 131.206 5.0682C131.251 5.09575 131.288 5.13249 131.334 5.16005C131.509 5.28863 131.674 5.42641 131.839 5.57336C132.032 5.74788 132.216 5.94994 132.39 6.16119V13.9775C132.078 14.3541 131.72 14.6847 131.334 14.9695C130.59 15.5206 129.35 16.1819 127.743 16.1819H127.44C126.356 16.1819 125.355 15.9063 124.418 15.346C124.225 15.2266 124.032 15.1072 123.848 14.9695C123.784 14.9235 123.72 14.8684 123.656 14.8225C123.334 14.5745 123.04 14.2898 122.783 13.9683V6.17038C123.095 5.7938 123.444 5.46315 123.839 5.16923C123.876 5.14168 123.922 5.10494 123.968 5.07738C124.142 4.95798 124.317 4.84776 124.501 4.73754C125.41 4.21401 126.383 3.95683 127.431 3.95683H127.734H127.743ZM164.739 18.625V11.4333H156.445V18.6158H153.185V1.23812H156.445V8.48496H164.739V1.23812H168V18.625H164.739ZM137.222 1.22893H151.072V4.26912H145.782V18.6158H142.521V4.2783H137.231V1.22893H137.222ZM106.7 4.01194V9.3116H110.365C112.597 9.3116 113.773 8.43904 113.773 6.5837C113.773 4.72836 112.882 4.00276 110.429 4.00276H106.71L106.7 4.01194ZM109.906 12.0946H106.7V18.6158H103.44V1.22893H110.65C114.939 1.22893 116.969 3.05672 116.969 6.50103C116.969 9.22893 115.6 11.02 113.194 11.7456L117.97 18.2944V18.6158H114.168L109.906 12.0946ZM82.6177 16.1451H90.884V19.2588H79.1366V0.925833H82.6177V16.1451ZM62.6866 0.925833H75.9036V3.94765H66.1676V8.46659H74.9851V11.4608H66.1676V16.2278H75.876V19.2496H62.6866V0.925833ZM55.5132 19.2588V0.925833H58.9943V19.2588H55.5132ZM42.5442 10.9189C41.5339 9.05442 40.2572 6.17956 39.3387 3.98439L38.7876 4.04868C38.9713 6.7031 39.1274 10.5607 39.1274 12.9763V19.268H35.8576V0.925833H40.8358L44.868 8.10838C46.209 10.4964 47.5867 13.5825 48.4041 15.6859L48.9552 15.6583C48.7715 13.059 48.6246 9.69736 48.6246 7.28174V0.925833H51.8301V19.2588H47.2468L42.5442 10.9098V10.9189ZM21.9701 11.9844H27.9495L27.1871 9.72491C26.535 7.81447 25.9288 5.88565 25.3502 3.94765H24.5878C24 5.88565 23.3846 7.80528 22.7233 9.72491L21.961 11.9844H21.9701ZM28.8772 14.5837H21.0609L19.4719 19.2588H15.8714L22.6774 0.925833H27.38L34.186 19.2588H30.4661L28.8772 14.5837ZM3.48106 3.82824V16.3931H7.17336C11.4811 16.3931 13.1894 14.0693 13.1894 9.94535C13.1894 5.82136 11.3892 3.83743 6.98967 3.83743H3.47187L3.48106 3.82824ZM0 0.925833H7.44891C13.7681 0.925833 16.6705 4.13134 16.6705 9.94535C16.6705 15.7594 13.1894 19.268 7.44891 19.268H0V0.925833Z" fill="black"/>
</g>
<defs>
<clipPath id="clip0_697_535">
<rect width="168" height="18.4799" fill="white" transform="translate(0 0.833984)"/>
</clipPath>
</defs>
</svg>
