<svg width="168" height="74" viewBox="0 0 168 74" fill="none" xmlns="http://www.w3.org/2000/svg">
<g clip-path="url(#clip0_678_1878)">
<path d="M133.304 55.1847H34.5147V59.8726H133.304V55.1847Z" fill="#221815"/>
<path d="M64.8541 46.6515C64.9051 46.0912 65.125 45.5595 65.4848 45.1268C65.8446 44.6941 66.3272 44.3809 66.8689 44.2285C65.9603 43.7545 65.2755 43.1487 65.2755 42.2138C65.2755 41.2788 66.0129 40.2385 67.9092 40.2385C69.226 40.2385 70.161 40.8443 70.161 41.9109C70.1269 42.3709 69.9556 42.8101 69.6692 43.1716C69.3827 43.5331 68.9944 43.8004 68.5545 43.9388C69.3314 44.3602 70.5429 45.0318 70.5429 46.3882C70.5183 46.7404 70.423 47.0842 70.2629 47.3989C70.1027 47.7136 69.8809 47.9929 69.6106 48.2202C69.3404 48.4475 69.0271 48.6181 68.6896 48.7219C68.3521 48.8257 67.9971 48.8605 67.6458 48.8243C66.0129 48.8243 64.8936 48.0342 64.8936 46.6779M67.7248 48.3239C67.9381 48.3244 68.1491 48.281 68.3449 48.1964C68.5406 48.1118 68.7168 47.9879 68.8626 47.8322C69.0083 47.6766 69.1205 47.4926 69.1921 47.2917C69.2637 47.0909 69.2932 46.8774 69.2787 46.6647C69.2787 45.5717 68.3964 45.0582 67.422 44.4919C67.028 44.6891 66.6963 44.9916 66.4639 45.3658C66.2314 45.7401 66.1072 46.1715 66.1051 46.612C66.0945 46.8297 66.1276 47.0474 66.2024 47.2521C66.2773 47.4568 66.3923 47.6444 66.5408 47.804C66.6893 47.9635 66.8683 48.0917 67.0671 48.181C67.2659 48.2703 67.4806 48.3189 67.6985 48.3239M67.6985 40.7126C67.5226 40.7009 67.3462 40.727 67.1811 40.7891C67.0161 40.8512 66.8662 40.9478 66.7415 41.0724C66.6168 41.1971 66.5202 41.347 66.4582 41.512C66.3961 41.6771 66.37 41.8535 66.3817 42.0294C66.3817 42.701 66.8557 43.1487 67.8434 43.715C68.174 43.578 68.4548 43.343 68.6478 43.0417C68.8409 42.7403 68.937 42.3871 68.9232 42.0294C68.9399 41.8613 68.9209 41.6915 68.8674 41.5312C68.8138 41.3709 68.727 41.2238 68.6126 41.0994C68.4982 40.9751 68.3588 40.8763 68.2035 40.8096C68.0482 40.743 67.8806 40.7099 67.7117 40.7126" fill="#221815"/>
<path d="M35.5532 45.1108C35.5532 44.0574 35.5532 43.794 35.5532 43.6492C35.5568 43.557 35.5245 43.467 35.4631 43.3982C35.4017 43.3294 35.3159 43.2872 35.224 43.2804C35.1058 43.2674 34.9866 43.2674 34.8684 43.2804C34.7762 43.2804 34.7236 43.2804 34.7236 43.1883C34.7236 43.0961 34.7236 43.1883 34.9474 43.1883H37.4758C37.6074 43.1883 37.6733 43.1883 37.6733 43.1883C37.6733 43.1883 37.6733 43.2804 37.5284 43.2804H37.2387C36.9754 43.2804 36.8963 43.4121 36.8832 43.6623C36.8577 44.1492 36.8577 44.6371 36.8832 45.124V46.3487C36.8577 46.8488 36.8577 47.3498 36.8832 47.8499C36.8832 48.0342 36.9885 48.1396 37.2782 48.1791H37.7655C37.8708 48.1791 37.9235 48.1791 37.9235 48.1791C37.9235 48.1791 37.8445 48.2581 37.726 48.2581H34.8552C34.7367 48.2581 34.6709 48.2581 34.6709 48.1791C34.6709 48.1001 34.6709 48.1791 34.8289 48.1791H35.2635C35.461 48.1791 35.5137 48.0474 35.54 47.8499C35.5739 47.3501 35.5739 46.8485 35.54 46.3487L35.5532 45.1108Z" fill="#221815"/>
<path d="M96.5528 46.5594C96.5986 45.9943 96.8162 45.4568 97.1764 45.019C97.5365 44.5812 98.022 44.264 98.5676 44.11C97.6589 43.636 96.9742 43.0302 96.9742 42.0953C96.9742 41.1603 97.7116 40.12 99.6079 40.12C100.925 40.12 101.846 40.7258 101.846 41.7924C101.812 42.2524 101.641 42.6916 101.355 43.0531C101.068 43.4146 100.68 43.6819 100.24 43.8203C101.017 44.2417 102.228 44.9133 102.228 46.2697C102.204 46.6219 102.109 46.9657 101.948 47.2804C101.788 47.5951 101.566 47.8744 101.296 48.1017C101.026 48.329 100.713 48.4996 100.375 48.6034C100.038 48.7072 99.6826 48.742 99.3313 48.7058C97.7116 48.7058 96.5791 47.9157 96.5791 46.5594M99.384 48.1791C99.5978 48.1815 99.8098 48.1395 100.006 48.0556C100.203 47.9716 100.38 47.8477 100.526 47.6916C100.672 47.5356 100.785 47.3508 100.855 47.1491C100.926 46.9473 100.954 46.733 100.938 46.5199C100.938 45.4269 100.056 44.9133 99.0811 44.3471C98.6871 44.5442 98.3555 44.8467 98.123 45.221C97.8906 45.5952 97.7664 46.0266 97.7643 46.4672C97.7537 46.6849 97.7868 46.9025 97.8616 47.1072C97.9364 47.3119 98.0515 47.4996 98.2 47.6591C98.3485 47.8187 98.5274 47.9469 98.7262 48.0362C98.9251 48.1255 99.1398 48.1741 99.3577 48.1791M99.4235 40.5677C99.2476 40.5561 99.0712 40.5822 98.9061 40.6442C98.7411 40.7063 98.5912 40.8029 98.4665 40.9276C98.3418 41.0523 98.2452 41.2022 98.1832 41.3672C98.1211 41.5322 98.095 41.7086 98.1067 41.8846C98.1067 42.5562 98.5807 43.0039 99.5684 43.5701C99.8991 43.4371 100.18 43.2049 100.374 42.9054C100.567 42.6059 100.663 42.2539 100.648 41.8978C100.665 41.7296 100.646 41.5598 100.592 41.3995C100.539 41.2393 100.452 41.0921 100.338 40.9678C100.223 40.8434 100.084 40.7446 99.9285 40.678C99.7732 40.6113 99.6056 40.5782 99.4367 40.5809" fill="#221815"/>
<path d="M133.503 46.5725C132.819 49.5618 129.764 50.8391 128.236 51.1551H128.039C128.014 51.1438 127.995 51.1247 127.983 51.1008C127.971 51.0769 127.967 51.0496 127.973 51.0235C127.973 50.9445 128.078 50.9049 128.144 50.8654C129.109 50.5371 129.976 49.9721 130.666 49.2222C131.356 48.4722 131.847 47.5612 132.094 46.5725C132.542 44.6763 131.936 43.6623 131.107 43.4648C130.277 43.2673 129.671 43.8598 129.461 44.7816C129.079 46.4145 130.053 47.0466 130.409 47.1256C130.656 47.1816 130.912 47.1816 131.16 47.1256C131.304 47.1256 131.37 47.0466 131.41 47.1256C131.424 47.1422 131.431 47.1632 131.431 47.1849C131.431 47.2065 131.424 47.2275 131.41 47.2441L131.331 47.3495C130.861 47.5976 130.314 47.6543 129.803 47.5075C129.518 47.4595 129.247 47.3535 129.005 47.196C128.763 47.0386 128.556 46.8331 128.396 46.5924C128.237 46.3516 128.129 46.0806 128.079 45.7963C128.028 45.512 128.037 45.2204 128.104 44.9396C128.183 44.5912 128.335 44.2632 128.548 43.9769C128.762 43.6905 129.033 43.4522 129.345 43.2772C129.656 43.1022 130.001 42.9945 130.357 42.961C130.712 42.9276 131.071 42.9691 131.41 43.0829C131.786 43.1613 132.141 43.3187 132.452 43.5446C132.762 43.7706 133.022 44.06 133.212 44.3936C133.403 44.7273 133.52 45.0976 133.557 45.48C133.593 45.8625 133.548 46.2483 133.424 46.612" fill="#221815"/>
<path d="M33.7638 8.85825C30.103 1.37859 22.1361 0.957198 20.6876 0.957198H0V32.9038H21.8464C21.8464 32.9038 28.4306 32.9038 32.1178 27.8339C34.1308 25.1375 35.3513 21.9328 35.6421 18.5804C35.9329 15.2281 35.2824 11.861 33.7638 8.85825ZM26.4422 16.8778C26.4422 18.8399 26.4422 21.4209 24.7698 23.3303C24.3574 23.9918 23.7702 24.5264 23.073 24.875C22.3758 25.2236 21.5958 25.3726 20.8193 25.3056H9.78413V8.85825H20.1345C20.9773 8.85825 22.3995 8.85825 24.5196 10.9125C26.6397 12.9668 26.4422 16.1799 26.4422 16.8778Z" fill="#221815"/>
<path d="M73.0181 3.5908C70.1238 1.67913 66.7538 0.61206 63.2867 0.509392C59.815 0.263146 56.3261 0.475672 52.91 1.14148C50.2668 1.58938 47.8028 2.77119 45.799 4.55209C44.2676 5.95914 43.0352 7.66024 42.1755 9.55391C41.3158 11.4476 40.8463 13.495 40.795 15.5741C40.795 21.3287 41.6115 26.675 46.6813 30.3754C51.7511 34.0757 59.639 33.7991 59.639 33.7991C59.639 33.7991 68.1327 34.4181 73.4 30.4412C78.6674 26.4643 79.3653 21.8027 79.3653 16.1271C79.4108 13.6754 78.8533 11.25 77.742 9.06409C76.6307 6.87819 74.9995 4.99871 72.9918 3.5908M69.5943 20.5254C69.2879 21.5874 68.7565 22.571 68.0362 23.4094C67.3159 24.2479 66.4236 24.9215 65.42 25.3845C63.2077 26.2405 57.9535 27.0964 54.1873 24.9763C53.081 24.3178 52.1523 23.3989 51.4821 22.2995C50.812 21.2002 50.4206 19.9537 50.3421 18.6686C49.9997 14.1519 51.3693 11.7552 52.7388 10.3857C53.9146 9.20897 55.4214 8.41883 57.058 8.12074C58.8515 7.81974 60.6796 7.78424 62.4834 8.01539C64.0959 8.12806 65.6415 8.70423 66.9343 9.67461C68.413 10.885 69.4083 12.5859 69.7392 14.4679C70.213 16.4659 70.1631 18.5523 69.5943 20.5254Z" fill="#221815"/>
<path d="M83.9881 1.04928H95.4183L104.399 10.9783L113.024 0.98344H123.243L110.22 16.2588L123.717 33.1802H112.761L103.438 21.5393L93.3772 33.1802H82.9609L97.5516 16.193L83.9881 1.04928Z" fill="#221815"/>
<path d="M151.144 1.04935H143.243L125.295 33.1144H134.513L137.054 28.0446H155.095L157.729 33.1144H168L151.144 1.04935ZM139.846 22.9089L146.351 10.9783L152.461 22.9089H139.846Z" fill="#221815"/>
<path d="M40.0338 69.6304C39.4035 69.4387 38.7613 69.2891 38.1112 69.1827C37.5081 69.1131 36.9207 68.944 36.373 68.6823C36.2684 68.6131 36.1825 68.5193 36.1228 68.409C36.0631 68.2988 36.0314 68.1755 36.0306 68.0502C36.0388 67.8933 36.0882 67.7414 36.1737 67.6097C36.2592 67.4779 36.3779 67.371 36.5178 67.2996C36.9828 67.0537 37.5077 66.9441 38.0322 66.9835C38.5635 66.9511 39.0931 67.0698 39.5597 67.3259C39.7319 67.4389 39.8753 67.5906 39.9782 67.769C40.0811 67.9474 40.1407 68.1474 40.1523 68.3531L41.2584 68.274C41.2416 67.8631 41.0887 67.4694 40.8239 67.1547C40.5247 66.8027 40.1321 66.5425 39.6914 66.4041C39.137 66.2333 38.5596 66.1489 37.9795 66.1539C37.4379 66.1438 36.8986 66.2285 36.3861 66.4041C35.9584 66.5264 35.5745 66.7686 35.28 67.1021C35.0419 67.3863 34.9114 67.7452 34.9113 68.116C34.9132 68.4353 35.0195 68.7452 35.2141 68.9983C35.4725 69.291 35.7978 69.5168 36.1623 69.6567C36.7105 69.8499 37.2745 69.9953 37.8478 70.0913C38.6379 70.2493 39.1515 70.3678 39.3885 70.4468C39.6788 70.5125 39.9467 70.6533 40.1655 70.8551C40.3191 71.0139 40.4042 71.2267 40.4025 71.4476C40.3974 71.6736 40.3082 71.8896 40.1523 72.0534C39.9507 72.2628 39.6957 72.4131 39.4149 72.4879C39.0386 72.5978 38.648 72.6511 38.256 72.646C37.8081 72.6538 37.3623 72.5825 36.9392 72.4353C36.6015 72.332 36.2971 72.1412 36.0569 71.8822C35.8609 71.6306 35.7379 71.3299 35.7014 71.0131H34.6084C34.6085 71.4938 34.7761 71.9594 35.0825 72.3299C35.426 72.7376 35.8852 73.0315 36.3993 73.1727C37.0426 73.3725 37.7143 73.4659 38.3877 73.4492C38.9573 73.4583 39.5238 73.3646 40.0601 73.1727C40.5108 73.0335 40.9097 72.763 41.2058 72.3958C41.458 72.0973 41.5978 71.7199 41.6008 71.3291C41.6035 70.9641 41.4777 70.6098 41.2453 70.3283C40.9368 69.993 40.5466 69.7434 40.1128 69.604M53.5841 70.8156C53.3866 71.395 53.2417 71.8954 53.1364 72.3431C52.9717 71.4916 52.7383 70.6549 52.4384 69.8411L51.2006 66.2461H49.7521L48.0928 71.0394C48.0928 71.1579 47.9217 71.5925 47.6846 72.3563C47.5661 71.8822 47.4476 71.395 47.3027 70.9077L45.9859 66.2593H44.8007L47.1184 73.3439H48.3167L50.1471 67.958C50.2261 67.721 50.3183 67.4444 50.4368 67.1152C50.4368 67.2206 50.529 67.4971 50.7134 67.9448L52.5306 73.3439H53.7158L56.0597 66.2593H54.8746L53.5841 70.8156ZM59.8127 73.3307H60.9584V66.2461H59.8127V73.3307ZM70.5055 69.604C69.8753 69.4124 69.233 69.2628 68.5829 69.1563C67.9798 69.0868 67.3924 68.9177 66.8447 68.6559C66.7401 68.5868 66.6542 68.4929 66.5945 68.3827C66.5348 68.2724 66.5031 68.1492 66.5023 68.0238C66.5093 67.8683 66.5566 67.7173 66.6398 67.5857C66.7229 67.454 66.8389 67.3464 66.9764 67.2732C67.4565 67.0566 67.9772 66.9445 68.5039 66.9445C69.0306 66.9445 69.5513 67.0566 70.0314 67.2732C70.1983 67.3917 70.3376 67.5448 70.4399 67.7221C70.5422 67.8994 70.6049 68.0966 70.624 68.3004L71.7302 68.2214C71.7076 67.8116 71.5554 67.4197 71.2956 67.1021C70.9964 66.7501 70.6038 66.4899 70.1631 66.3515C69.6087 66.1807 69.0313 66.0963 68.4512 66.1013C67.9053 66.0923 67.362 66.1769 66.8447 66.3515C66.422 66.4767 66.0431 66.7186 65.7517 67.0494C65.5136 67.3336 65.3831 67.6926 65.383 68.0633C65.3849 68.3826 65.4912 68.6925 65.6859 68.9456C65.9387 69.2385 66.2598 69.4646 66.6208 69.604C67.1701 69.7938 67.7338 69.9391 68.3064 70.0386C69.1096 70.1966 69.6232 70.3152 69.8602 70.3942C70.1495 70.4626 70.4167 70.603 70.6372 70.8024C70.7908 70.9612 70.8759 71.174 70.8742 71.395C70.8691 71.621 70.7799 71.8369 70.624 72.0007C70.4192 72.2127 70.1592 72.3633 69.8734 72.4353C69.4976 72.5475 69.1067 72.6008 68.7146 72.5933C68.2667 72.6 67.8211 72.5287 67.3978 72.3826C67.0637 72.2795 66.7635 72.0885 66.5286 71.8295C66.3326 71.5779 66.2096 71.2772 66.1731 70.9604H65.0801C65.0802 71.4411 65.2479 71.9068 65.5542 72.2772C65.8801 72.6741 66.3149 72.9671 66.8052 73.12C67.4483 73.3207 68.1201 73.4142 68.7936 73.3966C69.3631 73.4045 69.9294 73.3108 70.466 73.12C70.9167 72.9808 71.3156 72.7103 71.6116 72.3431C71.8639 72.0446 72.0037 71.6672 72.0067 71.2764C72.0104 70.909 71.8792 70.5529 71.638 70.2756C71.3332 69.9422 70.9477 69.6928 70.5187 69.5514M81.0534 69.5514C80.4232 69.3597 79.7809 69.2101 79.1308 69.1037C78.5272 69.0365 77.9395 68.8673 77.3926 68.6033C77.288 68.5341 77.2021 68.4402 77.1424 68.33C77.0827 68.2198 77.051 68.0965 77.0502 67.9712C77.0571 67.8156 77.1045 67.6646 77.1877 67.533C77.2708 67.4014 77.3868 67.2937 77.5243 67.2206C77.9945 66.9762 78.5232 66.8669 79.0518 66.9045C79.5789 66.8717 80.1044 66.9905 80.5662 67.2469C80.7408 67.3584 80.8867 67.5095 80.992 67.688C81.0972 67.8665 81.1589 68.0673 81.1719 68.274L82.2781 68.195C82.2555 67.7853 82.1033 67.3933 81.8435 67.0757C81.5443 66.7237 81.1517 66.4635 80.711 66.3251C80.1566 66.1543 79.5792 66.0699 78.9991 66.0749C78.4575 66.0648 77.9182 66.1495 77.4057 66.3251C76.978 66.4474 76.5941 66.6896 76.2996 67.023C76.0615 67.3073 75.931 67.6662 75.9309 68.037C75.9208 68.3582 76.0285 68.672 76.2337 68.9193C76.4866 69.2122 76.8077 69.4383 77.1687 69.5777C77.7175 69.7692 78.2813 69.9145 78.8543 70.0123C79.6575 70.1703 80.1711 70.2888 80.4081 70.3678C80.6974 70.4363 80.9646 70.5767 81.1851 70.7761C81.3387 70.9349 81.4238 71.1477 81.4221 71.3686C81.4112 71.5934 81.3227 71.8074 81.1719 71.9744C80.9671 72.1864 80.7071 72.3369 80.4213 72.4089C80.0455 72.5212 79.6546 72.5745 79.2625 72.5669C78.8146 72.5737 78.369 72.5024 77.9457 72.3563C77.6099 72.2569 77.3087 72.0653 77.0765 71.8032C76.8805 71.5516 76.7575 71.2509 76.721 70.9341H75.628C75.6281 71.4148 75.7958 71.8804 76.1021 72.2509C76.428 72.6478 76.8628 72.9407 77.3531 73.0937C77.9964 73.2935 78.6681 73.3869 79.3415 73.3702C79.911 73.3781 80.4773 73.2845 81.0139 73.0937C81.4646 72.9545 81.8635 72.684 82.1595 72.3167C82.4118 72.0183 82.5516 71.6409 82.5546 71.2501C82.5583 70.8826 82.4271 70.5265 82.1859 70.2493C81.8811 69.9159 81.4956 69.6665 81.0666 69.525M97.0925 71.0921L96.6185 72.2377C96.5394 72.0007 96.3946 71.6452 96.1971 71.1843L94.1296 66.1671H92.3914V73.2517H93.5107V67.2469L96.039 73.2517H97.0794L99.634 67.3128V73.2517H100.753V66.1671H99.2126L97.0925 71.0921ZM107.443 66.1671L104.098 73.2517H105.31L106.258 71.1053H109.905L110.906 73.2517H112.223L108.72 66.1671H107.443ZM106.587 70.3415L107.561 68.274C107.742 67.8435 107.9 67.404 108.035 66.9572C108.167 67.3259 108.378 67.8131 108.654 68.4057L109.55 70.3678L106.587 70.3415ZM121.467 66.786C121.072 66.5184 120.622 66.3429 120.15 66.2724C119.636 66.193 119.117 66.1577 118.597 66.1671H115.594V73.2517H118.741C119.209 73.2567 119.677 73.217 120.137 73.1332C120.5 73.0691 120.851 72.9492 121.178 72.7776C121.828 72.4082 122.32 71.8131 122.56 71.1053C122.725 70.645 122.805 70.1587 122.797 69.6699C122.806 69.0941 122.69 68.5234 122.455 67.9975C122.23 67.507 121.875 67.0878 121.428 66.786M121.428 71.0262C121.293 71.375 121.071 71.6833 120.783 71.9217C120.556 72.1037 120.29 72.23 120.006 72.2904C119.574 72.3895 119.131 72.4337 118.689 72.4221H116.832V66.9967H118.662C119.164 66.9745 119.665 67.0278 120.15 67.1547C120.592 67.2904 120.976 67.5681 121.243 67.9448C121.573 68.4526 121.73 69.0528 121.691 69.6567C121.694 70.1054 121.619 70.5512 121.467 70.9736M128.117 72.3694V69.9464H132.976V69.2485H128.117V67.0757H133.292V66.2461H126.972V73.3307H133.49V72.5011L128.117 72.3694Z" fill="#221815"/>
</g>
<defs>
<clipPath id="clip0_678_1878">
<rect width="168" height="73.041" fill="white" transform="translate(0 0.410156)"/>
</clipPath>
</defs>
</svg>
