<svg preserveAspectRatio="xMidYMid meet" width="114" height="42.1256" overflow="visible" style="display: block;" viewBox="0 0 114 42.1256" fill="none" xmlns="http://www.w3.org/2000/svg">
<path id="Trac&#195;&#131;&#194;&#169; 1140" d="M73.8828 27.4432C73.8828 25.2233 73.7214 24.3627 72.7313 24.3627C71.7411 24.3627 71.5797 25.2233 71.5797 27.4432C71.5797 29.6631 71.7435 30.5237 72.7313 30.5237C73.719 30.5237 73.8828 29.6753 73.8828 27.4432ZM75.5599 27.4432C75.5599 29.9663 75.2445 31.7559 72.7313 31.7559C70.218 31.7559 69.9026 29.9638 69.9026 27.4432C69.9026 24.9226 70.218 23.1305 72.7313 23.1305C75.2445 23.1305 75.5599 24.9202 75.5599 27.4432ZM80.8212 28.9761H80.7968L78.7724 23.2919H76.841V31.5897H78.3764V25.7807H78.4008L80.4496 31.5921H82.3566V23.2919H80.8212V28.9761ZM85.2781 25.3284C85.2475 25.1031 85.3076 24.8749 85.4451 24.6938C85.5826 24.5128 85.7863 24.3937 86.0116 24.3627C86.0846 24.353 86.1586 24.353 86.2316 24.3627C86.8722 24.3627 87.1386 24.815 87.1386 25.5851H88.7473V25.3553C88.7473 23.7613 87.6643 23.1232 86.1754 23.1232C84.5911 23.1305 83.6132 23.9593 83.6132 25.5705C83.6132 28.6436 87.2804 27.5263 87.2804 29.4993C87.2979 29.7521 87.2147 30.0014 87.0488 30.1929C86.883 30.3844 86.6481 30.5025 86.3954 30.5213H86.2805C85.3955 30.5213 85.1755 30.0323 85.1755 29.2426V28.9981H83.4983V29.338C83.4983 30.8709 84.2317 31.7559 86.1412 31.7559C87.9577 31.7559 89.026 30.9662 89.026 29.2084C89.026 26.3382 85.2904 27.1743 85.2904 25.326M108.687 23.2919V24.6634H110.506V31.5921H112.183V24.6659H114V23.2919H108.687ZM106.137 28.9761H106.106L104.076 23.2919H102.145V31.5897H103.68V25.7807H103.702L105.751 31.5921H107.661V23.2919H106.125L106.137 28.9761ZM66.1082 30.5213C65.387 30.5213 65.0374 30.069 65.0374 27.5581C65.0374 25.2086 65.2354 24.3603 66.0862 24.3603C66.8417 24.3603 67.0861 24.8835 67.0861 26.0937H68.7633C68.7633 24.8713 68.5873 23.1281 66.1913 23.1281C63.6756 23.1281 63.3627 24.9177 63.3627 27.4408C63.3627 29.9638 63.6756 31.7535 66.1913 31.7535C68.3917 31.7535 68.8318 30.2083 68.8318 28.4163H67.157C67.157 30.2083 66.7145 30.5213 66.1082 30.5213ZM95.0085 23.2919H89.7033V24.6634H91.5198V31.5921H93.1945V24.6659H95.011L95.0085 23.2919ZM98.8494 28.4652L98.0377 24.7343L97.2333 28.4652H98.8494ZM99.0719 23.2919L101.272 31.5897H99.5266L99.1428 29.8269H96.9424L96.5708 31.5823H94.8252L97.0255 23.2846L99.0719 23.2919ZM45.0411 27.4481C45.0411 25.2282 44.8798 24.3652 43.8896 24.3652C42.8994 24.3652 42.7381 25.2282 42.7381 27.4481C42.7381 29.668 42.9019 30.5261 43.8896 30.5261H44.0069L43.8089 30.3159L44.7868 29.4162L44.9213 29.558C45.0336 28.8623 45.0779 28.1573 45.0533 27.453M46.0777 30.8049L46.9481 31.7437L45.9701 32.6189L44.9922 31.5823C44.6286 31.6968 44.2487 31.7513 43.8676 31.7437C41.3543 31.7437 41.0414 29.9541 41.0414 27.4334C41.0414 24.9128 41.3543 23.1208 43.8676 23.1208C46.3809 23.1208 46.6963 24.9104 46.6963 27.4334C46.6963 28.8514 46.5985 30.0372 46.0631 30.8049M14.1189 27.9884H16.9109V26.6169H14.1189V24.661H17.0869V23.2919H12.4417V31.5897H17.2018V30.2205H14.1189V27.9884ZM22.2308 27.3821C22.2308 25.4996 22.0793 24.5339 20.7982 24.5339H20.0892V30.3697H20.8226C21.9864 30.3697 22.2186 29.6362 22.2186 27.3821M23.8958 27.3356C23.8958 30.2694 23.2675 31.6019 21.0427 31.6019H18.412V23.2895H21.16C23.4875 23.2895 23.9055 24.8835 23.9055 27.3234M9.31236 25.6707C9.31236 24.903 8.90407 24.5192 8.14862 24.5192H7.35649V26.9151H8.05327C8.85762 26.9151 9.31236 26.5655 9.31236 25.6707ZM11.3122 31.5188V31.5897H9.49572C9.34596 31.324 9.27395 31.0215 9.28791 30.7168L9.24146 29.1253C9.21701 28.4725 8.92608 28.0789 8.26353 28.0789H7.35649V31.5897H5.67934V23.2772H8.7745C10.1485 23.2772 10.9748 24.0107 10.9748 25.414C10.9748 26.5191 10.5323 27.2623 9.59107 27.4603V27.4848C10.7304 27.6339 10.9064 28.2622 10.9284 30.0176C10.9284 30.8904 10.9871 31.3427 11.3 31.5065M0 31.5921H1.67715V27.9884H4.46915V26.6169H1.67715V24.661H4.64518V23.2919H0V31.5921ZM38.0367 31.5921H39.7114V23.2919H38.0367V31.5921ZM26.9787 27.9884H29.7731V26.6169H26.9787V24.661H29.9467V23.2919H25.3015V31.5897H30.0714V30.2205H26.9787V27.9884ZM56.2409 27.9884H59.0329V26.6169H56.2311V24.661H59.1991V23.2919H54.5539V31.5897H59.3165V30.2205H56.2311L56.2409 27.9884ZM34.8242 25.6707C34.8242 24.9055 34.4159 24.5216 33.6604 24.5216H32.8683V26.9151H33.5675C34.3694 26.9151 34.8242 26.568 34.8242 25.6707ZM36.8265 31.5212V31.5921H35.01C34.8594 31.3267 34.7865 31.0242 34.7997 30.7193L34.7533 29.1277C34.7288 28.4749 34.4379 28.0813 33.7753 28.0813H32.8781V31.5921H31.2034V23.2797H34.2985C35.6725 23.2797 36.5111 24.0131 36.5111 25.4165C36.5111 26.5215 36.0686 27.2647 35.1249 27.4628V27.4872C36.2642 27.6364 36.4402 28.2647 36.4646 30.0201C36.4646 30.8929 36.5233 31.3452 36.8363 31.509M51.537 23.2919H53.2142V29.0935C53.2142 31.2083 51.9209 31.7681 50.5591 31.7681C49.1973 31.7681 47.9187 31.2938 47.9187 29.0935V23.2919H49.5934V29.0935C49.5934 29.9198 49.7914 30.5359 50.5713 30.5359C51.3512 30.5359 51.5492 29.9198 51.5492 29.0935L51.537 23.2919ZM57.4046 15.2729V13.7277L60.2944 10.8379L62.7001 13.2436C61.5804 14.9184 58.8031 15.2288 57.4046 15.2729ZM54.3046 14.9941V12.1826H56.5758V15.2729C55.8117 15.2512 55.0513 15.1579 54.3046 14.9941ZM50.8525 12.1826H53.0699V14.6054C51.9942 14.1556 51.0823 13.4123 50.8525 12.1826ZM56.5783 0.826353V4.38114L53.686 1.4889L50.7962 4.38114V0.826353H56.5783ZM59.6759 3.51567H57.4046V0.826353H59.6759V3.51567ZM63.1866 7.42739H60.9154V4.73808H63.1866V7.42739ZM57.4046 8.25864H63.1866V11.4002C63.187 11.531 63.1789 11.6617 63.1622 11.7914L60.2969 8.92363L57.4046 11.8159V8.25864ZM54.307 8.25864H56.5783V10.9479H54.307V8.25864ZM53.0675 10.9479H50.7938V8.25864H53.0675V10.9479ZM56.5758 7.43962H50.7962V6.29544L53.686 3.4032L56.5783 6.29299L56.5758 7.43962ZM59.6759 7.43962H57.4046V4.75031H59.6759V7.43962ZM63.1842 3.52789H60.9129V0.838577H63.1842V3.52789ZM49.9699 0V11.564C49.9699 14.2118 51.8866 15.8669 55.7006 16.0821C55.971 16.0975 56.2326 16.1841 56.4589 16.333C56.6851 16.482 56.868 16.6881 56.989 16.9304C57.11 16.6881 57.2929 16.482 57.5191 16.333C57.7454 16.1841 58.007 16.0975 58.2774 16.0821C62.0914 15.8669 64.0081 14.2118 64.0081 11.564V0H49.9699ZM67.7927 35.6407V41.9973H71.4428V40.946H69.0762V39.2346H71.2204V38.1834H69.0762V36.6871H71.3548V35.6358L67.7927 35.6407ZM62.3627 35.6407L63.8296 41.9973H65.4799L66.9468 35.6407H65.6144L64.6658 40.3397H64.6389L63.7367 35.6383L62.3627 35.6407ZM58.1112 35.6407V41.9973H61.7637V40.946H59.4094V39.2346H61.5535V38.1834H59.4094V36.6871H61.688V35.6358L58.1112 35.6407ZM52.6103 35.6407V41.9973H53.7863V37.5477H53.8034L55.3754 41.9997H56.8423V35.6432H55.6615V39.9974H55.6443L54.0919 35.6432L52.6103 35.6407ZM47.9382 35.6407V41.9973H51.5859V40.946H49.2193V39.2346H51.3634V38.1834H49.2193V36.6871H51.4979V35.6358L47.9382 35.6407ZM46.662 37.5281C46.662 36.2373 46.0924 35.516 44.6793 35.516C43.0364 35.516 42.5352 36.6113 42.5352 38.7481C42.5352 40.9485 42.8481 42.122 44.4299 42.122C44.6975 42.141 44.965 42.0843 45.2019 41.9585C45.4388 41.8327 45.6355 41.6428 45.7697 41.4105H45.7868V41.9973H46.7329V38.5745H44.6524V39.5182H45.5007V40.1686C45.5234 40.4072 45.4536 40.6455 45.3058 40.8343C45.1579 41.0231 44.9433 41.1479 44.7062 41.1832C43.9727 41.1832 43.8211 40.2199 43.8211 38.6894C43.8211 37.1052 44.0656 36.4646 44.6964 36.4646C45.2147 36.4646 45.4298 37.0612 45.4298 37.533L46.662 37.5281Z" fill="#3A3935"/>
</svg>
