<svg width="168" height="49" viewBox="0 0 168 49" fill="none" xmlns="http://www.w3.org/2000/svg">
<g clip-path="url(#clip0_678_131)">
<path d="M8.0689 31.4852C8.0689 30.7309 8.0689 30.2069 7.35296 30.0684V29.4142H10.9059V30.0684C10.2718 30.2069 10.2718 30.7359 10.2718 31.4852V34.6327C10.2718 35.2084 10.2234 35.5773 10.9059 35.6473V36.2965C9.88507 36.4892 8.84733 36.5781 7.80856 36.5619C1.93921 36.5619 0 32.5566 0 29.768C0 26.3201 2.52497 23.5465 5.78758 23.5465C7.53153 23.5465 9.45905 24.2775 10.5488 25.7961L8.76481 27.9656L8.16569 27.5284C8.36236 27.3063 8.47202 27.0206 8.47443 26.724C8.47443 25.5708 6.94409 25.1519 6.07963 25.1519C3.74323 25.1519 2.34641 27.3014 2.34641 29.6578C2.34641 32.7385 4.56431 35.0482 7.43307 35.0482H8.0689V31.4852Z" fill="black"/>
<path d="M14.6892 34.2355C14.6892 34.9881 14.6892 35.5105 15.4068 35.6524V36.3032H11.7704V35.6524C12.488 35.5105 12.488 34.9848 12.488 34.2355V25.8762C12.488 25.1236 12.488 24.5995 11.7704 24.4594V23.8052H15.4119V24.4594C14.6942 24.5995 14.6942 25.1269 14.6942 25.8762V34.2355" fill="black"/>
<path d="M23.2788 30.5724C24.8192 30.2386 25.8889 28.9035 25.8889 27.1913C25.8889 24.8949 24.0532 23.8052 22.1056 23.8052H16.2763V24.4594C16.9906 24.5995 16.9906 25.1269 16.9906 25.8779V34.2388C16.9906 34.9898 16.9906 35.5122 16.2763 35.6524V36.3032H19.9178V35.6524C19.2018 35.5122 19.2018 34.9848 19.2018 34.2388V30.9262H20.9458L23.923 36.3032H26.7884V35.6524C26.2677 35.5622 26.0541 35.2835 25.7788 34.8313L23.2755 30.5724M19.1918 29.4142V25.3172H21.1277C22.3793 25.3522 23.681 25.8178 23.681 27.4182C23.681 28.9402 22.4628 29.4209 21.2245 29.4209H19.1951" fill="black"/>
<path d="M34.1113 23.8035H31.7499L27.985 34.3774C27.8064 34.8647 27.5928 35.6173 26.9837 35.6524V36.3032H30.1778V35.6524C29.4302 35.4421 29.4118 35.0749 29.6772 34.3573L30.5884 31.7539H34.5803L35.5816 34.3573C35.8586 35.0749 35.9404 35.5122 35.1076 35.6524V36.3032H38.9193V35.6524C38.4186 35.5823 38.2868 35.1968 38.1216 34.7428L34.1163 23.8035M31.0707 30.2453L32.5343 26.0915L34.0663 30.2453H31.0657" fill="black"/>
<path d="M46.2672 30.5724C47.8059 30.2386 48.8773 28.9035 48.8773 27.1913C48.8773 24.8949 47.0416 23.8052 45.0957 23.8052H39.2547V24.4594C39.9723 24.5995 39.9723 25.1269 39.9723 25.8779V34.2388C39.9723 34.9898 39.9723 35.5122 39.2547 35.6524V36.3032H42.8978V35.6524C42.1819 35.5122 42.1819 34.9848 42.1819 34.2388V30.9262H43.9258L46.9064 36.3032H49.7718V35.6524C49.2512 35.5622 49.0409 35.2835 48.7705 34.8313L46.2672 30.5724ZM42.1819 29.4142V25.3172H44.1161C45.3677 25.3522 46.6694 25.8178 46.6694 27.4182C46.6694 28.9402 45.4495 29.4209 44.2112 29.4209H42.1819" fill="black"/>
<path d="M50.4578 36.3032H55.0521C60.1121 36.3032 61.3854 32.7986 61.3854 30.4222C61.3854 27.2046 58.9722 23.8052 54.3862 23.8052H50.4578V24.4577C51.2538 24.5979 51.2538 25.1252 51.2538 25.8762V34.2355C51.2538 34.9865 51.2538 35.5105 50.4578 35.6524V36.3032ZM53.4617 25.3172H54.0625C56.8261 25.3172 59.039 27.3799 59.039 30.5273C59.039 33.6397 57.0714 34.7929 54.4196 34.7929H53.4617V25.3172Z" fill="black"/>
<path d="M67.2063 32.817H63.4063V31.0697H67.2063V32.817Z" fill="black"/>
<path d="M73.3694 32.313C75.6708 31.5436 78.3576 30.4939 78.3576 27.3999C78.3576 25.4223 77.0876 23.8068 74.2489 23.8068H68.9086V24.4594C69.6245 24.5995 69.6245 25.1269 69.6245 25.8762V34.2355C69.6245 34.9881 69.6245 35.5105 68.9086 35.6524V36.3049H72.5467V35.6524C71.8291 35.5105 71.8291 34.9848 71.8291 34.2355V32.8186L73.3628 32.318M71.8291 25.3222H73.5096C74.8163 25.3222 76.0129 26.1082 76.0129 27.6485C76.0129 29.798 73.4011 30.7259 71.8408 31.3384V25.3172" fill="black"/>
<path d="M78.9951 35.6524C79.7144 35.5105 79.7144 34.9848 79.7144 34.2355V25.8762C79.7144 25.1236 79.7144 24.5995 78.9951 24.4594L78.9717 23.8052H87.9535V26.3335H87.1524C86.9405 25.3322 86.6802 25.3005 85.8291 25.3172H81.9173V28.528H84.7693C85.3885 28.528 85.9242 28.4396 86.0076 27.6669H86.8087V30.9111H86.0043C85.9208 30.1268 85.3851 30.0383 84.766 30.0383H81.9173V34.7929H86.2146C87.0089 34.7929 87.4595 34.5643 87.6097 33.6564H88.4108V36.3032H78.9951V35.6524Z" fill="black"/>
<path d="M96.2661 30.5724C97.8047 30.2386 98.8761 28.9035 98.8761 27.1913C98.8761 24.8949 97.0404 23.8052 95.0945 23.8052H89.2535V24.4594C89.9695 24.5995 89.9695 25.1269 89.9695 25.8779V34.2388C89.9695 34.9898 89.9695 35.5122 89.2535 35.6524V36.3032H92.8966V35.6524C92.1807 35.5122 92.1807 34.9848 92.1807 34.2388V30.9262H93.9213L96.9052 36.3032H99.7723V35.6524C99.25 35.5622 99.0397 35.2835 98.771 34.8313L96.2677 30.5724M92.179 29.4142V25.3172H94.1166C95.3682 25.3522 96.6699 25.8178 96.6699 27.4182C96.6699 28.9402 95.45 29.4209 94.2117 29.4209H92.179" fill="black"/>
<path d="M107.831 30.5724C109.373 30.2386 110.441 28.9035 110.441 27.1913C110.441 24.8949 108.606 23.8052 106.66 23.8052H100.827V24.4594C101.543 24.5995 101.543 25.1269 101.543 25.8779V34.2388C101.543 34.9898 101.543 35.5122 100.827 35.6524V36.3032H104.463V35.6524C103.746 35.5122 103.746 34.9848 103.746 34.2388V30.9262H105.49L108.47 36.3032H111.339V35.6524C110.817 35.5622 110.605 35.2835 110.326 34.8313L107.823 30.5724M103.737 29.4142V25.3172H105.675C106.928 25.3522 108.232 25.8178 108.232 27.4182C108.232 28.9402 107.008 29.4209 105.772 29.4209H103.746" fill="black"/>
<path d="M112.229 35.6524C112.946 35.5105 112.946 34.9848 112.946 34.2355V25.8762C112.946 25.1236 112.946 24.5995 112.229 24.4594L112.207 23.8052H121.187V26.3335H120.383C120.171 25.3322 119.907 25.3005 119.058 25.3172H115.151V28.528H118.001C118.624 28.528 119.159 28.4396 119.241 27.6669H120.049V30.9111H119.248C119.166 30.1268 118.63 30.0383 118.008 30.0383H115.151V34.7929H119.448C120.242 34.7929 120.693 34.5643 120.843 33.6564H121.644V36.3032H112.229V35.6524Z" fill="black"/>
<path d="M130.406 31.4852C130.406 30.7309 130.406 30.2069 129.686 30.0684V29.4142H133.244V30.0684C132.61 30.2069 132.61 30.7359 132.61 31.4852V34.6327C132.61 35.2084 132.56 35.5773 133.244 35.6473V36.2965C132.223 36.4892 131.185 36.5781 130.145 36.5619C124.276 36.5619 122.337 32.5566 122.337 29.768C122.337 26.3201 124.863 23.5465 128.121 23.5465C129.867 23.5465 131.793 24.2775 132.884 25.7961L131.102 27.9656L130.501 27.5284C130.699 27.3069 130.809 27.0209 130.811 26.724C130.811 25.5708 129.281 25.1519 128.418 25.1519C126.082 25.1519 124.683 27.3014 124.683 29.6578C124.683 32.7385 126.901 35.0482 129.77 35.0482H130.406V31.4852Z" fill="black"/>
<path d="M140.868 23.8035H138.508L134.743 34.3774C134.563 34.8647 134.353 35.6173 133.742 35.6524V36.3032H136.936V35.6524C136.187 35.4421 136.17 35.0749 136.435 34.3573L137.346 31.7539H141.338L142.331 34.3573C142.608 35.0749 142.688 35.5122 141.859 35.6524V36.3032H145.671V35.6524C145.17 35.5823 145.035 35.1968 144.875 34.7428L140.869 23.8035M137.825 30.2453L139.289 26.0915L140.821 30.2453H137.817" fill="black"/>
<path d="M152.992 25.8762C152.992 25.1236 152.992 24.5979 152.274 24.4577V23.8052H155.909V24.4577C155.193 24.5979 155.193 25.1252 155.193 25.8762V34.2355C155.193 34.9865 155.193 35.5105 155.909 35.6507V36.3049H150.802C146.964 36.3049 145.811 33.0923 145.811 30.9645C145.811 28.1108 147.85 25.3956 147.85 24.8883C147.85 24.5728 147.476 24.451 147.249 24.466V23.8135H150.786V24.466C149.139 25.2204 148.01 28.6882 148.01 30.5974C148.01 33.1541 149.401 34.7111 151.765 34.7111H152.992V25.8762Z" fill="black"/>
<path d="M160.949 29.7413L158.134 25.3338C157.84 24.8616 157.581 24.5111 157.026 24.4594V23.8068H161.211V24.4594C160.544 24.4944 160.51 24.8432 160.919 25.4907L162.588 28.1492L164.148 25.701C164.492 25.1569 164.784 24.5111 163.84 24.4594V23.8068H167.611V24.4594C166.975 24.4594 166.665 25.0017 166.339 25.4907L163.638 29.531L166.847 34.5492C167.122 34.9698 167.464 35.6173 168 35.6524V36.3049H163.828V35.6524C164.903 35.5989 164.38 34.9364 164.137 34.5492L162.041 31.1381L159.908 34.4107C159.437 35.1267 159.337 35.4921 160.283 35.6524V36.3049H156.555V35.6524C157.042 35.5989 157.433 34.9514 157.71 34.5492L160.949 29.7413Z" fill="black"/>
<path d="M79.9363 10.5728C79.9363 9.65665 79.9363 9.01915 79.0652 8.84892V8.06123H83.4042V8.84892C82.6299 9.01581 82.6299 9.65665 82.6299 10.5728V14.4112C82.6299 15.1138 82.5698 15.561 83.4042 15.6462V16.4339C82.1569 16.6657 80.8895 16.7725 79.6209 16.7526C72.4899 16.7526 70.1318 11.8779 70.1318 8.49179C70.1318 4.2963 73.2025 0.911865 77.1627 0.911865C79.2838 0.911865 81.6402 1.80804 82.967 3.65713L80.7874 6.29391L80.0548 5.76155C80.2943 5.491 80.4282 5.14321 80.432 4.78193C80.432 3.37676 78.5695 2.86609 77.5198 2.86609C74.6878 2.86609 72.9872 5.48786 72.9872 8.35995C72.9872 12.1065 75.6808 14.9169 79.162 14.9169H79.9347V10.5779" fill="black"/>
<path d="M88.6294 10.3826C90.5419 9.63662 93.7261 8.50681 93.7261 5.89005C93.7261 4.01593 92.2742 3.053 90.6804 3.053H88.6294V10.3826ZM88.6294 12.1933V13.9139C88.6294 14.8318 88.6294 15.4709 89.5039 15.6412V16.4289H85.0464V15.6412C85.9209 15.4743 85.9209 14.8318 85.9209 13.9139V3.73389C85.9209 2.81936 85.9209 2.18019 85.0464 2.00997V1.22561H91.5766C95.0395 1.22561 96.5932 3.18484 96.5932 5.59133C96.5932 9.35959 93.3089 10.6379 90.5019 11.5725L88.6294 12.1933Z" fill="black"/>
<path d="M13.728 47.0056L15.275 43.1672L16.8254 47.0056L18.082 43.4225H18.6611L16.8254 48.4524L15.275 44.6024L13.728 48.4524L11.8922 43.4225H12.4713L13.728 47.0056Z" fill="black"/>
<path d="M21.6016 44.4355L20.7839 46.353H22.401L21.6016 44.4355ZM20.5669 46.8487L19.9912 48.2105H19.4071L21.615 43.2039L23.7645 48.2105H23.1754L22.6096 46.8554L20.5669 46.8487Z" fill="black"/>
<path d="M26.3178 48.2105H25.7838V43.9165H24.6273V43.4159H27.4843V43.9165H26.3161L26.3178 48.2105Z" fill="black"/>
<path d="M32.9465 44.4689C32.7577 44.2711 32.5312 44.1131 32.2805 44.0042C32.0297 43.8953 31.7596 43.8377 31.4862 43.8347C31.2263 43.8356 30.9691 43.8877 30.7293 43.9879C30.4895 44.0882 30.2718 44.2348 30.0886 44.4192C29.7187 44.7916 29.5119 45.2957 29.5137 45.8207C29.5154 46.3456 29.7256 46.8483 30.0981 47.2183C30.4705 47.5882 30.9747 47.795 31.4996 47.7933C32.0463 47.7777 32.5653 47.5496 32.9465 47.1574V47.825C32.6294 48.0541 32.2624 48.2048 31.8758 48.2647C31.4891 48.3245 31.0938 48.2919 30.7222 48.1694C30.3507 48.0469 30.0134 47.8381 29.7382 47.56C29.4629 47.282 29.2575 46.9426 29.1388 46.5698C29.0201 46.197 28.9915 45.8014 29.0552 45.4154C29.119 45.0294 29.2734 44.664 29.5058 44.3492C29.7381 44.0344 30.0418 43.7792 30.3918 43.6045C30.7419 43.4298 31.1284 43.3405 31.5196 43.3441C32.0342 43.3371 32.5364 43.5021 32.9465 43.813V44.4689Z" fill="black"/>
<path d="M38.1216 45.3734V43.4225H38.6556V48.2105H38.1216V45.8741H35.6734V48.2105H35.1427V43.4225H35.6734V45.3734H38.1216Z" fill="black"/>
<path d="M40.9136 43.4225H43.3968V43.9232H41.446V45.345H43.3384V45.8457H41.446V47.7098H43.3968V48.2105H40.9136V43.4225Z" fill="black"/>
<path d="M47.7408 44.3554C47.5506 44.0216 47.3203 43.8347 46.9164 43.8347C46.8153 43.83 46.7142 43.8457 46.6192 43.8807C46.5242 43.9157 46.4371 43.9694 46.3632 44.0387C46.2893 44.1079 46.2301 44.1912 46.1889 44.2838C46.1478 44.3763 46.1256 44.4761 46.1237 44.5774C46.1237 44.9896 46.5476 45.1798 46.8714 45.325L47.1884 45.4652C47.8093 45.7372 48.3366 46.0493 48.3366 46.8086C48.3634 47.2027 48.2338 47.5915 47.976 47.8907C47.7181 48.1899 47.3528 48.3756 46.9591 48.4074C46.5654 48.4392 46.175 48.3147 45.8725 48.0607C45.5699 47.8068 45.3796 47.4439 45.3427 47.0506L45.8634 46.9054C45.8873 47.1443 45.9977 47.3662 46.1738 47.5294C46.3499 47.6926 46.5796 47.7859 46.8196 47.7916C47.0733 47.7983 47.3193 47.7043 47.5039 47.5301C47.6884 47.3559 47.7964 47.1157 47.8042 46.862C47.8042 46.3013 47.367 46.1127 46.9214 45.9074L46.631 45.7823C46.072 45.5286 45.588 45.2416 45.588 44.559C45.588 43.8164 46.2188 43.3391 46.9231 43.3391C47.1783 43.3359 47.4293 43.4038 47.648 43.5353C47.8667 43.6667 48.0445 43.8565 48.1614 44.0834L47.7408 44.3554Z" fill="black"/>
<path d="M54.1426 43.9165V45.3384H55.7363V45.839H54.1426V48.2105H53.6102V43.4225H55.7797V43.9232L54.1426 43.9165Z" fill="black"/>
<path d="M58.2012 45.8157C58.2055 46.2025 58.3241 46.5795 58.5422 46.8991C58.7602 47.2187 59.068 47.4667 59.4266 47.6118C59.7853 47.7568 60.1789 47.7926 60.5578 47.7145C60.9367 47.6364 61.2841 47.448 61.5562 47.1729C61.8283 46.8978 62.0129 46.5484 62.0868 46.1686C62.1607 45.7888 62.1206 45.3957 61.9716 45.0386C61.8226 44.6816 61.5712 44.3766 61.2493 44.1621C60.9273 43.9476 60.549 43.8331 60.1621 43.8331C59.6398 43.8379 59.1406 44.049 58.7733 44.4204C58.4059 44.7918 58.2003 45.2933 58.2012 45.8157ZM62.6554 45.8157C62.6577 46.3093 62.5134 46.7925 62.2409 47.204C61.9683 47.6156 61.5798 47.9369 61.1244 48.1274C60.669 48.3179 60.1673 48.369 59.6829 48.2741C59.1985 48.1792 58.7532 47.9427 58.4033 47.5945C58.0534 47.2463 57.8148 46.802 57.7177 46.3181C57.6205 45.8341 57.6692 45.3322 57.8576 44.8759C58.0459 44.4197 58.3655 44.0296 58.7757 43.7551C59.186 43.4806 59.6685 43.3341 60.1621 43.3341C60.4891 43.3321 60.8133 43.3948 61.1159 43.5187C61.4185 43.6426 61.6936 43.8251 61.9254 44.0558C62.1572 44.2865 62.341 44.5607 62.4663 44.8628C62.5916 45.1648 62.6558 45.4887 62.6554 45.8157Z" fill="black"/>
<path d="M65.1804 45.6371H65.3472C65.9497 45.6371 66.5588 45.5219 66.5588 44.7793C66.5588 43.9933 65.9814 43.9165 65.3422 43.9165H65.1754L65.1804 45.6371ZM65.1804 48.2038H64.643V43.4225H65.3356C66.2401 43.4225 67.0845 43.6628 67.0845 44.7426C67.094 44.9081 67.0703 45.0738 67.0149 45.2301C66.9595 45.3863 66.8735 45.53 66.7619 45.6526C66.6503 45.7752 66.5154 45.8743 66.3651 45.9442C66.2147 46.014 66.052 46.0531 65.8863 46.0593L67.415 48.2105H66.7608L65.3105 46.1044H65.177L65.1804 48.2038Z" fill="black"/>
<path d="M73.8467 48.2105H73.321V43.9165H72.1678V43.4159H75.0199V43.9165H73.8517L73.8467 48.2105Z" fill="black"/>
<path d="M79.8295 45.3734V43.4225H80.3636V48.2105H79.8295V45.8741H77.388V48.2105H76.854V43.4225H77.388V45.3734H79.8295Z" fill="black"/>
<path d="M82.6265 43.4225H85.1081V43.9232H83.1672V45.345H85.0581V45.8457H83.1672V47.7098H85.1148V48.2105H82.6265V43.4225Z" fill="black"/>
<path d="M91.0392 43.9165V45.3384H92.6313V45.839H91.0392V48.2105H90.5102V43.4225H92.6797V43.9232L91.0392 43.9165Z" fill="black"/>
<path d="M94.8108 43.4225H97.2891V43.9232H95.3499V45.345H97.239V45.8457H95.3499V47.7098H97.2974V48.2105H94.8108V43.4225Z" fill="black"/>
<path d="M100.897 47.0056L102.446 43.1672L103.995 47.0056L105.251 43.4225H105.825L103.99 48.4524L102.441 44.6024L100.892 48.4524L99.0564 43.4225H99.6338L100.897 47.0056Z" fill="black"/>
<path d="M113.048 44.3554C112.858 44.0216 112.629 43.8347 112.222 43.8347C112.121 43.8303 112.02 43.846 111.925 43.8812C111.83 43.9163 111.743 43.97 111.669 44.0392C111.595 44.1084 111.536 44.1916 111.495 44.284C111.454 44.3765 111.431 44.4762 111.429 44.5774C111.429 44.9896 111.855 45.1798 112.179 45.325L112.497 45.4652C113.118 45.7372 113.642 46.0493 113.642 46.8086C113.66 47.1973 113.526 47.5776 113.268 47.8694C113.011 48.1613 112.651 48.3419 112.263 48.3733C111.875 48.4046 111.49 48.2843 111.189 48.0376C110.888 47.7909 110.695 47.437 110.65 47.0506L111.169 46.9054C111.193 47.145 111.305 47.3674 111.482 47.5307C111.659 47.6939 111.889 47.7867 112.13 47.7916C112.383 47.7974 112.628 47.703 112.812 47.5289C112.996 47.3548 113.104 47.1151 113.111 46.862C113.111 46.3013 112.674 46.1127 112.229 45.9074L111.938 45.7823C111.378 45.5286 110.897 45.2416 110.897 44.559C110.897 43.8164 111.526 43.3391 112.232 43.3391C112.487 43.3355 112.739 43.4033 112.958 43.5348C113.177 43.6663 113.355 43.8563 113.472 44.0834L113.048 44.3554Z" fill="black"/>
<path d="M116.237 48.2105H115.71V43.4225H116.241L116.237 48.2105Z" fill="black"/>
<path d="M118.512 43.2189L122.24 47.1257V43.4225H122.772V48.4207L119.048 44.5206V48.2105H118.515L118.512 43.2189Z" fill="black"/>
<path d="M128.685 44.4689C128.497 44.271 128.271 44.113 128.02 44.004C127.77 43.8951 127.5 43.8375 127.227 43.8347C126.702 43.8363 126.199 44.0463 125.829 44.4186C125.459 44.7909 125.252 45.2949 125.253 45.8198C125.255 46.3448 125.465 46.8476 125.837 47.2177C126.209 47.5878 126.713 47.7948 127.238 47.7933C127.785 47.7784 128.304 47.5502 128.685 47.1574V47.825C128.317 48.0905 127.883 48.2496 127.431 48.2849C126.978 48.3202 126.525 48.2303 126.12 48.0251C125.715 47.8198 125.374 47.5071 125.135 47.1213C124.897 46.7354 124.768 46.2912 124.765 45.8374C124.768 45.1769 125.031 44.5443 125.498 44.0773C125.965 43.6103 126.598 43.3467 127.258 43.3441C127.773 43.3366 128.275 43.5017 128.685 43.813V44.4689Z" fill="black"/>
<path d="M130.855 43.4225H133.336V43.9232H131.397V45.345H133.286V45.8457H131.397V47.7098H133.345V48.2105H130.855V43.4225Z" fill="black"/>
<path d="M139.256 43.9165L139.534 43.4159H140.576V48.2105H140.043V43.9165H139.256Z" fill="black"/>
<path d="M143.747 43.9165V43.4159H147.273L144.064 48.2806L143.646 48.0352L146.36 43.9098L143.747 43.9165Z" fill="black"/>
<path d="M149.421 44.9529C149.432 45.2417 149.554 45.515 149.763 45.7154C149.971 45.9159 150.249 46.0278 150.538 46.0278C150.827 46.0278 151.105 45.9159 151.313 45.7154C151.521 45.515 151.644 45.2417 151.655 44.9529C151.661 44.8025 151.636 44.6525 151.583 44.5119C151.529 44.3713 151.448 44.2429 151.344 44.1345C151.239 44.026 151.114 43.9398 150.976 43.8808C150.837 43.8219 150.688 43.7915 150.538 43.7915C150.387 43.7915 150.239 43.8219 150.1 43.8808C149.962 43.9398 149.837 44.026 149.732 44.1345C149.628 44.2429 149.547 44.3713 149.493 44.5119C149.439 44.6525 149.415 44.8025 149.421 44.9529ZM149.754 48.0152L150.858 46.4982L150.846 46.4849C150.712 46.5271 150.574 46.5491 150.434 46.55C150.228 46.5495 150.024 46.5082 149.835 46.4283C149.645 46.3485 149.473 46.2317 149.329 46.0848C149.185 45.9379 149.071 45.7638 148.995 45.5726C148.919 45.3814 148.881 45.177 148.885 44.9712C148.899 44.5428 149.078 44.1365 149.386 43.8382C149.694 43.54 150.106 43.3732 150.535 43.3732C150.963 43.3732 151.375 43.54 151.683 43.8382C151.991 44.1365 152.171 44.5428 152.184 44.9712C152.162 45.3909 152.007 45.7925 151.74 46.1177L150.153 48.2872L149.754 48.0152Z" fill="black"/>
<path d="M154.786 43.9165L155.063 43.4159H156.109V48.2105H155.579V43.9165H154.786Z" fill="black"/>
</g>
<defs>
<clipPath id="clip0_678_131">
<rect width="168" height="47.5406" fill="white" transform="translate(0 0.911865)"/>
</clipPath>
</defs>
</svg>
