<svg width="168" height="86" viewBox="0 0 168 86" fill="none" xmlns="http://www.w3.org/2000/svg">
<g clip-path="url(#clip0_678_379)">
<path d="M82.4855 15.9L81.9877 16.6155V21.2817L82.4855 21.7794V15.9ZM86.9651 3.76774C86.934 3.50332 86.8251 3.09891 86.4984 3.09891C85.8607 3.09891 85.6741 4.60766 85.643 5.05873H85.4097L85.7363 2.99003L85.2075 1.97901L84.6786 2.99003L85.0052 5.05873H84.7875C84.7408 4.60766 84.5697 3.09891 83.932 3.09891C83.6054 3.09891 83.4965 3.50332 83.4654 3.76774C84.1653 3.56553 84.352 4.68543 84.3986 5.07429C84.1809 5.1054 84.0098 5.29204 84.0098 5.52536V5.54091C84.0098 5.77422 84.1809 5.96087 84.3986 5.99198C84.352 6.38083 84.1809 7.50073 83.4809 7.29853C83.512 7.56295 83.6209 7.96735 83.9476 7.96735C84.5697 7.96735 84.7564 6.47416 84.803 6.00753H85.0363L84.7097 8.07624L85.2386 9.08725L85.7674 8.07624L85.4408 6.00753H85.6741C85.7207 6.47416 85.8918 7.96735 86.5295 7.96735C86.8562 7.96735 86.9651 7.56295 86.9962 7.29853C86.2962 7.50073 86.1251 6.38083 86.0785 5.99198C86.2962 5.96087 86.4673 5.77422 86.4673 5.54091V5.52536C86.4673 5.29204 86.2962 5.1054 86.0785 5.07429C86.094 4.66988 86.2807 3.58109 86.9651 3.76774ZM82.1588 1.52794H91.538L82.1588 15.0911V1.52794ZM81.8322 16.1177L92.1601 1.20131H81.8322V16.1177ZM83.4498 14.5156L83.3098 14.7334L82.9677 15.2311V21.7017L83.4654 20.9862V14.5156H83.4498ZM84.3986 19.6174V13.1469L83.9009 13.8624V20.3329L84.3986 19.6174ZM85.3474 18.2486V11.7781L84.8497 12.4936V18.9641L85.3474 18.2486ZM86.2962 16.8643V10.3938L85.7985 11.1093V17.5798L86.2962 16.8643ZM87.245 15.4956V9.02504L86.7473 9.74053V16.211L87.245 15.4956ZM88.2094 14.1112V7.64072L87.7117 8.35621V14.8267L88.2094 14.1112ZM89.1582 12.7425V6.27196L88.6605 6.98745V13.458L89.1582 12.7425ZM90.107 11.3582V4.88764L89.6093 5.60313V12.0736L90.107 11.3582ZM91.0558 9.98939V3.51887L90.5581 4.23436V10.7049L91.0558 9.98939ZM92.0046 8.60507V2.13456L91.5069 2.85005V9.32057L92.0046 8.60507ZM97.5263 7.29853C97.5574 7.56295 97.6663 7.96735 97.993 7.96735C98.6151 7.96735 98.8018 6.47416 98.8484 6.00753H99.0662L98.7395 8.07624L99.2684 9.08725L99.7972 8.07624L99.4706 6.00753H99.6883C99.7195 6.41194 99.875 7.60961 100.326 7.90514C100.357 7.92069 100.388 7.92069 100.419 7.93625C100.466 7.9518 100.497 7.98291 100.544 7.98291C100.87 7.98291 100.979 7.5785 101.01 7.31408C100.917 7.34519 100.839 7.34519 100.777 7.32964C100.715 7.31408 100.668 7.29853 100.622 7.26742C100.606 7.26742 100.606 7.26742 100.59 7.25187C100.248 7.003 100.139 6.30306 100.108 6.02309C100.186 6.00753 100.248 5.96087 100.311 5.91421C100.326 5.89865 100.357 5.89866 100.373 5.8831C100.451 5.80533 100.497 5.69645 100.497 5.58757V5.57202C100.497 5.33871 100.326 5.15206 100.108 5.12095C100.139 4.87208 100.217 4.34324 100.451 4.04771C100.497 3.9855 100.544 3.93884 100.59 3.90773C100.606 3.89217 100.637 3.89217 100.653 3.87662C100.699 3.84551 100.73 3.82996 100.793 3.8144C100.87 3.79885 100.948 3.79885 101.026 3.82996C100.995 3.56554 100.886 3.16113 100.559 3.16113C100.497 3.16113 100.435 3.19224 100.373 3.22334C100.373 3.22334 100.357 3.22334 100.342 3.22334C99.875 3.51887 99.735 4.7321 99.6883 5.12095H99.4706L99.7972 3.05225L99.2684 2.04123L98.7395 3.05225L99.0662 5.12095H98.8484C98.8018 4.66988 98.6307 3.16113 97.993 3.16113C97.6663 3.16113 97.5574 3.56554 97.5263 3.82996C97.5419 3.82996 97.573 3.82996 97.5885 3.82996C98.2263 3.72108 98.4129 4.7632 98.4596 5.1365H98.444C98.2263 5.16761 98.0552 5.35426 98.0552 5.58757V5.60313C98.0552 5.83644 98.2263 6.02309 98.444 6.0542C98.3974 6.4275 98.2263 7.46962 97.5885 7.36074C97.5574 7.29853 97.5419 7.31408 97.5263 7.29853ZM102.333 15.0756L92.9534 1.51239H102.333V15.0756ZM92.3312 1.20131L102.659 16.1177V1.20131H92.3312ZM92.969 9.32057V2.85005L92.4712 2.13456V8.60507L92.969 9.32057ZM93.9178 10.6893V4.21881L93.42 3.50332V9.97384L93.9178 10.6893ZM94.8666 12.0736V5.60313L94.3688 4.88764V11.3582L94.8666 12.0736ZM95.8154 13.4424V6.97189L95.3176 6.2564V12.7269L95.8154 13.4424ZM96.7642 14.8267V8.35621L96.2664 7.64072V14.1112L96.7642 14.8267ZM97.7285 16.1955V9.72497L97.2308 9.00948V15.48L97.7285 16.1955ZM98.6773 17.5798V11.0937L98.1796 10.3938V16.8643L98.6773 17.5798ZM99.6261 18.9486V12.4781L99.1284 11.7626V18.2486L99.6261 18.9486ZM100.575 20.3329V13.8624L100.077 13.1469V19.6174L100.575 20.3329ZM101.524 15.2311L101.182 14.7334L101.026 14.5156V20.9862L101.524 21.7017V15.2311ZM102.488 16.5999L101.99 15.8844V21.7483L102.488 21.2506V16.5999ZM91.4291 21.6705C91.1958 21.7017 91.0247 21.8883 91.0247 22.1216V22.1372C91.0247 22.3705 91.1958 22.5416 91.4136 22.5882C91.3669 22.9771 91.1958 24.097 90.4958 23.8948C90.527 24.1592 90.6358 24.5636 90.9625 24.5636C91.5846 24.5636 91.7713 23.0704 91.818 22.6038H92.0513L91.7246 24.6725L92.2535 25.6835L92.7823 24.6725L92.4557 22.6038H92.689C92.7356 23.0704 92.9067 24.5636 93.5445 24.5636C93.8711 24.5636 93.98 24.1592 94.0111 23.8948C93.3111 24.097 93.1401 22.9771 93.0934 22.5882C93.3112 22.5571 93.4823 22.3705 93.4823 22.1372V22.1216C93.4823 21.8883 93.3112 21.7017 93.0934 21.6705C93.1401 21.2661 93.3267 20.1774 94.0266 20.364C93.9955 20.0996 93.8867 19.6952 93.56 19.6952C92.9223 19.6952 92.7357 21.2039 92.7046 21.655H92.4868L92.8134 19.5863L92.2846 18.5753L91.7557 19.5863L92.0824 21.655H91.8491C91.8024 21.2039 91.6313 19.6952 90.9936 19.6952C90.667 19.6952 90.5581 20.0996 90.527 20.364C91.1802 20.1618 91.3824 21.2817 91.4291 21.6705ZM87.2606 19.9129C87.1051 20.1929 86.8873 20.3329 86.654 20.4884C86.6384 20.4107 86.6073 20.3329 86.6073 20.2396C86.5607 19.8041 86.8717 19.2752 87.1984 19.3996C87.3384 19.4463 87.3384 19.7729 87.2606 19.9129ZM86.4984 21.1884C86.6384 21.3906 86.8406 21.5772 87.0584 21.7794C87.1206 21.8416 87.1984 21.9039 87.2762 21.9661C86.8717 22.246 86.4829 22.3705 86.2496 22.1838C85.9696 21.9816 86.1096 21.515 86.4984 21.1884ZM87.7583 19.7885C87.8517 19.3374 87.4784 18.9019 87.0273 18.8864C86.4985 18.8708 86.1407 19.3219 86.1251 19.8196C86.1096 20.1929 86.1563 20.4884 86.2496 20.7373C86.1096 20.8306 85.954 20.9551 85.8141 21.1106C85.3941 21.5772 85.3941 22.3549 85.9074 22.7282C86.4362 23.1015 87.1673 22.8682 87.7894 22.3083C88.4116 22.666 89.0649 22.8371 89.376 22.5882C89.5159 22.4794 89.5782 22.1994 89.516 22.0905C89.2982 22.1216 88.7382 22.0594 88.2249 21.8572C88.6916 21.2817 89.0182 20.5195 89.0493 19.7574L88.676 20.0218C88.676 20.4729 88.2405 21.1262 87.7272 21.6083C87.385 21.3906 87.0895 21.1884 86.8873 20.9084C87.245 20.6284 87.665 20.3018 87.7583 19.7885ZM90.9314 15.76V16.351H89.4848V15.76C89.4848 15.5733 89.6404 15.4644 89.827 15.4644V15.1067H88.5516V15.4644C88.7382 15.4644 88.8938 15.5733 88.8938 15.76V17.5331C88.8938 17.7198 88.7382 17.8598 88.5516 17.8598V18.2486H89.827V17.8598C89.6404 17.8598 89.4848 17.7198 89.4848 17.5331V16.8332H90.9314V17.5331C90.9314 17.7198 90.7758 17.8598 90.5892 17.8598V18.2486H91.8646V17.8598C91.678 17.8598 91.5224 17.7198 91.5224 17.5331V15.76C91.5224 15.5733 91.678 15.4644 91.8646 15.4644V15.1067H90.5892V15.4644C90.7914 15.4644 90.9314 15.5733 90.9314 15.76ZM92.7668 12.758L93.6222 12.1359H92.5646L92.2379 11.1248L91.9113 12.1359H90.8536L91.7091 12.758L91.3824 13.769L92.2379 13.1469L93.0934 13.769L92.7668 12.758ZM94.8666 18.2486H96.0798V17.8753C95.9087 17.8753 95.7843 17.7665 95.7687 17.5954L95.6909 15.6511C95.6909 15.5578 95.7532 15.4956 95.862 15.48V15.1067H95.0532L94.1666 16.2422L93.3267 15.1067H92.549V15.48C92.6423 15.48 92.7201 15.5578 92.7201 15.6511L92.6423 17.5954C92.6268 17.7509 92.4868 17.8598 92.3312 17.8753V18.2486H93.5445V17.8753C93.3734 17.8753 93.2489 17.7665 93.2489 17.5954L93.3111 16.0088L94.0889 17.051H94.2755L95.1154 15.9933L95.1777 17.6109C95.1777 17.782 95.0377 17.8909 94.8821 17.8909V18.2486H94.8666ZM97.5885 22.526V21.7639H97.4019C97.4019 22.0127 96.9975 22.3394 96.6086 22.3394C96.0331 22.3394 95.6754 21.8728 95.6754 21.1573C95.6754 20.4884 95.9398 19.8663 96.5775 19.8663C97.0286 19.8663 97.3708 20.3484 97.3708 20.8151H97.5885V19.6174H97.3863C97.1841 19.3841 96.7953 19.1974 96.3598 19.1974C95.4887 19.1974 94.7732 19.8974 94.7732 21.1417C94.7732 22.4483 95.8154 22.9771 96.5153 22.9771C97.1375 22.9615 97.5263 22.6816 97.5885 22.526ZM98.5529 21.4372H99.0662V21.0328H98.8795C98.8795 21.1106 98.8329 21.1573 98.7707 21.1573H98.3507V20.644H98.6773C98.7551 20.644 98.7551 20.7062 98.7551 20.7995H98.9573V20.2396H98.7551C98.7551 20.3173 98.7551 20.3951 98.6773 20.3951H98.3507V19.8818H98.7707C98.8484 19.8818 98.8795 19.944 98.8795 20.0063H99.0662V19.6018H97.8063V19.8507C97.9152 19.8507 98.0085 19.9129 98.0085 20.0218V20.9706C98.0085 21.0795 97.9152 21.1573 97.8063 21.1573V21.4217H98.5529V21.4372ZM101.119 22.4016L100.451 23.0704H95.3176L92.2535 26.1346L89.1893 23.0704H84.0564L83.3876 22.4016L92.269 9.56943L101.119 22.4016ZM100.575 23.3971L101.539 22.4327L92.2379 8.99393L82.9365 22.4327L83.9009 23.3971H89.0338L92.2379 26.6012L95.4421 23.3971H100.575ZM103.359 21.6239L100.87 24.1125H95.7376L92.6112 27.2389C92.4246 27.4256 92.0824 27.4256 91.8957 27.2389L88.8005 24.1592L88.7538 24.1125H83.6209L81.1323 21.6239V0.781345C81.1323 0.61025 81.2723 0.485817 81.4278 0.485817H103.079C103.25 0.485817 103.375 0.625804 103.375 0.781345V21.6239H103.359ZM101.01 24.4392L103.686 21.7639V0.781345C103.686 0.439154 103.406 0.15918 103.064 0.15918H81.4122C81.0701 0.15918 80.7901 0.439154 80.7901 0.781345V21.7483L83.4654 24.4236H88.5983L91.6313 27.4567C91.7868 27.6122 92.0046 27.7055 92.2224 27.7055C92.4401 27.7055 92.6579 27.6122 92.8134 27.4567L95.8465 24.4236H101.01V24.4392Z" fill="black"/>
<path fill-rule="evenodd" clip-rule="evenodd" d="M13.8437 64.9888C9.41076 64.9888 6.36215 63.4956 4.76008 60.5403C4.69833 60.4058 4.63875 60.2711 4.58027 60.1393C4.47684 59.906 4.37729 59.6814 4.2779 59.4826C3.65573 57.8339 3.82683 55.8274 4.41789 54.1476C4.99339 52.4833 6.1444 51.0056 7.82424 49.7769C8.19754 49.4813 8.83526 49.0925 9.42632 48.7814L9.43798 48.775L9.46163 48.7618C10.0605 48.4291 14.1319 46.1677 20.0031 46.1372H20.1276C26.9558 46.1372 31.1399 48.3614 31.8709 48.7969C32.3687 48.097 34.8262 44.7684 37.066 43.2286C38.2015 42.4509 38.5125 42.2487 39.0258 42.0931L38.8638 42.0552C38.8127 42.0432 38.7597 42.0307 38.7045 42.0177C36.3494 41.4633 30.1707 40.0089 22.2274 40.0089H21.5274C16.5034 40.0555 12.2105 41.2376 10.6084 43.0108C10.1263 43.5397 9.92405 44.0996 9.97071 44.6751C10.064 45.6861 10.344 46.0905 10.344 46.0905C10.3476 46.0977 10.3526 46.1069 10.3582 46.1176C10.4019 46.1994 10.496 46.375 10.4684 46.526C10.4529 46.5883 10.4218 46.6505 10.3596 46.6816C10.2196 46.7594 10.064 46.7282 9.87739 46.6038C9.76851 46.526 9.62852 46.3394 9.51964 46.1527C8.88192 44.924 8.72638 43.8196 9.05302 42.8708C9.44187 41.7665 10.4529 40.8643 12.1638 40.1022C14.5281 39.0756 17.4523 38.5468 20.8586 38.5468C26.2559 38.5468 30.1289 39.0912 37.8437 40.6466L37.937 40.6621C38.8547 40.8488 39.9435 41.1132 41.0012 41.5332C41.6545 41.782 42.5877 42.2642 42.6033 42.3109C42.6344 42.3731 42.6344 42.4353 42.6188 42.4975L42.6033 42.5286L42.5722 42.5597C42.51 42.622 42.4011 42.622 42.0744 42.5131C41.7634 42.4353 41.6389 42.4198 41.5923 42.4198C41.5145 42.4042 41.359 42.3886 41.0012 42.4198C38.6214 42.5908 36.0706 45.2039 33.3952 50.1813C34.5929 51.1145 35.4639 52.0789 35.9928 53.0743C36.2416 53.4943 36.4127 53.9298 36.5216 54.3653C37.2682 52.8721 37.9993 51.6122 38.7147 50.6012C43.1943 44.2551 48.2494 40.911 53.7867 40.911C55.9954 40.911 57.753 41.4865 58.9196 42.3731C59.2462 42.6064 59.4173 42.8864 59.3706 43.0886C59.3395 43.1975 59.2773 43.2597 59.1684 43.2908C58.9507 43.3374 58.764 43.2286 58.4374 43.0264C58.3567 42.9688 58.259 42.9111 58.1506 42.8472C58.1126 42.8249 58.0731 42.8016 58.033 42.7775C57.3331 42.3731 55.4199 41.9531 53.9578 41.9531C48.7938 41.9531 44.3609 45.2662 40.3013 52.39C38.8392 54.9097 37.6882 57.5695 36.8638 60.307L36.4594 61.7535C36.3039 62.158 36.055 62.3757 35.7284 62.4068C35.324 62.4224 34.9973 62.2357 34.7484 61.8158C34.1885 60.7892 34.4374 59.1093 35.7439 56.1541C35.7595 55.2053 35.5417 54.3031 35.0751 53.4632C34.6085 52.6077 33.8774 51.7989 32.9286 51.0367C32.9182 51.0574 32.9082 51.0775 32.8983 51.0971C32.8779 51.1377 32.8583 51.1764 32.8392 51.2144C32.7281 51.4343 32.6255 51.637 32.4153 52.0944C30.2533 56.8384 27.158 60.2915 23.2384 62.3913C20.4386 63.9 17.1412 64.9888 13.8437 64.9888ZM14.8703 48.3148C12.786 49.0614 10.9662 50.0102 9.48853 51.1145C5.91108 53.8365 4.55787 56.5274 5.44446 59.1249C5.56889 59.4671 5.72443 59.8093 5.87998 60.1359C7.23318 62.609 9.79962 63.8689 13.5326 63.8689C16.1924 63.8689 18.961 62.8579 21.7607 60.867C24.6538 58.7983 27.2514 55.9052 29.5067 52.2655L30.0667 51.3634C30.3188 50.9804 30.5037 50.6986 30.6885 50.4166C30.8117 50.2289 30.9347 50.0411 31.0777 49.8235C28.3557 48.2992 25.1671 47.4126 21.3408 47.3193H21.0141C19.0854 47.3193 17.0323 47.5682 14.8703 48.3148Z" fill="black"/>
<path d="M38.4202 60.8359C38.4202 60.2292 38.8712 59.7471 39.4156 59.7471C39.96 59.7471 40.4111 60.2292 40.4111 60.8359C40.4111 61.4425 39.96 61.9246 39.4156 61.9246C38.8712 61.9246 38.4202 61.4425 38.4202 60.8359Z" fill="black"/>
<path d="M64.861 44.9395C66.3697 43.6952 67.5052 42.8553 68.8273 42.3109C68.9984 42.2331 69.1539 42.1709 69.3094 42.1242C66.883 43.7419 65.1098 46.4949 64.0522 50.3679C63.2589 53.9454 62.6523 56.8073 62.2479 58.876C61.4702 59.8093 61.0035 60.4003 60.8169 60.6803C60.5214 61.1625 60.4747 61.6136 60.6925 62.0024C60.7858 62.1735 60.9413 62.2824 61.128 62.3446C61.2058 62.3757 61.2835 62.3913 61.3924 62.3913C61.9212 62.3913 62.3879 61.8935 62.8078 60.8981C62.9945 60.4781 63.1345 59.9648 63.2122 59.3427C66.1364 55.7963 68.7651 52.7788 71.0515 50.3679C74.3645 46.8682 78.1131 43.9285 82.1883 41.6576C82.8104 41.2999 83.5104 40.9888 84.257 40.7244C81.1772 42.5131 78.0975 45.5928 75.1267 49.9169C73.9757 51.6278 72.9336 53.5254 72.0159 55.5786C71.0826 57.6784 70.6315 59.2182 70.6315 60.2915C70.6315 60.6648 70.7249 61.0225 70.896 61.3647C71.2226 61.9091 71.5804 62.1891 71.9848 62.1891H72.0159C72.5136 62.1891 72.9025 61.5825 73.2135 60.3226C73.7735 58.0672 75.0334 55.2053 76.9776 51.7834C80.8817 44.8462 84.2259 41.1288 87.4145 40.1489C88.1766 39.9155 89.0321 39.8844 89.872 39.9311C89.872 39.9311 91.3185 40.0711 91.9096 40.2733C92.5007 40.4755 93.3095 40.9266 93.6361 41.2843C93.6388 41.2882 93.6414 41.2921 93.6444 41.2958C93.6484 41.3013 93.6528 41.3064 93.6571 41.3115C93.6615 41.3165 93.666 41.3215 93.6706 41.3263C93.6772 41.3331 93.6839 41.3398 93.6906 41.3465C93.71 41.366 93.7294 41.3854 93.745 41.4087C93.9316 41.6265 94.1183 41.8287 94.3205 41.7198C94.3983 41.6732 94.4605 41.611 94.4916 41.5332C94.5323 41.3702 94.4188 41.1834 94.3791 41.118C94.3734 41.1085 94.3692 41.1015 94.3671 41.0977C94.3659 41.0956 94.3642 41.0925 94.3619 41.0883L94.3609 41.0868C94.264 40.9144 93.2533 39.1158 89.7009 38.889C88.2077 38.7957 86.4968 39.1067 84.6458 39.6667C83.3237 40.0555 82.2505 40.4755 81.4417 40.911C77.2421 43.1819 73.4313 46.1372 70.1183 49.6835C68.9984 50.8657 67.1474 52.9966 64.6121 56.0452C65.2343 54.7075 65.9653 52.9188 66.7897 50.6634C67.3496 49.1391 67.894 47.5837 68.3918 46.0594C69.0295 44.4262 69.5739 43.1353 70.2738 42.5442C70.5071 42.3575 70.9426 42.0776 71.4248 41.8131C71.8914 41.5643 72.1247 41.4554 72.4358 41.3776C72.4634 41.3708 72.4896 41.3644 72.5147 41.3583C72.7734 41.2953 72.9039 41.2636 72.918 41.051C72.918 41.0199 72.918 40.9732 72.9025 40.911C72.8869 40.8799 72.7158 40.6466 72.4669 40.5688C72.2196 40.5001 71.8995 40.5528 71.6888 40.5875L71.6531 40.5932C71.6385 40.5957 71.6247 40.5979 71.6115 40.5999C70.8026 40.7244 69.745 40.9577 68.7028 41.2688C66.8519 41.7976 65.1098 43.0108 63.57 44.3485C62.5745 45.1884 61.4702 46.1527 60.5214 47.2415C59.1688 48.7764 56.7173 52.0933 54.8791 54.5806L54.7508 54.7542C53.9264 55.8741 53.2109 56.8384 52.8221 57.3206C52.6976 57.4762 52.511 57.725 52.2621 58.0828C39.5388 75.2856 29.8019 81.3206 23.7825 83.0471C13.9212 85.878 7.79285 83.0783 4.97755 81.2895C1.83561 79.2986 0.809044 76.25 0.731273 74.4613C0.715719 74.0413 0.544624 73.8702 0.264649 73.9013C-0.00412629 73.9312 -0.000550738 74.4057 0.000226968 74.4985V74.5079C-0.0308813 78.3965 3.12661 85.2714 15.1344 85.5203H15.6788C23.7669 85.5203 32.1506 81.6473 40.5965 74.4768C47.4682 68.6529 52.5693 61.9592 54.7967 59.0364L54.8597 58.9538C55.0874 58.6502 55.2924 58.3844 55.4642 58.1616C55.5388 58.065 55.6073 57.9761 55.6685 57.8961C56.8039 56.2163 57.6127 54.9408 58.3282 53.8054C58.4136 53.6715 58.4973 53.54 58.5798 53.4105C59.1579 52.5021 59.6735 51.6922 60.2725 50.8345C62.2168 48.0192 63.6789 45.9506 64.861 44.9395Z" fill="black"/>
<path fill-rule="evenodd" clip-rule="evenodd" d="M112.577 52.9841C112.521 52.9784 112.46 52.9723 112.395 52.9655C112.007 52.9344 111.571 53.0432 111.151 53.2921C110.7 53.541 110.233 53.8676 109.782 54.272C109.331 54.6764 108.865 55.143 108.414 55.6719C107.962 56.1852 107.543 56.7296 107.138 57.274C106.811 57.7717 106.531 58.2228 106.329 58.5805C106.127 58.9382 105.956 59.2804 105.816 59.6071L105.786 59.6772C105.654 59.9846 105.511 60.3193 105.38 60.6803C105.241 61.0692 105.069 61.5513 104.883 62.1269L104.852 62.2357H104.743C104.572 62.2357 104.416 62.1735 104.261 62.0491C104.121 61.9246 103.981 61.7847 103.872 61.6447C103.747 61.4891 103.654 61.3336 103.576 61.1625C103.498 60.9914 103.467 60.8514 103.467 60.7425C103.53 59.9337 103.716 59.0782 104.012 58.1761C103.343 59.016 102.627 59.7782 101.896 60.4314C100.559 61.6136 99.1744 62.1735 97.7279 62.0491C96.3435 61.9246 95.3636 61.2714 94.8348 60.1048C94.6481 59.6693 94.5393 59.2338 94.5081 58.7827C93.4816 59.8093 92.315 60.6337 91.024 61.2714C89.9041 61.8313 88.6287 62.0802 87.2133 62.018C85.8601 61.9557 84.9424 61.4891 84.5224 60.6337C84.1802 59.9648 84.2891 59.2493 84.8646 58.4872L84.9008 58.4458C84.9946 58.3382 85.0791 58.2416 85.1757 58.145C85.2299 58.0862 85.2867 58.0262 85.3472 57.9622C85.4953 57.8058 85.6659 57.6256 85.8756 57.3828C85.9067 57.3517 86.2956 57.0873 86.5755 57.1184C86.7155 57.134 86.84 57.2117 86.9022 57.3362C86.995 57.5065 86.8107 57.6613 86.4258 57.9846L86.42 57.9894C86.387 58.0181 86.353 58.0475 86.318 58.0776C85.9731 58.375 85.5459 58.7435 85.3623 59.1249C85.0954 59.6587 85.2979 60.055 85.4001 60.2551C85.4077 60.27 85.415 60.2843 85.4213 60.2971C85.4289 60.3125 85.4353 60.3261 85.4401 60.3381C85.5334 60.5559 85.6423 60.6648 85.689 60.6803C87.9407 61.4051 88.8925 59.8668 89.3027 59.2039L89.3131 59.1871C89.3352 59.1577 89.3502 59.1317 89.3633 59.1093C89.3779 59.0843 89.3901 59.0635 89.4064 59.0471C90.5418 57.3206 90.2619 54.4742 90.1374 53.6032C89.6864 53.9765 88.5976 54.7853 87.5866 54.9408C86.9488 55.0342 86.1556 54.8631 85.7201 54.7542C85.549 55.5475 85.1601 56.4496 84.5691 57.4451C82.7026 60.4781 80.8361 62.018 79.0162 62.018C77.8341 62.018 76.9475 61.458 76.3565 60.3537C75.5321 58.8605 75.6877 57.1651 76.8387 55.3141C77.5386 54.132 78.534 53.1366 79.7784 52.3744C81.0072 51.6278 82.1893 51.2545 83.3092 51.2545C84.3513 51.2545 85.0824 51.6123 85.4868 52.3277C85.6734 52.6699 85.7823 53.0743 85.8134 53.5254C86.0623 53.7276 86.7466 54.1787 87.4777 54.1165C89.0703 53.9997 89.8256 52.6612 89.9243 52.4864C89.9307 52.475 89.9343 52.4687 89.9352 52.4677C90.4174 51.3478 90.8685 50.5079 91.2729 49.9946C91.9728 49.0769 92.5639 48.6259 93.0772 48.6259C93.4194 48.6259 93.6682 48.7347 93.8082 48.9681C94.1037 49.528 93.7771 50.2279 92.7661 51.1145C92.2528 51.5189 91.6462 52.0633 90.9774 52.7788C90.884 52.9655 90.8529 53.401 91.1951 54.3964C91.7084 56.0452 91.9884 57.0406 92.0506 57.4139C92.1439 58.4716 91.8795 59.3893 91.2884 60.167C92.5172 59.4049 93.6682 58.3939 94.6948 57.134C94.8659 56.5896 95.1303 56.0296 95.5036 55.4697C96.2658 54.3498 97.2768 53.3699 98.5211 52.5299C99.7654 51.69 100.885 51.2701 101.85 51.2701C102.721 51.2701 103.327 51.5811 103.67 52.2033C104.09 52.9499 103.794 53.7898 102.799 54.692C102.425 55.0186 101.819 55.4541 101.041 55.7341C100.248 56.0141 99.4855 56.1696 98.91 56.1696C98.6611 56.1696 98.4589 56.1385 98.2878 56.0918C96.8257 58.2539 96.4369 59.716 96.9657 60.6959C97.1835 61.0692 97.5257 61.2403 98.0389 61.2403C98.8944 61.2403 99.8277 60.867 100.808 60.1048C101.803 59.3582 102.752 58.3472 104.074 56.6362L104.401 56.2007C104.446 56.1407 104.496 56.075 104.551 56.0023C104.797 55.6792 105.146 55.2193 105.692 54.5209C105.972 54.0387 106.236 53.6032 106.516 53.2299C106.874 52.7322 107.247 52.3433 107.605 52.0789C107.822 51.8922 108.18 51.7367 108.678 51.6278C109.16 51.5189 109.658 51.4723 110.171 51.4723H110.591L110.264 51.7367C109.72 52.1878 109.129 52.8099 108.522 53.5876C107.962 54.3031 107.48 55.0653 107.107 55.8585C107.326 55.5815 107.58 55.2788 107.855 54.9505L107.856 54.9488C107.951 54.8352 108.049 54.7184 108.149 54.5987C108.616 54.0543 109.113 53.541 109.642 53.0588C110.171 52.5922 110.716 52.1878 111.291 51.8922C111.882 51.5811 112.473 51.4567 113.033 51.5345C113.438 51.5811 113.764 51.7211 114.029 51.9233C114.293 52.1255 114.48 52.3589 114.635 52.6388V52.6544C114.76 52.9344 114.76 53.1677 114.635 53.3232C114.495 53.4943 114.355 53.541 114.215 53.5099C114.122 53.4788 114.013 53.4321 113.904 53.3699C113.811 53.3232 113.686 53.2765 113.562 53.2299C113.344 53.1366 113.173 53.0743 113.033 53.0432C112.924 53.019 112.777 53.0042 112.577 52.9841ZM102.472 52.0011C102.285 51.9544 101.834 52.0167 100.683 53.0899C99.9054 53.8676 99.3144 54.5675 98.7544 55.3764H98.8167C99.8743 55.3764 100.823 54.9564 101.803 53.9143C102.519 53.1366 102.783 52.5299 102.581 52.1566C102.55 52.0789 102.503 52.0322 102.472 52.0011ZM79.1873 56.7607C78.0674 58.7516 77.6941 60.1048 78.0674 60.7892C78.223 61.1158 78.4874 61.2558 78.8451 61.2558C79.8873 61.2558 81.396 59.6226 83.3403 56.4029C84.5224 54.4431 84.9113 53.0588 84.5068 52.3122C84.398 52.11 84.2113 52.0167 83.9158 52.0167C82.6092 52.0167 81.0227 53.6187 79.1873 56.7607Z" fill="black"/>
<path fill-rule="evenodd" clip-rule="evenodd" d="M126.44 59.9182C126.316 59.9182 126.207 59.9804 126.176 60.027C125.616 60.5714 125.274 60.8203 124.807 60.7581C124.465 60.7114 124.247 60.6336 123.998 60.3537C125.771 59.0938 126.58 57.5228 126.658 57.3362C126.751 57.134 126.736 56.9007 126.673 56.7762C126.627 56.6985 126.549 56.6362 126.456 56.6362C126.362 56.6362 126.253 56.6673 126.191 56.7607C126.182 56.7703 126.172 56.7859 126.159 56.8073C126.155 56.8139 126.15 56.8209 126.146 56.8285C126.141 56.8364 126.135 56.8448 126.129 56.854C125.196 58.2539 124.185 59.0938 123.454 59.5604C122.972 58.8449 122.785 58.2383 122.505 57.1495C122.287 56.2785 122.194 55.0186 122.209 54.412L122.287 54.3653C123.065 53.9143 123.671 53.5565 124.216 52.841C124.729 52.1566 124.962 51.3167 124.807 50.6946C124.729 50.3524 124.543 50.1191 124.263 49.9946C123.64 49.6991 122.723 50.2435 122.241 50.9279C121.681 51.7056 121.198 52.8877 120.95 54.1631C119.161 55.0808 117.077 56.3874 116.61 58.3783C116.345 59.4826 116.781 60.6648 117.31 61.2714C117.854 61.9091 118.647 62.2357 119.581 62.2357C120.545 62.2357 121.634 61.8935 122.754 61.2247C123.314 61.8002 123.983 62.0335 124.838 61.9402C125.522 61.8624 126.145 61.4269 126.611 60.7114C126.72 60.5714 126.813 60.2915 126.658 60.0737C126.611 59.9648 126.533 59.9182 126.44 59.9182ZM123.065 51.5189C123.189 51.3167 123.64 50.679 123.967 50.8501C124.06 50.8968 124.107 50.959 124.138 51.0679C124.216 51.3634 124.045 51.8611 123.687 52.3744C123.252 52.981 122.816 53.2765 122.272 53.5876C122.489 52.4237 122.768 51.9876 123.016 51.5993L123.018 51.5967L123.065 51.5189ZM120.981 57.445C121.167 58.5183 121.525 59.3893 122.178 60.3226C120.918 60.9758 120.078 61.1158 119.332 60.8203C118.461 60.4626 117.994 59.8248 117.963 58.9538C117.916 57.8339 118.352 57.0251 119.441 56.1852C119.879 55.8344 120.441 55.4837 120.817 55.249L120.887 55.2053C120.841 55.7808 120.872 56.7296 120.981 57.445Z" fill="black"/>
<path fill-rule="evenodd" clip-rule="evenodd" d="M165.822 56.7607C166.117 56.3718 166.397 56.5118 166.506 56.5896C166.631 56.6829 166.817 56.9007 166.615 57.2584C165.713 58.4872 164.749 59.576 163.738 60.4937C162.4 61.6758 161 62.2202 159.569 62.1113C158.185 61.9869 157.205 61.3336 156.676 60.167C156.505 59.7626 156.396 59.3271 156.365 58.8916C155.961 59.3582 155.51 59.8404 154.996 60.3226C153.768 61.5202 152.632 62.1269 151.605 62.1269C150.532 62.1269 149.786 61.738 149.381 60.9758C149.055 60.4003 148.946 59.7315 149.055 58.9849C147.67 60.3848 144.015 63.6823 140.158 63.7911H139.878C137.062 63.8067 134.605 62.5779 133.267 60.4937C130.607 56.3407 132.287 51.1145 135.149 47.7859C137.622 44.924 140.982 42.5753 144.668 41.1443C144.031 40.9888 143.035 40.7866 141.651 40.8488C140.111 40.911 138.96 41.1132 136.938 43.1508C136.674 43.4152 136.471 43.3219 136.362 43.2441C136.191 43.1041 136.207 42.8397 136.409 42.5753C137.747 40.7555 139.691 39.7133 141.744 39.6978H141.853C143.892 39.6978 144.796 39.9894 145.752 40.2982L145.773 40.3044C145.91 40.35 146.046 40.3903 146.186 40.4315C146.286 40.4604 146.386 40.49 146.488 40.5222C148.712 39.7133 150.299 39.2934 152.756 39.1845C155.525 39.0601 159.087 39.9 160.145 41.5954C160.456 42.1087 160.471 42.6997 160.191 43.073C159.74 43.6641 158.029 44.5662 152.725 43.3686C151.994 43.1975 148.044 42.1087 146.815 41.7354C143.517 43.1353 140.593 45.2817 138.353 47.957C134.745 52.2655 133.329 57.4762 134.994 60.3537C135.911 61.9558 137.747 62.9201 139.893 62.9201C143.548 62.9201 147.95 58.7516 149.335 57.134C149.599 56.8229 150.097 56.2318 150.283 55.9363C150.423 55.7185 150.501 55.6408 150.548 55.5941C151.637 53.8054 152.71 52.5766 153.721 51.97C154.219 51.6745 154.919 51.55 155.821 51.5967L156.101 51.6123L155.93 51.83C153.814 54.6609 152.321 57.0562 151.528 58.9227C151.061 59.9648 150.937 60.6803 151.154 61.0536C151.232 61.2403 151.388 61.318 151.621 61.318C152.274 61.318 153.145 60.7892 154.203 59.7471C155.074 58.8916 155.883 57.9739 156.614 57.0251C156.785 56.5274 157.034 56.0296 157.345 55.563C158.107 54.4431 159.118 53.4632 160.362 52.6233C161.607 51.7834 162.727 51.3634 163.691 51.3634C164.547 51.3634 165.169 51.6745 165.511 52.2966C165.931 53.0588 165.635 53.8832 164.64 54.7853C164.282 55.1119 163.644 55.5475 162.836 55.843C162.027 56.123 161.311 56.294 160.736 56.294C160.487 56.294 160.285 56.2629 160.114 56.2163C158.652 58.3783 158.278 59.8093 158.807 60.7892C159.025 61.1625 159.367 61.3336 159.88 61.3336C160.72 61.3336 161.653 60.9603 162.633 60.1981C163.738 59.3738 164.811 58.2072 165.822 56.7607ZM164.329 52.0789C164.142 52.0167 163.691 52.0944 162.54 53.1677C161.762 53.9298 161.156 54.6609 160.596 55.4852H160.658C161.716 55.4852 162.68 55.0342 163.66 53.992C164.375 53.1988 164.64 52.6077 164.438 52.2344C164.407 52.1566 164.36 52.11 164.329 52.0789ZM159.32 42.062C159.009 41.051 155.945 40.2266 153.176 40.2266C153.145 40.2266 153.114 40.2266 153.068 40.2422C151.637 40.2422 150.112 40.5222 148.417 41.051C149.023 41.2065 149.646 41.3776 150.252 41.5487C151.123 41.7976 151.963 42.0309 152.71 42.202C155.587 42.8708 156.894 42.9953 158.138 42.8397C158.916 42.7464 159.196 42.5442 159.289 42.3887C159.351 42.2953 159.351 42.1865 159.32 42.062Z" fill="black"/>
<path d="M155.044 48.8281C155.044 49.4347 155.495 49.9169 156.04 49.9169C156.584 49.9169 157.035 49.4191 157.035 48.8281C157.035 48.2215 156.584 47.7393 156.04 47.7393C155.495 47.7393 155.044 48.2215 155.044 48.8281Z" fill="black"/>
<path d="M166.009 60.8359C166.009 60.2292 166.46 59.7471 167.005 59.7471C167.549 59.7471 168 60.2292 168 60.8359C168 61.4425 167.549 61.9246 167.005 61.9246C166.46 61.9246 166.009 61.4425 166.009 60.8359Z" fill="black"/>
<path d="M63.6786 83.0316L61.7188 77.7276L61.7033 77.681H60.2412L63.1187 85.3647L63.1342 85.4114H64.2075L67.1161 77.681H65.6851L63.6786 83.0316Z" fill="black"/>
<path d="M73.3227 82.0828H69.7608V84.1204H73.9293V85.4114H68.4076V77.681H73.7115V78.972H69.7608V80.7918H73.3227V82.0828Z" fill="black"/>
<path fill-rule="evenodd" clip-rule="evenodd" d="M81.6453 79.983C81.6453 78.9253 81.0232 77.681 79.2344 77.681H75.7659V85.4269H77.1191V82.3006H78.2079L80.4476 85.4269H82.1431L79.841 82.1761C81.0076 81.9117 81.6453 81.134 81.6453 79.983ZM77.1346 78.972H79.0011C79.9033 78.972 80.2921 79.2675 80.2921 79.983C80.2921 80.6674 79.8255 80.994 78.8922 80.994H77.1346V78.972Z" fill="black"/>
<path d="M84.1338 77.7899L86.0625 80.8696L88.0845 77.681H89.6711L89.5933 77.8054L86.7313 82.2383V85.4114H85.3781V82.2383L82.4228 77.681H84.056L84.1338 77.7899Z" fill="black"/>
<path fill-rule="evenodd" clip-rule="evenodd" d="M100.978 79.983C100.978 78.9253 100.356 77.681 98.5828 77.681H95.1142V85.4269H96.4674V82.3006H97.5562L99.796 85.4269H101.491L99.1738 82.1761C100.34 81.9117 100.978 81.134 100.978 79.983ZM96.4674 78.972H98.3339C99.2516 78.972 99.6249 79.2675 99.6249 79.983C99.6249 80.6674 99.1583 80.994 98.225 80.994H96.4674V78.972Z" fill="black"/>
<path fill-rule="evenodd" clip-rule="evenodd" d="M104.96 77.681H105.971L106.018 77.821L108.973 85.4425H107.511L107.495 85.3803L106.718 83.3116H104.089L103.249 85.4269H101.818L101.942 85.1003L104.96 77.681ZM104.571 82.0517H106.235L105.411 79.8586L104.571 82.0517Z" fill="black"/>
<path d="M119.114 82.0828V84.1204H123.266V85.4114H117.76V77.681H123.064V78.972H119.114V80.7918H122.675V82.0828H119.114Z" fill="black"/>
<path fill-rule="evenodd" clip-rule="evenodd" d="M113.67 77.681C115.459 77.681 116.081 78.9253 116.081 79.983C116.081 81.134 115.443 81.9117 114.261 82.1761L116.579 85.4269H114.883L112.644 82.3006H111.555V85.4269H110.202V77.681H113.67ZM113.437 78.972H111.57V80.994H113.328C114.261 80.994 114.728 80.6674 114.728 79.983C114.728 79.2675 114.339 78.972 113.437 78.972Z" fill="black"/>
</g>
<defs>
<clipPath id="clip0_678_379">
<rect width="168" height="85.3611" fill="white" transform="translate(0 0.15918)"/>
</clipPath>
</defs>
</svg>
