<svg width="168" height="44" viewBox="0 0 168 44" fill="none" xmlns="http://www.w3.org/2000/svg">
<g clip-path="url(#clip0_678_224)">
<g clip-path="url(#clip1_678_224)">
<path d="M150.343 35.8524C150.343 33.433 150.343 28.8589 159.171 28.8589C168 28.8589 168 33.4239 168 35.8524V43.4668H165.508V36.4367C165.508 33.9808 165.508 31.0866 159.208 31.0866C152.908 31.0866 152.908 33.9808 152.908 36.4367V43.4668H150.379V35.8524H150.343ZM135.735 41.6408H136.036C139.003 41.6408 143.139 40.9104 143.139 36.3637C143.139 31.817 139.003 31.0866 136.036 31.0866H135.78C132.85 31.0866 128.677 31.817 128.677 36.3637C128.677 40.9104 132.804 41.6408 135.735 41.6408ZM135.735 28.8589H136.036C140.756 28.8589 145.668 30.6849 145.668 36.3637C145.668 42.0425 140.729 43.8685 136.036 43.8685H135.78C131.06 43.8685 126.148 42.0425 126.148 36.3637C126.148 30.6849 131.005 28.8589 135.735 28.8589ZM104.319 29.2606H123.948V31.5066H115.384V43.4668H112.846V31.5066H104.282V29.2697L104.319 29.2606ZM92.5319 29.2606H95.0609V41.23H106.117V43.4668H92.5228V29.2606H92.5319ZM82.7538 29.2606H85.2828V43.4303H82.7538V29.2606ZM77.4767 22.1575V13.2467L69.1319 9.9508H77.4767V0.884766L81.649 10.0147H86.3327L90.5416 0.884766V9.9508H98.8864L90.5507 13.2467V22.1849L86.634 13.7306H81.4025L77.4858 22.1849L77.4767 22.1575ZM50.0868 36.2907C50.0868 32.0452 50.5981 28.8589 57.2265 28.8589C60.705 28.8589 62.3849 29.918 63.1974 31.68C64.0009 29.918 65.6899 28.8589 69.1319 28.8589C75.7968 28.8589 76.2715 32.0452 76.2715 36.2907V43.4303H73.7425V36.3272C73.7425 32.4104 72.9756 31.0501 69.0589 31.0501C65.1421 31.0501 64.4939 32.4013 64.4939 36.3272V43.4303H61.9192V36.3272C61.9192 32.4104 61.1889 31.0501 57.3543 31.0501C53.5197 31.0501 52.6706 32.4013 52.6706 36.3272V43.4303H50.096V36.2907H50.0868ZM41.669 36.6193V35.8524C41.669 33.2139 41.669 31.0957 35.0407 31.0957C28.4124 31.0957 28.4124 33.223 28.4124 35.8524V36.6193H41.669ZM25.8834 35.889C25.8834 32.447 26.1025 28.8589 35.0133 28.8589C43.9241 28.8589 44.1433 32.447 44.1433 35.889V43.4303H41.6143V38.8105H28.4124V43.4212H25.8834V35.889ZM0 29.2606H2.52899V35.1586H16.8813V29.2971H19.4103V43.4668H16.8813V37.3497H2.52899V43.4668H0V29.2606Z" fill="black"/>
</g>
</g>
<defs>
<clipPath id="clip0_678_224">
<rect width="168" height="42.9655" fill="white" transform="translate(0 0.902832)"/>
</clipPath>
<clipPath id="clip1_678_224">
<rect width="168" height="42.9655" fill="white" transform="translate(0 0.902832)"/>
</clipPath>
</defs>
</svg>
