<svg width="168" height="48" viewBox="0 0 168 48" fill="none" xmlns="http://www.w3.org/2000/svg">
<g clip-path="url(#clip0_678_1680)">
<path d="M0.636081 46.0727C0.775006 46.2646 0.960997 46.4176 1.17615 46.5168C1.38816 46.6235 1.62293 46.677 1.86024 46.6728C2.00158 46.6912 2.14517 46.6811 2.28256 46.6431C2.41994 46.6052 2.54834 46.5401 2.66018 46.4517C2.77203 46.3634 2.86506 46.2535 2.93379 46.1287C3.00252 46.0038 3.04557 45.8664 3.06039 45.7247C3.06039 44.4045 0.216028 45.2206 0.216028 43.0003C0.233666 42.7648 0.29908 42.5353 0.408283 42.3258C0.517487 42.1163 0.668193 41.9313 0.85122 41.7819C1.03425 41.6326 1.24576 41.5221 1.47288 41.4571C1.7 41.3922 1.93796 41.3741 2.17228 41.4041C2.48064 41.378 2.79086 41.424 3.07834 41.5386C3.36582 41.6531 3.62266 41.8331 3.82849 42.0642L3.19241 42.6283C3.07601 42.4686 2.922 42.3402 2.74404 42.2543C2.56608 42.1685 2.36968 42.1279 2.17228 42.1362C1.30817 42.1362 1.04413 42.6523 1.04413 43.0003C1.04413 44.4405 3.8885 43.5884 3.8885 45.6407C3.88232 45.8952 3.82258 46.1456 3.71318 46.3755C3.60377 46.6053 3.44715 46.8096 3.25353 46.9749C3.0599 47.1402 2.83362 47.2629 2.58942 47.3349C2.34521 47.4069 2.08858 47.4267 1.83623 47.3929C1.49063 47.4142 1.14481 47.3548 0.826119 47.2194C0.507426 47.084 0.2246 46.8763 0 46.6128L0.636081 46.0727Z" fill="#F77F00"/>
<path d="M6.99399 41.5602H7.8341L9.03425 46.1207L10.4024 41.5602H11.2905L12.6467 46.1207L13.8469 41.5602H14.663L12.9828 47.2609H12.2987L10.9065 42.6043L9.50231 47.2609H8.6742L6.99399 41.5602Z" fill="#F77F00"/>
<path d="M18.2328 41.5602H19.0249V47.2609H18.2328V41.5602Z" fill="#F77F00"/>
<path d="M23.3549 46.0727C23.4893 46.2671 23.671 46.4241 23.8829 46.5288C24.0954 46.6341 24.3299 46.6876 24.567 46.6848C24.7084 46.7032 24.8519 46.6931 24.9893 46.6551C25.1267 46.6172 25.2551 46.5521 25.367 46.4637C25.4788 46.3754 25.5718 46.2655 25.6406 46.1407C25.7093 46.0158 25.7523 45.8784 25.7672 45.7367C25.7672 44.4165 22.9228 45.2326 22.9228 43.0123C22.9421 42.7774 23.0086 42.5488 23.1183 42.3401C23.228 42.1315 23.3787 41.9471 23.5614 41.7981C23.744 41.6491 23.9549 41.5384 24.1813 41.4728C24.4077 41.4072 24.645 41.3879 24.8791 41.4161C25.1863 41.3903 25.4954 41.4353 25.7825 41.5477C26.0696 41.66 26.3271 41.8367 26.5353 42.0642L25.8992 42.6403C25.7852 42.4775 25.6327 42.3455 25.4551 42.2562C25.274 42.1753 25.0775 42.1343 24.8791 42.1362C24.0149 42.1362 23.7509 42.6523 23.7509 43.0123C23.7509 44.4525 26.5953 43.6004 26.5953 45.6407C26.59 45.8916 26.5327 46.1388 26.4269 46.3665C26.3212 46.5941 26.1693 46.7973 25.9808 46.9632C25.7924 47.1291 25.5716 47.254 25.3323 47.33C25.0931 47.406 24.8406 47.4315 24.591 47.4049C24.2455 47.4253 23.9 47.3654 23.5814 47.2301C23.2629 47.0948 22.98 46.8876 22.7548 46.6248L23.3549 46.0727Z" fill="#F77F00"/>
<path d="M30.5568 46.0727C30.6986 46.265 30.8836 46.4212 31.0968 46.5288C31.3088 46.6355 31.5436 46.689 31.7809 46.6848C32.0574 46.7082 32.332 46.6219 32.5454 46.4445C32.7587 46.2671 32.8937 46.0128 32.9211 45.7367C32.9211 44.4165 30.0887 45.2326 30.0887 43.0123C30.108 42.7774 30.1745 42.5488 30.2842 42.3401C30.3939 42.1315 30.5446 41.9471 30.7273 41.7981C30.9099 41.6491 31.1208 41.5384 31.3472 41.4728C31.5736 41.4072 31.8109 41.3879 32.045 41.4161C32.3522 41.3903 32.6613 41.4353 32.9484 41.5477C33.2355 41.66 33.493 41.8367 33.7012 42.0642L33.0651 42.6403C32.95 42.4784 32.7966 42.3476 32.6185 42.2597C32.4405 42.1717 32.2434 42.1293 32.045 42.1362C31.1808 42.1362 30.9168 42.6523 30.9168 43.0123C30.9168 44.4525 33.7612 43.6004 33.7612 45.6407C33.7559 45.8916 33.6986 46.1388 33.5929 46.3665C33.4871 46.5941 33.3352 46.7973 33.1467 46.9632C32.9583 47.1291 32.7375 47.254 32.4982 47.33C32.259 47.406 32.0065 47.4315 31.7569 47.4049C31.4113 47.4262 31.0655 47.3668 30.7468 47.2314C30.4281 47.096 30.1453 46.8883 29.9207 46.6248L30.5568 46.0727Z" fill="#F77F00"/>
<path d="M41.8116 41.5602H42.6397L43.8399 46.1207L45.1961 41.5602H46.0962L47.4524 46.1207L48.7245 41.5602H49.5286L47.8604 47.2609H47.0443L45.7241 42.6043L44.32 47.2609H43.4918L41.8116 41.5602Z" fill="#F77F00"/>
<path d="M54.2827 41.5602H54.9907L57.4511 47.2609H56.5269L55.9509 45.8447H53.2265L52.6504 47.2609H51.7383L54.2827 41.5602ZM55.6748 45.1606L54.6427 42.5683L53.5506 45.1846L55.6748 45.1606Z" fill="#F77F00"/>
<path d="M60.905 42.2802H59.0447V41.5602H63.5333V42.2802H61.6851V47.2609H60.893L60.905 42.2802Z" fill="#F77F00"/>
<path d="M70.3881 42.7963C70.2195 42.5907 70.006 42.4265 69.764 42.3162C69.5254 42.1974 69.2625 42.1358 68.9959 42.1362C68.7001 42.1388 68.408 42.2018 68.1374 42.3213C67.8669 42.4409 67.6236 42.6144 67.4224 42.8312C67.2213 43.0481 67.0666 43.3038 66.9677 43.5826C66.8689 43.8614 66.828 44.1574 66.8476 44.4525C66.8306 44.7471 66.8755 45.0419 66.9794 45.318C67.0832 45.5941 67.2438 45.8455 67.4507 46.0558C67.6576 46.2661 67.9063 46.4307 68.1807 46.539C68.4551 46.6474 68.7491 46.697 69.0439 46.6848C69.3267 46.6839 69.6055 46.6186 69.8592 46.4939C70.1129 46.3691 70.3348 46.1881 70.5081 45.9647L71.1682 46.4568C70.9181 46.7601 70.602 47.0023 70.2441 47.1649C69.8698 47.3432 69.4583 47.4296 69.0439 47.4169C68.6542 47.418 68.2681 47.3422 67.9077 47.194C67.5474 47.0457 67.2197 46.8278 66.9436 46.5528C66.6703 46.2829 66.4531 45.9616 66.3048 45.6072C66.1565 45.2529 66.0799 44.8726 66.0795 44.4885C66.0544 44.0877 66.113 43.686 66.2516 43.3091C66.3903 42.9321 66.6059 42.5882 66.8848 42.2992C67.1636 42.0101 67.4996 41.7823 67.8714 41.6303C68.2431 41.4783 68.6424 41.4053 69.0439 41.4161C69.4253 41.4018 69.805 41.4744 70.1542 41.6282C70.5035 41.7821 70.8133 42.0132 71.0602 42.3042L70.3881 42.7963Z" fill="#F77F00"/>
<path d="M74.3956 41.5602H75.1757V43.9605H78.1641V41.5602H78.9442V47.2609H78.1641V44.6565H75.1757V47.2609H74.3956V41.5602Z" fill="#F77F00"/>
<path d="M83.3031 41.5602H87.0475V42.2802H84.0832V43.9845H86.8195V44.7646H84.0832V46.5888H87.1675V47.3089H83.3031V41.5602Z" fill="#F77F00"/>
<path d="M91.0957 46.0727C91.2359 46.2618 91.4163 46.4176 91.6238 46.5288C91.8405 46.6343 92.0788 46.6877 92.3199 46.6848C92.4615 46.7049 92.6057 46.6961 92.7437 46.6588C92.8818 46.6215 93.0109 46.5566 93.1231 46.4679C93.2353 46.3792 93.3284 46.2687 93.3966 46.143C93.4648 46.0173 93.5068 45.8791 93.52 45.7367C93.52 44.4165 90.6876 45.2326 90.6876 43.0123C90.7053 42.7768 90.7707 42.5473 90.8799 42.3378C90.9891 42.1283 91.1398 41.9433 91.3228 41.794C91.5059 41.6446 91.7174 41.5341 91.9445 41.4691C92.1716 41.4042 92.4096 41.3862 92.6439 41.4161C92.9511 41.3903 93.2602 41.4353 93.5473 41.5477C93.8344 41.66 94.092 41.8368 94.3001 42.0642L93.664 42.6403C93.541 42.4814 93.3855 42.3504 93.208 42.2562C93.0315 42.174 92.8386 42.1329 92.6439 42.1362C91.7798 42.1362 91.5158 42.6523 91.5158 43.0123C91.5158 44.4525 94.3601 43.6004 94.3601 45.6407C94.3549 45.8917 94.2976 46.1388 94.1918 46.3665C94.086 46.5941 93.9341 46.7974 93.7457 46.9632C93.5572 47.1291 93.3364 47.254 93.0972 47.33C92.8579 47.4061 92.6055 47.4316 92.3559 47.4049C92.0103 47.4262 91.6644 47.3668 91.3457 47.2314C91.0271 47.096 90.7442 46.8883 90.5196 46.6248L91.0957 46.0727Z" fill="#F77F00"/>
<path d="M103.333 46.0727C103.475 46.265 103.66 46.4212 103.873 46.5288C104.085 46.6341 104.32 46.6876 104.557 46.6848C104.698 46.7032 104.842 46.6931 104.979 46.6551C105.117 46.6172 105.245 46.5521 105.357 46.4637C105.469 46.3754 105.562 46.2655 105.631 46.1407C105.699 46.0158 105.742 45.8784 105.757 45.7367C105.757 44.4165 102.913 45.2326 102.913 43.0123C102.932 42.7774 102.999 42.5488 103.108 42.3401C103.218 42.1315 103.369 41.9471 103.551 41.7981C103.734 41.6491 103.945 41.5384 104.171 41.4728C104.398 41.4072 104.635 41.3879 104.869 41.4161C105.176 41.3903 105.485 41.4353 105.772 41.5477C106.06 41.66 106.317 41.8367 106.525 42.0642L105.889 42.6403C105.777 42.4793 105.623 42.351 105.445 42.2682C105.267 42.1769 105.069 42.1315 104.869 42.1362C104.005 42.1362 103.741 42.6523 103.741 43.0123C103.741 44.4525 106.585 43.6004 106.585 45.6407C106.58 45.8916 106.523 46.1388 106.417 46.3665C106.311 46.5941 106.159 46.7973 105.971 46.9632C105.782 47.1291 105.562 47.254 105.322 47.33C105.083 47.406 104.831 47.4315 104.581 47.4049C104.22 47.4408 103.855 47.3886 103.519 47.2527C103.182 47.1168 102.884 46.9014 102.649 46.6248L103.333 46.0727Z" fill="#F77F00"/>
<path d="M110.428 41.5602H111.208V47.2609H110.428V41.5602Z" fill="#F77F00"/>
<path d="M115.368 41.5602H116.388L119.556 46.2528V41.5602H120.348V47.2609H119.352L116.148 42.5683V47.2609H115.368V41.5602Z" fill="#F77F00"/>
<path d="M128.678 42.7963C128.51 42.5923 128.299 42.4275 128.061 42.3135C127.822 42.1995 127.562 42.139 127.298 42.1362C127.001 42.1371 126.708 42.1989 126.437 42.3178C126.165 42.4367 125.921 42.6102 125.72 42.8275C125.518 43.0447 125.364 43.3011 125.266 43.5807C125.167 43.8602 125.128 44.157 125.149 44.4525C125.133 44.7429 125.176 45.0336 125.277 45.3063C125.378 45.5791 125.534 45.828 125.736 46.0376C125.938 46.2472 126.181 46.4128 126.449 46.5242C126.718 46.6356 127.007 46.6902 127.298 46.6848C127.594 46.6842 127.885 46.6144 128.15 46.4808C128.407 46.347 128.63 46.1536 128.798 45.9167L129.458 46.4088C129.195 46.729 128.863 46.9851 128.487 47.1577C128.11 47.3303 127.699 47.4149 127.286 47.4049C126.503 47.4039 125.752 47.0933 125.197 46.5408C124.92 46.2732 124.7 45.9525 124.549 45.5978C124.399 45.2432 124.321 44.8618 124.321 44.4765C124.303 44.0759 124.367 43.6759 124.511 43.3015C124.655 42.9272 124.875 42.5866 125.157 42.3014C125.438 42.0162 125.776 41.7924 126.149 41.6441C126.521 41.4959 126.921 41.4265 127.322 41.4401C127.703 41.4249 128.083 41.4971 128.432 41.651C128.782 41.8049 129.091 42.0365 129.338 42.3282L128.678 42.7963Z" fill="#F77F00"/>
<path d="M133.179 41.5602H136.899V42.2802H133.959V43.9845H136.695V44.7646H133.959V46.5888H137.043V47.3089H133.179V41.5602Z" fill="#F77F00"/>
<path d="M146.8 42.4483L145.744 43.4084L145.288 42.8683L146.897 41.5602H147.581V47.2609H146.788L146.8 42.4483Z" fill="#F77F00"/>
<path d="M153.827 45.0526C153.628 45.1445 153.41 45.1896 153.191 45.1846C152.746 45.1866 152.317 45.0193 151.991 44.7165C151.825 44.5627 151.692 44.3773 151.599 44.1711C151.506 43.965 151.456 43.7424 151.451 43.5164V43.3844C151.477 42.8856 151.692 42.4153 152.051 42.0678C152.409 41.7204 152.886 41.5214 153.386 41.5107C153.885 41.5001 154.37 41.6786 154.744 42.0105C155.117 42.3424 155.351 42.8031 155.399 43.3004C155.391 43.9076 155.189 44.4964 154.823 44.9806L153.371 47.2609H152.447L153.827 45.0526ZM153.359 42.1362C153.122 42.1387 152.889 42.205 152.687 42.3282C152.493 42.46 152.339 42.6427 152.243 42.8563C152.147 43.0711 152.122 43.3105 152.171 43.5404C152.209 43.7742 152.323 43.989 152.495 44.1525C152.658 44.3206 152.866 44.4374 153.095 44.4885C153.328 44.538 153.57 44.5171 153.791 44.4285C154.01 44.3411 154.199 44.1909 154.334 43.9966C154.468 43.8023 154.542 43.5726 154.547 43.3364C154.552 43.0364 154.445 42.7452 154.247 42.5203C154.039 42.301 153.756 42.1681 153.455 42.1482L153.359 42.1362Z" fill="#F77F00"/>
<path d="M159.824 42.4483L158.768 43.4084L158.312 42.8683L159.908 41.5602H160.616V47.2609H159.824V42.4483Z" fill="#F77F00"/>
<path d="M164.244 45.6287C164.244 45.3078 164.349 44.9957 164.544 44.7406C164.746 44.4858 165.03 44.3079 165.348 44.2365C165.067 44.1504 164.825 43.9717 164.659 43.7298C164.493 43.4878 164.414 43.1968 164.436 42.9043C164.51 42.5116 164.719 42.1571 165.027 41.9021C165.335 41.6471 165.722 41.5076 166.122 41.5076C166.521 41.5076 166.909 41.6471 167.217 41.9021C167.524 42.1571 167.734 42.5116 167.808 42.9043C167.83 43.1953 167.753 43.4851 167.589 43.7268C167.426 43.9686 167.186 44.1482 166.908 44.2365C167.221 44.3113 167.5 44.4888 167.7 44.7406C167.895 44.9957 168 45.3078 168 45.6287C167.962 46.1009 167.748 46.5415 167.4 46.8629C167.052 47.1842 166.595 47.3626 166.122 47.3626C165.648 47.3626 165.192 47.1842 164.844 46.8629C164.496 46.5415 164.281 46.1009 164.244 45.6287ZM167.22 45.6287C167.225 45.4843 167.2 45.3405 167.146 45.2066C167.092 45.0727 167.01 44.9518 166.906 44.8519C166.801 44.7521 166.677 44.6756 166.541 44.6274C166.405 44.5792 166.26 44.5605 166.116 44.5725C165.985 44.5484 165.851 44.5484 165.72 44.5725C165.587 44.6208 165.465 44.6942 165.36 44.7886C165.261 44.8859 165.18 44.9996 165.12 45.1246C165.063 45.2492 165.03 45.3837 165.024 45.5207C165.026 45.8095 165.142 46.0856 165.348 46.2888C165.556 46.489 165.833 46.6008 166.122 46.6008C166.41 46.6008 166.688 46.489 166.896 46.2888C167.077 46.1128 167.191 45.8795 167.22 45.6287ZM166.116 43.9004C166.302 43.9027 166.485 43.8528 166.644 43.7564C166.799 43.6612 166.924 43.5239 167.004 43.3604C167.057 43.1884 167.057 43.0043 167.004 42.8323C166.969 42.6509 166.881 42.4839 166.752 42.3523C166.617 42.227 166.451 42.1399 166.272 42.1002C166.089 42.0701 165.901 42.0952 165.732 42.1722C165.563 42.2434 165.421 42.365 165.324 42.5203C165.227 42.6744 165.181 42.8548 165.192 43.0363C165.206 43.2614 165.299 43.4741 165.456 43.6364C165.634 43.8046 165.87 43.8989 166.116 43.9004Z" fill="#F77F00"/>
<path d="M22.501 1.07898H28.5738L37.671 22.6817L46.5881 1.07898H52.5889V30.0147H48.1723V7.5598H48.0883L38.8951 30.0147H36.1828L26.7016 7.5598H26.6176V30.0147H22.501V1.07898Z" fill="#F77F00"/>
<path d="M65.1915 1.07897H69.368V30.0147H65.1915V1.07897Z" fill="#F77F00"/>
<path d="M82.4713 1.07898H93.9927C101.674 1.07898 107.795 5.73557 107.795 15.5408C107.795 25.3461 100.39 30.0147 93.3927 30.0147H82.4713V1.07898ZM91.2564 26.0302C97.9532 26.0302 103.414 22.7537 103.414 15.5408C103.414 8.3279 98.6133 4.87146 92.1565 4.87146H86.8878V26.0302H91.2564Z" fill="#F77F00"/>
<path d="M130.517 0.358882C139.638 0.190861 146.119 6.23963 146.119 15.5168C146.119 24.542 139.674 30.5907 130.517 30.7588C121.359 30.9268 115.083 24.758 115.083 15.6848C115.083 6.35965 121.503 0.358882 130.517 0.358882ZM130.517 26.7623C136.985 26.7623 141.318 21.8896 141.318 15.3128C141.318 9.16801 137.045 4.29538 130.517 4.29538C123.988 4.29538 119.835 9.16801 119.835 15.3128C119.835 21.8896 124.096 26.7623 130.517 26.7623Z" fill="#F77F00"/>
<path d="M148.567 24.806C149.163 24.804 149.747 24.9784 150.244 25.3073C150.742 25.6361 151.131 26.1048 151.363 26.6542C151.592 27.2001 151.651 27.8027 151.531 28.3825C151.415 28.9658 151.126 29.5008 150.703 29.9187C150.283 30.3459 149.745 30.6382 149.158 30.7582C148.571 30.8783 147.962 30.8206 147.408 30.5926C146.854 30.3645 146.381 29.9765 146.048 29.4781C145.716 28.9797 145.54 28.3934 145.542 27.7944C145.541 27.4008 145.619 27.011 145.772 26.6482C145.925 26.2853 146.148 25.9568 146.43 25.6821C146.711 25.4028 147.045 25.1816 147.411 25.0313C147.778 24.8809 148.17 24.8044 148.567 24.806ZM148.567 30.2547C149.057 30.2511 149.536 30.1051 149.945 29.8345C150.354 29.564 150.676 29.1804 150.871 28.7305C151.052 28.2773 151.098 27.7811 151.003 27.3023C150.906 26.8258 150.673 26.3878 150.331 26.0422C149.977 25.6989 149.531 25.4655 149.047 25.3701C148.689 25.2975 148.321 25.3048 147.966 25.3915C147.612 25.4782 147.282 25.6421 146.999 25.8715C146.715 26.1009 146.486 26.3901 146.328 26.7183C146.169 27.0466 146.086 27.4059 146.082 27.7704C146.077 28.096 146.138 28.4193 146.262 28.7205C146.386 29.0218 146.57 29.2947 146.802 29.5226C147.273 29.9865 147.906 30.249 148.567 30.2547ZM147.366 26.0542H148.699C149.527 26.0542 149.899 26.4262 149.899 27.0863C149.916 27.3168 149.843 27.545 149.695 27.7224C149.622 27.809 149.532 27.8801 149.431 27.9317C149.33 27.9832 149.22 28.014 149.107 28.0224L150.007 29.4746H149.335L148.471 28.0704H148.002V29.4746H147.378L147.366 26.0542ZM148.002 27.5424H148.471C148.855 27.5424 149.287 27.5424 149.287 27.0623C149.287 26.5822 148.855 26.5822 148.471 26.5822H148.002V27.5424Z" fill="#F77F00"/>
</g>
<defs>
<clipPath id="clip0_678_1680">
<rect width="168" height="47.0627" fill="white" transform="translate(0 0.355469)"/>
</clipPath>
</defs>
</svg>
