<svg width="168" height="45" viewBox="0 0 168 45" fill="none" xmlns="http://www.w3.org/2000/svg">
<g clip-path="url(#clip0_950_232)">
<path d="M25.5861 44.2937C24.3239 44.1072 23.498 43.2349 23.045 41.6292C22.8304 40.8691 22.7884 40.196 22.7884 37.5624C22.7884 33.4955 23.0296 32.4171 24.1809 31.3513C24.7138 30.8591 25.0714 30.7595 26.2943 30.7665C27.3348 30.7665 28.022 31.026 28.517 31.5883C28.747 31.8492 29.4496 33.1127 29.4496 33.2641C29.4496 33.2964 29.1817 33.396 28.8536 33.4871C28.5254 33.5783 28.1846 33.6835 28.0949 33.7213C28.0051 33.7592 27.8621 33.5811 27.7695 33.3006C27.5339 32.584 27.0277 32.239 26.2157 32.239C25.6632 32.239 25.4739 32.3105 25.1387 32.6443C24.4852 33.2992 24.3296 34.2584 24.3422 37.568C24.3548 40.7275 24.5189 41.6741 25.1948 42.4763C25.4963 42.8339 25.6464 42.897 26.2171 42.897C27.1174 42.897 27.5452 42.545 27.8284 41.5745C27.9734 40.9534 28.0468 40.3178 28.0472 39.6799V38.544H26.3644V37.2819H29.5898L29.5281 39.2803C29.4622 41.4006 29.2224 42.4594 28.6096 43.3205C28.0612 44.089 26.8482 44.4816 25.5931 44.3021L25.5861 44.2937ZM68.933 44.1619C68.8882 44.0904 68.6708 43.9922 68.4478 43.9431C68.0988 43.8203 67.7776 43.6297 67.5026 43.3822L66.9627 42.911L67.4465 42.4089C67.9822 41.848 68.0524 41.8256 68.3202 42.0864C68.8026 42.5576 69.2388 42.7469 69.8334 42.7427C70.8809 42.7357 71.3759 42.1271 71.3759 40.8593C71.3759 39.8188 71.0955 39.356 69.4772 37.7741C67.6541 35.9819 67.3736 35.4799 67.3918 33.9878C67.4115 32.0146 68.302 30.9503 70.1124 30.7357C70.836 30.6501 71.6101 30.9376 72.2398 31.5252L72.5287 31.7931L72.1458 32.2937C71.9355 32.5742 71.7251 32.7958 71.6662 32.7958C71.5077 32.7223 71.3649 32.619 71.2455 32.4914C70.8248 32.0932 69.8502 32.0707 69.4631 32.4564C68.8349 33.079 68.6736 34.2065 69.0887 35.0536C69.2177 35.3158 69.9119 36.0899 70.6313 36.7743C72.3674 38.429 72.805 39.1456 72.8919 40.4751C73.0013 42.1467 72.2903 43.4733 70.9861 44.0329C70.3466 44.3063 69.0691 44.3891 68.9316 44.1661L68.933 44.1619ZM100.129 44.0595C99.4372 43.7608 99.1469 43.4719 98.8482 42.775C98.607 42.214 98.586 41.726 98.586 36.491V30.817L99.3222 30.8591L100.058 30.9012L100.129 36.4657C100.196 41.8424 100.208 42.0429 100.493 42.4258C100.723 42.7343 100.914 42.831 101.393 42.8661C102.207 42.925 102.542 42.8226 102.796 42.4454C102.971 42.1775 103.017 41.1833 103.076 36.5148L103.146 30.9054H104.689L104.725 36.2273C104.766 41.977 104.695 42.6894 104.01 43.4383C103.28 44.239 101.286 44.5602 100.131 44.0637L100.129 44.0595ZM39.1259 37.4923V30.831H40.6685L40.7049 36.8261L40.7414 42.8212L42.5995 42.8605L44.4576 42.8998V44.1535H39.1259V37.4923ZM51.8873 43.7678C51.9091 43.4259 51.956 43.0861 52.0276 42.7511C52.1019 42.4047 52.2562 41.6152 52.3726 40.9982C52.489 40.3811 52.6769 39.4345 52.7933 38.8946C52.9097 38.3547 53.1046 37.3759 53.2266 36.721C53.3486 36.0661 53.4987 35.2765 53.5618 34.968C53.8955 33.3455 54.1648 31.9614 54.2461 31.4621L54.3359 30.9012L55.3329 30.8605L56.33 30.8198L56.4927 31.4214C56.581 31.7524 56.7227 32.3694 56.8068 32.7944C56.891 33.2193 57.0158 33.8181 57.0873 34.1266C57.1588 34.4351 57.3145 35.2246 57.4365 35.8795C57.5585 36.5345 57.7436 37.5133 57.8474 38.0532C57.9512 38.5931 58.1278 39.5397 58.2428 40.1567C58.6145 42.1607 58.8851 43.5154 58.9777 43.8379C59.0646 44.138 59.031 44.1535 58.2919 44.1535C57.4126 44.1535 57.4379 44.1885 57.0578 42.3655L56.8755 41.489H53.8731L53.7847 41.9448C53.6627 42.566 53.4047 43.7678 53.3472 43.9782C53.3163 44.089 53.0387 44.1535 52.5927 44.1535C51.9154 44.1535 51.8916 44.138 51.8916 43.7678H51.8873ZM56.4212 38.7193C56.323 37.9677 56.1407 36.627 56.0173 35.7393C55.8939 34.8516 55.748 33.8125 55.6948 33.4268C55.6288 32.9542 55.5265 32.7144 55.3764 32.685C55.1955 32.6499 55.1198 32.8883 54.9781 33.9471C54.7131 35.8978 54.4396 37.8036 54.277 38.8259C54.197 39.328 54.1297 39.816 54.1283 39.9127C54.1283 40.0404 54.4649 40.088 55.3638 40.088H56.6007L56.4212 38.7193ZM82.2064 37.5273L82.2428 30.9012L82.9791 30.8591L83.7153 30.817V36.3003H86.8005L86.8384 33.6007L86.8762 30.9012L87.6125 30.8591L88.3487 30.817V44.1535H86.8061V37.4221H83.7209V44.1535H82.1783L82.2064 37.5273ZM115.835 38.1934V32.2334H113.295L113.339 31.5673L113.381 30.9012H119.551L119.593 31.5673L119.637 32.2334H117.378V44.1535H115.835V38.1934ZM129.298 38.1934V32.2334H126.914V30.831L130.034 30.8689L133.154 30.9068L133.196 31.5729L133.24 32.239H130.84V44.1591H129.298V38.1934ZM141.812 37.5273L141.849 30.9012H147.038L147.08 31.5673L147.123 32.2334H143.321V36.721H146.687V37.9831H143.321V42.8913H147.108V44.1535H141.779L141.812 37.5273ZM99.5017 29.4287C99.2114 29.1089 99.1763 28.5354 99.4274 28.2325C99.6784 27.9296 100.549 27.9618 100.775 28.2675C100.907 28.4373 100.972 28.65 100.956 28.8646C100.94 29.0791 100.845 29.2801 100.689 29.4287C100.333 29.7849 99.8228 29.7877 99.5017 29.4287ZM102.478 29.4399C101.929 28.879 102.348 28.0221 103.167 28.0221C103.986 28.0221 104.323 28.8439 103.728 29.4006C103.34 29.7653 102.813 29.7821 102.475 29.4399H102.478ZM40.5282 20.6527C40.03 20.5673 39.5381 20.4488 39.0557 20.2979C38.2676 19.9936 36.5974 19.1424 36.352 18.9194C36.2118 18.796 35.8079 18.4538 35.4419 18.1579C34.9439 17.7158 34.4937 17.2227 34.0984 16.6868C32.0528 13.8821 31.4797 10.7904 32.3791 7.41162C32.5348 6.82824 33.3285 5.04865 33.501 4.88737C33.5431 4.84951 33.7492 4.56483 33.9596 4.25631C35.1684 2.48513 37.2439 1.02107 39.5368 0.321287C39.9575 0.19227 40.9714 0.0562409 41.7805 0.0197796C43.7873 -0.0713739 45.2444 0.202086 46.829 0.967775C48.2819 1.66896 49.2032 2.4108 50.607 4.00809C51.1357 4.60971 52.0781 6.53234 52.3782 7.62198C52.7498 8.97105 52.7582 11.8866 52.395 13.0912C51.1553 17.1889 48.1052 19.9459 44.0131 20.6639C42.6318 20.9122 41.9404 20.9093 40.5282 20.6527ZM44.661 17.6881C44.9069 17.5616 45.1603 17.4502 45.4197 17.3544C46.7295 16.8649 48.3366 15.3658 49.0658 13.9452C49.6744 12.77 49.8104 12.1965 49.8764 10.5333C49.9254 9.25853 49.8904 8.97666 49.5594 8.00903C48.69 5.46889 46.9529 3.80148 44.3483 3.00681C43.4059 2.71792 41.2294 2.71371 40.3782 2.9998C38.1344 3.75567 37.1401 4.49612 35.9804 6.28973C35.0099 7.78746 34.8487 8.35822 34.8487 10.2865C34.8487 11.557 34.916 12.1839 35.1207 12.8458C35.2708 13.3282 35.4433 13.7222 35.5064 13.7222C35.5405 13.7287 35.5711 13.7477 35.5921 13.7754C35.6131 13.8031 35.623 13.8377 35.62 13.8723C35.62 14.0798 36.366 15.1442 36.9171 15.7234C37.5202 16.3573 38.9506 17.3207 39.4765 17.4469C39.6727 17.4879 39.8618 17.5578 40.0374 17.6545C40.3024 17.8578 40.8788 17.9069 42.6318 17.876C43.5966 17.8578 44.5109 17.7737 44.6652 17.6881H44.661ZM126.106 20.6667C122.625 19.9754 120.045 18.078 118.473 15.0573C116.991 12.2035 117.019 8.33578 118.542 5.52124C118.655 5.3027 118.782 5.09105 118.92 4.88737C118.959 4.84951 119.163 4.56483 119.372 4.25631C120.575 2.48092 122.513 1.07716 124.74 0.368967C126.291 -0.124664 128.807 -0.116249 130.807 0.391405C131.53 0.573712 133.558 1.61006 134.127 2.08826C135.53 3.26624 136.914 5.0206 137.213 6.01487C137.263 6.18579 137.337 6.34903 137.431 6.50009C137.492 6.57722 137.657 7.08207 137.8 7.62198C138.159 8.98227 138.152 12.0338 137.786 13.2314C137.485 14.2131 136.514 16.1427 136.021 16.7261C134.066 19.0428 132.137 20.1815 129.365 20.6527C127.909 20.9023 127.32 20.9037 126.107 20.6625L126.106 20.6667ZM130.065 17.6881C130.311 17.5616 130.564 17.4502 130.823 17.3544C132.656 16.67 134.47 14.5749 135.113 12.39C135.382 11.4799 135.384 9.23189 135.113 8.347C134.615 6.72601 133.643 5.29083 132.324 4.22546C131.923 3.8931 130.616 3.26064 129.84 3.02364C128.846 2.71932 126.686 2.7053 125.716 2.99839C124.524 3.34435 123.433 3.97039 122.532 4.82425C121.632 5.6781 120.949 6.73499 120.54 7.90666C120.158 8.97946 120.087 10.9919 120.384 12.2175C120.723 13.5747 121.424 14.8146 122.412 15.8053C123.4 16.796 124.637 17.5005 125.994 17.8438C126.503 17.9728 129.78 17.8438 130.061 17.6909L130.065 17.6881ZM157.271 20.6008C155.703 20.3204 155.698 20.3204 154.309 19.6655C152.842 18.9643 151.504 17.5801 151.064 16.29C150.883 15.7641 150.994 15.6295 151.731 15.4752C151.95 15.4368 152.163 15.3669 152.362 15.2676C152.523 15.1781 152.696 15.1129 152.876 15.0741C153.07 15.0287 153.262 14.973 153.451 14.9072C153.591 14.8554 153.717 14.9816 153.84 15.2789C154.04 15.6586 154.294 16.0065 154.596 16.311C155.553 17.2927 156.463 17.6881 158.464 18.0065C159.713 18.2056 159.942 18.2042 161.043 17.998C161.706 17.8732 162.423 17.6811 162.635 17.5703C162.809 17.4726 162.999 17.4048 163.196 17.3698C163.292 17.3698 163.371 17.3207 163.372 17.2632C163.374 17.2057 163.557 17.0529 163.783 16.9238C164.448 16.5466 164.913 15.6743 164.905 14.8119C164.905 13.7545 164.455 13.129 163.267 12.5429C162.566 12.1923 161.762 11.9567 159.648 11.4757C157.105 10.8979 156.541 10.7506 155.511 10.4015C154.108 9.92746 153.399 9.49273 152.646 8.65552C151.957 7.87425 151.583 6.86541 151.595 5.82415C151.595 5.06547 151.96 3.56775 152.267 3.07132C152.678 2.40379 153.832 1.42354 154.714 0.991615C155.858 0.430671 156.759 0.251169 158.855 0.16282C161.573 0.0487617 163.748 0.601759 165.379 1.82181C166.289 2.50336 167.574 4.32643 167.143 4.32643C166.938 4.36624 166.739 4.4337 166.551 4.52697C166.309 4.63635 165.808 4.86073 165.438 5.0234L164.768 5.3193L164.051 4.53678C163.657 4.10486 163.083 3.63086 162.773 3.48221C160.744 2.50056 157.278 2.55946 155.732 3.60141C154.551 4.39795 154.24 5.93914 155.072 6.87171C155.572 7.43266 156.676 7.91647 158.213 8.24883C158.545 8.32035 159.259 8.47882 159.799 8.60223C160.339 8.72564 161.096 8.8827 161.482 8.96544C162.225 9.11409 162.294 9.13512 163.936 9.73534C165.658 10.365 166.881 11.327 167.45 12.4854C167.613 12.8191 167.802 13.2006 167.871 13.3352C167.94 13.4698 168 14.0756 168 14.6843C168 16.318 167.579 17.273 166.305 18.5127C165.561 19.2349 163.96 20.1731 163.47 20.1731C163.354 20.1791 163.244 20.223 163.155 20.2979C162.952 20.4872 160.43 20.8757 159.499 20.8589C158.753 20.8188 158.01 20.7326 157.275 20.6008H157.271ZM17.5295 19.8758L16.0514 18.5113C15.6616 18.1523 14.9379 17.5086 14.4443 17.0879C13.6478 16.4078 13.0307 15.851 11.6396 14.5637C11.432 14.3715 10.8585 13.8625 10.3634 13.4418C9.86841 13.0211 9.30046 12.5134 9.10132 12.3199C8.78719 12.0156 7.73542 11.0732 6.67383 10.1462C6.37513 9.88539 4.79046 8.46339 3.4484 7.23773C3.13428 6.95025 2.82716 6.71044 2.76966 6.71044C2.71217 6.71044 2.66449 9.73954 2.66449 13.4418V20.1731H0V10.3566C0 4.95749 0.0364613 0.540055 0.0799345 0.540055C0.179905 0.57549 0.269194 0.635821 0.339371 0.71535C0.55253 0.9229 2.57333 2.74036 3.00386 3.10918C3.33341 3.39666 5.26166 5.12718 5.60944 5.44832C5.73285 5.56471 6.11569 5.90549 6.45927 6.207C7.47318 7.0989 9.12376 8.57699 9.52764 8.95422C9.73519 9.14775 10.3691 9.7143 10.9426 10.2163C11.5162 10.7184 12.0813 11.2218 12.2047 11.3382C13.1247 12.1979 14.8692 13.7545 15.1806 14.0027L15.5662 14.3042V0.820528H18.3709V10.7072C18.3709 16.1455 18.3555 20.5924 18.3359 20.5896C18.3162 20.5868 17.9502 20.2671 17.5295 19.8758ZM67.1731 10.2865C67.1731 4.84951 67.2011 0.399819 67.2362 0.399819C67.2993 0.399819 68.8573 1.67597 69.2864 2.08265C69.881 2.6436 70.6888 3.34478 71.4433 3.98425C71.9032 4.3671 72.38 4.77659 72.5034 4.89158C73.178 5.52545 74.8875 7.03158 76.0697 8.02446C76.4497 8.3456 76.9265 8.7663 77.127 8.95843C77.3276 9.15055 77.8633 9.62455 78.319 10.0102C78.7748 10.3958 79.3161 10.8698 79.5237 11.062C79.9093 11.421 81.2065 12.5639 81.8768 13.1305C82.2905 13.4824 83.7868 14.8021 84.143 15.1288C84.8344 15.7655 85.0083 15.8791 85.0966 15.7543C85.1499 15.6799 85.6043 15.2733 86.1049 14.8497C86.6056 14.4262 87.0866 14.0167 87.1721 13.9382C87.2577 13.8597 87.7261 13.4418 88.2085 13.0211C88.6909 12.6004 89.2238 12.1334 89.3851 11.9917C89.5463 11.8501 89.9881 11.4715 90.3667 11.1503C91.1002 10.5305 92.0257 9.7143 92.7802 9.02434C93.034 8.79295 93.3832 8.49284 93.5585 8.35681C93.8572 8.12402 94.4897 7.5743 96.3422 5.93914C96.7797 5.5535 97.5047 4.92243 97.9549 4.53678C98.9674 3.66872 99.949 2.81328 101.12 1.77834C102.182 0.840161 102.733 0.399819 102.848 0.399819C102.893 0.399819 102.93 4.84951 102.93 10.2865V20.1731H100.129V13.2258C100.129 5.44551 100.22 6.01487 99.1469 7.01896C98.8664 7.27139 98.2368 7.83233 97.7445 8.25304C96.7979 9.06501 96.0407 9.72552 95.6522 10.0761C95.1726 10.508 94.2723 11.2906 93.4729 11.9693C93.02 12.3549 92.546 12.7644 92.4226 12.8808C92.2992 12.9972 91.7915 13.4418 91.3007 13.8625C90.8099 14.2832 90.2952 14.7277 90.1704 14.8441C89.688 15.2873 88.1243 16.6476 87.6546 17.0318C87.3853 17.2534 87.1329 17.4722 87.0936 17.5184C87.0543 17.5647 86.5663 17.9952 86.0082 18.4734C85.1443 19.2125 84.9508 19.3149 84.7166 19.1957C84.567 19.1162 84.4353 19.0069 84.3296 18.8745C84.0089 18.5359 83.6649 18.22 83.3002 17.9293C82.7996 17.5086 82.3578 17.1286 82.3186 17.0879C82.2793 17.0472 81.5543 16.4162 80.7059 15.6856C79.8574 14.9549 79.1324 14.3168 79.0931 14.2692C79.0539 14.2215 78.6318 13.8485 78.1536 13.46C77.6754 13.0716 77.134 12.5976 76.9503 12.4237C76.4385 11.9384 75.7415 11.3284 74.823 10.5613C74.363 10.1771 73.8848 9.76759 73.76 9.6526C73.2074 9.13933 72.373 8.41151 71.6438 7.80428C71.2091 7.44248 70.672 6.97829 70.4504 6.77355L70.0479 6.40052L70.0115 13.2847L69.9778 20.1731H67.1731V10.2865Z" fill="#7E7E80"/>
</g>
<defs>
<clipPath id="clip0_950_232">
<rect width="168" height="45" fill="white" transform="translate(0 0.00146484)"/>
</clipPath>
</defs>
</svg>
