<svg width="168" height="83" viewBox="0 0 168 83" fill="none" xmlns="http://www.w3.org/2000/svg">
<g clip-path="url(#clip0_678_161)">
<path d="M65.1232 6.37246C73.4504 -1.56454 87.7238 -1.93494 96.653 5.22821C99.0199 7.12048 100.863 9.58758 102.005 12.3942C103.148 15.2009 103.553 18.2535 103.181 21.261C102.447 27.5841 98.3925 33.1665 93.2202 36.672C95.8659 36.7778 98.5116 36.7646 101.157 36.7117C102.196 35.3888 102.798 33.0077 104.96 33.5038C103.836 35.6733 102.712 37.8493 101.528 39.9857C96.1834 39.8931 90.8325 40.1246 85.4949 39.8534C88.8681 36.8506 92.2942 33.7684 94.4438 29.7205C98.3065 22.7822 98.3528 13.1851 92.8432 7.11987C87.5982 1.03483 77.28 0.505692 71.4133 5.97561C67.6366 9.24963 65.7449 14.3624 65.8508 19.2966C65.9756 24.8147 68.068 30.1067 71.7506 34.2181C73.4637 36.2884 75.6067 37.9353 77.4785 39.8534C72.1408 40.0981 66.8032 39.946 61.4656 39.9394C60.361 37.7766 59.1837 35.6468 58.0923 33.4707C60.3213 32.9019 60.8372 35.455 61.9749 36.7448C64.5742 36.7448 67.1736 36.7448 69.773 36.7448C65.6457 33.7353 62.1071 29.6279 60.6189 24.6673C58.5487 18.3706 60.2486 10.9362 65.1232 6.37246Z" fill="#C50124"/>
<path d="M150.949 47.6383C156.756 58.717 162.232 69.9677 168 81.0663V81.2317C166.208 81.2317 164.422 81.2317 162.636 81.2317C161.558 79.0622 160.453 76.8994 159.402 74.7233C153.815 74.7233 148.23 74.7233 142.648 74.7233C141.517 76.8862 140.432 79.0688 139.341 81.2581C137.522 81.2581 135.703 81.2581 133.884 81.2581C139.658 70.1066 145.28 58.8758 150.942 47.6647M144.943 70.0207C148.964 70.1794 152.992 70.0736 157.02 70.0934C155.036 66.1249 153.052 62.1564 150.955 58.2607C148.951 62.1498 147.02 66.1117 144.95 69.9942L144.943 70.0207Z" fill="#C50124"/>
<path d="M1.93134 57.672C5.41701 50.6345 14.366 46.957 21.7739 49.6556C29.8035 52.0896 34.6913 61.2172 32.6211 69.2931C30.908 76.7407 23.52 82.4619 15.8343 81.9063C7.52032 81.7873 0.357165 74.4455 0 66.2374V64.6632C0.162656 62.2259 0.819778 59.8472 1.93134 57.672ZM12.7786 54.0474C5.50299 56.2301 2.4737 65.9066 6.7663 72.0314C10.2189 77.6931 18.738 78.9961 23.811 74.7895C28.9899 70.8937 29.7638 62.6789 25.6498 57.7315C24.1313 55.8843 22.0869 54.5426 19.788 53.8846C17.4891 53.2266 15.0445 53.2834 12.7786 54.0474Z" fill="#C50124"/>
<path d="M34.1224 81.1523C37.8131 70.4572 40.6837 59.4777 44.5331 48.8421C47.6616 55.9788 50.7703 63.1287 53.6938 70.3447C56.8619 63.0692 60.0566 55.8531 62.9933 48.518C66.5914 59.3718 69.8919 70.3447 73.3312 81.2251H68.3772C66.2805 74.8424 64.4815 68.3671 62.3252 62.0043C59.5936 68.7838 56.6569 75.4906 53.7268 82.1775C50.929 75.4972 48.0519 68.7507 45.0887 62.0969C43.1772 68.4796 41.1202 74.8225 39.2087 81.2052C37.5089 81.2515 35.8156 81.2383 34.1224 81.1523Z" fill="#C50124"/>
<path d="M113.704 49.3447C120.259 47.4266 127.495 50.3766 131.503 55.7539L127.614 58.5715C126.11 56.3801 123.911 54.7597 121.373 53.9724C118.834 53.1851 116.105 53.2768 113.625 54.2326C107.97 56.2962 104.802 63.0692 106.627 68.7838C107.335 71.329 108.891 73.5564 111.036 75.0981C113.181 76.6398 115.789 77.4035 118.427 77.2632C123.407 77.2103 127.885 73.5262 129.307 68.8235C125.59 68.8235 121.879 68.8235 118.162 68.8235C118.162 67.2824 118.162 65.7347 118.162 64.1936C123.592 64.1936 129.023 64.1936 134.459 64.1936C134.625 69.0153 132.951 73.9627 129.373 77.2896C127.239 79.3934 124.571 80.8748 121.658 81.5742C118.744 82.2735 115.694 82.1642 112.838 81.2581C109.429 80.1537 106.469 77.9754 104.4 75.0489C102.332 72.1224 101.267 68.6051 101.363 65.0228C101.46 61.4406 102.714 57.9859 104.937 55.1754C107.16 52.3648 110.234 50.3495 113.698 49.4307L113.704 49.3447Z" fill="#C50124"/>
<path d="M77.3065 49.4572C83.7686 49.4572 90.224 49.4572 96.6794 49.4572C96.6794 50.9983 96.6794 52.546 96.6794 54.0871C91.8445 54.1334 87.0095 54.0871 82.1746 54.0871C82.1746 57.0635 82.1746 60.0399 82.1746 63.0162C86.8574 63.0162 91.5468 63.0162 96.2297 63.0162C96.2297 64.564 96.2297 66.1183 96.2297 67.6462C91.5402 67.5932 86.8574 67.6462 82.1746 67.6462C82.1746 70.6159 82.1746 73.5989 82.1746 76.5555C87.0095 76.5555 91.8445 76.5158 96.6794 76.5555C96.6794 78.0899 96.6794 79.6244 96.6794 81.1854C90.224 81.2251 83.762 81.2317 77.2999 81.1854C77.3264 70.6203 77.3286 60.0443 77.3065 49.4572Z" fill="#C50124"/>
</g>
<defs>
<clipPath id="clip0_678_161">
<rect width="168" height="82.054" fill="white" transform="translate(0 0.123535)"/>
</clipPath>
</defs>
</svg>
