<svg width="168" height="81" viewBox="0 0 168 81" fill="none" xmlns="http://www.w3.org/2000/svg">
<g clip-path="url(#clip0_678_211)">
<path d="M0 0.622559H11.5605C13.8478 0.622559 15.6893 1.07562 17.085 1.98906C18.488 2.8952 19.1823 4.17401 19.1823 5.81821C19.1823 7.23587 18.5611 8.46353 17.3115 9.51581C16.0619 10.5608 14.1474 11.0869 11.5532 11.0869H3.48569V18.7452H0.00730741V0.622559H0ZM13.5774 3.11442C12.8101 2.85866 11.7505 2.73443 10.4132 2.73443H3.48569V9.0116H10.4132C11.977 9.0116 13.2412 8.77775 14.2204 8.31007C15.1923 7.84239 15.6819 7.01664 15.6819 5.83282C15.6746 4.49555 14.9731 3.58941 13.5774 3.11442ZM31.6197 0.622559H35.5511L44.8755 18.7452H41.061L38.4522 13.3157H28.2947L25.5106 18.7452H21.9445L31.6197 0.622559ZM37.3341 11.3208L33.4319 3.31173L29.2886 11.3208H37.3341ZM55.3837 0.622559L68.3619 15.3034V0.622559H71.6649V18.7452H67.7627L54.5872 4.07902V18.7452H51.2623V0.622559H55.3837ZM80.697 0.622559H99.4335V2.84404H84.095V8.34661H98.2789V10.4439H84.095V16.5895H99.6966V18.7452H80.697V0.622559ZM107.903 0.622559H119.8C121.758 0.622559 123.373 0.827168 124.644 1.22908C127.056 2.00368 128.269 3.42865 128.269 5.51129C128.269 6.60011 127.947 7.48432 127.319 8.17854C126.683 8.87275 125.792 9.42082 124.652 9.84465C125.653 10.1296 126.413 10.5096 126.917 10.9773C127.421 11.445 127.706 12.205 127.765 13.2573L127.889 15.6907C127.926 16.3849 128.006 16.8964 128.137 17.2326C128.349 17.8099 128.722 18.1752 129.256 18.3433V18.7525H124.988C124.871 18.5991 124.776 18.3945 124.71 18.146C124.637 17.8975 124.579 17.4226 124.535 16.7137L124.323 13.6884C124.243 12.5046 123.614 11.7081 122.452 11.3062C121.787 11.0869 120.742 10.97 119.325 10.97H111.403V18.7379H107.925V0.622559H107.903ZM119.427 8.92391C121.056 8.92391 122.35 8.69737 123.3 8.22969C124.25 7.76932 124.725 6.93626 124.725 5.73783C124.725 4.44439 124.06 3.56749 122.73 3.09981C122.021 2.85135 121.071 2.72712 119.88 2.72712H111.381V8.92391H119.427ZM144.046 0.622559H147.985L157.309 18.7452H153.495L150.886 13.3157H140.721L137.937 18.7452H134.371L144.046 0.622559ZM149.768 11.3208L145.866 3.31173L141.722 11.3208H149.768ZM164.485 0.622559H168V18.7452H164.485V0.622559ZM101.699 68.5825L113.742 39.0163H91.4756L92.031 37.8398H99.755L89.7364 27.0393L72.9437 37.4452H80.1855L79.5351 39.0163H66.9515L54.2584 68.5825H79.462L87.6026 48.3991H97.7674L94.0698 57.4239H85.8853L80.3389 70.3437H72.7391L82.7943 80.7203L99.6235 70.2852H92.3233L93.0686 68.5752H101.699V68.5825ZM81.6689 34.9606L89.3053 30.2253L94.0625 35.3552H90.4599L88.7353 39.0163H82.217L83.8977 34.9606H81.6689ZM91.4391 66.1053L88.5234 72.7771H90.8983L83.1816 77.5635L78.5997 72.8355H81.9758L87.5222 59.9158H95.7359L101.465 45.9292H73.3383L67.01 59.7989H73.7037L78.6874 48.4138H84.9134L77.774 66.1126H58.0217L68.5811 41.5082H110.051L100.025 66.1126H91.4391V66.1053ZM75.9837 48.4065L72.0814 57.3143H70.8684L74.9314 48.4065H75.9837Z" fill="black"/>
</g>
<defs>
<clipPath id="clip0_678_211">
<rect width="168" height="80.0978" fill="white" transform="translate(0 0.622559)"/>
</clipPath>
</defs>
</svg>
