<svg width="168" height="53" viewBox="0 0 168 53" fill="none" xmlns="http://www.w3.org/2000/svg">
<g clip-path="url(#clip0_2782_2184)">
<path d="M41.2991 29.8839C41.0666 29.8381 40.8454 29.7637 40.6356 29.6778C40.4258 29.5862 40.2216 29.4774 40.0345 29.3515C39.8474 29.2255 39.6716 29.0767 39.5128 28.9164C39.354 28.7561 39.2066 28.5786 39.0818 28.3897C38.9571 28.2008 38.8436 27.9947 38.7586 27.7829C38.7586 27.7829 37.1594 23.392 36.6888 22.4073C36.4449 21.8921 36.1614 21.4112 35.8155 20.9819C35.4695 20.5525 35.0726 20.1689 34.6076 19.8369C34.1426 19.5049 33.6209 19.2186 33.0254 18.9896C32.43 18.7606 31.7722 18.5832 31.035 18.4629C31.035 18.4629 30.8592 18.4172 30.4396 18.3656C35.0442 18.3656 38.475 15.9784 38.475 9.19453C38.475 4.18534 34.8117 0.0234375 28.8744 0.0234375H17.3231H3.42969V2.13588C5.38043 2.13588 6.96824 3.73309 6.96824 5.70814V26.3975C6.96824 28.3668 5.3861 29.9698 3.42969 29.9698V32.0765H20.873V29.9698C18.9222 29.9698 17.3344 28.3725 17.3344 26.3975V19.6652H22.0865C24.9162 19.6652 26.1978 22.8195 27.298 25.8823C28.4038 28.9507 29.4132 32.0765 32.6342 32.0765H42.0023V29.9698C41.7641 29.9526 41.5259 29.9297 41.2991 29.8839ZM23.2831 16.402H17.3344V3.25793H23.2831C27.4624 3.25793 28.7497 6.20048 28.7497 9.82999C28.7497 13.4595 27.4624 16.402 23.2831 16.402Z" fill="black"/>
<path d="M114.748 0.0117188H103.321H89.4277V2.12416C91.3785 2.12416 92.9663 3.72137 92.9663 5.69642V26.3858C92.9663 28.3551 91.3842 29.958 89.4277 29.958V32.0647H114.748C120.685 32.0647 124.796 27.2559 124.796 22.2468V9.83544C124.796 4.82053 120.685 0.0117188 114.748 0.0117188ZM114.748 22.241C114.748 25.8705 113.46 28.8131 109.281 28.8131H103.338V3.25766H109.287C113.466 3.25766 114.753 6.2002 114.753 9.82971V22.241H114.748Z" fill="black"/>
<path d="M87.0105 29.9526C86.9538 29.9526 86.9028 29.9469 86.8461 29.9411C86.7894 29.9354 86.7383 29.9297 86.6816 29.9182C86.6249 29.9125 86.5739 29.9011 86.5228 29.8896C86.4718 29.8782 86.4151 29.8667 86.3641 29.8553C86.313 29.8438 86.262 29.8266 86.2109 29.8095C86.1599 29.7923 86.1089 29.7751 86.0578 29.7579C86.0068 29.7408 85.9614 29.7179 85.9104 29.7007C85.8594 29.6778 85.814 29.6606 85.7686 29.6377C85.7233 29.6148 85.6722 29.5919 85.6269 29.5633C85.5815 29.5404 85.5361 29.5118 85.4908 29.4831C85.4454 29.4545 85.4 29.4259 85.3603 29.3973C85.315 29.3687 85.2753 29.3343 85.2356 29.3057C85.1959 29.2713 85.1505 29.2427 85.1108 29.2084C85.0711 29.174 85.0314 29.1397 84.9917 29.1053C84.952 29.071 84.918 29.0366 84.8783 28.9966C84.8386 28.9622 84.8046 28.9221 84.7706 28.882C84.7366 28.842 84.7025 28.8019 84.6685 28.7618C84.6345 28.7218 84.6005 28.6817 84.5721 28.6359C84.5437 28.5958 84.5097 28.55 84.4814 28.5099C84.453 28.4641 84.4247 28.4241 84.3963 28.3783C84.368 28.3325 84.3453 28.2867 84.3169 28.2409C84.2942 28.1951 84.2659 28.1493 84.2432 28.0978C84.2205 28.052 84.1978 28.0004 84.1751 27.9546C84.1525 27.9031 84.1354 27.8573 84.1184 27.8058C84.1014 27.7543 84.0844 27.7027 84.0674 27.6512C84.0504 27.5997 84.039 27.5482 84.022 27.4966L76.565 0.0234375H54.5454L47.0883 27.4966C47.077 27.5482 47.0599 27.5997 47.0429 27.6512C47.0259 27.7027 47.0089 27.7543 46.9919 27.8058C46.9749 27.8573 46.9522 27.9031 46.9352 27.9546C46.9125 28.0062 46.8955 28.052 46.8671 28.0978C46.8445 28.1436 46.8218 28.1951 46.7934 28.2409C46.7707 28.2867 46.7424 28.3325 46.714 28.3783C46.6857 28.4241 46.6573 28.4699 46.629 28.5099C46.6006 28.5557 46.5666 28.5958 46.5382 28.6359C46.5042 28.676 46.4759 28.7218 46.4418 28.7618C46.4078 28.8019 46.3738 28.842 46.3398 28.882C46.3057 28.9221 46.2717 28.9565 46.232 28.9966C46.1923 29.0366 46.1583 29.071 46.1186 29.1053C46.0789 29.1397 46.0392 29.174 45.9995 29.2084C45.9598 29.2427 45.9201 29.2771 45.8748 29.3057C45.8351 29.3343 45.7897 29.3687 45.75 29.3973C45.7046 29.4259 45.6649 29.4545 45.6196 29.4831C45.5742 29.5118 45.5288 29.5347 45.4835 29.5633C45.4381 29.5862 45.3927 29.6148 45.3417 29.6377C45.2963 29.6606 45.2453 29.6835 45.1999 29.7007C45.1489 29.7236 45.1035 29.7408 45.0525 29.7579C45.0015 29.7751 44.9504 29.7923 44.8994 29.8095C44.8483 29.8266 44.7973 29.8381 44.7463 29.8553C44.6952 29.8667 44.6442 29.8782 44.5875 29.8896C44.5365 29.9011 44.4797 29.9125 44.4287 29.9182C44.3777 29.924 44.321 29.9354 44.2643 29.9411C44.2076 29.9469 44.1565 29.9526 44.0998 29.9526C44.0431 29.9526 43.9864 29.9583 43.9297 29.9583V32.0936H60.0063V29.9583C59.9666 29.9583 59.9213 29.9583 59.8816 29.9526C59.8419 29.9526 59.7965 29.9469 59.7568 29.9411C59.7171 29.9354 59.6774 29.9297 59.632 29.924C59.5923 29.9182 59.5527 29.9125 59.513 29.9011C59.4733 29.8953 59.4336 29.8839 59.3939 29.8724C59.3542 29.861 59.3145 29.8495 59.2748 29.8381C59.2351 29.8266 59.2011 29.8152 59.1614 29.798C59.1217 29.7866 59.0877 29.7694 59.048 29.7522C59.0139 29.735 58.9742 29.7179 58.9402 29.7007C58.9062 29.6835 58.8665 29.6663 58.8325 29.6434C58.7984 29.6263 58.7644 29.6034 58.7304 29.5862C58.6964 29.5633 58.6623 29.5461 58.634 29.5232C58.6 29.5003 58.5716 29.4774 58.5376 29.4545C58.5036 29.4316 58.4752 29.4087 58.4469 29.3801C58.4185 29.3572 58.3901 29.3286 58.3561 29.3C58.3278 29.2713 58.2994 29.2484 58.2711 29.2198C58.2427 29.1912 58.2144 29.1626 58.1917 29.1339C58.1633 29.1053 58.1406 29.0767 58.1123 29.0423C58.0896 29.0137 58.0612 28.9794 58.0386 28.9507C58.0159 28.9221 57.9932 28.8878 57.9705 28.8534C57.9478 28.8191 57.9251 28.7847 57.9081 28.7561C57.8855 28.7218 57.8684 28.6874 57.8514 28.6531C57.8344 28.6187 57.8174 28.5844 57.8004 28.5443C57.7834 28.5099 57.7664 28.4699 57.7494 28.4355C57.7323 28.4012 57.721 28.3611 57.704 28.321C57.6926 28.2809 57.6756 28.2466 57.6643 28.2065C57.653 28.1665 57.6416 28.1264 57.6303 28.092C57.6189 28.052 57.6076 28.0119 57.6019 27.9718C57.5962 27.9317 57.5849 27.8917 57.5792 27.8516C57.5736 27.8115 57.5679 27.7714 57.5622 27.7257C57.5565 27.6856 57.5565 27.6398 57.5509 27.5997C57.5509 27.5596 57.5452 27.5138 57.5452 27.4738C57.5452 27.4337 57.5452 27.3879 57.5509 27.3478C57.5509 27.3077 57.5565 27.2619 57.5622 27.2219C57.5679 27.1818 57.5736 27.136 57.5792 27.0959C57.5849 27.0558 57.5906 27.0158 57.6019 26.9757C57.6076 26.9356 57.6189 26.8955 57.6303 26.8555L58.7361 22.3215H71.9433L72.9867 26.8555C72.9981 26.8955 73.0094 26.9356 73.0151 26.9757C73.0207 27.0158 73.0321 27.0558 73.0378 27.0959C73.0434 27.136 73.0491 27.1761 73.0548 27.2219C73.0604 27.2619 73.0604 27.3077 73.0661 27.3478C73.0661 27.3879 73.0718 27.4337 73.0718 27.4738C73.0718 27.5196 73.0718 27.5596 73.0661 27.5997C73.0661 27.6398 73.0604 27.6856 73.0548 27.7257C73.0491 27.7657 73.0434 27.8115 73.0378 27.8516C73.0321 27.8917 73.0264 27.9317 73.0151 27.9718C73.0094 28.0119 72.9981 28.052 72.9867 28.092C72.9754 28.1321 72.964 28.1722 72.9527 28.2065C72.9414 28.2466 72.93 28.2809 72.913 28.321C72.9017 28.3611 72.8846 28.3954 72.8676 28.4355C72.8506 28.4699 72.8336 28.5099 72.8166 28.5443C72.7996 28.5786 72.7826 28.6187 72.7656 28.6531C72.7485 28.6874 72.7259 28.7218 72.7088 28.7561C72.6862 28.7905 72.6692 28.8248 72.6465 28.8534C72.6238 28.8878 72.6011 28.9164 72.5784 28.9507C72.5557 28.9851 72.5331 29.0137 72.5047 29.0423C72.482 29.071 72.4537 29.1053 72.4253 29.1339C72.3969 29.1626 72.3743 29.1912 72.3459 29.2198C72.3176 29.2484 72.2892 29.2771 72.2609 29.3C72.2325 29.3286 72.2042 29.3515 72.1701 29.3801C72.1418 29.403 72.1077 29.4316 72.0794 29.4545C72.0454 29.4774 72.017 29.5003 71.983 29.5232C71.949 29.5461 71.9149 29.569 71.8866 29.5862C71.8526 29.6091 71.8185 29.6263 71.7845 29.6434C71.7505 29.6606 71.7165 29.6778 71.6768 29.7007C71.6427 29.7179 71.6031 29.735 71.569 29.7522C71.535 29.7694 71.4953 29.7808 71.4556 29.798C71.4159 29.8095 71.3819 29.8266 71.3422 29.8381C71.3025 29.8495 71.2628 29.861 71.2231 29.8724C71.1834 29.8839 71.1437 29.8896 71.104 29.9011C71.0643 29.9068 71.0246 29.9182 70.9849 29.924C70.9452 29.9297 70.9055 29.9354 70.8602 29.9411C70.8205 29.9469 70.7751 29.9469 70.7354 29.9526C70.6957 29.9526 70.6504 29.9583 70.6107 29.9583V32.065H87.1693V29.9583C87.1239 29.9526 87.0672 29.9526 87.0105 29.9526ZM59.5357 19.0812L63.3918 3.25793H67.5711L71.2118 19.0812H59.5357Z" fill="black"/>
<path d="M154.534 0.0117188H140.873C134.936 0.0117188 130.824 4.82053 130.824 9.82971V22.241C130.824 27.2502 134.936 32.059 140.873 32.059H154.534C160.471 32.059 164.582 27.2502 164.582 22.241V9.82971C164.582 4.82053 160.471 0.0117188 154.534 0.0117188ZM154.534 22.241C154.534 25.8705 153.246 28.8131 149.067 28.8131H146.334C142.154 28.8131 140.867 25.8705 140.867 22.241V9.82971C140.867 6.2002 142.154 3.25766 146.334 3.25766H149.067C153.246 3.25766 154.534 6.2002 154.534 9.82971V22.241Z" fill="black"/>
<path d="M8.94666 45.0646C8.94666 43.9711 8.55538 43.2097 7.34183 43.2097C6.27006 43.2097 5.63493 43.7937 5.63493 44.9043C5.63493 47.8354 10.5061 46.0836 10.5061 49.8963C10.5061 52.3064 8.75953 52.9934 7.29647 52.9934C4.88072 52.9934 4.17188 51.7397 4.17188 49.5184H5.44212C5.44212 50.6863 5.51584 51.94 7.38152 51.94C8.39659 51.94 9.17349 51.2073 9.17349 50.1024C9.17349 47.1541 4.3023 48.8601 4.3023 45.0359C4.3023 44.0742 4.70493 42.1621 7.32482 42.1621C9.29258 42.1621 10.1886 43.1525 10.2169 45.0646H8.94666Z" fill="black"/>
<path d="M19.3574 42.3691H20.6277L22.2041 50.8933H22.2325L23.6956 42.3691H25.2267L26.6897 50.8933H26.7181L28.2946 42.3691H29.5648L27.4383 52.794H25.8901L24.4725 44.3556H24.4441L22.9527 52.794H21.4046L19.3574 42.3691Z" fill="black"/>
<path d="M38.8086 42.3691H40.0788V52.794H38.8086V42.3691Z" fill="black"/>
<path d="M53.1843 52.7881H51.914V43.5025H49.3281V42.3633H55.7928V43.5025H53.1899V52.7881H53.1843Z" fill="black"/>
<path d="M64.5195 51.7061L69.1582 43.5025H64.7747V42.3633H70.4852V43.5483L65.8465 51.6489H70.5476V52.7881H64.5195V51.7061Z" fill="black"/>
<path d="M80.0078 42.3691H85.344V43.5084H81.2781V46.7772H85.1115V47.9165H81.2781V51.6547H85.5141V52.794H80.0078V42.3691Z" fill="black"/>
<path d="M94.9902 42.3691H98.3303C99.9522 42.3691 100.979 43.3309 100.979 44.9796C100.979 46.1189 100.587 47.3153 99.3908 47.6073V47.6359C100.287 47.739 100.791 48.4832 100.854 49.3706L100.939 51.1509C100.996 52.3016 101.183 52.5936 101.489 52.7882H99.9578C99.7423 52.5707 99.6403 51.7979 99.6119 51.2826L99.5269 49.6625C99.4248 48.2313 98.6422 48.1454 97.9957 48.1454H96.2718V52.7882H95.0016V42.3691H94.9902ZM96.2605 47.0978H97.5194C98.2736 47.0978 99.6459 47.0978 99.6459 45.0827C99.6459 44.0637 98.9655 43.4168 97.7803 43.4168H96.2605V47.0978Z" fill="black"/>
<path d="M110.777 42.3691H112.047V51.6547H116.238V52.794H110.771V42.3691H110.777Z" fill="black"/>
<path d="M127.512 42.3691H129.219L131.992 52.794H130.659L129.922 49.9316H126.627L125.862 52.794H124.529L127.512 42.3691ZM126.888 48.8782H129.661L128.346 43.8404H128.317L126.888 48.8782Z" fill="black"/>
<path d="M141.002 42.3691H142.652L146.066 51.0708H146.094V42.3691H147.365V52.794H145.618L142.301 44.3556H142.272V52.794H141.002V42.3691Z" fill="black"/>
<path d="M157.459 42.3691H160.221C163.43 42.3691 163.839 44.7049 163.839 47.5787C163.839 50.2064 163.186 52.7882 160.357 52.7882H157.465V42.3691H157.459ZM158.729 51.7406H160.062C162.262 51.7406 162.506 49.4621 162.506 47.5959C162.506 45.5807 162.376 43.4225 160.062 43.4225H158.729V51.7406Z" fill="black"/>
</g>
<defs>
<clipPath id="clip0_2782_2184">
<rect width="168" height="53" fill="white"/>
</clipPath>
</defs>
</svg>
