<svg width="168" height="27" viewBox="0 0 168 27" fill="none" xmlns="http://www.w3.org/2000/svg">
<g clip-path="url(#clip0_950_240)">
<path d="M58.3921 23.8165H60.5941V25.5291C59.8624 25.7969 59.0897 25.9349 58.3106 25.9369C57.9261 25.9722 57.5386 25.9266 57.1728 25.8031C56.8071 25.6795 56.4713 25.4807 56.187 25.2195C55.9028 24.9583 55.6764 24.6405 55.5224 24.2865C55.3685 23.9325 55.2903 23.5501 55.2931 23.1641C55.2812 22.7827 55.3504 22.4031 55.496 22.0503C55.6416 21.6976 55.8603 21.3797 56.1377 21.1177C56.4152 20.8557 56.745 20.6554 57.1055 20.5302C57.466 20.405 57.8489 20.3577 58.229 20.3913C59.2892 20.3913 60.1863 20.7175 60.431 21.533H61.4912C61.2465 20.1466 60.1047 19.5757 58.1475 19.5757C55.3746 19.5757 54.3145 21.4515 54.3145 23.1641C54.3145 25.0398 55.5378 26.7524 58.3106 26.7524C59.4316 26.7652 60.5428 26.543 61.5727 26.1V23.0825H58.4737L58.3921 23.8165Z" fill="black"/>
<path d="M67.3632 23.4903H71.1146V22.6748H67.3632V20.5544H71.4408V19.8204H66.3845V26.5078H71.5224V25.7738H67.3632V23.4903Z" fill="black"/>
<path d="M81.7981 25.5291L77.6388 19.8204H76.334V26.5078H77.3126V20.799L81.4718 26.5078H82.7767V19.8204H81.7981V25.5291Z" fill="black"/>
<path d="M88.8108 23.4903H92.6438V22.6748H88.8108V20.5544H92.8884V19.8204H87.8321V26.5078H93.0515V25.7738H88.8108V23.4903Z" fill="black"/>
<path d="M100.393 25.6923L97.7829 19.8204H96.7227L99.8217 26.5078H100.963L104.062 19.8204H103.084L100.393 25.6923Z" fill="black"/>
<path d="M108.791 23.4903H112.543V22.6748H108.791V20.5544H112.869V19.8204H107.813V26.5078H112.951V25.7738H108.791V23.4903Z" fill="black"/>
<path d="M13.0485 12.8068H9.54175L6.27961 8.23982H2.85437V12.8068H0V0.410697H7.1767C8.22613 0.351338 9.27737 0.489659 10.2757 0.818464C11.0018 1.07664 11.6207 1.56993 12.0344 2.22002C12.4481 2.87012 12.6328 3.63977 12.5592 4.40681C12.6361 5.30037 12.3653 6.18914 11.8032 6.88798C11.2411 7.58683 10.431 8.04185 9.54175 8.15827L13.0485 12.8068ZM2.85437 5.71167H7.1767C7.80667 5.7635 8.44086 5.70835 9.05243 5.54856C9.28371 5.44226 9.47752 5.26862 9.60848 5.05035C9.73944 4.83208 9.80145 4.57936 9.78641 4.32526C9.81116 4.06857 9.74223 3.81159 9.59234 3.60174C9.44245 3.3919 9.22172 3.24335 8.97087 3.18351C8.36019 3.01868 7.72511 2.96346 7.09515 3.02041H2.85437V5.71167Z" fill="black"/>
<path d="M29.0337 12.8068H25.9347L24.6298 10.1156H18.1871L16.8822 12.8068H13.7832L19.8997 0.329144H22.9987L29.0337 12.8068ZM23.4881 7.50584L21.3677 3.02041L19.3288 7.50584H23.4881Z" fill="black"/>
<path d="M34.987 12.8068H32.1326V7.91361L26.0977 0.410694H29.7676L33.519 5.3039L37.2705 0.410694H40.9404L34.9054 7.91361V12.8068H34.987Z" fill="black"/>
<path d="M48.6059 12.8068L45.1807 4.56992V12.8068H42.3263V0.410699H46.3224L49.7476 8.72915L53.2544 0.410699H57.2506V12.8884H54.3962V4.56992L51.0525 12.8068H48.6059Z" fill="black"/>
<path d="M67.0361 13.2146C61.4089 13.2146 59.5332 9.54468 59.5332 6.60875C59.5332 3.67283 61.4089 0.00292969 67.0361 0.00292969C72.6633 0.00292969 74.539 3.67283 74.539 6.60875C74.539 9.54468 72.6633 13.2146 67.0361 13.2146ZM67.0361 2.61264C65.2419 2.61264 62.306 3.18351 62.306 6.60875C62.306 10.034 65.2419 10.6049 67.0361 10.6049C68.8303 10.6049 71.7662 10.034 71.7662 6.60875C71.7662 3.18351 68.8303 2.61264 67.0361 2.61264Z" fill="black"/>
<path d="M87.3428 8.64759V0.410699H90.1972V12.8884H87.3428L79.6768 4.56992V12.8068H76.8224V0.410699H79.6768L87.3428 8.64759Z" fill="black"/>
<path d="M106.344 6.60876C106.344 9.38157 105.203 11.3389 102.919 12.2359C101.666 12.6874 100.335 12.8816 99.0047 12.8068H93.1328V0.410698H99.0047C100.335 0.335931 101.666 0.530091 102.919 0.981572C105.203 1.87866 106.344 3.83594 106.344 6.60876ZM103.49 6.60876C103.49 4.81458 102.838 3.83594 101.614 3.34662C100.661 3.07229 99.6685 2.96198 98.6784 3.02041H95.9872V10.2787H98.6784C99.6683 10.3313 100.66 10.2211 101.614 9.95245C102.919 9.38157 103.49 8.40293 103.49 6.60876Z" fill="black"/>
<path d="M129.344 9.05536L132.443 0.329144H135.46L131.056 12.8068H127.794L124.451 3.67283L121.107 12.8068H117.845L113.359 0.410697H116.377L119.476 9.13691L122.656 0.410697H126.082L129.344 9.05536Z" fill="black"/>
<path d="M139.618 10.2787H148.181V12.8884H136.764V0.410694H148.018V3.0204H139.618V5.14079H146.958V7.7505H139.618V10.2787Z" fill="black"/>
<path d="M150.711 0.410699H153.565V12.8884H150.711V0.410699Z" fill="black"/>
<path d="M168 10.2787V12.8884H156.582V0.410694H159.436V10.2787H168Z" fill="black"/>
</g>
<defs>
<clipPath id="clip0_950_240">
<rect width="168" height="27" fill="white" transform="translate(0 0.00146484)"/>
</clipPath>
</defs>
</svg>
