<svg width="168" height="33" viewBox="0 0 168 33" fill="none" xmlns="http://www.w3.org/2000/svg">
<g clip-path="url(#clip0_950_81)">
<path d="M73.9205 14.224C74.4407 14.2175 74.9499 14.3742 75.3765 14.672V11.508H64.4005C65.0445 12.152 64.8485 12.684 64.8485 13.496V20.944C64.8485 21.756 64.8485 22.4 64.4005 22.932H75.3765V19.768C75.1754 19.9351 74.9432 20.0608 74.6933 20.1377C74.4434 20.2146 74.1807 20.2412 73.9205 20.216H67.7605V18.676H73.5565V16.044H67.7605V14.42H73.9205V14.224Z" fill="#1C264A"/>
<path d="M53.5086 14.952C53.5086 14.504 53.8726 14.14 55.9446 14.14C57.106 14.1566 58.2616 14.3069 59.3886 14.588C59.5871 14.6243 59.7732 14.7101 59.9298 14.8373C60.0864 14.9645 60.2084 15.1292 60.2846 15.316L61.5446 12.32C61.1512 12.3791 60.7496 12.3504 60.3686 12.236C58.7368 11.6829 57.0235 11.4084 55.3006 11.424C50.7646 11.424 50.3166 14.224 50.3166 14.952C50.3166 17.388 52.6686 18.116 55.3006 18.396C57.9326 18.676 59.1086 18.48 58.9406 19.488C58.8566 19.936 57.8486 20.384 55.8606 20.384C54.6006 20.384 53.2286 19.936 52.3326 19.572C51.9686 19.292 51.6046 19.208 51.4366 18.76L49.8126 21.756C50.1787 21.7388 50.5455 21.767 50.9046 21.84C52.1646 22.484 54.3486 23.016 56.2526 23.016C60.1446 23.016 61.7966 21.112 61.7966 19.208C61.7966 16.576 59.4446 16.128 56.8966 15.848C55.7766 15.764 53.5086 15.96 53.5086 14.952Z" fill="#1C264A"/>
<path d="M39.8162 14.952C39.8162 14.504 40.1802 14.14 42.2522 14.14C43.4136 14.1566 44.5692 14.3069 45.6962 14.588C45.8947 14.6243 46.0808 14.7101 46.2374 14.8373C46.394 14.9645 46.516 15.1292 46.5922 15.316L47.8522 12.32C47.4588 12.3791 47.0572 12.3504 46.6762 12.236C45.0718 11.6892 43.3872 11.4147 41.6922 11.424C37.1562 11.424 36.7082 14.224 36.7082 14.952C36.7082 17.388 39.0602 18.116 41.6922 18.396C44.3242 18.676 45.5002 18.48 45.3322 19.488C45.2482 19.936 44.2402 20.384 42.2522 20.384C40.9922 20.384 39.6202 19.936 38.7242 19.572C38.3602 19.292 37.9962 19.208 37.8282 18.76L36.2042 21.756C36.5703 21.7388 36.9371 21.767 37.2962 21.84C38.5562 22.484 40.7402 23.016 42.6442 23.016C46.5362 23.016 48.1882 21.112 48.1882 19.208C48.1882 16.576 45.8362 16.128 43.2882 15.848C42.0002 15.764 39.8162 15.96 39.8162 14.952Z" fill="#1C264A"/>
<path d="M31.1079 18.48L36.1759 11.508H31.9199C32.2839 11.788 32.2839 12.152 31.9199 12.404L29.6519 15.4L27.2999 12.236C27.2498 12.1782 27.2121 12.1107 27.1891 12.0378C27.1662 11.9648 27.1584 11.8879 27.1662 11.8118C27.1741 11.7358 27.1975 11.6621 27.2349 11.5954C27.2723 11.5287 27.323 11.4704 27.3839 11.424H23.1279L28.1959 18.396V21.476C28.2297 21.9998 28.0704 22.5179 27.7479 22.932H31.6399C31.4728 22.7309 31.3471 22.4987 31.2702 22.2488C31.1933 21.9989 31.1667 21.7363 31.1919 21.476V18.48H31.1079Z" fill="#1C264A"/>
<path d="M18.5916 12.964C18.5577 12.4402 18.7171 11.9222 19.0396 11.508H15.1476C15.3147 11.7091 15.4403 11.9413 15.5172 12.1912C15.5941 12.4411 15.6207 12.7038 15.5956 12.964V21.504C15.6294 22.0278 15.47 22.5458 15.1476 22.96H25.2276V19.516C25.0265 19.6831 24.7943 19.8088 24.5444 19.8857C24.2945 19.9626 24.0318 19.9892 23.7716 19.964H18.5916V12.964Z" fill="#1C264A"/>
<path d="M12.6 12.964C12.5935 12.4438 12.7502 11.9346 13.048 11.508H9.156C9.604 11.956 9.604 12.404 9.604 13.048V18.032C9.61228 18.2481 9.57687 18.4636 9.49989 18.6657C9.42291 18.8677 9.30594 19.0522 9.156 19.208C8.708 19.852 7.7 20.02 6.524 20.02C5.348 20.02 4.34 19.656 3.892 19.208C3.72889 19.0441 3.60412 18.8461 3.52666 18.6283C3.4492 18.4104 3.42097 18.1781 3.444 17.948V12.88C3.4375 12.3598 3.59418 11.8506 3.892 11.424H0C0.326062 11.8363 0.485893 12.3557 0.448 12.88V17.948C0.441553 19.1847 0.890001 20.3805 1.708 21.308C2.436 22.12 3.976 22.932 6.412 22.932C8.848 22.932 10.304 22.036 11.116 21.308C11.9244 20.3748 12.3715 19.1827 12.376 17.948V12.964H12.6Z" fill="#1C264A"/>
<path d="M167.552 12.964C167.518 12.4402 167.678 11.9222 168 11.508H164.108C164.752 12.152 164.556 12.684 164.556 13.496V18.396L158.648 11.508H155.12C155.764 12.152 155.568 12.684 155.568 13.496V21.308C155.568 21.952 155.484 22.4 155.12 22.848H159.012C158.368 22.204 158.564 21.672 158.564 20.86V15.792L164.724 22.876H167.972C167.805 22.6749 167.679 22.4427 167.602 22.1928C167.525 21.9429 167.499 21.6803 167.524 21.42V12.964H167.552Z" fill="#1C264A"/>
<path d="M152.656 21.392V13.216C152.656 12.572 152.656 12.124 153.104 11.592H149.212C149.66 12.04 149.66 12.488 149.66 13.216V21.392C149.66 22.036 149.66 22.484 149.212 23.016H153.104C152.758 22.5493 152.598 21.9702 152.656 21.392Z" fill="#1C264A"/>
<path d="M141.96 11.508H135.52C136.164 12.152 135.968 12.684 135.968 13.496V20.944C135.968 21.756 135.968 22.4 135.52 22.932H141.96C143.445 22.8862 144.853 22.2645 145.888 21.1984C146.923 20.1324 147.502 18.7056 147.504 17.22C147.504 14.14 145.152 11.676 141.96 11.508ZM141.96 20.048H138.964V14.504H141.96C142.695 14.504 143.4 14.7961 143.92 15.3159C144.44 15.8358 144.732 16.5408 144.732 17.276C144.732 18.0112 144.44 18.7163 143.92 19.2361C143.4 19.756 142.695 20.048 141.96 20.048Z" fill="#1C264A"/>
<path d="M131.264 19.684C132.524 18.956 133.532 17.416 133.532 15.876C133.532 13.524 131.628 11.508 129.36 11.508H121.744C122.192 11.956 122.192 12.404 122.192 13.132V21.392C122.192 22.036 122.108 22.484 121.744 22.932H125.636C125.33 22.5854 125.17 22.134 125.188 21.672V20.216H127.82L130.256 22.932H134.148L131.264 19.684ZM129.36 17.304H125.188V14.308H129.36C130.004 14.308 130.536 15.036 130.536 15.764C130.569 15.9435 130.564 16.1277 130.521 16.3051C130.478 16.4824 130.399 16.6488 130.288 16.7938C130.178 16.9388 130.038 17.059 129.878 17.1469C129.718 17.2347 129.542 17.2882 129.36 17.304Z" fill="#1C264A"/>
<path d="M115.108 11.508H111.104C111.384 11.872 111.468 12.404 111.104 13.132L106.4 22.932H110.208C109.928 22.652 109.928 22.288 110.124 22.12L110.488 21.308H116.648L117.012 22.12C117.096 22.484 117.096 22.764 116.928 22.932H120.736L115.108 11.508ZM111.86 18.396L113.484 14.952L115.108 18.396H111.86Z" fill="#1C264A"/>
<path d="M104.692 21.588V13.048C104.658 12.5242 104.818 12.0062 105.14 11.592H101.248C101.892 12.236 101.696 12.768 101.696 13.58V18.48L95.788 11.592H92.26C92.904 12.236 92.708 12.768 92.708 13.58V21.392C92.708 22.036 92.624 22.484 92.26 22.932H96.152C95.508 22.288 95.704 21.756 95.704 20.944V15.96L101.864 23.044H105.224C104.86 22.568 104.86 22.036 104.692 21.588Z" fill="#1C264A"/>
<path d="M92.4275 26.124L92.8755 27.216C91.4195 27.86 87.9755 28.672 85.6235 28.84L84.8955 10.332L91.0555 9.52L84.7835 8.62401L84.6995 6.72C85.4711 6.56064 86.1635 6.13867 86.6587 5.52598C87.154 4.91329 87.4215 4.1478 87.4155 3.36C87.4155 2.46887 87.0615 1.61425 86.4314 0.984127C85.8013 0.354005 84.9467 0 84.0555 0C83.1682 0.0123102 82.3207 0.370266 81.6933 0.997739C81.0658 1.62521 80.7079 2.4727 80.6955 3.36C80.707 4.1432 80.9808 4.89993 81.4732 5.50909C81.9656 6.11825 82.6481 6.54463 83.4115 6.72L83.3275 8.62401L77.0555 9.52L83.2155 10.332L82.4875 28.84C80.0248 28.5263 77.5969 27.9826 75.2355 27.216L75.6835 26.124L69.5235 25.48L74.2275 29.288L74.6755 28.196L84.0275 32.088L93.3795 28.196L93.8275 29.288L98.5315 25.48L92.4275 26.124ZM82.1795 3.33201C82.1795 2.95543 82.2912 2.58731 82.5004 2.2742C82.7096 1.96109 83.007 1.71705 83.3549 1.57294C83.7028 1.42883 84.0857 1.39112 84.455 1.46459C84.8243 1.53806 85.1636 1.71939 85.4299 1.98567C85.6961 2.25195 85.8775 2.59121 85.951 2.96055C86.0244 3.32989 85.9867 3.71272 85.8426 4.06063C85.6985 4.40854 85.4545 4.70591 85.1413 4.91512C84.8282 5.12434 84.4601 5.236 84.0835 5.236C83.8316 5.24295 83.5809 5.19846 83.3468 5.10523C83.1126 5.01201 82.8999 4.87201 82.7217 4.6938C82.5435 4.5156 82.4035 4.30292 82.3103 4.06878C82.2171 3.83463 82.1726 3.58393 82.1795 3.33201Z" fill="#1C264A"/>
</g>
<defs>
<clipPath id="clip0_950_81">
<rect width="168" height="33" fill="white"/>
</clipPath>
</defs>
</svg>
