<svg width="168" height="89" viewBox="0 0 168 89" fill="none" xmlns="http://www.w3.org/2000/svg">
<g clip-path="url(#clip0_678_1618)">
<path fill-rule="evenodd" clip-rule="evenodd" d="M98.7178 35.0982V14.3334C98.7178 11.007 100.784 10.4022 101.943 10.335V12.7878C101.406 13.023 101.288 13.8462 101.288 14.703V34.9806C101.288 44.6238 93.4595 52.4862 83.8331 52.4862C74.2067 52.4862 66.3779 44.6406 66.3779 34.9806V14.703C66.3779 13.863 66.2603 13.0398 65.7227 12.7878V10.335C66.8819 10.419 68.9482 11.007 68.9482 14.3334V35.0982C68.9482 43.2126 75.6179 49.8318 83.8331 49.8318C92.0483 49.8318 98.7178 43.2126 98.7178 35.0982Z" fill="black"/>
<path fill-rule="evenodd" clip-rule="evenodd" d="M93.8458 35.0646V14.7534C93.8458 8.48702 97.8611 5.61422 101.943 5.47982V8.01662C97.9115 8.18462 96.4499 11.5278 96.4499 14.4342V35.0478C96.4499 38.394 95.1206 41.6031 92.7545 43.9692C90.3884 46.3354 87.1792 47.6646 83.8331 47.6646C80.4869 47.6646 77.2777 46.3354 74.9116 43.9692C72.5455 41.6031 71.2163 38.394 71.2163 35.0478V14.4342C71.2163 11.5446 69.7547 8.20142 65.7227 8.01662V5.47982C69.8051 5.61422 73.8203 8.48702 73.8203 14.7534V35.0478C73.8203 40.6758 78.3227 45.2454 83.8331 45.2454C89.3435 45.2454 93.8458 40.6926 93.8458 35.0646Z" fill="black"/>
<path fill-rule="evenodd" clip-rule="evenodd" d="M65.7216 0.59102C71.0136 0.72542 78.6072 4.27022 78.6072 13.7958V35.367C78.6072 36.7527 79.1577 38.0817 80.1375 39.0615C81.1173 40.0414 82.4463 40.5918 83.832 40.5918C85.2177 40.5918 86.5467 40.0414 87.5265 39.0615C88.5063 38.0817 89.0568 36.7527 89.0568 35.367V13.779C89.0568 4.27022 96.6504 0.708619 101.942 0.574219V3.11102C97.5408 3.24542 91.5936 6.53822 91.5936 13.6446V35.367C91.5936 39.651 88.1832 43.011 83.832 43.011C79.4808 43.011 76.0704 39.651 76.0704 35.367V13.6614C76.0704 6.53822 70.1232 3.26222 65.7216 3.12782V0.59102ZM8.9544 66.5142C8.9544 67.3652 8.61633 68.1814 8.01456 68.7832C7.4128 69.385 6.59663 69.723 5.7456 69.723C4.89457 69.723 4.0784 69.385 3.47664 68.7832C2.87487 68.1814 2.5368 67.3652 2.5368 66.5142V56.787H0V66.5646C0 69.7566 2.5704 72.3774 5.7456 72.3774C6.50454 72.373 7.25518 72.2192 7.95466 71.9247C8.65414 71.6302 9.28877 71.2008 9.8223 70.661C10.3558 70.1212 10.7778 69.4817 11.0642 68.7788C11.3505 68.0759 11.4956 67.3236 11.4912 66.5646V56.787H8.9544V66.5142ZM21.2184 66.6822L15.12 56.787H12.4824V71.8902H15.1704V61.7934L21.4536 71.8902H23.8392V56.787H21.2184V66.6822ZM132.014 66.6822L125.916 56.787H123.278V71.8902H125.966V61.7934L132.25 71.8902H134.635V56.787H132.014V66.6822ZM24.8472 71.8902H27.5016V56.787H24.8472V71.8902ZM34.3056 68.211L30.6096 56.787H27.9552L32.8272 71.8902H35.532L40.488 56.787H37.7832L34.3056 68.211ZM151.922 68.211L148.226 56.787H145.572L150.444 71.8902H153.149L158.088 56.787H155.383L151.922 68.211ZM43.4112 64.5822H49.8624V62.2134H43.4112V59.139H50.0976V56.787H40.9248V71.8902H50.232V69.555H43.4112V64.5822ZM115.298 64.5822H121.75V62.2134H115.298V59.139H121.985V56.787H112.812V71.8902H122.119V69.555H115.298V64.5822ZM138.281 64.5822H144.732V62.2134H138.281V59.139H144.967V56.787H135.794V71.8902H145.102V69.555H138.281V64.5822ZM161.179 69.555V64.5654H167.63V62.1966H161.179V59.1222H167.866V56.787H158.693V71.8902H168V69.555H161.179ZM58.7496 64.2126C59.9088 63.507 60.7992 62.2302 60.7992 60.7686C60.8061 60.2467 60.709 59.7286 60.5134 59.2446C60.3179 58.7606 60.0279 58.3204 59.6604 57.9497C59.2928 57.579 58.8551 57.2853 58.3728 57.0857C57.8905 56.886 57.3732 56.7845 56.8512 56.787H51.5424V71.8902H54.0288V64.5486H55.4232C56.1288 64.5486 56.6664 65.0862 57.7752 67.3038C58.3464 68.4462 60.0432 71.8902 60.0432 71.8902H62.748L59.556 65.3214C59.5392 65.3214 59.0184 64.3974 58.7496 64.2126ZM56.6328 62.1966H54.012V59.1222H56.6328C56.8347 59.1222 57.0346 59.162 57.2211 59.2392C57.4076 59.3165 57.577 59.4297 57.7198 59.5725C57.8625 59.7152 57.9757 59.8847 58.053 60.0712C58.1302 60.2577 58.17 60.4576 58.17 60.6594C58.17 60.8613 58.1302 61.0612 58.053 61.2477C57.9757 61.4342 57.8625 61.6036 57.7198 61.7464C57.577 61.8891 57.4076 62.0024 57.2211 62.0796C57.0346 62.1569 56.8347 62.1966 56.6328 62.1966ZM69.3672 62.5662C68.376 62.2974 65.8896 61.9446 66.0072 60.2982C66.1248 58.6014 69.2832 58.8534 71.5008 59.7942V57.3414C71.5008 57.3414 69.72 56.6862 68.5272 56.6862C66.7296 56.6862 63.252 56.8206 63.252 60.5334C63.252 63.1878 66.0744 64.0278 67.5864 64.5318C69.048 65.019 70.5264 65.5062 70.5264 67.4382C70.5264 69.3702 68.208 69.6894 67.3176 69.7062C65.352 69.7398 62.8824 68.3454 62.8824 68.3454V71.2854C62.8824 71.2854 65.2848 72.1758 67.2672 72.1758C69.636 72.1758 73.3152 70.9998 73.3152 67.1694C73.2984 64.263 70.8288 62.9694 69.3672 62.5662ZM77.8848 56.787L72.3912 71.8902H74.7936L76.9104 66.0438H81.228L83.328 71.8902H85.8984L80.388 56.787H77.8848ZM77.7504 63.7926L79.044 60.1302L80.3712 63.7926H77.7504ZM89.0568 56.787H86.3856V71.8902H95.0376V69.5886H89.0568V56.787ZM99.792 65.2374C99.9096 70.3782 104.042 72.2598 106.966 72.2598C109.234 72.2598 111.552 71.4702 111.552 71.4702V64.3806H108.948V69.6558C108.948 69.6558 102.497 71.2686 102.497 64.5822C102.497 58.887 106.865 59.0718 107.503 59.0718C109.217 59.0718 111.552 59.8446 111.552 59.8446V57.3918C111.552 57.3918 109.267 56.6022 107.621 56.6022C105.252 56.6022 99.6072 57.291 99.792 65.2374ZM42.4536 84.675C42.4704 86.4894 43.5792 87.5646 46.2 87.5646C48.5856 87.5646 49.4592 86.5398 49.4592 85.3974C49.4592 84.3054 48.9384 83.8182 46.8888 83.3814L45.0744 82.995C42.9408 82.5414 42.1176 81.9198 42.1176 80.4414C42.1176 78.963 43.3944 77.9046 45.8136 77.9046C48.2664 77.9046 49.8288 78.8118 49.896 80.8782H49.2744C49.1904 79.7526 48.5688 78.4422 45.9984 78.4422C43.6128 78.4422 42.84 79.3158 42.84 80.4414C42.84 81.483 43.2936 82.0038 45.1584 82.3734L47.1744 82.7766C49.1232 83.163 50.1984 83.7846 50.1984 85.347C50.1984 86.6742 49.3248 88.1022 46.2672 88.1022C43.0752 88.1022 41.832 86.7246 41.832 84.6582L42.4536 84.675ZM58.3632 87.9006H57.7416V86.5062H57.708C57.2712 87.3462 56.3472 88.119 54.7512 88.119C51.5424 88.119 51.5424 86.0694 51.5424 85.2294V80.9118H52.164V85.1958C52.164 86.6238 52.7016 87.5814 54.768 87.5814C56.8344 87.5814 57.7416 86.2878 57.7416 84.9942V80.9118H58.3632V87.9006ZM60.144 78.1398H60.7656V79.5846H60.144V78.1398ZM60.144 80.9118H60.7656V87.9174H60.144V80.9118ZM67.956 82.9614C67.8552 81.8022 67.116 81.231 65.3016 81.231C63.5712 81.231 63.0168 81.903 63.0168 82.6254C63.0168 83.3982 63.588 83.7006 64.428 83.8182L66.6624 84.1206C67.9728 84.3054 68.8632 84.7758 68.8632 86.0358C68.8632 87.9342 66.696 88.119 65.52 88.119C63.588 88.119 62.1936 87.4638 62.1096 85.7166H62.7312C62.8152 86.439 62.9664 87.5814 65.688 87.5814C67.536 87.5814 68.2416 87.027 68.2416 86.0358C68.2416 85.2294 67.6536 84.8766 66.8304 84.759L64.3608 84.423C63.504 84.3222 62.3952 83.9022 62.3952 82.659C62.3952 81.8694 62.9496 80.6766 65.3352 80.6766C67.9392 80.6766 68.5104 81.8526 68.5944 82.9446L67.956 82.9614ZM75.4992 82.9614C75.3984 81.8022 74.6592 81.231 72.8448 81.231C71.1312 81.231 70.56 81.903 70.56 82.6254C70.56 83.3982 71.1312 83.7006 71.9712 83.8182L74.2056 84.1206C75.516 84.3054 76.4064 84.7758 76.4064 86.0358C76.4064 87.9342 74.2392 88.119 73.0632 88.119C71.1312 88.119 69.7368 87.4638 69.6528 85.7166H70.2744C70.3584 86.439 70.5096 87.5814 73.2312 87.5814C75.0792 87.5814 75.7848 87.027 75.7848 86.0358C75.7848 85.2294 75.1968 84.8766 74.3736 84.759L71.9208 84.423C71.064 84.3222 69.9552 83.9022 69.9552 82.659C69.9552 81.8694 70.5096 80.6766 72.8952 80.6766C75.4992 80.6766 76.0704 81.8526 76.1544 82.9446L75.4992 82.9614ZM77.8848 84.5406C77.9352 86.2878 79.1112 87.5814 81.228 87.5814C83.3952 87.5814 83.9664 86.2206 84.2016 85.5822H84.8232C84.2352 87.3462 83.0088 88.119 81.144 88.119C78.7584 88.119 77.2464 86.6742 77.2464 84.339C77.2464 82.8774 78.1704 80.6766 81.1608 80.6766C83.5968 80.6766 84.9912 82.2894 85.0248 84.5238H77.8848V84.5406ZM84.3024 84.003C84.0504 82.0878 82.7064 81.2478 81.0936 81.2478C79.296 81.2478 78.1536 82.3398 77.8848 84.003H84.3024ZM95.9448 87.9006H95.3232V79.3494C94.4832 80.1222 93.3072 80.4918 92.2824 80.5926V80.055C93.2904 80.0046 94.9536 79.299 95.3904 78.2742H95.9448V87.9006ZM101.002 82.6758V82.6422C99.456 82.3062 99.0024 81.4998 99.0024 80.4414C99.0024 78.5598 100.817 78.0558 102.396 78.0558C103.975 78.0558 105.79 78.543 105.79 80.4414C105.79 81.4998 105.336 82.3062 103.79 82.6422V82.6758C104.815 82.8606 106.26 83.4318 106.26 85.2966C106.26 87.0774 104.966 88.119 102.396 88.119C99.8256 88.119 98.5488 87.0606 98.5488 85.2966C98.532 83.4318 99.9768 82.8438 101.002 82.6758ZM102.379 87.5814C103.774 87.5814 105.605 87.1782 105.605 85.2798C105.605 83.8014 104.597 82.9446 102.379 82.9446C100.162 82.9446 99.1536 83.8014 99.1536 85.2798C99.1536 86.6238 100.128 87.5814 102.379 87.5814ZM102.379 82.3902C103.673 82.3902 105.134 82.071 105.134 80.5254C105.134 79.0134 103.639 78.6102 102.379 78.6102C101.035 78.6102 99.624 78.963 99.624 80.559C99.624 82.0878 101.136 82.3902 102.379 82.3902ZM108.528 85.6158C108.662 87.0438 109.956 87.5814 111.25 87.5814C114.223 87.5814 114.559 85.011 114.559 82.7094H114.526C114.223 83.6334 113.182 84.7254 111.3 84.7254C109.284 84.7254 107.722 83.5494 107.722 81.4494C107.722 79.5342 109.116 78.0894 111.384 78.0894C114.29 78.0894 115.181 80.1558 115.181 82.7598C115.181 85.683 114.559 88.1526 111.132 88.1526C109.25 88.1526 107.99 87.1446 107.89 85.6326L108.528 85.6158ZM114.391 81.4326C114.391 80.4414 113.87 78.6102 111.283 78.6102C109.553 78.6102 108.343 79.7022 108.343 81.4326C108.343 82.995 109.368 84.171 111.25 84.171C113.266 84.1542 114.391 83.0118 114.391 81.4326ZM121.884 78.291H122.556V84.927H124.387V85.4646H122.556V87.9174H121.934V85.4646H116.659V84.8262L121.884 78.291ZM117.281 84.9102H121.934V79.0806H121.901L117.281 84.9102Z" fill="black"/>
</g>
<defs>
<clipPath id="clip0_678_1618">
<rect width="168" height="87.5784" fill="white" transform="translate(0 0.574219)"/>
</clipPath>
</defs>
</svg>
