<svg width="190" height="24" overflow="visible" style="display: block;" viewBox="0 0 189.321 23.3284" fill="none" xmlns="http://www.w3.org/2000/svg">
<g id="Group">
<path id="Vector" d="M2.07345 14.8172L0 0.51275H5.10207L7.29977 15.5239C7.64922 17.8536 8.22388 18.7078 9.37321 18.7078C10.5225 18.7078 11.1283 17.8458 11.4777 15.5239L13.6443 0.51275H18.7775L20.9752 15.5239C21.3246 17.8536 21.8993 18.7078 23.0486 18.7078C24.1979 18.7078 24.8037 17.8458 25.1531 15.5239L27.3198 0.51275H32.4529L30.3484 14.8172C29.3932 21.0919 27.576 23.3284 23.367 23.3284C19.158 23.3284 17.3098 20.9366 16.8671 15.2365L16.2925 8.54249H16.1682L15.5625 15.2365C15.1198 20.9366 13.1706 23.3284 9.06259 23.3284C4.95453 23.3284 3.04416 21.0996 2.08121 14.8172H2.07345Z" fill="var(--fill-0, #3A3935)"/>
<path id="Vector_2" d="M55.2923 22.8157H50.1903L49.3593 17.1157H40.2113L39.3804 22.8157H34.2783L36.3207 8.69769C37.307 2.32204 39.5357 9.21143e-05 44.762 9.21143e-05C49.9883 9.21143e-05 52.2482 2.32981 53.2034 8.69769L55.2768 22.8157H55.2923ZM40.918 12.4563H48.6604L48.1789 9.10927C47.6664 5.73118 46.8432 4.61292 44.7698 4.61292C42.6964 4.61292 41.9042 5.73118 41.3917 9.10927L40.9102 12.4563H40.918Z" fill="var(--fill-0, #3A3935)"/>
<path id="Vector_3" d="M67.8797 22.8159H62.7466V5.13335H55.9283V0.51275H74.698V5.13335H67.8797V22.8159Z" fill="var(--fill-0, #3A3935)"/>
<path id="Vector_4" d="M76.8653 11.6642C76.8653 3.69657 80.2434 9.21143e-05 87.4422 9.21143e-05C93.8179 9.21143e-05 97.1261 2.80351 97.8638 8.95395H92.6996C92.156 5.95639 90.5951 4.62069 87.4422 4.62069C83.6215 4.62069 81.9907 6.59318 81.9907 11.6642C81.9907 16.7352 83.6138 18.7077 87.4422 18.7077C90.5951 18.7077 92.156 17.372 92.6996 14.3744H97.8638C97.1338 20.5249 93.8179 23.3283 87.4422 23.3283C80.2434 23.3283 76.8653 19.6318 76.8653 11.6642Z" fill="var(--fill-0, #3A3935)"/>
<path id="Vector_5" d="M115.903 9.01638V0.505166H121.036V22.8083H115.903V13.6603H106.824V22.8083H101.691V0.505166H106.824V9.01638H115.903Z" fill="var(--fill-0, #3A3935)"/>
<path id="Vector_6" d="M143.495 16.6339C143.495 20.7109 139.923 23.3279 134.347 23.3279C128.391 23.3279 124.756 20.6177 124.5 15.966H129.633C130.045 18.0084 131.575 18.9946 134.316 18.9946C136.832 18.9946 138.362 17.9152 138.362 16.067C138.362 14.2187 137.088 13.4888 134.122 13.4888H131.256V9.21762H134.091C136.832 9.21762 137.981 8.54977 137.981 6.9578C137.981 5.36583 136.514 4.34852 134.192 4.34852C131.87 4.34852 130.371 5.24158 130.053 6.92674H124.919C125.3 2.50029 128.678 0.0152595 134.254 0.0152595C139.83 0.0152595 143.114 2.50029 143.114 6.42197C143.114 9.1322 141.779 10.7863 139.263 11.1668C141.973 11.5784 143.503 13.5276 143.503 16.6494L143.495 16.6339Z" fill="var(--fill-0, #979797)"/>
<path id="Vector_7" d="M165.424 15.4226C165.424 20.1675 161.727 23.3281 156.152 23.3281C149.745 23.3281 146.305 19.6937 146.305 12.8133C146.305 4.372 149.807 0.00767581 156.408 0.00767581C161.192 0.00767581 164.376 2.46164 164.95 6.5697H159.848C159.367 5.10198 158.163 4.34094 156.245 4.34094C153.216 4.34094 151.655 6.31343 151.469 10.6156C152.68 9.37312 154.847 8.57325 157.138 8.57325C162.333 8.57325 165.424 11.1204 165.424 15.4226ZM160.291 15.5158C160.291 13.5433 158.854 12.425 156.183 12.425C153.791 12.425 151.438 13.6054 151.438 14.9722C151.438 17.4572 153.224 18.9871 156.027 18.9871C158.606 18.9871 160.299 17.6203 160.299 15.5158H160.291Z" fill="var(--fill-0, #979797)"/>
<path id="Vector_8" d="M168.167 11.6642C168.167 3.69657 171.545 9.21143e-05 178.744 9.21143e-05C185.943 9.21143e-05 189.321 3.69657 189.321 11.6642C189.321 19.6318 185.943 23.3283 178.744 23.3283C171.545 23.3283 168.167 19.6318 168.167 11.6642ZM184.195 11.6642C184.195 6.56212 182.572 4.62069 178.744 4.62069C174.915 4.62069 173.292 6.56212 173.292 11.6642C173.292 16.7663 174.884 18.7077 178.744 18.7077C182.603 18.7077 184.195 16.7663 184.195 11.6642Z" fill="var(--fill-0, #979797)"/>
</g>
</svg>
