<svg width="62" height="56" overflow="visible" style="display: block;" viewBox="0 0 61.7441 55.9966" fill="none" xmlns="http://www.w3.org/2000/svg">
<path id="Vector" d="M28.0429 55.9888C26.614 55.9888 25.1773 55.8801 23.7329 55.6627C16.3477 54.5289 9.84782 50.5994 5.42136 44.581C1.00268 38.5626 -0.798968 31.1929 0.327059 23.8155C2.6723 8.5947 16.9767 -1.89677 32.2286 0.456235C35.8086 1.0076 39.1944 2.21905 42.3007 4.05952C43.4423 4.73514 43.815 6.21063 43.1316 7.35218C42.4483 8.49374 40.9728 8.85873 39.8312 8.18312C37.2608 6.65327 34.4573 5.65149 31.4908 5.19332C18.8716 3.26742 7.0211 11.9417 5.08744 24.5455C4.14779 30.6571 5.65433 36.7532 9.31198 41.7387C12.9696 46.7166 18.359 49.9782 24.4784 50.9178C37.1132 52.8592 48.9559 44.1694 50.8973 31.5734C51.3478 28.6225 51.2313 25.6404 50.5401 22.7361C50.2295 21.4469 51.0371 20.1501 52.3262 19.8472C53.6231 19.5443 54.9122 20.3442 55.2151 21.6333C56.046 25.1434 56.1936 28.7312 55.6422 32.3034C54.5084 39.6731 50.5634 46.1652 44.545 50.5839C39.6992 54.1328 33.9603 55.9966 28.0506 55.9966L28.0429 55.9888ZM29.6892 35.4019L61.0394 4.09835C61.979 3.1587 61.979 1.64439 61.0394 0.704738C60.0997 -0.234913 58.5776 -0.234913 57.638 0.704738L27.9807 30.3076L18.3668 20.7092C17.4271 19.7696 15.9051 19.7696 14.9654 20.7092C14.0258 21.6489 14.0258 23.1632 14.9654 24.1028L26.2801 35.3942C26.746 35.8601 27.3673 36.1008 27.973 36.1008C28.5787 36.1008 29.2 35.8679 29.6659 35.3942H29.6814L29.6892 35.4019Z" fill="var(--fill-0, #3A3935)"/>
</svg>
