<svg width="168" height="63" viewBox="0 0 168 63" fill="none" xmlns="http://www.w3.org/2000/svg">
<path fill-rule="evenodd" clip-rule="evenodd" d="M64.1118 27.778L87.7514 50.6548V28.3294L93.081 28.318V62.961L69.4414 40.1071V62.4196L64.1118 62.4082V27.778ZM58.2373 28.3253V33.1492H40.5957L40.5686 42.8884H55.5717V47.7123H40.5686V57.5902H58.2373V62.4155H35.2404V28.3253H58.2373ZM104.285 28.3233V62.4135H98.9556V28.3233H104.285ZM133.158 28.3233V33.1472H124.347V62.4135H118.97V33.1472H110.16V28.3233H133.158ZM144.362 28.324V42.8886H162.672V28.324H168V62.4128H162.672V47.7125H144.362V62.4128H139.032V28.324H144.362ZM29.5677 28.3214L9.7664 57.592H29.3635V62.4102H0L19.8013 33.1396H2.79264V28.3214H29.5677ZM84.0011 0.501953L86.7238 8.88417H95.5374L88.4065 14.0638L91.1306 22.446L84.0011 17.265L76.8703 22.446L79.5943 14.0638L72.4649 8.88417H81.2771L84.0011 0.501953Z" fill="black"/>
</svg>
